<svg xmlns="http://www.w3.org/2000/svg" width="168" height="153" fill="none" viewBox="0 0 168 153">
  <path fill="#DFFC6E" fill-rule="evenodd" d="M85.102 1.847C111.4-1.16 141.581 3.528 158.337 19.12c16.016 14.903 6.397 36.14 4.77 55.31-1.456 17.157.1 34.802-13.584 48.545-15.65 15.717-38.138 29.789-64.152 29.525-25.798-.262-45.845-15.781-62.262-30.81C8.515 108.33-1.128 92.016.411 74.721c1.448-16.267 16.286-28.77 30.53-41.027C46.633 20.191 61.598 4.536 85.102 1.847Z" clip-rule="evenodd"/>
  <path fill="#000" d="M72.016 58h-6.121V39.09h6.315c1.853 0 3.444.38 4.774 1.137 1.33.75 2.348 1.83 3.056 3.24.714 1.404 1.07 3.087 1.07 5.05 0 1.97-.36 3.663-1.08 5.079-.714 1.416-1.748 2.505-3.102 3.268-1.354.757-2.991 1.136-4.912 1.136Zm-3.268-2.493h3.111c1.44 0 2.638-.27 3.592-.812.954-.548 1.668-1.34 2.142-2.373.474-1.04.71-2.309.71-3.804 0-1.484-.236-2.742-.71-3.776-.468-1.035-1.166-1.82-2.096-2.355-.93-.535-2.084-.803-3.462-.803h-3.287v13.923ZM84.658 58V39.09h11.856v2.457h-9.002v5.761h8.383v2.447h-8.383v5.789h9.112V58H84.66Zm14.734-16.453V39.09h14.634v2.456h-5.9V58h-2.843V41.547h-5.891ZM32.544 89V70.09h2.853v16.454h8.568V89h-11.42Zm14.676 0V70.09h11.855v2.457h-9.002v5.761h8.383v2.447h-8.383v5.789h9.113V89H47.22Zm17.319-18.91 5.263 15.401h.212l5.263-15.4h3.083L71.556 89H68.26l-6.805-18.91h3.084ZM81.09 89V70.09h11.855v2.457h-9.002v5.761h8.384v2.447h-8.384v5.789h9.113V89H81.091Zm30.928-18.91V89h-2.622l-9.612-13.868h-.175V89h-2.853V70.09h2.64l9.621 13.887h.176V70.091h2.825ZM122.302 89h-6.121V70.09h6.315c1.853 0 3.444.38 4.774 1.137 1.329.75 2.348 1.83 3.056 3.24.714 1.404 1.071 3.087 1.071 5.05 0 1.97-.36 3.663-1.08 5.079-.714 1.416-1.749 2.505-3.103 3.268-1.354.757-2.991 1.136-4.912 1.136Zm-3.268-2.493h3.111c1.441 0 2.638-.27 3.592-.812.954-.548 1.668-1.34 2.142-2.373.474-1.04.711-2.309.711-3.804 0-1.484-.237-2.742-.711-3.776-.468-1.035-1.166-1.82-2.096-2.355-.929-.535-2.083-.803-3.462-.803h-3.287v13.923ZM134.945 89V70.09H146.8v2.457h-9.002v5.761h8.383v2.447h-8.383v5.789h9.113V89h-11.966Zm-72.998 31v-18.909h6.74c1.465 0 2.68.252 3.647.757.972.505 1.698 1.203 2.179 2.096.48.886.72 1.911.72 3.074 0 1.158-.243 2.176-.73 3.057-.48.874-1.206 1.554-2.179 2.04-.966.486-2.182.729-3.647.729h-5.105v-2.456h4.847c.923 0 1.674-.132 2.253-.397.585-.264 1.012-.649 1.283-1.154.27-.504.406-1.111.406-1.819 0-.714-.138-1.332-.415-1.855-.271-.524-.699-.924-1.284-1.201-.578-.283-1.338-.424-2.28-.424h-3.583V120h-2.852Zm9.334-8.531L75.953 120h-3.25l-4.58-8.531h3.158Zm19.583-10.378h2.862v12.437c0 1.323-.31 2.496-.932 3.517-.622 1.016-1.496 1.816-2.622 2.401-1.127.579-2.447.868-3.961.868-1.508 0-2.826-.289-3.952-.868-1.126-.585-2-1.385-2.622-2.401-.622-1.021-.933-2.194-.933-3.517v-12.437h2.853v12.206c0 .855.188 1.616.564 2.28a4.09 4.09 0 0 0 1.615 1.57c.696.375 1.52.563 2.475.563.96 0 1.788-.188 2.483-.563a3.95 3.95 0 0 0 1.607-1.57c.375-.664.563-1.425.563-2.28v-12.206Zm7.01 0h3.463l6.02 14.699h.221l6.02-14.699h3.462V120h-2.714v-13.683h-.176l-5.576 13.655h-2.253l-5.577-13.664h-.175V120h-2.715v-18.909Z"/>
</svg>
