<?xml version="1.0" encoding="UTF-8"?><svg xmlns="http://www.w3.org/2000/svg" viewBox="0 0 647 883"><defs><style>.cls-1{stroke-width:2px;}.cls-1,.cls-2,.cls-3,.cls-4{fill:none;}.cls-1,.cls-4{stroke:#dffc6e;}.cls-2{stroke-miterlimit:10;}.cls-2,.cls-3{stroke:#fff;}.cls-3,.cls-4{stroke-width:3px;}.cls-5{isolation:isolate;}.cls-6{fill:#141414;}.cls-6,.cls-7,.cls-8,.cls-9{stroke-width:0px;}.cls-7{fill:#ccc;}.cls-8{fill:#dffc6e;}.cls-9{fill:#fff;}</style></defs><g id="poster_bg"><rect class="cls-6" y="1" width="648" height="881"/></g><g id="blobs"><path class="cls-3" d="m152.56,859.83c-37.41-4.04-79.57-7.15-102.82-34.82-24.17-28.75-26.08-69.53-12.31-102.15,12.24-28.98,48.8-38,78.1-53.65,27.77-14.83,52.87-38.09,85.52-33.72,34.47,4.61,60.53,30.05,81.37,56.04,22.28,27.78,46.03,59.94,37.68,92.42-8.22,31.98-45.25,47.37-77.32,61.9-28.11,12.73-58.34,17.42-90.22,13.97Z"/><path class="cls-4" d="m228,881c-.83-.22-1.85-.54-3-1-1.85-.74-3.23-1.53-4-2-1.15-.7-2.55-1.68-4-3-7.47-5.89-19.15-16.61-28.5-33.38-2.13-3.81-9.31-19.98-13.5-42.62-5-27-3-53,14-75,20-26,43-46,68-67,21-19,38-39,59-58,11-9,23-17,37-22,22-8,46-6,68,1,15,4,30,10,44,18,1.67,1,3.33,2,5,3,19.57,12.01,35.14,23.75,46.69,33.27,0,0,22.9,18.98,46.31,45.73,7,8,12,16,16,25,1,2,2,5,3,7,6,15,7,32-2,47-25.81,43.01-70.73,86.95-85,97-18.69,13.16-39.26,24.08-39.26,24.08-1.91.97-3.83,1.95-5.74,2.92"/><path class="cls-9" d="m294.94,58.08V23.9h21.2v4.44h-16.04v10.41h14.52v4.42h-14.52v14.9h-5.16Z"/><path class="cls-9" d="m327.13,58.08V23.9h12.18c2.65,0,4.85.46,6.6,1.37,1.75.91,3.06,2.17,3.93,3.78.87,1.61,1.3,3.46,1.3,5.57s-.44,3.93-1.31,5.52c-.87,1.59-2.19,2.82-3.94,3.7s-3.95,1.32-6.6,1.32h-9.23v-4.44h8.76c1.67,0,3.03-.24,4.08-.72,1.05-.48,1.82-1.17,2.31-2.09.49-.91.73-2.01.73-3.29s-.25-2.41-.74-3.35-1.27-1.67-2.32-2.18c-1.05-.51-2.43-.76-4.13-.76h-6.48v29.76h-5.16Zm16.87-15.42l8.45,15.42h-5.88l-8.28-15.42h5.71Z"/><path class="cls-9" d="m362.09,58.08V23.9h21.43v4.44h-16.27v10.41h15.15v4.42h-15.15v10.46h16.47v4.44h-21.63Z"/><path class="cls-9" d="m395.08,23.9h6.26l10.88,26.57h.4l10.88-26.57h6.26v34.18h-4.91v-24.73h-.32l-10.08,24.68h-4.07l-10.08-24.7h-.32v24.75h-4.91V23.9Z"/><path class="cls-9" d="m440.24,28.34v-4.44h26.45v4.44h-10.67v29.74h-5.14v-29.74h-10.65Z"/><path class="cls-9" d="m482.33,23.9v34.18h-5.16V23.9h5.16Z"/><path class="cls-9" d="m505.56,58.08h-11.07V23.9h11.42c3.35,0,6.23.68,8.63,2.04,2.4,1.36,4.25,3.32,5.53,5.86s1.93,5.59,1.93,9.14-.65,6.62-1.95,9.18c-1.3,2.56-3.17,4.53-5.62,5.9-2.45,1.37-5.41,2.06-8.88,2.06Zm-5.91-4.51h5.62c2.6,0,4.77-.49,6.49-1.48s3.01-2.41,3.87-4.29c.86-1.87,1.29-4.16,1.29-6.87s-.43-4.96-1.28-6.83c-.85-1.87-2.12-3.29-3.8-4.26-1.68-.97-3.77-1.45-6.26-1.45h-5.94v25.17Z"/><path class="cls-9" d="m533.06,58.08V23.9h21.43v4.44h-16.27v10.41h15.16v4.42h-15.16v10.46h16.47v4.44h-21.63Z"/><path class="cls-9" d="m593.65,23.9v34.18h-4.74l-17.38-25.07h-.32v25.07h-5.16V23.9h4.77l17.39,25.1h.32v-25.1h5.11Z"/><path class="cls-9" d="m624.45,32.88c-.18-1.58-.91-2.81-2.2-3.68-1.29-.87-2.92-1.31-4.87-1.31-1.4,0-2.61.22-3.64.66-1.02.44-1.82,1.04-2.38,1.8-.56.76-.84,1.63-.84,2.6,0,.81.19,1.51.58,2.1.38.59.89,1.08,1.52,1.48.63.4,1.3.72,2.03.98.72.26,1.42.48,2.09.64l3.34.87c1.09.27,2.21.63,3.36,1.08,1.15.46,2.21,1.06,3.19,1.8s1.77,1.67,2.38,2.77c.61,1.1.91,2.42.91,3.96,0,1.94-.5,3.66-1.49,5.16-1,1.5-2.44,2.69-4.32,3.56s-4.16,1.3-6.83,1.3-4.77-.41-6.64-1.22-3.33-1.97-4.39-3.46c-1.06-1.5-1.64-3.27-1.75-5.33h5.17c.1,1.24.5,2.26,1.21,3.08s1.61,1.42,2.72,1.82c1.11.4,2.32.59,3.65.59,1.46,0,2.76-.23,3.9-.69,1.14-.46,2.04-1.11,2.7-1.94.66-.83.99-1.8.99-2.91,0-1.01-.29-1.84-.86-2.49-.57-.65-1.35-1.18-2.32-1.6-.97-.42-2.07-.8-3.3-1.12l-4.04-1.1c-2.74-.75-4.9-1.84-6.5-3.29-1.6-1.45-2.4-3.36-2.4-5.74,0-1.97.54-3.69,1.6-5.16,1.07-1.47,2.51-2.61,4.34-3.43s3.88-1.23,6.17-1.23,4.36.41,6.13,1.22c1.77.81,3.17,1.93,4.2,3.35,1.02,1.42,1.56,3.05,1.6,4.88h-4.97Z"/><path class="cls-9" d="m606.31,105.86v-34.18h21.43v4.44h-16.27v10.41h15.15v4.42h-15.15v10.46h16.47v4.44h-21.63Z"/><path class="cls-9" d="m631.59,130.36h-5.21c-.2-1.11-.57-2.09-1.12-2.94-.55-.85-1.21-1.56-2-2.15-.79-.59-1.67-1.03-2.64-1.33-.97-.3-2.01-.45-3.1-.45-1.97,0-3.73.5-5.28,1.49s-2.78,2.44-3.67,4.36c-.9,1.91-1.34,4.25-1.34,7.01s.45,5.13,1.34,7.04c.9,1.91,2.12,3.36,3.68,4.34,1.56.98,3.31,1.47,5.26,1.47,1.08,0,2.11-.15,3.08-.44.97-.29,1.86-.73,2.64-1.31.79-.58,1.46-1.29,2.01-2.13.55-.84.93-1.81,1.14-2.9l5.21.02c-.28,1.68-.82,3.22-1.61,4.63-.8,1.41-1.81,2.62-3.05,3.64s-2.66,1.81-4.25,2.36c-1.59.56-3.33.83-5.21.83-2.96,0-5.6-.7-7.91-2.11-2.31-1.41-4.14-3.42-5.47-6.05-1.33-2.63-1.99-5.76-1.99-9.4s.67-6.78,2-9.41c1.34-2.62,3.16-4.63,5.47-6.04s4.95-2.11,7.89-2.11c1.81,0,3.51.26,5.08.78s2.99,1.27,4.25,2.27,2.3,2.21,3.12,3.64c.82,1.43,1.38,3.06,1.67,4.9Z"/><path class="cls-9" d="m606.31,200.99v-34.18h21.43v4.44h-16.27v10.41h15.15v4.42h-15.15v10.46h16.47v4.44h-21.63Z"/><path class="cls-9" d="m630.52,214.37v34.18h-4.74l-17.38-25.07h-.32v25.07h-5.16v-34.18h4.77l17.39,25.1h.32v-25.1h5.11Z"/><path class="cls-9" d="m604.87,296.12v-34.18h5.16v16.32h.42l14.34-16.32h6.49l-13.79,15.39,13.84,18.79h-6.21l-11.05-15.27-4.04,4.64v10.63h-5.16Z"/><path class="cls-9" d="m625.13,309.5h5.17v22.48c0,2.39-.56,4.51-1.69,6.35-1.12,1.84-2.7,3.29-4.74,4.34s-4.42,1.58-7.16,1.58-5.11-.53-7.14-1.58-3.62-2.5-4.74-4.34-1.69-3.96-1.69-6.35v-22.48h5.16v22.06c0,1.55.34,2.92,1.03,4.12.68,1.2,1.66,2.14,2.91,2.83,1.26.68,2.75,1.03,4.47,1.03s3.24-.34,4.5-1.03c1.26-.68,2.23-1.63,2.9-2.83.67-1.2,1.01-2.58,1.01-4.12v-22.06Z"/><path class="cls-9" d="m630.52,357.06v34.18h-4.74l-17.38-25.07h-.32v25.07h-5.16v-34.18h4.77l17.39,25.1h.32v-25.1h5.11Z"/><path class="cls-9" d="m624,413.61c-.18-1.58-.91-2.81-2.2-3.68-1.29-.87-2.92-1.31-4.87-1.31-1.4,0-2.61.22-3.64.66-1.02.44-1.82,1.04-2.38,1.8-.56.76-.84,1.63-.84,2.6,0,.81.19,1.51.58,2.1.38.59.89,1.08,1.52,1.48.63.4,1.3.72,2.03.98.72.26,1.42.48,2.09.64l3.34.87c1.09.27,2.21.63,3.36,1.08,1.15.46,2.21,1.06,3.19,1.8.98.75,1.77,1.67,2.38,2.77s.91,2.42.91,3.96c0,1.94-.5,3.65-1.49,5.16-1,1.5-2.44,2.69-4.32,3.55-1.89.87-4.16,1.3-6.83,1.3s-4.77-.41-6.64-1.22c-1.87-.81-3.33-1.97-4.39-3.46-1.06-1.5-1.64-3.27-1.75-5.33h5.17c.1,1.23.5,2.26,1.21,3.08.71.82,1.61,1.42,2.72,1.82,1.11.39,2.32.59,3.65.59,1.46,0,2.76-.23,3.9-.69,1.14-.46,2.04-1.11,2.7-1.94s.99-1.8.99-2.91c0-1.01-.29-1.84-.86-2.49-.57-.65-1.35-1.18-2.32-1.6s-2.07-.79-3.3-1.12l-4.04-1.1c-2.74-.75-4.9-1.84-6.5-3.29-1.6-1.45-2.39-3.36-2.39-5.74,0-1.97.53-3.69,1.6-5.16,1.07-1.47,2.51-2.61,4.34-3.43,1.83-.82,3.88-1.23,6.18-1.23s4.36.41,6.13,1.22c1.77.81,3.17,1.93,4.2,3.35,1.02,1.42,1.56,3.05,1.6,4.88h-4.97Z"/><path class="cls-9" d="m603.5,456.63v-4.44h26.45v4.44h-10.66v29.74h-5.14v-29.74h-10.65Z"/></g><g id="text"><path class="cls-9" d="m256.76,636.37c-1.09,1.15-2.3,1.96-3.63,2.45-1.33.49-2.66.63-3.98.42s-2.52-.76-3.58-1.68l2.23-2.35c.99.77,2.13,1.07,3.42.9,1.29-.17,2.42-.77,3.39-1.79.78-.82,1.29-1.74,1.51-2.74.23-1.01.18-2.02-.15-3.03-.32-1.01-.91-1.92-1.77-2.73-.87-.83-1.84-1.38-2.89-1.66-1.05-.27-2.09-.27-3.12.02-1.03.29-1.95.85-2.77,1.7-.59.61-1.09,1.32-1.52,2.15-.42.83-.68,1.59-.78,2.3l-2.43,2.01-8.7-10.59,9.9-10.4,2.15,2.05-7.96,8.37,5.23,6.32.11-.12c.06-.72.28-1.49.66-2.32.37-.82.88-1.57,1.52-2.24,1.17-1.23,2.5-2.04,4-2.45s3.01-.4,4.55,0c1.53.41,2.95,1.23,4.25,2.47,1.28,1.22,2.15,2.58,2.6,4.11.46,1.52.5,3.06.13,4.6-.37,1.55-1.16,2.95-2.37,4.22Z"/><path class="cls-9" d="m274.6,616.27l-2.37,2.59-13.52-26.15,2.33-2.55,27.23,11.19-2.37,2.59-22.73-9.63-.15.16,11.57,21.81Zm-7.08-8.25l9.56-10.43,2.19,2.01-9.56,10.43-2.19-2.01Z"/><path class="cls-9" d="m285.18,565.95l2.44-2.29,12.52,13.34c1.29,1.38,2.12,2.91,2.49,4.59.37,1.69.25,3.39-.34,5.11s-1.68,3.33-3.26,4.81c-1.58,1.48-3.25,2.47-5,2.95-1.76.48-3.46.49-5.12.01-1.66-.47-3.13-1.4-4.43-2.77l-12.52-13.34,2.44-2.29,12.34,13.14c.92.98,1.96,1.65,3.11,2.01,1.15.36,2.33.38,3.54.06,1.21-.32,2.38-1,3.5-2.06,1.12-1.05,1.88-2.18,2.28-3.37.4-1.19.45-2.37.16-3.54s-.89-2.24-1.82-3.23l-12.34-13.14Z"/><path class="cls-9" d="m316.07,553.89c-.75-.59-1.52-1.06-2.32-1.4-.8-.34-1.62-.54-2.45-.6-.83-.06-1.67.02-2.52.26-.85.24-1.69.63-2.52,1.18-1.37.9-2.37,2.08-3.03,3.52-.65,1.45-.85,3.07-.61,4.88.25,1.81,1.03,3.71,2.35,5.71,1.32,2,2.77,3.46,4.34,4.39,1.58.93,3.17,1.37,4.77,1.32,1.61-.05,3.12-.54,4.55-1.49,1.32-.87,2.3-1.93,2.93-3.16.63-1.23.89-2.56.77-3.97s-.65-2.83-1.58-4.24l.97-.39-6.93,4.58-1.64-2.48,8.78-5.81,1.64,2.48c1.26,1.9,1.94,3.82,2.06,5.75s-.27,3.76-1.18,5.46c-.91,1.7-2.27,3.16-4.11,4.37-2.04,1.35-4.15,2.05-6.33,2.11-2.18.06-4.28-.51-6.31-1.71-2.03-1.2-3.85-3.02-5.46-5.45-1.21-1.82-2.05-3.63-2.52-5.41s-.6-3.49-.38-5.11c.22-1.62.77-3.12,1.63-4.48s2.04-2.53,3.52-3.51c1.22-.8,2.47-1.37,3.77-1.71s2.58-.44,3.84-.33c1.27.12,2.48.45,3.65,1s2.22,1.32,3.17,2.3l-2.88,1.91Z"/><path class="cls-8" d="m343.67,532.05l1.12,34.25-2.79.85-1.12-34.25,2.79-.85Z"/><path class="cls-8" d="m359.78,529.1l-3.35,34.1-2.88.48,3.35-34.1,2.88-.48Z"/><path class="cls-9" d="m388.4,529.62l-.97,27.62-3.34-.12.85-24.11h-.16s-6.9,4.23-6.9,4.23l.12-3.4,7.07-4.34,3.34.12Z"/><path class="cls-9" d="m403.43,559.6c-1.11-.21-2.19-.62-3.24-1.23-1.04-.6-1.94-1.47-2.69-2.6-.75-1.13-1.26-2.58-1.53-4.34-.27-1.76-.18-3.9.26-6.41.42-2.42,1.03-4.53,1.81-6.32.78-1.79,1.71-3.26,2.8-4.39,1.09-1.13,2.29-1.93,3.63-2.38,1.33-.45,2.77-.54,4.3-.27,1.52.27,2.83.81,3.91,1.63s1.91,1.84,2.47,3.06c.56,1.22.83,2.56.8,4.02l-3.24-.57c-.08-1.3-.49-2.43-1.21-3.4-.73-.96-1.81-1.57-3.24-1.82-2.11-.37-3.93.26-5.46,1.88-1.53,1.63-2.6,4.11-3.19,7.45l.21.04c.63-.67,1.33-1.21,2.11-1.62.78-.42,1.61-.7,2.5-.84.88-.15,1.79-.14,2.72.03,1.56.27,2.92.91,4.07,1.91,1.16,1,2.01,2.25,2.55,3.75s.66,3.12.35,4.88c-.29,1.68-.94,3.16-1.94,4.42-1,1.26-2.25,2.19-3.75,2.77-1.51.58-3.17.7-5,.36Zm.51-2.92c1.12.2,2.17.09,3.16-.31.99-.4,1.82-1.03,2.51-1.88.68-.85,1.12-1.85,1.33-3,.2-1.12.13-2.19-.21-3.21-.34-1.01-.89-1.87-1.67-2.57-.78-.7-1.72-1.15-2.84-1.35-.84-.15-1.66-.12-2.44.09-.79.2-1.5.55-2.15,1.03-.65.48-1.19,1.06-1.63,1.75s-.73,1.44-.87,2.25c-.19,1.08-.11,2.14.23,3.16.34,1.03.91,1.91,1.7,2.64.79.73,1.75,1.2,2.88,1.4Z"/><path class="cls-9" d="m420.25,559.46c-.64-.18-1.13-.56-1.46-1.15-.33-.59-.4-1.2-.22-1.84.18-.64.56-1.12,1.15-1.46.59-.33,1.2-.4,1.84-.22.64.18,1.12.57,1.46,1.15.33.59.4,1.2.22,1.84-.12.42-.34.78-.65,1.08-.31.3-.67.5-1.08.61-.41.11-.83.11-1.26-.01Zm3.79-13.46c-.64-.18-1.13-.57-1.46-1.15-.33-.59-.4-1.2-.22-1.84s.57-1.13,1.15-1.46c.59-.33,1.2-.4,1.84-.22s1.13.57,1.46,1.15c.33.59.4,1.2.22,1.84-.12.42-.33.78-.65,1.08s-.67.5-1.08.61c-.41.11-.83.11-1.27-.01Z"/><path class="cls-9" d="m435.15,568.52c-1.67-.63-3.04-1.48-4.12-2.55-1.08-1.07-1.81-2.25-2.18-3.57-.37-1.31-.33-2.66.11-4.04l3.18,1.21c-.25.86-.24,1.68.04,2.48.28.79.76,1.51,1.45,2.15.69.64,1.53,1.15,2.52,1.52,1.11.42,2.17.6,3.17.54,1-.06,1.88-.34,2.63-.85.75-.5,1.3-1.21,1.64-2.12.36-.95.45-1.88.25-2.79-.19-.91-.67-1.74-1.42-2.5-.75-.76-1.78-1.39-3.09-1.88l-2.07-.79,1.06-2.77,2.07.79c1.03.39,2,.55,2.92.47.92-.07,1.73-.36,2.42-.87s1.22-1.21,1.56-2.12c.33-.87.43-1.71.29-2.5-.14-.79-.49-1.51-1.06-2.13-.57-.63-1.32-1.12-2.27-1.49-.89-.34-1.79-.5-2.7-.47-.91.03-1.73.25-2.46.67-.73.42-1.28,1.05-1.64,1.89l-3.03-1.15c.57-1.33,1.42-2.37,2.58-3.1,1.15-.73,2.46-1.15,3.92-1.25,1.46-.1,2.93.13,4.42.7,1.6.61,2.85,1.45,3.74,2.53.9,1.08,1.46,2.26,1.67,3.54.21,1.28.09,2.54-.38,3.75-.55,1.46-1.41,2.55-2.56,3.29-1.15.74-2.45,1.05-3.91.95l-.08.2c1.53.89,2.54,2.07,3.03,3.53.49,1.46.43,3.01-.2,4.65-.53,1.4-1.39,2.52-2.58,3.34-1.18.83-2.55,1.31-4.11,1.45-1.56.14-3.17-.11-4.84-.74Z"/><path class="cls-9" d="m456.32,577.87c-1.82-.91-3.12-2.18-3.9-3.81-.78-1.63-1.04-3.57-.77-5.8.27-2.23,1.08-4.69,2.42-7.38s2.82-4.79,4.44-6.34,3.33-2.51,5.12-2.87c1.78-.36,3.58-.09,5.38.81,1.8.9,3.09,2.17,3.88,3.82s1.04,3.58.77,5.82-1.07,4.69-2.4,7.36c-1.34,2.69-2.83,4.81-4.45,6.37-1.62,1.56-3.32,2.51-5.1,2.87-1.78.35-3.57.08-5.39-.83Zm1.33-2.66c1.8.9,3.64.73,5.5-.51,1.87-1.24,3.6-3.47,5.21-6.69,1.07-2.14,1.75-4.08,2.05-5.81.3-1.73.22-3.2-.24-4.42-.45-1.21-1.28-2.12-2.47-2.71-1.79-.89-3.62-.71-5.51.54-1.88,1.26-3.63,3.49-5.24,6.7-1.07,2.14-1.75,4.07-2.05,5.79-.3,1.72-.22,3.18.24,4.39.46,1.21,1.29,2.11,2.49,2.71Z"/><path class="cls-9" d="m487.18,577.06l-1.5,2.56-10.43-6.12,1.5-2.56,10.42,6.12Z"/><path class="cls-9" d="m507.1,575.16l-15.07,23.17-2.81-1.82,13.15-20.23-.14-.09-8.1.08,1.85-2.85,8.29-.08,2.81,1.82Z"/><path class="cls-9" d="m499.14,603.11l24.19-12.87.12-.18-11.65-8.21,1.71-2.43,14.47,10.2-1.8,2.56-24.18,12.94-2.87-2.02Z"/><path class="cls-9" d="m519,612.89c-.54-.39-.86-.92-.97-1.59-.11-.67.04-1.27.43-1.81.39-.54.92-.86,1.59-.97.67-.11,1.27.04,1.81.43.54.39.86.92.97,1.59.11.67-.04,1.27-.43,1.81-.26.36-.59.62-.98.79s-.8.24-1.23.2c-.42-.04-.82-.19-1.18-.45Zm8.21-11.32c-.54-.39-.86-.92-.97-1.58-.11-.67.04-1.27.43-1.81.39-.54.92-.86,1.58-.97.67-.11,1.27.04,1.81.43.54.39.86.92.97,1.58.11.67-.04,1.27-.43,1.81-.26.36-.59.62-.98.79-.4.17-.8.24-1.23.2-.42-.04-.82-.19-1.18-.45Z"/><path class="cls-9" d="m530.52,626.36c-1.41-1.09-2.48-2.3-3.21-3.63-.73-1.33-1.08-2.68-1.06-4.04.02-1.36.45-2.64,1.27-3.83l2.69,2.08c-.49.75-.71,1.54-.68,2.38s.29,1.66.77,2.47c.48.81,1.14,1.54,1.98,2.19.94.72,1.9,1.2,2.88,1.43.98.23,1.9.22,2.76-.05.86-.27,1.59-.78,2.18-1.55.62-.8.97-1.67,1.04-2.59.08-.92-.14-1.86-.64-2.8s-1.31-1.84-2.42-2.7l-1.75-1.35,1.81-2.35,1.75,1.35c.87.67,1.75,1.1,2.66,1.3.9.19,1.76.15,2.57-.13.81-.28,1.52-.81,2.11-1.58.57-.74.9-1.51,1-2.31.09-.8-.04-1.58-.4-2.35-.36-.76-.94-1.46-1.75-2.08-.75-.58-1.57-.99-2.45-1.23-.88-.24-1.73-.26-2.54-.07s-1.53.64-2.12,1.34l-2.57-1.98c.93-1.11,2.05-1.86,3.36-2.22s2.69-.39,4.11-.06,2.77.97,4.03,1.95c1.35,1.04,2.31,2.21,2.85,3.5.55,1.29.74,2.58.58,3.88-.17,1.29-.65,2.45-1.44,3.49-.95,1.23-2.08,2.04-3.4,2.41-1.32.37-2.65.3-4.02-.21l-.13.17c1.21,1.29,1.83,2.71,1.88,4.25s-.46,3.01-1.53,4.4c-.92,1.19-2.06,2.01-3.43,2.46-1.37.45-2.82.51-4.35.2-1.53-.31-3-1.02-4.42-2.11Z"/><path class="cls-9" d="m548.63,641.18c-1.53-1.34-2.46-2.9-2.81-4.68-.34-1.78-.1-3.71.73-5.8.83-2.09,2.23-4.27,4.21-6.53,1.97-2.25,3.94-3.92,5.91-5.01,1.97-1.09,3.86-1.59,5.68-1.48s3.48.82,5,2.15c1.52,1.33,2.44,2.89,2.78,4.67.34,1.79.1,3.73-.73,5.82-.83,2.09-2.22,4.26-4.19,6.51-1.98,2.26-3.95,3.94-5.92,5.03-1.96,1.1-3.85,1.59-5.66,1.48-1.81-.11-3.48-.83-5.01-2.17Zm1.96-2.23c1.52,1.33,3.33,1.63,5.45.9,2.12-.73,4.37-2.44,6.74-5.15,1.58-1.8,2.73-3.5,3.46-5.1.73-1.6,1.02-3.04.89-4.33-.13-1.29-.7-2.37-1.7-3.25-1.5-1.32-3.32-1.61-5.46-.87-2.14.74-4.4,2.46-6.76,5.15-1.58,1.8-2.73,3.5-3.45,5.08-.72,1.59-1.02,3.03-.88,4.31.14,1.28.71,2.36,1.72,3.25Z"/><path class="cls-9" d="m589.68,642.31l-20.49,18.54-2.25-2.48,20.49-18.54,2.25,2.48Z"/><path class="cls-9" d="m612.68,674.48l1.72,2.87-15.7,9.4c-1.62.97-3.29,1.46-5.02,1.46s-3.37-.47-4.92-1.42c-1.56-.95-2.89-2.35-4.01-4.21-1.11-1.86-1.72-3.7-1.82-5.52-.1-1.82.26-3.49,1.07-5.01s2.03-2.77,3.65-3.74l15.7-9.4,1.72,2.87-15.47,9.26c-1.16.69-2.03,1.56-2.63,2.61-.59,1.05-.87,2.2-.81,3.45.05,1.25.47,2.54,1.26,3.86.79,1.32,1.73,2.3,2.81,2.94,1.08.64,2.22.95,3.43.91,1.2-.03,2.38-.4,3.54-1.09l15.47-9.26Z"/><path class="cls-9" d="m592.7,696.29l26.47-7.94.96,3.21-13.13,3.94.09.31,16.7,7.95,1.26,4.19-15.28-7.53-11.19,15.48-1.16-3.88,9.54-12.9-4.72-2.19-8.58,2.58-.96-3.21Z"/><path class="cls-9" d="m626.13,719.64l-27.5,2.79-.34-3.33,27.5-2.79.34,3.33Z"/><path class="cls-9" d="m610.46,742.01l-13.02,5.56.38-3.87,13.01-5.45-.37,3.76Zm-11.09-14.16l27.5,2.7-.91,9.29c-.21,2.15-.75,3.88-1.61,5.18-.87,1.31-1.97,2.23-3.3,2.77-1.34.54-2.82.73-4.44.57-1.62-.16-3.03-.63-4.21-1.42-1.19-.79-2.07-1.9-2.65-3.34-.58-1.44-.76-3.23-.55-5.36l.74-7.52,3.01.29-.73,7.41c-.14,1.47-.04,2.67.3,3.62.34.94.89,1.66,1.64,2.14.75.49,1.68.78,2.78.89,1.1.11,2.08,0,2.95-.33.86-.33,1.57-.93,2.11-1.79.54-.86.88-2.03,1.03-3.52l.57-5.86-24.55-2.41.33-3.33Z"/><path class="cls-9" d="m596.44,750.21l25.78,9.96-1.21,3.12-12.79-4.94-.12.3,8.32,16.52-1.58,4.08-7.45-15.32-18.33,5.36,1.46-3.78,15.45-4.33-2.38-4.62-8.36-3.23,1.21-3.12Z"/><path class="cls-9" d="m587.28,771.78l23.26,14.92-9,14.04-2.5-1.6,7.2-11.22-7.86-5.04-6.73,10.5-2.5-1.6,6.73-10.5-7.91-5.07-7.31,11.41-2.5-1.6,9.12-14.22Z"/><path class="cls-7" d="m56.3,205.09v-18.18h2.2v8.1h9.69v-8.1h2.2v18.18h-2.2v-8.13h-9.69v8.13h-2.2Z"/><path class="cls-7" d="m86.84,191.45l-5.04,13.64h-2.13l-5.04-13.64h2.27l3.76,10.87h.14l3.76-10.87h2.27Z"/><path class="cls-7" d="m94.37,205.41c-.86,0-1.65-.16-2.35-.49-.7-.33-1.26-.8-1.68-1.43-.41-.62-.62-1.38-.62-2.27,0-.78.15-1.42.46-1.9.31-.49.72-.87,1.23-1.15.51-.28,1.08-.49,1.71-.63.62-.14,1.25-.25,1.89-.33.83-.11,1.5-.19,2.02-.24.52-.06.9-.15,1.14-.29s.36-.37.36-.71v-.07c0-.88-.24-1.56-.71-2.04-.48-.49-1.2-.73-2.16-.73s-1.78.22-2.35.66c-.57.44-.97.91-1.2,1.4l-1.99-.71c.35-.83.83-1.48,1.42-1.94.6-.46,1.25-.79,1.95-.98.71-.19,1.4-.28,2.09-.28.44,0,.94.05,1.51.16s1.12.32,1.66.63c.54.32.98.8,1.34,1.45.35.65.53,1.51.53,2.59v8.98h-2.09v-1.85h-.11c-.14.3-.38.61-.71.95s-.77.62-1.32.86c-.55.24-1.22.36-2.02.36Zm.32-1.88c.83,0,1.53-.16,2.1-.49.57-.33,1-.75,1.3-1.26.29-.51.44-1.06.44-1.62v-1.92c-.09.11-.28.2-.58.29-.3.09-.64.16-1.03.22-.39.06-.76.12-1.13.16-.36.04-.66.08-.88.11-.54.07-1.05.19-1.52.34-.47.16-.85.39-1.14.7s-.43.73-.43,1.27c0,.73.27,1.28.81,1.65.54.37,1.23.55,2.06.55Z"/><path class="cls-7" d="m110.78,205.37c-1.14,0-2.14-.29-3.01-.87s-1.55-1.39-2.04-2.45-.74-2.31-.74-3.75.25-2.68.74-3.73c.49-1.05,1.17-1.87,2.05-2.44s1.89-.86,3.04-.86c.89,0,1.59.15,2.11.44.52.29.91.62,1.19.99.28.37.49.67.64.91h.18v-6.71h2.1v18.18h-2.02v-2.1h-.25c-.15.25-.37.56-.66.94-.28.38-.69.71-1.22,1s-1.23.44-2.1.44Zm.28-1.88c.84,0,1.55-.22,2.13-.66s1.02-1.05,1.32-1.84.45-1.69.45-2.72-.15-1.91-.44-2.68c-.3-.77-.73-1.36-1.31-1.79-.58-.43-1.3-.64-2.15-.64s-1.63.23-2.22.68c-.59.45-1.03,1.06-1.32,1.84s-.44,1.64-.44,2.6.15,1.85.45,2.64c.3.79.74,1.42,1.33,1.88.59.46,1.32.7,2.2.7Z"/><path class="cls-7" d="m140.19,194.51l-1.88.53c-.12-.31-.29-.62-.52-.92-.23-.3-.54-.55-.93-.74s-.89-.29-1.5-.29c-.83,0-1.53.19-2.08.57-.55.38-.83.87-.83,1.45,0,.52.19.93.57,1.23s.97.55,1.78.75l2.02.5c1.22.3,2.13.75,2.73,1.35.6.61.9,1.39.9,2.34,0,.78-.22,1.48-.67,2.1-.45.62-1.07,1.1-1.87,1.46-.8.35-1.73.53-2.79.53-1.39,0-2.54-.3-3.45-.91-.91-.6-1.49-1.49-1.73-2.65l1.99-.5c.19.73.55,1.28,1.08,1.65.53.37,1.22.55,2.08.55.98,0,1.75-.21,2.33-.63.58-.42.87-.92.87-1.5,0-.47-.17-.87-.5-1.19-.33-.32-.84-.56-1.53-.72l-2.27-.53c-1.25-.3-2.17-.76-2.75-1.38-.58-.62-.87-1.41-.87-2.35,0-.77.22-1.45.65-2.04s1.03-1.06,1.78-1.39c.75-.34,1.61-.51,2.57-.51,1.35,0,2.41.3,3.18.89.77.59,1.32,1.37,1.65,2.34Z"/><path class="cls-7" d="m144.77,205.09v-18.18h2.1v18.18h-2.1Zm1.95-4.97l-.04-2.59h.43l5.97-6.07h2.59l-6.36,6.43h-.18l-2.42,2.24Zm6.71,4.97l-5.33-6.75,1.49-1.46,6.5,8.2h-2.66Z"/><path class="cls-7" d="m163.56,205.41c-.86,0-1.65-.16-2.35-.49-.7-.33-1.26-.8-1.68-1.43-.41-.62-.62-1.38-.62-2.27,0-.78.15-1.42.46-1.9.31-.49.72-.87,1.23-1.15.51-.28,1.08-.49,1.71-.63.62-.14,1.25-.25,1.89-.33.83-.11,1.5-.19,2.02-.24.52-.06.9-.15,1.14-.29s.36-.37.36-.71v-.07c0-.88-.24-1.56-.71-2.04-.48-.49-1.2-.73-2.16-.73s-1.78.22-2.35.66c-.57.44-.97.91-1.2,1.4l-1.99-.71c.35-.83.83-1.48,1.42-1.94.6-.46,1.25-.79,1.95-.98.71-.19,1.4-.28,2.09-.28.44,0,.94.05,1.51.16s1.12.32,1.66.63c.54.32.98.8,1.34,1.45.35.65.53,1.51.53,2.59v8.98h-2.09v-1.85h-.11c-.14.3-.38.61-.71.95s-.77.62-1.32.86c-.55.24-1.22.36-2.02.36Zm.32-1.88c.83,0,1.53-.16,2.1-.49.57-.33,1-.75,1.3-1.26.29-.51.44-1.06.44-1.62v-1.92c-.09.11-.28.2-.58.29-.3.09-.64.16-1.03.22-.39.06-.76.12-1.13.16-.36.04-.66.08-.88.11-.54.07-1.05.19-1.52.34-.47.16-.85.39-1.14.7s-.43.73-.43,1.27c0,.73.27,1.28.81,1.65.54.37,1.23.55,2.06.55Z"/><path class="cls-7" d="m176.92,186.91v18.18h-2.1v-18.18h2.1Z"/><path class="cls-7" d="m199.79,194.51l-1.88.53c-.12-.31-.29-.62-.52-.92-.23-.3-.54-.55-.93-.74s-.89-.29-1.5-.29c-.83,0-1.53.19-2.08.57-.55.38-.83.87-.83,1.45,0,.52.19.93.57,1.23s.97.55,1.78.75l2.02.5c1.22.3,2.13.75,2.73,1.35.6.61.9,1.39.9,2.34,0,.78-.22,1.48-.67,2.1-.45.62-1.07,1.1-1.87,1.46-.8.35-1.73.53-2.79.53-1.39,0-2.54-.3-3.45-.91-.91-.6-1.49-1.49-1.73-2.65l1.99-.5c.19.73.55,1.28,1.08,1.65.53.37,1.22.55,2.08.55.98,0,1.75-.21,2.33-.63.58-.42.87-.92.87-1.5,0-.47-.17-.87-.5-1.19-.33-.32-.84-.56-1.53-.72l-2.27-.53c-1.25-.3-2.17-.76-2.75-1.38-.58-.62-.87-1.41-.87-2.35,0-.77.22-1.45.65-2.04s1.03-1.06,1.78-1.39c.75-.34,1.61-.51,2.57-.51,1.35,0,2.41.3,3.18.89.77.59,1.32,1.37,1.65,2.34Z"/><path class="cls-7" d="m209.92,205.37c-1.28,0-2.38-.3-3.3-.91-.92-.6-1.63-1.44-2.13-2.49-.5-1.06-.75-2.27-.75-3.63s.26-2.61.77-3.67c.51-1.06,1.23-1.89,2.15-2.49.92-.6,2-.9,3.23-.9.96,0,1.82.18,2.59.53s1.4.85,1.89,1.49c.49.64.8,1.38.91,2.24h-2.1c-.16-.62-.51-1.17-1.06-1.66-.55-.48-1.28-.72-2.21-.72-.82,0-1.53.21-2.14.63-.61.42-1.09,1.02-1.43,1.78-.34.77-.51,1.66-.51,2.69s.17,1.97.5,2.75.81,1.39,1.42,1.82c.61.43,1.33.65,2.16.65.54,0,1.04-.09,1.48-.28.44-.19.82-.46,1.13-.82.31-.36.53-.78.66-1.28h2.1c-.12.8-.41,1.53-.87,2.17-.46.64-1.08,1.15-1.84,1.53-.76.38-1.64.56-2.65.56Z"/><path class="cls-7" d="m225.23,205.37c-1.31,0-2.45-.29-3.4-.87-.95-.58-1.68-1.4-2.19-2.45-.51-1.05-.77-2.27-.77-3.67s.26-2.63.77-3.7c.51-1.07,1.23-1.9,2.15-2.5.92-.6,2-.9,3.23-.9.71,0,1.41.12,2.1.35.69.24,1.32.62,1.89,1.15.57.53,1.02,1.23,1.36,2.1s.51,1.94.51,3.21v.89h-10.51v-1.81h8.38c0-.77-.15-1.46-.46-2.06-.3-.6-.74-1.08-1.3-1.43-.56-.35-1.22-.52-1.98-.52-.83,0-1.56.21-2.16.62-.61.41-1.07.95-1.4,1.6-.33.66-.49,1.36-.49,2.11v1.21c0,1.03.18,1.9.54,2.61.36.71.86,1.25,1.5,1.62.64.37,1.38.55,2.23.55.55,0,1.05-.08,1.5-.24.45-.16.83-.39,1.16-.71.33-.32.58-.71.75-1.19l2.02.57c-.21.69-.57,1.29-1.07,1.81-.5.52-1.12.92-1.86,1.21-.74.29-1.57.43-2.49.43Z"/><path class="cls-7" d="m237.34,196.88v8.2h-2.1v-13.64h2.02v2.13h.18c.32-.69.81-1.25,1.46-1.67.65-.42,1.49-.63,2.52-.63.92,0,1.73.19,2.42.56.69.38,1.23.94,1.62,1.7.38.76.58,1.72.58,2.88v8.66h-2.1v-8.52c0-1.07-.28-1.91-.83-2.51-.56-.6-1.32-.9-2.29-.9-.67,0-1.26.15-1.79.44s-.94.71-1.24,1.27c-.3.56-.45,1.23-.45,2.02Z"/><path class="cls-7" d="m256.77,205.37c-1.31,0-2.45-.29-3.4-.87-.95-.58-1.68-1.4-2.19-2.45-.51-1.05-.77-2.27-.77-3.67s.26-2.63.77-3.7c.51-1.07,1.23-1.9,2.15-2.5.92-.6,2-.9,3.23-.9.71,0,1.41.12,2.1.35.69.24,1.32.62,1.89,1.15.57.53,1.02,1.23,1.36,2.1s.51,1.94.51,3.21v.89h-10.51v-1.81h8.38c0-.77-.15-1.46-.46-2.06-.3-.6-.74-1.08-1.3-1.43-.56-.35-1.22-.52-1.98-.52-.83,0-1.56.21-2.16.62-.61.41-1.07.95-1.4,1.6-.33.66-.49,1.36-.49,2.11v1.21c0,1.03.18,1.9.54,2.61.36.71.86,1.25,1.5,1.62.64.37,1.38.55,2.23.55.55,0,1.05-.08,1.5-.24.45-.16.83-.39,1.16-.71.33-.32.58-.71.75-1.19l2.02.57c-.21.69-.57,1.29-1.07,1.81-.5.52-1.12.92-1.86,1.21-.74.29-1.57.43-2.49.43Z"/><path class="cls-7" d="m266.78,205.09v-18.18h2.1v18.18h-2.1Zm1.95-4.97l-.04-2.59h.43l5.97-6.07h2.59l-6.36,6.43h-.18l-2.42,2.24Zm6.71,4.97l-5.33-6.75,1.49-1.46,6.5,8.2h-2.66Z"/><path class="cls-7" d="m290.15,199.51v-8.06h2.1v13.64h-2.1v-2.31h-.14c-.32.69-.82,1.28-1.49,1.76s-1.53.72-2.56.72c-.85,0-1.61-.19-2.27-.56-.66-.38-1.18-.94-1.56-1.7-.38-.76-.57-1.72-.57-2.88v-8.66h2.1v8.52c0,.99.28,1.79.84,2.38.56.59,1.27.89,2.14.89.52,0,1.05-.13,1.59-.4s1-.67,1.37-1.23c.37-.55.55-1.25.55-2.1Z"/><path class="cls-7" d="m299.35,196.88v8.2h-2.1v-13.64h2.02v2.13h.18c.32-.69.81-1.25,1.46-1.67.65-.42,1.49-.63,2.52-.63.92,0,1.73.19,2.42.56.69.38,1.23.94,1.62,1.7.38.76.58,1.72.58,2.88v8.66h-2.1v-8.52c0-1.07-.28-1.91-.83-2.51-.56-.6-1.32-.9-2.29-.9-.67,0-1.26.15-1.79.44s-.94.71-1.24,1.27c-.3.56-.45,1.23-.45,2.02Z"/><path class="cls-7" d="m322.72,194.51l-1.88.53c-.12-.31-.29-.62-.52-.92-.23-.3-.54-.55-.93-.74s-.89-.29-1.5-.29c-.83,0-1.53.19-2.08.57-.55.38-.83.87-.83,1.45,0,.52.19.93.57,1.23s.97.55,1.78.75l2.02.5c1.22.3,2.13.75,2.73,1.35.6.61.9,1.39.9,2.34,0,.78-.22,1.48-.67,2.1-.45.62-1.07,1.1-1.87,1.46-.8.35-1.73.53-2.79.53-1.39,0-2.54-.3-3.45-.91-.91-.6-1.49-1.49-1.73-2.65l1.99-.5c.19.73.55,1.28,1.08,1.65.53.37,1.22.55,2.08.55.98,0,1.75-.21,2.33-.63.58-.42.87-.92.87-1.5,0-.47-.17-.87-.5-1.19-.33-.32-.84-.56-1.53-.72l-2.27-.53c-1.25-.3-2.17-.76-2.75-1.38-.58-.62-.87-1.41-.87-2.35,0-.77.22-1.45.65-2.04s1.03-1.06,1.78-1.39c.75-.34,1.61-.51,2.57-.51,1.35,0,2.41.3,3.18.89.77.59,1.32,1.37,1.65,2.34Z"/><path class="cls-7" d="m333.24,191.45v1.78h-7.07v-1.78h7.07Zm-5.01-3.27h2.1v13c0,.59.09,1.03.26,1.33.17.29.4.49.67.59.28.1.57.15.87.15.23,0,.42-.01.57-.04.15-.03.27-.05.35-.07l.43,1.88c-.14.05-.34.11-.59.16-.25.06-.58.08-.97.08-.59,0-1.17-.13-1.74-.38-.56-.25-1.03-.64-1.4-1.16-.37-.52-.56-1.18-.56-1.97v-13.57Z"/><path class="cls-7" d="m343.15,205.37c-1.31,0-2.45-.29-3.4-.87-.95-.58-1.68-1.4-2.19-2.45-.51-1.05-.77-2.27-.77-3.67s.26-2.63.77-3.7c.51-1.07,1.23-1.9,2.15-2.5.92-.6,2-.9,3.23-.9.71,0,1.41.12,2.1.35.69.24,1.32.62,1.89,1.15.57.53,1.02,1.23,1.36,2.1s.51,1.94.51,3.21v.89h-10.51v-1.81h8.38c0-.77-.15-1.46-.46-2.06-.3-.6-.74-1.08-1.3-1.43-.56-.35-1.22-.52-1.98-.52-.83,0-1.56.21-2.16.62-.61.41-1.07.95-1.4,1.6-.33.66-.49,1.36-.49,2.11v1.21c0,1.03.18,1.9.54,2.61.36.71.86,1.25,1.5,1.62.64.37,1.38.55,2.23.55.55,0,1.05-.08,1.5-.24.45-.16.83-.39,1.16-.71.33-.32.58-.71.75-1.19l2.02.57c-.21.69-.57,1.29-1.07,1.81-.5.52-1.12.92-1.86,1.21-.74.29-1.57.43-2.49.43Z"/><path class="cls-7" d="m355.26,196.88v8.2h-2.1v-13.64h2.02v2.13h.18c.32-.69.81-1.25,1.46-1.67.65-.42,1.49-.63,2.52-.63.92,0,1.73.19,2.42.56.69.38,1.23.94,1.62,1.7.38.76.58,1.72.58,2.88v8.66h-2.1v-8.52c0-1.07-.28-1.91-.83-2.51-.56-.6-1.32-.9-2.29-.9-.67,0-1.26.15-1.79.44s-.94.71-1.24,1.27c-.3.56-.45,1.23-.45,2.02Z"/><path class="cls-7" d="m371.7,199.97v-.11c.01-1.13.13-2.03.36-2.7.22-.67.54-1.21.96-1.62.41-.41.91-.8,1.49-1.15.35-.21.66-.47.94-.76s.5-.63.66-1.02c.16-.38.24-.81.24-1.28,0-.58-.14-1.08-.41-1.51-.27-.43-.64-.75-1.09-.99-.46-.23-.96-.35-1.52-.35-.49,0-.95.1-1.4.3s-.83.52-1.13.95-.48,1-.52,1.7h-2.24c.05-1.01.31-1.87.79-2.58.48-.72,1.11-1.26,1.89-1.64.78-.38,1.66-.57,2.61-.57,1.04,0,1.95.21,2.72.62.77.41,1.37.98,1.79,1.7s.63,1.54.63,2.47c0,.65-.1,1.24-.3,1.77s-.48,1-.85,1.41c-.37.41-.82.78-1.34,1.1-.52.33-.94.67-1.25,1.03-.31.36-.54.78-.68,1.27-.14.49-.22,1.1-.23,1.84v.11h-2.13Zm1.14,5.26c-.44,0-.81-.16-1.13-.47s-.47-.69-.47-1.13.16-.81.47-1.13c.31-.31.69-.47,1.13-.47s.81.16,1.13.47c.31.31.47.69.47,1.13,0,.29-.07.56-.22.8s-.34.44-.58.58c-.24.15-.51.22-.8.22Z"/><path class="cls-7" d="m57.3,294.09v-18.18h2.2v8.1h9.69v-8.1h2.2v18.18h-2.2v-8.13h-9.69v8.13h-2.2Z"/><path class="cls-7" d="m87.84,280.45l-5.04,13.64h-2.13l-5.04-13.64h2.27l3.76,10.87h.14l3.76-10.87h2.27Z"/><path class="cls-7" d="m95.37,294.41c-.86,0-1.65-.16-2.35-.49-.7-.33-1.26-.8-1.68-1.43-.41-.62-.62-1.38-.62-2.27,0-.78.15-1.42.46-1.9.31-.49.72-.87,1.23-1.15.51-.28,1.08-.49,1.71-.63.62-.14,1.25-.25,1.89-.33.83-.11,1.5-.19,2.02-.24.52-.06.9-.15,1.14-.29s.36-.37.36-.71v-.07c0-.88-.24-1.56-.71-2.04-.48-.49-1.2-.73-2.16-.73s-1.78.22-2.35.66c-.57.44-.97.91-1.2,1.4l-1.99-.71c.35-.83.83-1.48,1.42-1.94.6-.46,1.25-.79,1.95-.98.71-.19,1.4-.28,2.09-.28.44,0,.94.05,1.51.16s1.12.32,1.66.63c.54.32.98.8,1.34,1.45.35.65.53,1.51.53,2.59v8.98h-2.09v-1.85h-.11c-.14.3-.38.61-.71.95s-.77.62-1.32.86c-.55.24-1.22.36-2.02.36Zm.32-1.88c.83,0,1.53-.16,2.1-.49.57-.33,1-.75,1.3-1.26.29-.51.44-1.06.44-1.62v-1.92c-.09.11-.28.2-.58.29-.3.09-.64.16-1.03.22-.39.06-.76.12-1.13.16-.36.04-.66.08-.88.11-.54.07-1.05.19-1.52.34-.47.16-.85.39-1.14.7s-.43.73-.43,1.27c0,.73.27,1.28.81,1.65.54.37,1.23.55,2.06.55Z"/><path class="cls-7" d="m111.78,294.37c-1.14,0-2.14-.29-3.01-.87s-1.55-1.39-2.04-2.45-.74-2.31-.74-3.75.25-2.68.74-3.73c.49-1.05,1.17-1.87,2.05-2.44s1.89-.86,3.04-.86c.89,0,1.59.15,2.11.44.52.29.91.62,1.19.99.28.37.49.67.64.91h.18v-6.71h2.1v18.18h-2.02v-2.1h-.25c-.15.25-.37.56-.66.94-.28.38-.69.71-1.22,1s-1.23.44-2.1.44Zm.28-1.88c.84,0,1.55-.22,2.13-.66s1.02-1.05,1.32-1.84.45-1.69.45-2.72-.15-1.91-.44-2.68c-.3-.77-.73-1.36-1.31-1.79-.58-.43-1.3-.64-2.15-.64s-1.63.23-2.22.68c-.59.45-1.03,1.06-1.32,1.84s-.44,1.64-.44,2.6.15,1.85.45,2.64c.3.79.74,1.42,1.33,1.88.59.46,1.32.7,2.2.7Z"/><path class="cls-7" d="m137.25,294.37c-1.31,0-2.45-.29-3.4-.87-.95-.58-1.68-1.4-2.19-2.45-.51-1.05-.77-2.27-.77-3.67s.26-2.63.77-3.7c.51-1.07,1.23-1.9,2.15-2.5.92-.6,2-.9,3.23-.9.71,0,1.41.12,2.1.35.69.24,1.32.62,1.89,1.15.57.53,1.02,1.23,1.36,2.1s.51,1.94.51,3.21v.89h-10.51v-1.81h8.38c0-.77-.15-1.46-.46-2.06-.3-.6-.74-1.08-1.3-1.43-.56-.35-1.22-.52-1.98-.52-.83,0-1.56.21-2.16.62-.61.41-1.07.95-1.4,1.6-.33.66-.49,1.36-.49,2.11v1.21c0,1.03.18,1.9.54,2.61.36.71.86,1.25,1.5,1.62.64.37,1.38.55,2.23.55.55,0,1.05-.08,1.5-.24.45-.16.83-.39,1.16-.71.33-.32.58-.71.75-1.19l2.02.57c-.21.69-.57,1.29-1.07,1.81-.5.52-1.12.92-1.86,1.21-.74.29-1.57.43-2.49.43Z"/><path class="cls-7" d="m147.27,294.09v-13.64h2.02v2.06h.14c.25-.67.7-1.22,1.35-1.64.65-.42,1.39-.63,2.2-.63.15,0,.35,0,.58,0s.41.01.52.03v2.13c-.07-.02-.23-.05-.48-.08s-.52-.06-.79-.06c-.66,0-1.25.14-1.77.41-.52.28-.93.65-1.23,1.14s-.45,1.03-.45,1.65v8.63h-2.1Z"/><path class="cls-7" d="m171.1,294.37c-1.14,0-2.14-.29-3.01-.87s-1.55-1.39-2.04-2.45-.74-2.31-.74-3.75.25-2.68.74-3.73c.49-1.05,1.17-1.87,2.05-2.44s1.89-.86,3.04-.86c.89,0,1.59.15,2.11.44.52.29.91.62,1.19.99.28.37.49.67.64.91h.18v-6.71h2.1v18.18h-2.02v-2.1h-.25c-.15.25-.37.56-.66.94-.28.38-.69.71-1.22,1s-1.23.44-2.1.44Zm.28-1.88c.84,0,1.55-.22,2.13-.66s1.02-1.05,1.32-1.84.45-1.69.45-2.72-.15-1.91-.44-2.68c-.3-.77-.73-1.36-1.31-1.79-.58-.43-1.3-.64-2.15-.64s-1.63.23-2.22.68c-.59.45-1.03,1.06-1.32,1.84s-.44,1.64-.44,2.6.15,1.85.45,2.64c.3.79.74,1.42,1.33,1.88.59.46,1.32.7,2.2.7Z"/><path class="cls-7" d="m183.71,278.18c-.41,0-.76-.14-1.05-.42s-.44-.61-.44-1,.15-.73.44-1c.29-.28.64-.42,1.05-.42s.76.14,1.05.42c.29.28.44.61.44,1s-.15.73-.44,1-.64.42-1.05.42Zm-1.07,15.91v-13.64h2.1v13.64h-2.1Z"/><path class="cls-7" d="m191.84,285.88v8.2h-2.1v-13.64h2.02v2.13h.18c.32-.69.81-1.25,1.46-1.67.65-.42,1.49-.63,2.52-.63.92,0,1.73.19,2.42.56.69.38,1.23.94,1.62,1.7.38.76.58,1.72.58,2.88v8.66h-2.1v-8.52c0-1.07-.28-1.91-.83-2.51-.56-.6-1.32-.9-2.29-.9-.67,0-1.26.15-1.79.44s-.94.71-1.24,1.27c-.3.56-.45,1.23-.45,2.02Z"/><path class="cls-7" d="m211.27,294.37c-1.31,0-2.45-.29-3.4-.87-.95-.58-1.68-1.4-2.19-2.45-.51-1.05-.77-2.27-.77-3.67s.26-2.63.77-3.7c.51-1.07,1.23-1.9,2.15-2.5.92-.6,2-.9,3.23-.9.71,0,1.41.12,2.1.35.69.24,1.32.62,1.89,1.15.57.53,1.02,1.23,1.36,2.1s.51,1.94.51,3.21v.89h-10.51v-1.81h8.38c0-.77-.15-1.46-.46-2.06-.3-.6-.74-1.08-1.3-1.43-.56-.35-1.22-.52-1.98-.52-.83,0-1.56.21-2.16.62-.61.41-1.07.95-1.4,1.6-.33.66-.49,1.36-.49,2.11v1.21c0,1.03.18,1.9.54,2.61.36.71.86,1.25,1.5,1.62.64.37,1.38.55,2.23.55.55,0,1.05-.08,1.5-.24.45-.16.83-.39,1.16-.71.33-.32.58-.71.75-1.19l2.02.57c-.21.69-.57,1.29-1.07,1.81-.5.52-1.12.92-1.86,1.21-.74.29-1.57.43-2.49.43Z"/><path class="cls-7" d="m235.04,294.37c-1.23,0-2.31-.29-3.24-.88s-1.65-1.41-2.17-2.46c-.52-1.05-.78-2.28-.78-3.69s.26-2.66.78-3.72,1.24-1.88,2.17-2.47,2-.88,3.24-.88,2.31.29,3.24.88,1.65,1.41,2.17,2.47c.52,1.06.78,2.3.78,3.72s-.26,2.64-.78,3.69c-.52,1.05-1.24,1.87-2.17,2.46s-2,.88-3.24.88Zm0-1.88c.94,0,1.7-.24,2.31-.72.6-.48,1.05-1.11,1.34-1.89s.44-1.63.44-2.54-.15-1.76-.44-2.55-.74-1.42-1.34-1.91-1.37-.73-2.31-.73-1.7.24-2.31.73c-.6.49-1.05,1.12-1.34,1.91s-.44,1.64-.44,2.55.15,1.76.44,2.54.74,1.41,1.34,1.89c.6.48,1.37.72,2.31.72Z"/><path class="cls-7" d="m251.09,299.49c-1.01,0-1.88-.13-2.61-.39-.73-.26-1.33-.6-1.82-1.01-.48-.42-.87-.86-1.15-1.34l1.67-1.17c.19.25.43.53.72.86.29.32.69.6,1.19.84.51.24,1.17.36,1.99.36,1.1,0,2.01-.27,2.73-.8.72-.53,1.07-1.37,1.07-2.5v-2.77h-.18c-.15.25-.37.56-.65.92-.28.36-.68.69-1.21.97s-1.23.42-2.12.42c-1.1,0-2.09-.26-2.96-.78-.87-.52-1.56-1.28-2.07-2.27-.51-.99-.76-2.2-.76-3.62s.25-2.61.74-3.65,1.17-1.84,2.05-2.41,1.89-.86,3.04-.86c.89,0,1.59.15,2.12.44s.93.62,1.21.99c.28.37.5.67.65.91h.21v-2.17h2.02v14.03c0,1.17-.27,2.13-.79,2.86-.53.74-1.24,1.28-2.13,1.62-.89.35-1.88.52-2.97.52Zm-.07-7.49c.84,0,1.55-.19,2.13-.58s1.02-.94,1.32-1.66c.3-.72.45-1.59.45-2.59s-.15-1.85-.44-2.6-.73-1.34-1.31-1.77c-.58-.43-1.3-.64-2.15-.64s-1.63.22-2.22.67c-.59.45-1.03,1.05-1.32,1.81-.29.76-.44,1.6-.44,2.52s.15,1.78.45,2.51c.3.72.74,1.29,1.33,1.7.59.41,1.32.62,2.2.62Z"/><path class="cls-7" d="m281.35,280.45l-5.04,13.64h-2.13l-5.04-13.64h2.27l3.76,10.87h.14l3.76-10.87h2.27Z"/><path class="cls-7" d="m290.34,294.37c-1.23,0-2.31-.29-3.24-.88s-1.65-1.41-2.17-2.46c-.52-1.05-.78-2.28-.78-3.69s.26-2.66.78-3.72,1.24-1.88,2.17-2.47,2-.88,3.24-.88,2.31.29,3.24.88,1.65,1.41,2.17,2.47c.52,1.06.78,2.3.78,3.72s-.26,2.64-.78,3.69c-.52,1.05-1.24,1.87-2.17,2.46s-2,.88-3.24.88Zm0-1.88c.94,0,1.7-.24,2.31-.72.6-.48,1.05-1.11,1.34-1.89s.44-1.63.44-2.54-.15-1.76-.44-2.55-.74-1.42-1.34-1.91-1.37-.73-2.31-.73-1.7.24-2.31.73c-.6.49-1.05,1.12-1.34,1.91s-.44,1.64-.44,2.55.15,1.76.44,2.54.74,1.41,1.34,1.89c.6.48,1.37.72,2.31.72Z"/><path class="cls-7" d="m300.89,294.09v-13.64h2.02v2.06h.14c.25-.67.7-1.22,1.35-1.64.65-.42,1.39-.63,2.2-.63.15,0,.35,0,.58,0s.41.01.52.03v2.13c-.07-.02-.23-.05-.48-.08s-.52-.06-.79-.06c-.66,0-1.25.14-1.77.41-.52.28-.93.65-1.23,1.14s-.45,1.03-.45,1.65v8.63h-2.1Z"/><path class="cls-7" d="m316.66,294.37c-1.31,0-2.45-.29-3.4-.87-.95-.58-1.68-1.4-2.19-2.45-.51-1.05-.77-2.27-.77-3.67s.26-2.63.77-3.7c.51-1.07,1.23-1.9,2.15-2.5.92-.6,2-.9,3.23-.9.71,0,1.41.12,2.1.35.69.24,1.32.62,1.89,1.15.57.53,1.02,1.23,1.36,2.1s.51,1.94.51,3.21v.89h-10.51v-1.81h8.38c0-.77-.15-1.46-.46-2.06-.3-.6-.74-1.08-1.3-1.43-.56-.35-1.22-.52-1.98-.52-.83,0-1.56.21-2.16.62-.61.41-1.07.95-1.4,1.6-.33.66-.49,1.36-.49,2.11v1.21c0,1.03.18,1.9.54,2.61.36.71.86,1.25,1.5,1.62.64.37,1.38.55,2.23.55.55,0,1.05-.08,1.5-.24.45-.16.83-.39,1.16-.71.33-.32.58-.71.75-1.19l2.02.57c-.21.69-.57,1.29-1.07,1.81-.5.52-1.12.92-1.86,1.21-.74.29-1.57.43-2.49.43Z"/><path class="cls-7" d="m336.34,283.51l-1.88.53c-.12-.31-.29-.62-.52-.92-.23-.3-.54-.55-.93-.74s-.89-.29-1.5-.29c-.83,0-1.53.19-2.08.57-.55.38-.83.87-.83,1.45,0,.52.19.93.57,1.23s.97.55,1.78.75l2.02.5c1.22.3,2.13.75,2.73,1.35.6.61.9,1.39.9,2.34,0,.78-.22,1.48-.67,2.1-.45.62-1.07,1.1-1.87,1.46-.8.35-1.73.53-2.79.53-1.39,0-2.54-.3-3.45-.91-.91-.6-1.49-1.49-1.73-2.65l1.99-.5c.19.73.55,1.28,1.08,1.65.53.37,1.22.55,2.08.55.98,0,1.75-.21,2.33-.63.58-.42.87-.92.87-1.5,0-.47-.17-.87-.5-1.19-.33-.32-.84-.56-1.53-.72l-2.27-.53c-1.25-.3-2.17-.76-2.75-1.38-.58-.62-.87-1.41-.87-2.35,0-.77.22-1.45.65-2.04s1.03-1.06,1.78-1.39c.75-.34,1.61-.51,2.57-.51,1.35,0,2.41.3,3.18.89.77.59,1.32,1.37,1.65,2.34Z"/><path class="cls-7" d="m355.2,280.45v1.78h-7.35v-1.78h7.35Zm-5.15,13.64v-15.52c0-.78.18-1.43.55-1.95.37-.52.84-.91,1.43-1.17.59-.26,1.2-.39,1.86-.39.51,0,.94.04,1.26.12.33.08.57.16.73.23l-.6,1.81c-.11-.04-.25-.08-.44-.13s-.43-.08-.73-.08c-.69,0-1.19.17-1.5.52-.3.35-.46.86-.46,1.54v15.02h-2.1Z"/><path class="cls-7" d="m362.94,294.41c-.86,0-1.65-.16-2.35-.49-.7-.33-1.26-.8-1.68-1.43-.41-.62-.62-1.38-.62-2.27,0-.78.15-1.42.46-1.9.31-.49.72-.87,1.23-1.15.51-.28,1.08-.49,1.71-.63.62-.14,1.25-.25,1.89-.33.83-.11,1.5-.19,2.02-.24.52-.06.9-.15,1.14-.29s.36-.37.36-.71v-.07c0-.88-.24-1.56-.71-2.04-.48-.49-1.2-.73-2.16-.73s-1.78.22-2.35.66c-.57.44-.97.91-1.2,1.4l-1.99-.71c.35-.83.83-1.48,1.42-1.94.6-.46,1.25-.79,1.95-.98.71-.19,1.4-.28,2.09-.28.44,0,.94.05,1.51.16s1.12.32,1.66.63c.54.32.98.8,1.34,1.45.35.65.53,1.51.53,2.59v8.98h-2.09v-1.85h-.11c-.14.3-.38.61-.71.95s-.77.62-1.32.86c-.55.24-1.22.36-2.02.36Zm.32-1.88c.83,0,1.53-.16,2.1-.49.57-.33,1-.75,1.3-1.26.29-.51.44-1.06.44-1.62v-1.92c-.09.11-.28.2-.58.29-.3.09-.64.16-1.03.22-.39.06-.76.12-1.13.16-.36.04-.66.08-.88.11-.54.07-1.05.19-1.52.34-.47.16-.85.39-1.14.7s-.43.73-.43,1.27c0,.73.27,1.28.81,1.65.54.37,1.23.55,2.06.55Z"/><path class="cls-7" d="m376.3,275.91v18.18h-2.1v-18.18h2.1Z"/><path class="cls-7" d="m383.4,275.91v18.18h-2.1v-18.18h2.1Z"/><path class="cls-7" d="m394.13,294.37c-1.31,0-2.45-.29-3.4-.87-.95-.58-1.68-1.4-2.19-2.45-.51-1.05-.77-2.27-.77-3.67s.26-2.63.77-3.7c.51-1.07,1.23-1.9,2.15-2.5.92-.6,2-.9,3.23-.9.71,0,1.41.12,2.1.35.69.24,1.32.62,1.89,1.15.57.53,1.02,1.23,1.36,2.1s.51,1.94.51,3.21v.89h-10.51v-1.81h8.38c0-.77-.15-1.46-.46-2.06-.3-.6-.74-1.08-1.3-1.43-.56-.35-1.22-.52-1.98-.52-.83,0-1.56.21-2.16.62-.61.41-1.07.95-1.4,1.6-.33.66-.49,1.36-.49,2.11v1.21c0,1.03.18,1.9.54,2.61.36.71.86,1.25,1.5,1.62.64.37,1.38.55,2.23.55.55,0,1.05-.08,1.5-.24.45-.16.83-.39,1.16-.71.33-.32.58-.71.75-1.19l2.02.57c-.21.69-.57,1.29-1.07,1.81-.5.52-1.12.92-1.86,1.21-.74.29-1.57.43-2.49.43Z"/><path class="cls-7" d="m413.81,283.51l-1.88.53c-.12-.31-.29-.62-.52-.92-.23-.3-.54-.55-.93-.74s-.89-.29-1.5-.29c-.83,0-1.53.19-2.08.57-.55.38-.83.87-.83,1.45,0,.52.19.93.57,1.23s.97.55,1.78.75l2.02.5c1.22.3,2.13.75,2.73,1.35.6.61.9,1.39.9,2.34,0,.78-.22,1.48-.67,2.1-.45.62-1.07,1.1-1.87,1.46-.8.35-1.73.53-2.79.53-1.39,0-2.54-.3-3.45-.91-.91-.6-1.49-1.49-1.73-2.65l1.99-.5c.19.73.55,1.28,1.08,1.65.53.37,1.22.55,2.08.55.98,0,1.75-.21,2.33-.63.58-.42.87-.92.87-1.5,0-.47-.17-.87-.5-1.19-.33-.32-.84-.56-1.53-.72l-2.27-.53c-1.25-.3-2.17-.76-2.75-1.38-.58-.62-.87-1.41-.87-2.35,0-.77.22-1.45.65-2.04s1.03-1.06,1.78-1.39c.75-.34,1.61-.51,2.57-.51,1.35,0,2.41.3,3.18.89.77.59,1.32,1.37,1.65,2.34Z"/><path class="cls-7" d="m62.16,324.37c-1.14,0-2.14-.29-3.01-.87s-1.55-1.39-2.04-2.45-.74-2.31-.74-3.75.25-2.68.74-3.73c.49-1.05,1.17-1.87,2.05-2.44s1.89-.86,3.04-.86c.89,0,1.59.15,2.11.44.52.29.91.62,1.19.99.28.37.49.67.64.91h.18v-6.71h2.1v18.18h-2.02v-2.1h-.25c-.15.25-.37.56-.66.94-.28.38-.69.71-1.22,1s-1.23.44-2.1.44Zm.28-1.88c.84,0,1.55-.22,2.13-.66s1.02-1.05,1.32-1.84.45-1.69.45-2.72-.15-1.91-.44-2.68c-.3-.77-.73-1.36-1.31-1.79-.58-.43-1.3-.64-2.15-.64s-1.63.23-2.22.68c-.59.45-1.03,1.06-1.32,1.84s-.44,1.64-.44,2.6.15,1.85.45,2.64c.3.79.74,1.42,1.33,1.88.59.46,1.32.7,2.2.7Z"/><path class="cls-7" d="m73.71,324.09v-13.64h2.02v2.06h.14c.25-.67.7-1.22,1.35-1.64.65-.42,1.39-.63,2.2-.63.15,0,.35,0,.58,0s.41.01.52.03v2.13c-.07-.02-.23-.05-.48-.08s-.52-.06-.79-.06c-.66,0-1.25.14-1.77.41-.52.28-.93.65-1.23,1.14s-.45,1.03-.45,1.65v8.63h-2.1Z"/><path class="cls-7" d="m89.3,324.37c-1.23,0-2.31-.29-3.24-.88s-1.65-1.41-2.17-2.46c-.52-1.05-.78-2.28-.78-3.69s.26-2.66.78-3.72,1.24-1.88,2.17-2.47,2-.88,3.24-.88,2.31.29,3.24.88,1.65,1.41,2.17,2.47c.52,1.06.78,2.3.78,3.72s-.26,2.64-.78,3.69c-.52,1.05-1.24,1.87-2.17,2.46s-2,.88-3.24.88Zm0-1.88c.94,0,1.7-.24,2.31-.72.6-.48,1.05-1.11,1.34-1.89s.44-1.63.44-2.54-.15-1.76-.44-2.55-.74-1.42-1.34-1.91-1.37-.73-2.31-.73-1.7.24-2.31.73c-.6.49-1.05,1.12-1.34,1.91s-.44,1.64-.44,2.55.15,1.76.44,2.54.74,1.41,1.34,1.89c.6.48,1.37.72,2.31.72Z"/><path class="cls-7" d="m99.85,324.09v-13.64h2.02v2.13h.18c.28-.73.74-1.29,1.38-1.7.63-.41,1.39-.61,2.28-.61s1.65.2,2.25.61c.6.41,1.07.97,1.41,1.7h.14c.35-.7.87-1.27,1.57-1.68.7-.42,1.54-.63,2.51-.63,1.22,0,2.22.38,2.99,1.14.78.76,1.16,1.94,1.16,3.55v9.13h-2.1v-9.13c0-1.01-.28-1.73-.83-2.16s-1.2-.65-1.94-.65c-.96,0-1.7.29-2.23.87-.53.58-.79,1.31-.79,2.19v8.88h-2.13v-9.34c0-.78-.25-1.4-.75-1.88-.5-.48-1.15-.71-1.94-.71-.54,0-1.05.15-1.52.44-.47.29-.85.69-1.14,1.2-.29.51-.43,1.1-.43,1.77v8.52h-2.1Z"/><path class="cls-7" d="m122.76,324.09v-13.64h2.02v2.13h.18c.28-.73.74-1.29,1.38-1.7.63-.41,1.39-.61,2.28-.61s1.65.2,2.25.61c.6.41,1.07.97,1.41,1.7h.14c.35-.7.87-1.27,1.57-1.68.7-.42,1.54-.63,2.51-.63,1.22,0,2.22.38,2.99,1.14.78.76,1.16,1.94,1.16,3.55v9.13h-2.1v-9.13c0-1.01-.28-1.73-.83-2.16s-1.2-.65-1.94-.65c-.96,0-1.7.29-2.23.87-.53.58-.79,1.31-.79,2.19v8.88h-2.13v-9.34c0-.78-.25-1.4-.75-1.88-.5-.48-1.15-.71-1.94-.71-.54,0-1.05.15-1.52.44-.47.29-.85.69-1.14,1.2-.29.51-.43,1.1-.43,1.77v8.52h-2.1Z"/><path class="cls-7" d="m151.38,324.37c-1.31,0-2.45-.29-3.4-.87-.95-.58-1.68-1.4-2.19-2.45-.51-1.05-.77-2.27-.77-3.67s.26-2.63.77-3.7c.51-1.07,1.23-1.9,2.15-2.5.92-.6,2-.9,3.23-.9.71,0,1.41.12,2.1.35.69.24,1.32.62,1.89,1.15.57.53,1.02,1.23,1.36,2.1s.51,1.94.51,3.21v.89h-10.51v-1.81h8.38c0-.77-.15-1.46-.46-2.06-.3-.6-.74-1.08-1.3-1.43-.56-.35-1.22-.52-1.98-.52-.83,0-1.56.21-2.16.62-.61.41-1.07.95-1.4,1.6-.33.66-.49,1.36-.49,2.11v1.21c0,1.03.18,1.9.54,2.61.36.71.86,1.25,1.5,1.62.64.37,1.38.55,2.23.55.55,0,1.05-.08,1.5-.24.45-.16.83-.39,1.16-.71.33-.32.58-.71.75-1.19l2.02.57c-.21.69-.57,1.29-1.07,1.81-.5.52-1.12.92-1.86,1.21-.74.29-1.57.43-2.49.43Z"/><path class="cls-7" d="m175.68,310.45v1.78h-7.35v-1.78h7.35Zm-5.15,13.64v-15.52c0-.78.18-1.43.55-1.95.37-.52.84-.91,1.43-1.17.59-.26,1.2-.39,1.86-.39.51,0,.94.04,1.26.12.33.08.57.16.73.23l-.6,1.81c-.11-.04-.25-.08-.44-.13s-.43-.08-.73-.08c-.69,0-1.19.17-1.5.52-.3.35-.46.86-.46,1.54v15.02h-2.1Z"/><path class="cls-7" d="m184.77,324.37c-1.23,0-2.31-.29-3.24-.88s-1.65-1.41-2.17-2.46c-.52-1.05-.78-2.28-.78-3.69s.26-2.66.78-3.72,1.24-1.88,2.17-2.47,2-.88,3.24-.88,2.31.29,3.24.88,1.65,1.41,2.17,2.47c.52,1.06.78,2.3.78,3.72s-.26,2.64-.78,3.69c-.52,1.05-1.24,1.87-2.17,2.46s-2,.88-3.24.88Zm0-1.88c.94,0,1.7-.24,2.31-.72.6-.48,1.05-1.11,1.34-1.89s.44-1.63.44-2.54-.15-1.76-.44-2.55-.74-1.42-1.34-1.91-1.37-.73-2.31-.73-1.7.24-2.31.73c-.6.49-1.05,1.12-1.34,1.91s-.44,1.64-.44,2.55.15,1.76.44,2.54.74,1.41,1.34,1.89c.6.48,1.37.72,2.31.72Z"/><path class="cls-7" d="m195.32,324.09v-13.64h2.02v2.06h.14c.25-.67.7-1.22,1.35-1.64.65-.42,1.39-.63,2.2-.63.15,0,.35,0,.58,0s.41.01.52.03v2.13c-.07-.02-.23-.05-.48-.08s-.52-.06-.79-.06c-.66,0-1.25.14-1.77.41-.52.28-.93.65-1.23,1.14s-.45,1.03-.45,1.65v8.63h-2.1Z"/><path class="cls-7" d="m220.08,310.45v1.78h-7.35v-1.78h7.35Zm-5.15,13.64v-15.52c0-.78.18-1.43.55-1.95.37-.52.84-.91,1.43-1.17.59-.26,1.2-.39,1.86-.39.51,0,.94.04,1.26.12.33.08.57.16.73.23l-.6,1.81c-.11-.04-.25-.08-.44-.13s-.43-.08-.73-.08c-.69,0-1.19.17-1.5.52-.3.35-.46.86-.46,1.54v15.02h-2.1Z"/><path class="cls-7" d="m224.2,324.09v-13.64h2.02v2.06h.14c.25-.67.7-1.22,1.35-1.64.65-.42,1.39-.63,2.2-.63.15,0,.35,0,.58,0s.41.01.52.03v2.13c-.07-.02-.23-.05-.48-.08s-.52-.06-.79-.06c-.66,0-1.25.14-1.77.41-.52.28-.93.65-1.23,1.14s-.45,1.03-.45,1.65v8.63h-2.1Z"/><path class="cls-7" d="m239.97,324.37c-1.31,0-2.45-.29-3.4-.87-.95-.58-1.68-1.4-2.19-2.45-.51-1.05-.77-2.27-.77-3.67s.26-2.63.77-3.7c.51-1.07,1.23-1.9,2.15-2.5.92-.6,2-.9,3.23-.9.71,0,1.41.12,2.1.35.69.24,1.32.62,1.89,1.15.57.53,1.02,1.23,1.36,2.1s.51,1.94.51,3.21v.89h-10.51v-1.81h8.38c0-.77-.15-1.46-.46-2.06-.3-.6-.74-1.08-1.3-1.43-.56-.35-1.22-.52-1.98-.52-.83,0-1.56.21-2.16.62-.61.41-1.07.95-1.4,1.6-.33.66-.49,1.36-.49,2.11v1.21c0,1.03.18,1.9.54,2.61.36.71.86,1.25,1.5,1.62.64.37,1.38.55,2.23.55.55,0,1.05-.08,1.5-.24.45-.16.83-.39,1.16-.71.33-.32.58-.71.75-1.19l2.02.57c-.21.69-.57,1.29-1.07,1.81-.5.52-1.12.92-1.86,1.21-.74.29-1.57.43-2.49.43Z"/><path class="cls-7" d="m249.99,324.09v-13.64h2.02v2.13h.18c.28-.73.74-1.29,1.38-1.7.63-.41,1.39-.61,2.28-.61s1.65.2,2.25.61c.6.41,1.07.97,1.41,1.7h.14c.35-.7.87-1.27,1.57-1.68.7-.42,1.54-.63,2.51-.63,1.22,0,2.22.38,2.99,1.14.78.76,1.16,1.94,1.16,3.55v9.13h-2.1v-9.13c0-1.01-.28-1.73-.83-2.16s-1.2-.65-1.94-.65c-.96,0-1.7.29-2.23.87-.53.58-.79,1.31-.79,2.19v8.88h-2.13v-9.34c0-.78-.25-1.4-.75-1.88-.5-.48-1.15-.71-1.94-.71-.54,0-1.05.15-1.52.44-.47.29-.85.69-1.14,1.2-.29.51-.43,1.1-.43,1.77v8.52h-2.1Z"/><path class="cls-7" d="m278.83,310.45v1.78h-7.07v-1.78h7.07Zm-5.01-3.27h2.1v13c0,.59.09,1.03.26,1.33.17.29.4.49.67.59.28.1.57.15.87.15.23,0,.42-.01.57-.04.15-.03.27-.05.35-.07l.43,1.88c-.14.05-.34.11-.59.16-.25.06-.58.08-.97.08-.59,0-1.17-.13-1.74-.38-.56-.25-1.03-.64-1.4-1.16-.37-.52-.56-1.18-.56-1.97v-13.57Z"/><path class="cls-7" d="m284.23,308.18c-.41,0-.76-.14-1.05-.42s-.44-.61-.44-1,.15-.73.44-1c.29-.28.64-.42,1.05-.42s.76.14,1.05.42c.29.28.44.61.44,1s-.15.73-.44,1-.64.42-1.05.42Zm-1.07,15.91v-13.64h2.1v13.64h-2.1Z"/><path class="cls-7" d="m295.42,324.37c-1.14,0-2.14-.29-3.01-.87s-1.55-1.39-2.04-2.45-.74-2.31-.74-3.75.25-2.68.74-3.73c.49-1.05,1.17-1.87,2.05-2.44s1.89-.86,3.04-.86c.89,0,1.59.15,2.11.44.52.29.91.62,1.19.99.28.37.49.67.64.91h.18v-6.71h2.1v18.18h-2.02v-2.1h-.25c-.15.25-.37.56-.66.94-.28.38-.69.71-1.22,1s-1.23.44-2.1.44Zm.28-1.88c.84,0,1.55-.22,2.13-.66s1.02-1.05,1.32-1.84.45-1.69.45-2.72-.15-1.91-.44-2.68c-.3-.77-.73-1.36-1.31-1.79-.58-.43-1.3-.64-2.15-.64s-1.63.23-2.22.68c-.59.45-1.03,1.06-1.32,1.84s-.44,1.64-.44,2.6.15,1.85.45,2.64c.3.79.74,1.42,1.33,1.88.59.46,1.32.7,2.2.7Z"/><path class="cls-7" d="m312.68,324.37c-1.31,0-2.45-.29-3.4-.87-.95-.58-1.68-1.4-2.19-2.45-.51-1.05-.77-2.27-.77-3.67s.26-2.63.77-3.7c.51-1.07,1.23-1.9,2.15-2.5.92-.6,2-.9,3.23-.9.71,0,1.41.12,2.1.35.69.24,1.32.62,1.89,1.15.57.53,1.02,1.23,1.36,2.1s.51,1.94.51,3.21v.89h-10.51v-1.81h8.38c0-.77-.15-1.46-.46-2.06-.3-.6-.74-1.08-1.3-1.43-.56-.35-1.22-.52-1.98-.52-.83,0-1.56.21-2.16.62-.61.41-1.07.95-1.4,1.6-.33.66-.49,1.36-.49,2.11v1.21c0,1.03.18,1.9.54,2.61.36.71.86,1.25,1.5,1.62.64.37,1.38.55,2.23.55.55,0,1.05-.08,1.5-.24.45-.16.83-.39,1.16-.71.33-.32.58-.71.75-1.19l2.02.57c-.21.69-.57,1.29-1.07,1.81-.5.52-1.12.92-1.86,1.21-.74.29-1.57.43-2.49.43Z"/><path class="cls-7" d="m324.79,315.88v8.2h-2.1v-13.64h2.02v2.13h.18c.32-.69.81-1.25,1.46-1.67.65-.42,1.49-.63,2.52-.63.92,0,1.73.19,2.42.56.69.38,1.23.94,1.62,1.7.38.76.58,1.72.58,2.88v8.66h-2.1v-8.52c0-1.07-.28-1.91-.83-2.51-.56-.6-1.32-.9-2.29-.9-.67,0-1.26.15-1.79.44s-.94.71-1.24,1.27c-.3.56-.45,1.23-.45,2.02Z"/><path class="cls-7" d="m348.16,313.51l-1.88.53c-.12-.31-.29-.62-.52-.92-.23-.3-.54-.55-.93-.74s-.89-.29-1.5-.29c-.83,0-1.53.19-2.08.57-.55.38-.83.87-.83,1.45,0,.52.19.93.57,1.23s.97.55,1.78.75l2.02.5c1.22.3,2.13.75,2.73,1.35.6.61.9,1.39.9,2.34,0,.78-.22,1.48-.67,2.1-.45.62-1.07,1.1-1.87,1.46-.8.35-1.73.53-2.79.53-1.39,0-2.54-.3-3.45-.91-.91-.6-1.49-1.49-1.73-2.65l1.99-.5c.19.73.55,1.28,1.08,1.65.53.37,1.22.55,2.08.55.98,0,1.75-.21,2.33-.63.58-.42.87-.92.87-1.5,0-.47-.17-.87-.5-1.19-.33-.32-.84-.56-1.53-.72l-2.27-.53c-1.25-.3-2.17-.76-2.75-1.38-.58-.62-.87-1.41-.87-2.35,0-.77.22-1.45.65-2.04s1.03-1.06,1.78-1.39c.75-.34,1.61-.51,2.57-.51,1.35,0,2.41.3,3.18.89.77.59,1.32,1.37,1.65,2.34Z"/><path class="cls-7" d="m370.61,313.51l-1.88.53c-.12-.31-.29-.62-.52-.92-.23-.3-.54-.55-.93-.74s-.89-.29-1.5-.29c-.83,0-1.53.19-2.08.57-.55.38-.83.87-.83,1.45,0,.52.19.93.57,1.23s.97.55,1.78.75l2.02.5c1.22.3,2.13.75,2.73,1.35.6.61.9,1.39.9,2.34,0,.78-.22,1.48-.67,2.1-.45.62-1.07,1.1-1.87,1.46-.8.35-1.73.53-2.79.53-1.39,0-2.54-.3-3.45-.91-.91-.6-1.49-1.49-1.73-2.65l1.99-.5c.19.73.55,1.28,1.08,1.65.53.37,1.22.55,2.08.55.98,0,1.75-.21,2.33-.63.58-.42.87-.92.87-1.5,0-.47-.17-.87-.5-1.19-.33-.32-.84-.56-1.53-.72l-2.27-.53c-1.25-.3-2.17-.76-2.75-1.38-.58-.62-.87-1.41-.87-2.35,0-.77.22-1.45.65-2.04s1.03-1.06,1.78-1.39c.75-.34,1.61-.51,2.57-.51,1.35,0,2.41.3,3.18.89.77.59,1.32,1.37,1.65,2.34Z"/><path class="cls-7" d="m380.73,324.37c-1.28,0-2.38-.3-3.3-.91-.92-.6-1.63-1.44-2.13-2.49-.5-1.06-.75-2.27-.75-3.63s.26-2.61.77-3.67c.51-1.06,1.23-1.89,2.15-2.49.92-.6,2-.9,3.23-.9.96,0,1.82.18,2.59.53s1.4.85,1.89,1.49c.49.64.8,1.38.91,2.24h-2.1c-.16-.62-.51-1.17-1.06-1.66-.55-.48-1.28-.72-2.21-.72-.82,0-1.53.21-2.14.63-.61.42-1.09,1.02-1.43,1.78-.34.77-.51,1.66-.51,2.69s.17,1.97.5,2.75.81,1.39,1.42,1.82c.61.43,1.33.65,2.16.65.54,0,1.04-.09,1.48-.28.44-.19.82-.46,1.13-.82.31-.36.53-.78.66-1.28h2.1c-.12.8-.41,1.53-.87,2.17-.46.64-1.08,1.15-1.84,1.53-.76.38-1.64.56-2.65.56Z"/><path class="cls-7" d="m396.04,324.37c-1.31,0-2.45-.29-3.4-.87-.95-.58-1.68-1.4-2.19-2.45-.51-1.05-.77-2.27-.77-3.67s.26-2.63.77-3.7c.51-1.07,1.23-1.9,2.15-2.5.92-.6,2-.9,3.23-.9.71,0,1.41.12,2.1.35.69.24,1.32.62,1.89,1.15.57.53,1.02,1.23,1.36,2.1s.51,1.94.51,3.21v.89h-10.51v-1.81h8.38c0-.77-.15-1.46-.46-2.06-.3-.6-.74-1.08-1.3-1.43-.56-.35-1.22-.52-1.98-.52-.83,0-1.56.21-2.16.62-.61.41-1.07.95-1.4,1.6-.33.66-.49,1.36-.49,2.11v1.21c0,1.03.18,1.9.54,2.61.36.71.86,1.25,1.5,1.62.64.37,1.38.55,2.23.55.55,0,1.05-.08,1.5-.24.45-.16.83-.39,1.16-.71.33-.32.58-.71.75-1.19l2.02.57c-.21.69-.57,1.29-1.07,1.81-.5.52-1.12.92-1.86,1.21-.74.29-1.57.43-2.49.43Z"/><path class="cls-7" d="m408.15,315.88v8.2h-2.1v-13.64h2.02v2.13h.18c.32-.69.81-1.25,1.46-1.67.65-.42,1.49-.63,2.52-.63.92,0,1.73.19,2.42.56s1.23.94,1.62,1.7c.38.76.58,1.72.58,2.88v8.66h-2.09v-8.52c0-1.07-.28-1.91-.83-2.51s-1.32-.9-2.29-.9c-.67,0-1.26.15-1.79.44s-.94.71-1.24,1.27c-.3.56-.45,1.23-.45,2.02Z"/><path class="cls-7" d="m427.58,324.37c-1.31,0-2.45-.29-3.4-.87s-1.68-1.4-2.19-2.45c-.51-1.05-.77-2.27-.77-3.67s.26-2.63.77-3.7c.51-1.07,1.23-1.9,2.15-2.5.92-.6,2-.9,3.23-.9.71,0,1.41.12,2.1.35.69.24,1.32.62,1.89,1.15s1.02,1.23,1.36,2.1c.34.87.51,1.94.51,3.21v.89h-10.51v-1.81h8.38c0-.77-.15-1.46-.46-2.06-.3-.6-.74-1.08-1.3-1.43-.56-.35-1.22-.52-1.98-.52-.83,0-1.55.21-2.16.62-.61.41-1.07.95-1.4,1.6-.33.66-.49,1.36-.49,2.11v1.21c0,1.03.18,1.9.54,2.61.36.71.86,1.25,1.5,1.62.64.37,1.38.55,2.23.55.55,0,1.05-.08,1.5-.24.45-.16.83-.39,1.16-.71.33-.32.58-.71.75-1.19l2.02.57c-.21.69-.57,1.29-1.07,1.81-.5.52-1.12.92-1.86,1.21-.74.29-1.57.43-2.5.43Z"/><path class="cls-7" d="m437.6,324.09v-18.18h2.09v18.18h-2.09Zm1.95-4.97l-.04-2.59h.43l5.97-6.07h2.59l-6.36,6.43h-.18l-2.41,2.24Zm6.71,4.97l-5.33-6.75,1.49-1.46,6.5,8.2h-2.66Z"/><path class="cls-7" d="m460.97,318.51v-8.06h2.09v13.64h-2.09v-2.31h-.14c-.32.69-.82,1.28-1.49,1.76s-1.53.72-2.56.72c-.85,0-1.61-.19-2.27-.56-.66-.38-1.18-.94-1.56-1.7-.38-.76-.57-1.72-.57-2.88v-8.66h2.09v8.52c0,.99.28,1.79.84,2.38s1.27.89,2.14.89c.52,0,1.05-.13,1.59-.4.54-.27,1-.67,1.37-1.23.37-.55.56-1.25.56-2.1Z"/><path class="cls-7" d="m470.17,315.88v8.2h-2.09v-13.64h2.02v2.13h.18c.32-.69.8-1.25,1.46-1.67.65-.42,1.49-.63,2.52-.63.92,0,1.73.19,2.42.56s1.23.94,1.62,1.7c.38.76.58,1.72.58,2.88v8.66h-2.09v-8.52c0-1.07-.28-1.91-.83-2.51s-1.32-.9-2.29-.9c-.67,0-1.27.15-1.79.44s-.94.71-1.24,1.27c-.3.56-.45,1.23-.45,2.02Z"/><path class="cls-7" d="m493.54,313.51l-1.88.53c-.12-.31-.29-.62-.52-.92-.23-.3-.54-.55-.93-.74s-.89-.29-1.5-.29c-.83,0-1.53.19-2.08.57-.55.38-.83.87-.83,1.45,0,.52.19.93.57,1.23s.97.55,1.78.75l2.02.5c1.22.3,2.13.75,2.73,1.35.6.61.9,1.39.9,2.34,0,.78-.22,1.48-.67,2.1-.45.62-1.07,1.1-1.87,1.46s-1.73.53-2.79.53c-1.39,0-2.54-.3-3.45-.91-.91-.6-1.49-1.49-1.73-2.65l1.99-.5c.19.73.55,1.28,1.08,1.65.53.37,1.22.55,2.08.55.98,0,1.75-.21,2.33-.63.58-.42.87-.92.87-1.5,0-.47-.17-.87-.5-1.19-.33-.32-.84-.56-1.53-.72l-2.27-.53c-1.25-.3-2.17-.76-2.75-1.38s-.87-1.41-.87-2.35c0-.77.22-1.45.65-2.04s1.03-1.06,1.78-1.39c.75-.34,1.61-.51,2.57-.51,1.35,0,2.41.3,3.18.89s1.32,1.37,1.65,2.34Z"/><path class="cls-7" d="m504.05,310.45v1.78h-7.07v-1.78h7.07Zm-5.01-3.27h2.1v13c0,.59.09,1.03.26,1.33.17.29.4.49.67.59.27.1.57.15.87.15.23,0,.42-.01.57-.04.15-.03.27-.05.36-.07l.43,1.88c-.14.05-.34.11-.59.16-.25.06-.58.08-.97.08-.59,0-1.17-.13-1.74-.38-.57-.25-1.03-.64-1.4-1.16-.37-.52-.55-1.18-.55-1.97v-13.57Z"/><path class="cls-7" d="m511.12,318.97v-.11c.01-1.13.13-2.03.35-2.7.23-.67.54-1.21.96-1.62.41-.41.91-.8,1.49-1.15.35-.21.66-.47.94-.76s.5-.63.66-1.02c.16-.38.24-.81.24-1.28,0-.58-.14-1.08-.41-1.51-.27-.43-.64-.75-1.09-.99-.46-.23-.96-.35-1.52-.35-.49,0-.95.1-1.4.3s-.83.52-1.13.95c-.3.43-.48,1-.52,1.7h-2.24c.05-1.01.31-1.87.79-2.58s1.11-1.26,1.89-1.64c.78-.38,1.66-.57,2.61-.57,1.04,0,1.95.21,2.72.62.77.41,1.37.98,1.79,1.7s.63,1.54.63,2.47c0,.65-.1,1.24-.3,1.77-.2.53-.48,1-.85,1.41s-.82.78-1.34,1.1c-.52.33-.94.67-1.25,1.03-.31.36-.54.78-.68,1.27-.14.49-.22,1.1-.23,1.84v.11h-2.13Zm1.14,5.26c-.44,0-.81-.16-1.13-.47-.31-.31-.47-.69-.47-1.13s.16-.81.47-1.13c.31-.31.69-.47,1.13-.47s.81.16,1.13.47c.31.31.47.69.47,1.13,0,.29-.07.56-.22.8-.15.24-.34.44-.58.58-.24.15-.51.22-.8.22Z"/><path class="cls-7" d="m58.3,424.09v-18.18h2.2v8.1h9.69v-8.1h2.2v18.18h-2.2v-8.13h-9.69v8.13h-2.2Z"/><path class="cls-7" d="m88.84,410.45l-5.04,13.64h-2.13l-5.04-13.64h2.27l3.76,10.87h.14l3.76-10.87h2.27Z"/><path class="cls-7" d="m97.83,424.37c-1.23,0-2.31-.29-3.24-.88s-1.65-1.41-2.17-2.46c-.52-1.05-.78-2.28-.78-3.69s.26-2.66.78-3.72,1.24-1.88,2.17-2.47,2-.88,3.24-.88,2.31.29,3.24.88,1.65,1.41,2.17,2.47c.52,1.06.78,2.3.78,3.72s-.26,2.64-.78,3.69c-.52,1.05-1.24,1.87-2.17,2.46s-2,.88-3.24.88Zm0-1.88c.94,0,1.7-.24,2.31-.72.6-.48,1.05-1.11,1.34-1.89s.44-1.63.44-2.54-.15-1.76-.44-2.55-.74-1.42-1.34-1.91-1.37-.73-2.31-.73-1.7.24-2.31.73c-.6.49-1.05,1.12-1.34,1.91s-.44,1.64-.44,2.55.15,1.76.44,2.54.74,1.41,1.34,1.89c.6.48,1.37.72,2.31.72Z"/><path class="cls-7" d="m108.38,424.09v-13.64h2.02v2.06h.14c.25-.67.7-1.22,1.35-1.64.65-.42,1.39-.63,2.2-.63.15,0,.35,0,.58,0s.41.01.52.03v2.13c-.07-.02-.23-.05-.48-.08s-.52-.06-.79-.06c-.66,0-1.25.14-1.77.41-.52.28-.93.65-1.23,1.14s-.45,1.03-.45,1.65v8.63h-2.1Z"/><path class="cls-7" d="m123.58,424.37c-1.14,0-2.14-.29-3.01-.87s-1.55-1.39-2.04-2.45-.74-2.31-.74-3.75.25-2.68.74-3.73c.49-1.05,1.17-1.87,2.05-2.44s1.89-.86,3.04-.86c.89,0,1.59.15,2.11.44.52.29.91.62,1.19.99.28.37.49.67.64.91h.18v-6.71h2.1v18.18h-2.02v-2.1h-.25c-.15.25-.37.56-.66.94-.28.38-.69.71-1.22,1s-1.23.44-2.1.44Zm.28-1.88c.84,0,1.55-.22,2.13-.66s1.02-1.05,1.32-1.84.45-1.69.45-2.72-.15-1.91-.44-2.68c-.3-.77-.73-1.36-1.31-1.79-.58-.43-1.3-.64-2.15-.64s-1.63.23-2.22.68c-.59.45-1.03,1.06-1.32,1.84s-.44,1.64-.44,2.6.15,1.85.45,2.64c.3.79.74,1.42,1.33,1.88.59.46,1.32.7,2.2.7Z"/><path class="cls-7" d="m139.14,424.41c-.86,0-1.65-.16-2.35-.49-.7-.33-1.26-.8-1.68-1.43-.41-.62-.62-1.38-.62-2.27,0-.78.15-1.42.46-1.9.31-.49.72-.87,1.23-1.15.51-.28,1.08-.49,1.71-.63.62-.14,1.25-.25,1.89-.33.83-.11,1.5-.19,2.02-.24.52-.06.9-.15,1.14-.29s.36-.37.36-.71v-.07c0-.88-.24-1.56-.71-2.04-.48-.49-1.2-.73-2.16-.73s-1.78.22-2.35.66c-.57.44-.97.91-1.2,1.4l-1.99-.71c.35-.83.83-1.48,1.42-1.94.6-.46,1.25-.79,1.95-.98.71-.19,1.4-.28,2.09-.28.44,0,.94.05,1.51.16s1.12.32,1.66.63c.54.32.98.8,1.34,1.45.35.65.53,1.51.53,2.59v8.98h-2.09v-1.85h-.11c-.14.3-.38.61-.71.95s-.77.62-1.32.86c-.55.24-1.22.36-2.02.36Zm.32-1.88c.83,0,1.53-.16,2.1-.49.57-.33,1-.75,1.3-1.26.29-.51.44-1.06.44-1.62v-1.92c-.09.11-.28.2-.58.29-.3.09-.64.16-1.03.22-.39.06-.76.12-1.13.16-.36.04-.66.08-.88.11-.54.07-1.05.19-1.52.34-.47.16-.85.39-1.14.7s-.43.73-.43,1.27c0,.73.27,1.28.81,1.65.54.37,1.23.55,2.06.55Z"/><path class="cls-7" d="m152.49,415.88v8.2h-2.1v-13.64h2.02v2.13h.18c.32-.69.81-1.25,1.46-1.67.65-.42,1.49-.63,2.52-.63.92,0,1.73.19,2.42.56.69.38,1.23.94,1.62,1.7.38.76.58,1.72.58,2.88v8.66h-2.1v-8.52c0-1.07-.28-1.91-.83-2.51-.56-.6-1.32-.9-2.29-.9-.67,0-1.26.15-1.79.44s-.94.71-1.24,1.27c-.3.56-.45,1.23-.45,2.02Z"/><path class="cls-7" d="m184.07,413.51l-1.88.53c-.12-.31-.29-.62-.52-.92-.23-.3-.54-.55-.93-.74s-.89-.29-1.5-.29c-.83,0-1.53.19-2.08.57-.55.38-.83.87-.83,1.45,0,.52.19.93.57,1.23s.97.55,1.78.75l2.02.5c1.22.3,2.13.75,2.73,1.35.6.61.9,1.39.9,2.34,0,.78-.22,1.48-.67,2.1-.45.62-1.07,1.1-1.87,1.46-.8.35-1.73.53-2.79.53-1.39,0-2.54-.3-3.45-.91-.91-.6-1.49-1.49-1.73-2.65l1.99-.5c.19.73.55,1.28,1.08,1.65.53.37,1.22.55,2.08.55.98,0,1.75-.21,2.33-.63.58-.42.87-.92.87-1.5,0-.47-.17-.87-.5-1.19-.33-.32-.84-.56-1.53-.72l-2.27-.53c-1.25-.3-2.17-.76-2.75-1.38-.58-.62-.87-1.41-.87-2.35,0-.77.22-1.45.65-2.04s1.03-1.06,1.78-1.39c.75-.34,1.61-.51,2.57-.51,1.35,0,2.41.3,3.18.89.77.59,1.32,1.37,1.65,2.34Z"/><path class="cls-7" d="m188.65,424.09v-18.18h2.1v18.18h-2.1Zm1.95-4.97l-.04-2.59h.43l5.97-6.07h2.59l-6.36,6.43h-.18l-2.42,2.24Zm6.71,4.97l-5.33-6.75,1.49-1.46,6.5,8.2h-2.66Z"/><path class="cls-7" d="m207.44,424.41c-.86,0-1.65-.16-2.35-.49-.7-.33-1.26-.8-1.68-1.43-.41-.62-.62-1.38-.62-2.27,0-.78.15-1.42.46-1.9.31-.49.72-.87,1.23-1.15.51-.28,1.08-.49,1.71-.63.62-.14,1.25-.25,1.89-.33.83-.11,1.5-.19,2.02-.24.52-.06.9-.15,1.14-.29s.36-.37.36-.71v-.07c0-.88-.24-1.56-.71-2.04-.48-.49-1.2-.73-2.16-.73s-1.78.22-2.35.66c-.57.44-.97.91-1.2,1.4l-1.99-.71c.35-.83.83-1.48,1.42-1.94.6-.46,1.25-.79,1.95-.98.71-.19,1.4-.28,2.09-.28.44,0,.94.05,1.51.16s1.12.32,1.66.63c.54.32.98.8,1.34,1.45.35.65.53,1.51.53,2.59v8.98h-2.09v-1.85h-.11c-.14.3-.38.61-.71.95s-.77.62-1.32.86c-.55.24-1.22.36-2.02.36Zm.32-1.88c.83,0,1.53-.16,2.1-.49.57-.33,1-.75,1.3-1.26.29-.51.44-1.06.44-1.62v-1.92c-.09.11-.28.2-.58.29-.3.09-.64.16-1.03.22-.39.06-.76.12-1.13.16-.36.04-.66.08-.88.11-.54.07-1.05.19-1.52.34-.47.16-.85.39-1.14.7s-.43.73-.43,1.27c0,.73.27,1.28.81,1.65.54.37,1.23.55,2.06.55Z"/><path class="cls-7" d="m220.79,405.91v18.18h-2.1v-18.18h2.1Z"/><path class="cls-7" d="m239.16,424.37c-1.14,0-2.14-.29-3.01-.87s-1.55-1.39-2.04-2.45-.74-2.31-.74-3.75.25-2.68.74-3.73c.49-1.05,1.17-1.87,2.05-2.44s1.89-.86,3.04-.86c.89,0,1.59.15,2.11.44.52.29.91.62,1.19.99.28.37.49.67.64.91h.18v-6.71h2.1v18.18h-2.02v-2.1h-.25c-.15.25-.37.56-.66.94-.28.38-.69.71-1.22,1s-1.23.44-2.1.44Zm.28-1.88c.84,0,1.55-.22,2.13-.66s1.02-1.05,1.32-1.84.45-1.69.45-2.72-.15-1.91-.44-2.68c-.3-.77-.73-1.36-1.31-1.79-.58-.43-1.3-.64-2.15-.64s-1.63.23-2.22.68c-.59.45-1.03,1.06-1.32,1.84s-.44,1.64-.44,2.6.15,1.85.45,2.64c.3.79.74,1.42,1.33,1.88.59.46,1.32.7,2.2.7Z"/><path class="cls-7" d="m256.42,424.37c-1.31,0-2.45-.29-3.4-.87-.95-.58-1.68-1.4-2.19-2.45-.51-1.05-.77-2.27-.77-3.67s.26-2.63.77-3.7c.51-1.07,1.23-1.9,2.15-2.5.92-.6,2-.9,3.23-.9.71,0,1.41.12,2.1.35.69.24,1.32.62,1.89,1.15.57.53,1.02,1.23,1.36,2.1.34.87.51,1.94.51,3.21v.89h-10.51v-1.81h8.38c0-.77-.15-1.46-.46-2.06-.3-.6-.74-1.08-1.3-1.43-.56-.35-1.22-.52-1.98-.52-.83,0-1.56.21-2.16.62-.61.41-1.07.95-1.4,1.6-.33.66-.49,1.36-.49,2.11v1.21c0,1.03.18,1.9.54,2.61.36.71.86,1.25,1.5,1.62.64.37,1.38.55,2.23.55.55,0,1.05-.08,1.5-.24.45-.16.83-.39,1.16-.71.33-.32.58-.71.75-1.19l2.02.57c-.21.69-.57,1.29-1.07,1.81-.5.52-1.12.92-1.86,1.21-.74.29-1.57.43-2.49.43Z"/><path class="cls-7" d="m268.53,415.88v8.2h-2.1v-13.64h2.02v2.13h.18c.32-.69.81-1.25,1.46-1.67.65-.42,1.49-.63,2.52-.63.92,0,1.73.19,2.42.56.69.38,1.23.94,1.62,1.7.38.76.58,1.72.58,2.88v8.66h-2.1v-8.52c0-1.07-.28-1.91-.83-2.51-.56-.6-1.32-.9-2.29-.9-.67,0-1.26.15-1.79.44s-.94.71-1.24,1.27c-.3.56-.45,1.23-.45,2.02Z"/><path class="cls-7" d="m299.04,418.51v-8.06h2.1v13.64h-2.1v-2.31h-.14c-.32.69-.82,1.28-1.49,1.76s-1.53.72-2.56.72c-.85,0-1.61-.19-2.27-.56-.66-.38-1.18-.94-1.56-1.7-.38-.76-.57-1.72-.57-2.88v-8.66h2.1v8.52c0,.99.28,1.79.84,2.38.56.59,1.27.89,2.14.89.52,0,1.05-.13,1.59-.4s1-.67,1.37-1.23c.37-.55.55-1.25.55-2.1Z"/><path class="cls-7" d="m311.3,424.37c-1.14,0-2.14-.29-3.01-.87s-1.55-1.39-2.04-2.45-.74-2.31-.74-3.75.25-2.68.74-3.73c.49-1.05,1.17-1.87,2.05-2.44s1.89-.86,3.04-.86c.89,0,1.59.15,2.11.44.52.29.91.62,1.19.99.28.37.49.67.64.91h.18v-6.71h2.1v18.18h-2.02v-2.1h-.25c-.15.25-.37.56-.66.94-.28.38-.69.71-1.22,1s-1.23.44-2.1.44Zm.28-1.88c.84,0,1.55-.22,2.13-.66s1.02-1.05,1.32-1.84.45-1.69.45-2.72-.15-1.91-.44-2.68c-.3-.77-.73-1.36-1.31-1.79-.58-.43-1.3-.64-2.15-.64s-1.63.23-2.22.68c-.59.45-1.03,1.06-1.32,1.84s-.44,1.64-.44,2.6.15,1.85.45,2.64c.3.79.74,1.42,1.33,1.88.59.46,1.32.7,2.2.7Z"/><path class="cls-7" d="m333.99,410.45l-5.04,13.64h-2.13l-5.04-13.64h2.27l3.76,10.87h.14l3.76-10.87h2.27Z"/><path class="cls-7" d="m339,408.18c-.41,0-.76-.14-1.05-.42s-.44-.61-.44-1,.15-.73.44-1c.29-.28.64-.42,1.05-.42s.76.14,1.05.42c.29.28.44.61.44,1s-.15.73-.44,1-.64.42-1.05.42Zm-1.07,15.91v-13.64h2.1v13.64h-2.1Z"/><path class="cls-7" d="m345.04,424.09v-18.18h2.1v18.18h-2.1Zm1.95-4.97l-.04-2.59h.43l5.97-6.07h2.59l-6.36,6.43h-.18l-2.42,2.24Zm6.71,4.97l-5.33-6.75,1.49-1.46,6.5,8.2h-2.66Z"/><path class="cls-7" d="m361.91,405.91v18.18h-2.1v-18.18h2.1Z"/><path class="cls-7" d="m372.64,424.37c-1.31,0-2.45-.29-3.4-.87-.95-.58-1.68-1.4-2.19-2.45-.51-1.05-.77-2.27-.77-3.67s.26-2.63.77-3.7c.51-1.07,1.23-1.9,2.15-2.5.92-.6,2-.9,3.23-.9.71,0,1.41.12,2.1.35.69.24,1.32.62,1.89,1.15.57.53,1.02,1.23,1.36,2.1s.51,1.94.51,3.21v.89h-10.51v-1.81h8.38c0-.77-.15-1.46-.46-2.06-.3-.6-.74-1.08-1.3-1.43-.56-.35-1.22-.52-1.98-.52-.83,0-1.56.21-2.16.62-.61.41-1.07.95-1.4,1.6-.33.66-.49,1.36-.49,2.11v1.21c0,1.03.18,1.9.54,2.61.36.71.86,1.25,1.5,1.62.64.37,1.38.55,2.23.55.55,0,1.05-.08,1.5-.24.45-.16.83-.39,1.16-.71.33-.32.58-.71.75-1.19l2.02.57c-.21.69-.57,1.29-1.07,1.81-.5.52-1.12.92-1.86,1.21-.74.29-1.57.43-2.49.43Z"/><path class="cls-7" d="m400.52,413.51l-1.88.53c-.12-.31-.29-.62-.52-.92-.23-.3-.54-.55-.93-.74s-.89-.29-1.5-.29c-.83,0-1.53.19-2.08.57-.55.38-.83.87-.83,1.45,0,.52.19.93.57,1.23s.97.55,1.78.75l2.02.5c1.22.3,2.13.75,2.73,1.35.6.61.9,1.39.9,2.34,0,.78-.22,1.48-.67,2.1-.45.62-1.07,1.1-1.87,1.46-.8.35-1.73.53-2.79.53-1.39,0-2.54-.3-3.45-.91-.91-.6-1.49-1.49-1.73-2.65l1.99-.5c.19.73.55,1.28,1.08,1.65.53.37,1.22.55,2.08.55.98,0,1.75-.21,2.33-.63.58-.42.87-.92.87-1.5,0-.47-.17-.87-.5-1.19-.33-.32-.84-.56-1.53-.72l-2.27-.53c-1.25-.3-2.17-.76-2.75-1.38-.58-.62-.87-1.41-.87-2.35,0-.77.22-1.45.65-2.04s1.03-1.06,1.78-1.39c.75-.34,1.61-.51,2.57-.51,1.35,0,2.41.3,3.18.89.77.59,1.32,1.37,1.65,2.34Z"/><path class="cls-7" d="m406.17,408.18c-.41,0-.76-.14-1.05-.42s-.44-.61-.44-1,.15-.73.44-1c.29-.28.64-.42,1.05-.42s.76.14,1.05.42c.29.28.44.61.44,1s-.15.73-.44,1-.64.42-1.05.42Zm-1.07,15.91v-13.64h2.1v13.64h-2.1Z"/><path class="cls-7" d="m417.72,429.49c-1.01,0-1.88-.13-2.61-.39-.73-.26-1.33-.6-1.81-1.01-.48-.42-.87-.86-1.15-1.34l1.67-1.17c.19.25.43.53.72.86.29.32.69.6,1.19.84s1.17.36,1.99.36c1.1,0,2.01-.27,2.72-.8.72-.53,1.07-1.37,1.07-2.5v-2.77h-.18c-.15.25-.37.56-.65.92-.28.36-.68.69-1.21.97s-1.23.42-2.12.42c-1.1,0-2.09-.26-2.96-.78-.87-.52-1.56-1.28-2.07-2.27-.51-.99-.76-2.2-.76-3.62s.25-2.61.74-3.65,1.17-1.84,2.05-2.41c.88-.57,1.89-.86,3.04-.86.89,0,1.59.15,2.12.44s.93.62,1.21.99c.28.37.5.67.65.91h.21v-2.17h2.02v14.03c0,1.17-.27,2.13-.79,2.86s-1.24,1.28-2.13,1.62c-.89.35-1.88.52-2.97.52Zm-.07-7.49c.84,0,1.55-.19,2.13-.58s1.02-.94,1.32-1.66c.3-.72.45-1.59.45-2.59s-.15-1.85-.44-2.6c-.29-.75-.73-1.34-1.31-1.77-.58-.43-1.29-.64-2.15-.64s-1.62.22-2.21.67c-.59.45-1.03,1.05-1.32,1.81-.29.76-.44,1.6-.44,2.52s.15,1.78.45,2.51c.3.72.74,1.29,1.33,1.7.59.41,1.32.62,2.2.62Z"/><path class="cls-7" d="m431.36,418.97v-.11c.01-1.13.13-2.03.35-2.7.23-.67.54-1.21.96-1.62.41-.41.91-.8,1.49-1.15.35-.21.66-.47.94-.76s.5-.63.66-1.02c.16-.38.24-.81.24-1.28,0-.58-.14-1.08-.41-1.51-.27-.43-.64-.75-1.09-.99-.46-.23-.96-.35-1.52-.35-.49,0-.95.1-1.4.3s-.83.52-1.13.95c-.3.43-.48,1-.52,1.7h-2.24c.05-1.01.31-1.87.79-2.58s1.11-1.26,1.89-1.64c.78-.38,1.66-.57,2.61-.57,1.04,0,1.95.21,2.72.62.77.41,1.37.98,1.79,1.7s.63,1.54.63,2.47c0,.65-.1,1.24-.3,1.77-.2.53-.48,1-.85,1.41s-.82.78-1.34,1.1c-.52.33-.94.67-1.25,1.03-.31.36-.54.78-.68,1.27-.14.49-.22,1.1-.23,1.84v.11h-2.13Zm1.14,5.26c-.44,0-.81-.16-1.13-.47-.31-.31-.47-.69-.47-1.13s.16-.81.47-1.13c.31-.31.69-.47,1.13-.47s.81.16,1.13.47c.31.31.47.69.47,1.13,0,.29-.07.56-.22.8-.15.24-.34.44-.58.58-.24.15-.51.22-.8.22Z"/></g><g id="line"><path class="cls-1" d="m36,144c1.67,28.67,3.33,57.33,5,86,167,1.33,334,2.67,501,4v141c-168.67-2.33-337.33-4.67-506-7,1.67,27,3.33,54,5,81,132.33-.67,264.67-1.33,397-2"/></g><g id="blob"><path class="cls-8" d="m84,740c1.24-4.81,2.77-10.55,7-17,1.22-1.86,5.6-8.26,14-14,7.34-5.03,10.99-4.92,21-9,13.63-5.56,12.35-7.99,29-16,12.72-6.12,19.26-9.18,28-9,9.74.2,16.89,4.12,22,7,16.53,9.31,24.47,23.22,36,44,8.17,14.73,12.25,22.29,12,32-.35,13.73-7.72,23.61-11,28-11.2,15.01-26.43,20.58-44,27-11.27,4.12-19.94,7.29-32,7-5.25-.13-12.83-1.75-28-5-15.5-3.32-20.71-5.16-23-6-10.3-3.79-15.82-5.83-21-11-7.36-7.35-9.18-16.19-11-25-.66-3.22-3.2-16.66,1-33Z"/></g><g id="logo"><path class="cls-2" d="m63.53,78.96c-.16.01-.41.03-.73.03,0,0-1.37.03-2.73-.22-5.21-.96-8.04-4.86-8.04-4.86-1.45-2-1.96-4.07-2.15-5.42.32-.17.84-.44,1.49-.75,2.7-1.27,4.01-1.99,4.59-2.15.99-.29,3.01-.49,6.26,1.68,6.84-3.39,8.16-4.47,8.02-4.81-.13-.33-1.58-.1-3.06.14-2.33.37-3.59.83-4.4,1.03-1.84.46-5.7-.77-7.95-2.9-5.48-5.18-2.67-16.47-1.6-16.55.14,0,.6,1.18,1.52,3.57,1.12,2.9,1.9,5.14,2.18,5.94,1.06,3.05,1.01,3.1,1.19,3.5.9,2.05,3.66,4.38,12.11,5.28"/><path class="cls-2" d="m52.16,46.49c-.96-1.49-2.71-2.22-4.34-1.85-1.52.34-2.64,1.55-2.96,2.85-.46,1.89.66,4.08,2.85,5.22-.22.22-.54.55-.88.99-.64.79-2.13,2.71-2.46,5.51-.12.98-.35,3.33,1.08,5.71,1.46,2.42,3.72,3.33,4.43,3.58"/><path class="cls-2" d="m63.53,78.96c.67.03,1.62.01,2.72-.18,3.02-.55,4.99-2.11,5.77-2.72,4.42-3.49,5.35-9.23,5.5-10.28"/><path class="cls-2" d="m69.05,62.32c.76.16,1.98.5,3.29,1.28,2.13,1.28,2.72,2.68,4.05,2.59,1.01-.07,1-.89,2.51-1.62,2.1-1.01,3.14.08,4.45-.81,1.81-1.23,2.41-5.03.81-6.31-.25-.2-.92-.63-2.31-.4"/><path class="cls-2" d="m68.33,62.32c1.06.17,2.71.32,4.66-.02,1.3-.22,7.89-1.31,9.71-6.56,1.24-3.56-.48-6.88-.94-7.7-.12-.22-2.7-4.63-7.55-5.07-.88-.08-3.03-.25-5.1,1.11-1.37.9-2.09,2.07-2.43,2.72"/><path class="cls-2" d="m56.44,52.13c.63-.99,2.19-3.1,5.03-4.37,1.24-.56,3.36-1.49,5.83-.81,2.55.71,2.13,4.19,5.26,5.83.81.42,1.54.6,1.98.67"/><path class="cls-2" d="m67.51,45.72c-.07-.24-1.21-4.14-4.76-5.11-2.64-.73-4.91.63-5.75,1.13-1.94,1.16-2.93,2.77-3.36,3.56"/><path class="cls-2" d="m70.24,62.46c.24-.61,2.05-5.39-.63-9.79-1.42-2.33-3.44-3.47-4.44-3.95-.9.43-2.76,1.46-4.22,3.58-1.83,2.65-1.9,5.34-1.88,6.31"/><path class="cls-2" d="m62.68,50.32c-.75,2.01-.52,3.23-.12,4,1.26,2.41,4.91,1.74,6.79,4.33,1.01,1.39,1.06,3.1.91,4.44"/><path class="cls-2" d="m62.56,54.32c.16.06,2.35.81,4.16-.59,1.27-.98,1.54-2.38,1.6-2.72"/><path class="cls-2" d="m70.66,54.95c.22-.22,1.71-1.68,3.88-1.49,1.54.14,3.5,1.1,4.01,3.1.46,1.81-.43,3.8-2.21,4.78"/><path class="cls-2" d="m62.22,67.27c-.07.82-.07,2.09.73,2.87,1.36,1.32,3.68-.08,5.63.96.99.53,2.19,1.85,2.52,5.65"/><g class="cls-5"><g class="cls-5"><path class="cls-9" d="m30.2,68.61l-11.91,3.89v-1.66l5.87-1.86c1.61-.51,3.06-.95,4.45-1.27v-.04c-1.38-.34-2.88-.83-4.44-1.36l-5.88-2.01v-1.64l11.91,4.26v1.7Z"/></g><g class="cls-5"><path class="cls-9" d="m18.29,59.82h11.91v1.54h-11.91v-1.54Z"/></g></g><g class="cls-5"><g class="cls-5"><path class="cls-9" d="m18.26,56.15l.17-1.53,10.55,1.19.57-5.06,1.28.14-.74,6.58-11.83-1.33Z"/></g></g><g class="cls-5"><g class="cls-5"><path class="cls-9" d="m20.08,45.54c.22-.92.54-1.99,1-3.12.83-2.05,1.89-3.31,3.19-3.91,1.3-.62,2.81-.67,4.59.05,1.8.73,3.05,1.88,3.65,3.33.61,1.45.48,3.38-.39,5.52-.41,1.02-.81,1.85-1.18,2.53l-10.86-4.4Zm10.34,2.53c.21-.33.44-.85.67-1.41,1.23-3.05.2-5.39-2.78-6.6-2.6-1.07-4.85-.27-6.07,2.75-.3.74-.46,1.32-.53,1.73l8.71,3.53Z"/></g></g><g class="cls-5"><g class="cls-5"><path class="cls-9" d="m33.92,39c.76-.28,1.66-.86,2.31-1.7.97-1.24.88-2.48-.07-3.21-.88-.68-1.77-.57-3.25.32-1.74,1.11-3.27,1.44-4.6.41-1.46-1.14-1.61-3.2-.18-5.03.75-.96,1.51-1.49,2.08-1.72l.73,1.11c-.41.18-1.17.59-1.84,1.44-1,1.28-.61,2.37.03,2.87.88.68,1.76.45,3.27-.46,1.85-1.11,3.25-1.32,4.63-.25,1.45,1.13,1.87,3.18.14,5.4-.71.91-1.74,1.69-2.47,1.93l-.78-1.1Z"/></g></g><g class="cls-5"><g class="cls-5"><path class="cls-9" d="m33.25,24.41l1.21-.95,3.54,4.52.04-.03c-.03-.56-.04-1.09-.05-1.58l.11-5.76,1.5-1.18-.28,6.64,7.88,2.54-1.43,1.12-6.69-2.19-.08,1.73,2.8,3.58-1.21.95-7.34-9.38Z"/></g></g><g class="cls-5"><g class="cls-5"><path class="cls-9" d="m44.58,16.87l2.62,6.54c.99,2.48,2.51,3.09,3.99,2.5,1.64-.66,2.26-2.16,1.28-4.6l-2.62-6.54,1.44-.58,2.58,6.45c1.36,3.4.13,5.5-2.27,6.46-2.26.91-4.49.29-5.86-3.14l-2.61-6.51,1.44-.58Z"/></g></g><g class="cls-5"><g class="cls-5"><path class="cls-9" d="m56.67,13.1c.92-.2,2.03-.38,3.25-.47,2.2-.15,3.81.26,4.91,1.16,1.12.9,1.83,2.23,1.96,4.15.13,1.94-.36,3.57-1.4,4.73-1.04,1.19-2.83,1.91-5.14,2.06-1.09.07-2.01.08-2.8.05l-.79-11.69Zm2.24,10.4c.39.04.96.02,1.56-.02,3.28-.22,4.94-2.17,4.72-5.38-.17-2.8-1.88-4.48-5.12-4.26-.79.05-1.39.16-1.79.28l.63,9.38Z"/></g></g><g class="cls-5"><g class="cls-5"><path class="cls-9" d="m75.41,13.79l6.11,1.94-.39,1.23-4.65-1.48-1.2,3.77,4.29,1.37-.39,1.21-4.29-1.37-1.63,5.14-1.46-.47,3.61-11.35Z"/></g></g><g class="cls-5"><g class="cls-5"><path class="cls-9" d="m87.44,26.16l-3.97-2.39-2.22,3.68,4.42,2.66-.67,1.1-5.74-3.46,6.15-10.2,5.51,3.32-.67,1.1-4.19-2.53-1.94,3.22,3.97,2.39-.66,1.09Z"/></g></g><g class="cls-5"><g class="cls-5"><path class="cls-9" d="m87.16,30.6c.2.79.67,1.74,1.42,2.48,1.12,1.1,2.36,1.15,3.2.29.78-.79.77-1.69.06-3.26-.91-1.85-1.06-3.41.12-4.61,1.3-1.32,3.36-1.23,5.01.39.87.85,1.3,1.67,1.47,2.26l-1.18.6c-.13-.42-.45-1.23-1.22-1.99-1.16-1.14-2.28-.88-2.85-.3-.78.79-.65,1.69.08,3.3.89,1.97.95,3.38-.28,4.63-1.29,1.31-3.37,1.5-5.38-.47-.82-.8-1.48-1.92-1.64-2.67l1.18-.65Z"/></g></g><g class="cls-5"><g class="cls-5"><path class="cls-9" d="m101.74,34.14l-1.92-3.07,1.11-.69,4.69,7.47-1.11.69-1.93-3.08-8.98,5.63-.83-1.32,8.98-5.63Z"/></g></g><g class="cls-5"><g class="cls-5"><path class="cls-9" d="m107.23,42.02l-11.04,4.46-.58-1.43,11.04-4.46.58,1.43Z"/></g></g><g class="cls-5"><g class="cls-5"><path class="cls-9" d="m97.55,50.99l10.94-6.1.32,1.63-5.4,2.95c-1.48.81-2.82,1.52-4.13,2.1v.03c1.42.07,2.99.26,4.62.48l6.16.85.32,1.61-12.51-1.89-.33-1.67Z"/></g></g><g class="cls-5"><g class="cls-5"><path class="cls-9" d="m102.12,58.52l-3.75-1.24v-1.59l11.91,4.05v1.85l-11.91,4.06v-1.64l3.75-1.27v-4.22Zm1.2,3.9l3.43-1.17c.78-.27,1.48-.44,2.17-.62v-.04c-.71-.18-1.43-.37-2.16-.6l-3.45-1.17v3.59Z"/></g><g class="cls-5"><path class="cls-9" d="m110.28,67.41v1.54h-10.62v5.09h-1.29v-6.63h11.91Z"/></g></g></g></svg>