<svg xmlns="http://www.w3.org/2000/svg" width="155" height="182" fill="none" viewBox="0 0 155 182">
  <path fill="#DFFC6E" fill-rule="evenodd" d="M78.755 1c24.372-3.558 52.333 2.14 67.834 20.908 14.817 17.939 5.868 43.433 4.329 66.46-1.378 20.609.035 41.811-12.668 58.292-14.528 18.849-35.39 35.707-59.495 35.334-23.906-.37-42.457-19.057-57.644-37.148C7.609 128.763-1.3 109.144.155 88.369c1.369-19.541 15.14-34.53 28.358-49.224C43.077 22.956 56.97 4.18 78.755 1Z" clip-rule="evenodd"/>
  <path fill="#000" d="M25.15 69V50.09h11.727v2.457h-8.873v5.761h8.032v2.447h-8.032V69H25.15Zm15.235 0V50.09h6.74c1.465 0 2.68.253 3.647.758.973.505 1.699 1.203 2.18 2.096.48.886.72 1.911.72 3.075 0 1.157-.244 2.175-.73 3.056-.48.874-1.207 1.554-2.18 2.04-.965.486-2.181.73-3.646.73H42.01v-2.456h4.847c.924 0 1.675-.133 2.253-.398.585-.264 1.013-.649 1.284-1.154.27-.504.406-1.11.406-1.819 0-.714-.139-1.332-.416-1.855-.27-.524-.698-.924-1.283-1.2-.579-.284-1.339-.425-2.28-.425h-3.583V69h-2.853Zm9.334-8.531L54.391 69h-3.25l-4.58-8.531h3.158ZM55 50.09h3.24l4.94 8.596h.203l4.94-8.596h3.24l-6.86 11.486V69H61.86v-7.423L55 50.091Zm31.09 5.974a5.77 5.77 0 0 0-.721-1.505 4.603 4.603 0 0 0-1.062-1.145 4.46 4.46 0 0 0-1.412-.73 5.68 5.68 0 0 0-1.727-.249c-1.065 0-2.025.274-2.88.822-.856.548-1.533 1.35-2.032 2.41-.492 1.052-.739 2.342-.739 3.868 0 1.533.25 2.829.748 3.887.499 1.059 1.182 1.862 2.05 2.41.868.548 1.856.822 2.964.822 1.028 0 1.923-.21 2.687-.628a4.374 4.374 0 0 0 1.781-1.773c.425-.77.638-1.674.638-2.714l.738.138h-5.41v-2.354h7.432v2.151c0 1.588-.338 2.967-1.015 4.137a6.915 6.915 0 0 1-2.789 2.696c-1.181.633-2.536.95-4.062.95-1.711 0-3.213-.393-4.506-1.181-1.286-.788-2.29-1.905-3.01-3.352-.72-1.452-1.08-3.176-1.08-5.17 0-1.508.21-2.862.628-4.063.418-1.2 1.006-2.219 1.763-3.056a7.7 7.7 0 0 1 2.687-1.93c1.034-.449 2.164-.674 3.388-.674 1.022 0 1.973.151 2.853.453a7.69 7.69 0 0 1 2.364 1.283 7.266 7.266 0 0 1 2.65 4.497h-2.927Zm4.957-3.518V50.09h14.634v2.456h-5.9V69h-2.843V52.547h-5.89ZM108.914 69V50.09h11.855v2.457h-9.002v5.761h8.384v2.447h-8.384v5.789h9.113V69h-11.966Zm30.928-18.91V69h-2.622l-9.611-13.868h-.176V69h-2.853V50.09h2.641l9.621 13.887h.175V50.091h2.825ZM26.547 100V81.09h11.726v2.457H29.4v5.761h8.033v2.447H29.4V100h-2.853Zm31.66-9.454c0 2.018-.37 3.754-1.108 5.207-.739 1.446-1.751 2.56-3.038 3.342-1.28.776-2.736 1.164-4.367 1.164-1.637 0-3.099-.388-4.386-1.164-1.28-.782-2.29-1.899-3.028-3.351-.739-1.453-1.108-3.186-1.108-5.198 0-2.02.37-3.752 1.108-5.199.739-1.452 1.748-2.566 3.029-3.342 1.286-.782 2.748-1.173 4.385-1.173 1.631 0 3.087.391 4.367 1.173 1.287.776 2.3 1.89 3.038 3.342.739 1.447 1.108 3.18 1.108 5.199Zm-2.825 0c0-1.54-.25-2.835-.748-3.888-.493-1.058-1.17-1.859-2.032-2.4-.855-.548-1.824-.822-2.908-.822-1.09 0-2.062.274-2.918.822-.855.541-1.532 1.342-2.03 2.4-.493 1.053-.74 2.349-.74 3.888 0 1.538.247 2.837.74 3.896.498 1.052 1.175 1.853 2.03 2.4.856.542 1.829.813 2.918.813 1.084 0 2.053-.271 2.908-.813.862-.547 1.54-1.348 2.032-2.4.498-1.059.748-2.358.748-3.896ZM61.764 100V81.09h6.74c1.465 0 2.68.253 3.647.758.973.505 1.699 1.203 2.179 2.096.48.886.72 1.911.72 3.075 0 1.157-.243 2.175-.73 3.056-.48.874-1.206 1.554-2.178 2.04-.967.486-2.182.73-3.647.73h-5.106v-2.457h4.847c.923 0 1.674-.132 2.253-.397.585-.264 1.013-.649 1.283-1.154.271-.504.407-1.11.407-1.819 0-.714-.139-1.332-.416-1.855-.27-.524-.698-.924-1.283-1.2-.579-.284-1.339-.425-2.28-.425h-3.583V100h-2.853Zm9.334-8.531L75.77 100h-3.25l-4.58-8.531h3.16ZM88.257 81.09V100h-2.853V81.09h2.853ZM92.41 100V81.09h2.853v9.03h.231l7.931-9.03h3.592l-7.626 8.514L107.044 100h-3.435l-6.112-8.448-2.235 2.567V100H92.41Zm17.266 0V81.09h2.853v9.03h.231l7.931-9.03h3.592l-7.627 8.514L124.31 100h-3.434l-6.113-8.448-2.234 2.567V100h-2.853Zm17.266 0V81.09h11.855v2.457h-9.002v5.761h8.383v2.447h-8.383v5.789h9.113V100h-11.966Zm-92.767 31h-3.029l6.805-18.909h3.296L48.052 131h-3.029l-5.345-15.474h-.148L34.175 131Zm.508-7.405h9.823v2.401h-9.824v-2.401Zm12.933-9.048v-2.456H62.25v2.456h-5.9V131h-2.844v-16.453h-5.89ZM72.365 131v-18.909h2.853v16.453h8.568V131H72.365Zm14.675 0v-18.909h11.855v2.456h-9.002v5.761h8.384v2.447h-8.384v5.789h9.113V131H87.04Zm17.319-18.909 5.263 15.4h.212l5.263-15.4h3.084L111.376 131h-3.296l-6.805-18.909h3.084ZM120.911 131v-18.909h11.856v2.456h-9.003v5.761h8.384v2.447h-8.384v5.789h9.113V131h-11.966Z"/>
</svg>
