<svg xmlns="http://www.w3.org/2000/svg" width="160" height="192" fill="none" viewBox="0 0 160 192">
  <path fill="#DFFC6E" fill-rule="evenodd" d="M81.295 1.055c25.159-3.753 54.021 2.258 70.022 22.057 15.295 18.924 6.058 45.82 4.469 70.112-1.422 21.74.036 44.108-13.076 61.494-14.997 19.885-36.532 37.669-61.415 37.276-24.677-.391-43.826-20.105-59.504-39.19C7.855 135.838-1.341 115.14.162 93.224c1.41-20.614 15.625-36.427 29.27-51.929C44.466 24.217 58.808 4.41 81.295 1.055Z" clip-rule="evenodd"/>
  <path fill="#000" d="M48.036 77.065a5.77 5.77 0 0 0-.72-1.505 4.6 4.6 0 0 0-1.062-1.145 4.459 4.459 0 0 0-1.412-.73 5.68 5.68 0 0 0-1.727-.249c-1.065 0-2.025.274-2.88.822-.856.548-1.533 1.35-2.032 2.41-.492 1.052-.738 2.342-.738 3.868 0 1.533.249 2.829.747 3.887.5 1.059 1.182 1.862 2.05 2.41.868.548 1.856.822 2.964.822 1.028 0 1.924-.21 2.687-.628a4.375 4.375 0 0 0 1.782-1.773c.425-.77.637-1.674.637-2.714l.739.138H43.66v-2.354h7.433v2.151c0 1.588-.339 2.967-1.016 4.137a6.915 6.915 0 0 1-2.788 2.696c-1.182.633-2.537.95-4.063.95-1.711 0-3.213-.393-4.506-1.181-1.286-.788-2.29-1.905-3.01-3.352-.72-1.453-1.08-3.176-1.08-5.17 0-1.508.21-2.863.628-4.063.419-1.2 1.006-2.219 1.764-3.056a7.698 7.698 0 0 1 2.686-1.93c1.034-.449 2.164-.674 3.389-.674 1.021 0 1.972.151 2.853.453.886.301 1.674.73 2.363 1.283a7.268 7.268 0 0 1 2.65 4.497h-2.927Zm23.104 3.48c0 2.02-.37 3.755-1.108 5.208-.739 1.446-1.752 2.56-3.038 3.342-1.28.776-2.736 1.163-4.367 1.163-1.638 0-3.1-.387-4.386-1.163-1.28-.782-2.29-1.899-3.028-3.351-.739-1.453-1.108-3.186-1.108-5.198 0-2.02.37-3.752 1.108-5.199.738-1.452 1.748-2.566 3.028-3.342 1.287-.782 2.748-1.173 4.386-1.173 1.63 0 3.087.391 4.367 1.173 1.286.776 2.299 1.89 3.038 3.342.738 1.447 1.108 3.18 1.108 5.199Zm-2.826 0c0-1.538-.249-2.834-.748-3.887-.492-1.058-1.17-1.859-2.03-2.4-.856-.548-1.826-.822-2.91-.822-1.089 0-2.061.274-2.917.822-.855.541-1.533 1.342-2.031 2.4-.492 1.053-.739 2.349-.739 3.888 0 1.538.246 2.837.739 3.896.498 1.052 1.176 1.853 2.031 2.4.856.542 1.828.813 2.918.813 1.083 0 2.053-.271 2.908-.813.862-.547 1.539-1.348 2.031-2.4.499-1.059.748-2.358.748-3.896Zm26.06-3.48a5.77 5.77 0 0 0-.72-1.505 4.6 4.6 0 0 0-1.062-1.145 4.46 4.46 0 0 0-1.412-.73 5.68 5.68 0 0 0-1.727-.249c-1.065 0-2.025.274-2.88.822-.856.548-1.533 1.35-2.032 2.41-.492 1.052-.738 2.342-.738 3.868 0 1.533.249 2.829.747 3.887.499 1.059 1.182 1.862 2.05 2.41.868.548 1.856.822 2.964.822 1.028 0 1.924-.21 2.687-.628a4.375 4.375 0 0 0 1.782-1.773c.424-.77.637-1.674.637-2.714l.738.138h-5.41v-2.354h7.432v2.151c0 1.588-.338 2.967-1.015 4.137a6.916 6.916 0 0 1-2.789 2.696c-1.181.633-2.536.95-4.062.95-1.711 0-3.213-.393-4.506-1.181-1.286-.788-2.29-1.905-3.01-3.352-.72-1.453-1.08-3.176-1.08-5.17 0-1.508.21-2.863.628-4.063.418-1.2 1.006-2.219 1.763-3.056a7.698 7.698 0 0 1 2.687-1.93c1.034-.449 2.164-.674 3.389-.674 1.021 0 1.972.151 2.853.453.886.301 1.674.73 2.363 1.283a7.268 7.268 0 0 1 2.65 4.497h-2.927Zm23.103 3.48c0 2.02-.369 3.755-1.108 5.208-.738 1.446-1.751 2.56-3.037 3.342-1.28.776-2.736 1.163-4.367 1.163-1.638 0-3.1-.387-4.386-1.163-1.28-.782-2.29-1.899-3.028-3.351-.739-1.453-1.108-3.186-1.108-5.198 0-2.02.369-3.752 1.108-5.199.738-1.452 1.748-2.566 3.028-3.342 1.286-.782 2.748-1.173 4.386-1.173 1.631 0 3.087.391 4.367 1.173 1.286.776 2.299 1.89 3.037 3.342.739 1.447 1.108 3.18 1.108 5.199Zm-2.825 0c0-1.538-.249-2.834-.748-3.887-.492-1.058-1.169-1.859-2.031-2.4-.856-.548-1.825-.822-2.908-.822-1.09 0-2.062.274-2.918.822-.856.541-1.533 1.342-2.031 2.4-.493 1.053-.739 2.349-.739 3.888 0 1.538.246 2.837.739 3.896.498 1.052 1.175 1.853 2.031 2.4.856.542 1.828.813 2.918.813 1.083 0 2.052-.271 2.908-.813.862-.547 1.539-1.348 2.031-2.4.499-1.059.748-2.358.748-3.896Zm-94.76 21.546h3.24l4.94 8.596h.204l4.94-8.596h3.24l-6.86 11.486V121h-2.844v-7.423l-6.86-11.486Zm34.718 9.454c0 2.019-.37 3.755-1.108 5.208-.738 1.446-1.75 2.56-3.037 3.342-1.28.776-2.736 1.164-4.368 1.164-1.637 0-3.099-.388-4.385-1.164-1.28-.782-2.29-1.899-3.029-3.351-.738-1.453-1.108-3.186-1.108-5.199 0-2.018.37-3.751 1.108-5.198.74-1.452 1.748-2.566 3.029-3.342 1.286-.782 2.748-1.173 4.385-1.173 1.632 0 3.087.391 4.368 1.173 1.286.776 2.299 1.89 3.037 3.342.739 1.447 1.108 3.18 1.108 5.198Zm-2.825 0c0-1.538-.25-2.834-.748-3.887-.492-1.058-1.17-1.859-2.031-2.4-.856-.548-1.825-.822-2.909-.822-1.089 0-2.062.274-2.917.822-.856.541-1.533 1.342-2.031 2.4-.493 1.053-.739 2.349-.739 3.887 0 1.539.246 2.838.739 3.897.498 1.052 1.175 1.853 2.03 2.4.856.542 1.829.813 2.918.813 1.084 0 2.053-.271 2.909-.813.862-.547 1.539-1.348 2.031-2.4.499-1.059.748-2.358.748-3.897Zm14.517-1.2v2.401h-8.384v-2.401h8.384Zm.791-8.254h3.241l4.94 8.596h.203l4.94-8.596h3.24l-6.86 11.486V121h-2.844v-7.423l-6.86-11.486Zm34.718 9.454c0 2.019-.369 3.755-1.108 5.208-.738 1.446-1.75 2.56-3.037 3.342-1.28.776-2.736 1.164-4.367 1.164-1.638 0-3.1-.388-4.386-1.164-1.28-.782-2.29-1.899-3.028-3.351-.739-1.453-1.108-3.186-1.108-5.199 0-2.018.369-3.751 1.108-5.198.738-1.452 1.748-2.566 3.028-3.342 1.287-.782 2.748-1.173 4.386-1.173 1.63 0 3.086.391 4.367 1.173 1.286.776 2.299 1.89 3.037 3.342.739 1.447 1.108 3.18 1.108 5.198Zm-2.825 0c0-1.538-.25-2.834-.748-3.887-.492-1.058-1.17-1.859-2.031-2.4-.856-.548-1.825-.822-2.908-.822-1.09 0-2.062.274-2.918.822-.856.541-1.533 1.342-2.031 2.4-.493 1.053-.739 2.349-.739 3.887 0 1.539.246 2.838.739 3.897.498 1.052 1.175 1.853 2.031 2.4.856.542 1.828.813 2.918.813 1.083 0 2.052-.271 2.908-.813.862-.547 1.539-1.348 2.031-2.4.499-1.059.748-2.358.748-3.897Zm6.382 9.455v-18.909h2.853v9.03h.231l7.931-9.03h3.592l-7.626 8.513L120.003 121h-3.435l-6.112-8.448-2.235 2.567V121h-2.853Zm29.426-18.909h2.862v12.437c0 1.323-.311 2.496-.932 3.517-.622 1.016-1.496 1.816-2.623 2.401-1.126.579-2.446.868-3.961.868-1.508 0-2.825-.289-3.951-.868-1.127-.585-2.001-1.385-2.622-2.401-.622-1.021-.933-2.194-.933-3.517v-12.437h2.853v12.206c0 .855.188 1.616.563 2.28a4.09 4.09 0 0 0 1.616 1.57c.696.375 1.52.563 2.474.563.961 0 1.789-.188 2.484-.563a3.954 3.954 0 0 0 1.607-1.57c.375-.664.563-1.425.563-2.28v-12.206Z"/>
</svg>
