<?xml version="1.0" encoding="UTF-8"?><svg xmlns="http://www.w3.org/2000/svg" viewBox="0 0 284.12 291.14"><defs><style>.cls-1{stroke:#141414;stroke-width:3px;}.cls-1,.cls-2,.cls-3,.cls-4,.cls-5,.cls-6{stroke-miterlimit:10;}.cls-1,.cls-2,.cls-4{fill:none;}.cls-7{fill:#f2f2f2;}.cls-8{fill:#fff;}.cls-9{fill:#e5e3e4;}.cls-10,.cls-5{fill:#dffc6e;}.cls-11{fill:#898989;}.cls-12{font-size:5.21px;}.cls-12,.cls-13,.cls-14{font-family:MyriadPro-Regular, 'Myriad Pro';}.cls-2,.cls-5,.cls-6{stroke-width:.75px;}.cls-2,.cls-6{stroke:#383838;}.cls-3{fill:#b7b7b7;}.cls-3,.cls-4{stroke:#000;}.cls-13{font-size:9.27px;}.cls-5{stroke:#221f20;}.cls-6{fill:#444;}.cls-14{font-size:8.41px;}</style></defs><g id="Layer_2"><rect class="cls-11" x="-.43" y="-.31" width="285.33" height="292.38"/><g><path d="M192.24,187.55l.27,.62-5.36,4.29-.26-.6,1.65-1.28-.77-1.75-2.06,.34-.25-.57,6.77-1.04Zm-3.78,1.16l.63,1.44,1.82-1.4c.3-.23,.77-.57,.77-.57h0s-.56,.09-.95,.16l-2.26,.37Z"/><path d="M193.37,190.13l.35,.69-4.21,3.87h0s5.61-1.09,5.61-1.09l.35,.7-5.91,2.99-.26-.52,4.86-2.46h0s-.52,.11-.84,.17l-4.71,.91-.21-.41,3.53-3.26c.26-.23,.65-.57,.65-.57h0s-4.86,2.45-4.86,2.45l-.24-.49,5.91-2.99Z"/><path d="M196.54,196.16l.34,.59-4.84,4.85-.33-.57,1.49-1.45-.96-1.66-2,.56-.31-.53,6.61-1.79Zm-3.62,1.57l.79,1.36,1.65-1.59c.27-.27,.7-.65,.7-.65h0s-.54,.16-.92,.26l-2.21,.62Z"/><path d="M194.99,204.54h0c-.76,.07-1.32-.18-1.66-.71-.74-1.13-.04-2.66,1.64-3.76,1.63-1.06,3.35-1.23,4.17,.03,.61,.93,.28,1.96-.72,2.8l-.34-.52c.66-.59,.86-1.26,.45-1.89-.63-.97-1.92-.75-3.22,.1-1.36,.89-1.89,2.05-1.36,2.87,.54,.83,1.57,.71,2.5,.1l.13-.09-.79-1.21,.61-.4,1.12,1.71-2.94,1.91-.21-.33,.64-.62Z"/><path d="M200.51,202.43l2.01,2.73-.59,.43-1.65-2.24-1.69,1.24,1.5,2.04-.57,.42-1.5-2.04-1.87,1.38,1.7,2.31-.62,.46-2.06-2.79,5.34-3.93Z"/><path d="M202.93,205.68l1.43,1.73c.54,.65,.34,1.56-.5,2.25-.62,.51-1.23,.68-1.79,.4l-.02,.02c.13,.53-.13,.94-.86,1.6-.79,.72-.94,.95-.95,1.07l-.03,.02-.41-.5c.03-.15,.21-.33,1.03-1.08,.72-.65,.8-1.09,.39-1.59l-.85-1.03-2.16,1.78-.38-.47,5.11-4.21Zm-2.04,2.47l.91,1.1c.43,.52,1,.48,1.58,0,.62-.51,.76-.98,.32-1.52l-.93-1.12-1.87,1.54Z"/><path d="M205.68,208.95l1.35,1.52c.33,.38,.45,.78,.34,1.24-.08,.33-.29,.67-.64,.98-.55,.49-1.08,.57-1.55,.35l-.02,.02c.23,.52,.11,1.2-.55,1.79-.38,.34-.79,.54-1.18,.59-.48,.07-.93-.09-1.27-.48l-1.43-1.6,4.94-4.42Zm-2.97,5.49c.23,.26,.48,.36,.75,.34,.23-.03,.48-.14,.72-.35,.62-.55,.64-1.14,.25-1.57l-.98-1.1-1.74,1.56,1.01,1.13Zm2.16-2.14c.39,.44,.92,.43,1.43-.03,.48-.43,.56-.92,.2-1.32l-.96-1.07-1.58,1.41,.9,1.01Z"/><path d="M208.5,212.09l1.51,1.65c.57,.62,.42,1.54-.38,2.27-.59,.54-1.19,.74-1.77,.49l-.02,.02c.15,.52-.08,.95-.78,1.65-.75,.76-.89,1-.9,1.12l-.03,.02-.44-.48c.02-.16,.19-.34,.98-1.13,.69-.69,.75-1.13,.31-1.61l-.9-.98-2.06,1.89-.41-.45,4.89-4.47Zm-1.92,2.57l.96,1.05c.45,.49,1.02,.43,1.58-.08,.59-.54,.71-1.02,.24-1.54l-.98-1.07-1.79,1.64Z"/><path d="M208.93,217.45c1.48-1.32,3.18-1.63,4.14-.55s.47,2.73-1.01,4.05c-1.48,1.32-3.18,1.63-4.14,.55-.97-1.08-.47-2.73,1.01-4.05Zm2.72,3.04c1.16-1.04,1.64-2.27,.89-3.11s-2.03-.51-3.19,.53c-1.16,1.04-1.63,2.26-.88,3.1s2.02,.51,3.19-.52Z"/><path d="M213.01,225.85h0c-.74,.16-1.33-.02-1.74-.5-.87-1.03-.37-2.64,1.16-3.94,1.49-1.26,3.17-1.63,4.15-.48,.72,.85,.52,1.91-.37,2.87l-.4-.48c.59-.67,.7-1.35,.21-1.93-.75-.88-2-.51-3.19,.49-1.24,1.05-1.63,2.27-1,3.01,.64,.75,1.64,.51,2.49-.21l.12-.1-.93-1.1,.55-.47,1.32,1.56-2.68,2.26-.25-.3,.55-.7Z"/><path d="M219.24,224.4l.42,.53-4.06,5.52-.41-.51,1.26-1.66-1.2-1.49-1.9,.86-.39-.48,6.27-2.76Zm-3.35,2.1l.98,1.22,1.39-1.82c.23-.3,.6-.75,.6-.75h0s-.51,.24-.87,.4l-2.09,.94Z"/><path d="M221.14,226.8l1.06,1.39c.87,1.15,.21,2.51-1.37,3.71-1.58,1.2-3.06,1.41-3.93,.26l-1.03-1.35,5.27-4.02Zm-3.67,4.91c.68,.9,1.75,.65,2.99-.29s1.83-1.9,1.15-2.8l-.68-.89-4.11,3.13,.65,.85Z"/><path d="M223.99,230.57l1.99,2.74-.59,.43-1.63-2.25-1.7,1.23,1.48,2.05-.57,.41-1.48-2.05-1.88,1.36,1.68,2.32-.62,.45-2.04-2.81,5.37-3.88Z"/></g><text class="cls-13" transform="translate(149.24 119.83) rotate(-48.93) scale(.72 1)"><tspan x="0" y="0">C</tspan><tspan x="5.36" y="0">H</tspan><tspan x="11.39" y="0">R</tspan><tspan x="16.41" y="0">I</tspan><tspan x="18.59" y="0">S</tspan></text><text class="cls-13" transform="translate(160.26 107.18) rotate(-48.93) scale(.72 1)"><tspan x="0" y="0">T</tspan><tspan x="4.63" y="0">I</tspan><tspan x="6.84" y="0">A</tspan><tspan x="12.48" y="0">N</tspan><tspan x="18.59" y="0">S</tspan></text><text class="cls-13" transform="translate(171.28 94.53) rotate(-48.93) scale(.72 1)"><tspan x="0" y="0">H</tspan></text><text class="cls-13" transform="translate(174.15 91.24) rotate(-48.93) scale(.72 1)"><tspan x="0" y="0">A</tspan></text><text class="cls-13" transform="translate(176.63 88.4) rotate(-48.93) scale(.72 1)"><tspan x="0" y="0">V</tspan><tspan x="5.16" y="0">N</tspan></text><text class="cls-13" transform="translate(118.78 29.97) rotate(25.13) scale(.72 1)"><tspan x="0" y="0">N</tspan></text><text class="cls-13" transform="translate(122.74 31.83) rotate(25.13) scale(.72 1)"><tspan x="0" y="0">Y</tspan></text><text class="cls-13" transform="translate(125.97 33.34) rotate(25.13) scale(.72 1)"><tspan x="0" y="0">H</tspan></text><text class="cls-13" transform="translate(129.94 35.21) rotate(25.13) scale(.72 1)"><tspan x="0" y="0">A</tspan></text><text class="cls-13" transform="translate(133.33 36.8) rotate(25.13) scale(.72 1)"><tspan x="0" y="0">V</tspan></text><text class="cls-13" transform="translate(136.72 38.39) rotate(25.13) scale(.72 1)"><tspan x="0" y="0">N</tspan></text><text class="cls-13" transform="translate(71.05 104.75) rotate(-52.47) scale(.72 1)"><tspan x="0" y="0"> </tspan></text><text class="cls-13" transform="translate(71.89 103.66) rotate(-50.55) scale(.72 1)"><tspan x="0" y="0"> </tspan></text><text class="cls-13" transform="translate(72.75 102.6) rotate(-48.52) scale(.72 1)"><tspan x="0" y="0">I</tspan></text><text class="cls-13" transform="translate(73.7 101.45) rotate(-44.49) scale(.72 1)"><tspan x="0" y="0">N</tspan></text><text class="cls-13" transform="translate(76.76 98.47) rotate(-39.61) scale(.72 1)"><tspan x="0" y="0">D</tspan></text><text class="cls-13" transform="translate(80.08 95.7) rotate(-34.1) scale(.72 1)"><tspan x="0" y="0">R</tspan></text><text class="cls-13" transform="translate(82.92 93.76) rotate(-27.66) scale(.72 1)"><tspan x="0" y="0">E</tspan></text><text class="cls-13" transform="translate(85.75 92.31) rotate(-22.92) scale(.72 1)"><tspan x="0" y="0"> </tspan></text><text class="cls-13" transform="translate(86.9 91.76) rotate(-17.51) scale(.72 1)"><tspan x="0" y="0">B</tspan></text><text class="cls-13" transform="translate(90.09 90.77) rotate(-10.43) scale(.72 1)"><tspan x="0" y="0">Y</tspan></text></g><g id="WATER"><g id="water"><g id="kanal_toppo"><path id="vatten1" class="cls-9" d="M-.43,232.25c.7-1.2,10.82-18.47,17.22-27.63,2.08-2.97,3.91-5.4,3.91-5.4,3.85-5.05,6.41-7.59,14.59-18.86,4.06-5.59,7.44-10.45,13.21-17.3,3.21-3.81,4.23-4.75,7.21-8.41,5.93-7.27,7.01-9.79,11.53-15.85,5.66-7.59,7.03-7.74,22.58-25.22,2.99-3.36,5.41-6.13,6.97-7.93,.59,.38,1.17,.77,1.76,1.15,.43-.14,.52-.3,.54-.39,.1-.51-1.38-1.14-1.56-1.22,1.27-1.01,2.54-2.02,3.81-3.03,.16,.06,.4,.12,.68,.1,.76-.06,1.2-.68,1.27-.78,.44,.33,.88,.65,1.32,.98,.18-.18,.23-.35,.24-.44,.08-.44-.27-.95-.88-1.22,2.87-2.72,4.59-4.09,5.67-4.74,.27-.17,1.04-.61,1.51-1.51,.33-.63,.39-1.25,.39-1.66,2.98-2.79,5.96-5.57,8.94-8.36,2.52,1.3,3.87,2.76,4.64,3.88,.45,.66,.98,1.6,1.69,1.57,.69-.02,1.23-.93,1.57-1.69-1.94-1.82-3.87-3.63-5.81-5.45,2.66-2.89,6.54-6.24,11.86-8.59,1.08-.48,2.13-.88,3.15-1.21,5.61-4.28,11.22-8.55,16.83-12.83,1.73,1.73,3.47,3.47,5.2,5.2,.93-.61,1.86-1.21,2.78-1.82l-4.6-5.93c.39-.09,3.77-.94,5.2-4.24,1.02-2.35,.43-4.51,.24-5.12,2.07-3.83,4.13-7.66,6.2-11.48,4.2,1.95,8.39,3.89,12.59,5.84-1.61,3.64-3.22,7.28-4.83,10.92v2.22c.48,.39,.97,.77,1.45,1.16,2.19-4.44,4.38-8.89,6.57-13.33,12.19,5.58,24.38,11.16,36.57,16.74-1.4,3.72-2.8,7.44-4.2,11.16-4.74,5.58-9.49,11.16-14.23,16.74-3.23,.08-6.47,.16-9.7,.24-1.29-5.5-2.59-11-3.88-16.5-.35,.24-.7,.49-1.05,.73,.12,1.02,.31,2.53,.57,4.37,1.48,10.62,2.42,12.07,3.56,13.02,2.03,1.69,4.65,1.75,5.82,1.78,.82,.02,3.7,.05,6.31-1.78,1.42-.99,1.69-1.78,3.56-4.12,1.48-1.86,1.69-1.83,4.77-5.18,5.64-6.11,8.41-9.94,9.06-10.84,1.55-2.16,2.29-3.41,2.91-4.61,1.25-2.42,1.62-3.93,2.43-6.23,1.95-5.57,2.85-5.6,4.53-10.35,.77-2.17,1.24-4.41,2.18-8.89,1.1-5.2,1.77-8.4,2.18-12.53,.38-3.79,.31-7.11,.16-13.58-.08-3.48-.25-8.3-.65-14.1h-14.8c-.89,1.84-1.78,3.68-2.67,5.52,2.37,1.13,4.74,2.26,7.12,3.4,.43,4.74,.86,9.49,1.29,14.23-1.35,6.79-2.7,13.58-4.04,20.38l-2.26,4.29c.27,.38,.54,.75,.81,1.13-.73,1.75-1.46,3.5-2.18,5.26-1.54-.59-3.07-1.19-4.61-1.78-.3,.86-.59,1.73-.89,2.59-9.41-4.31-18.81-8.63-28.22-12.94,5.37-11.09,10.74-22.17,16.11-33.26-.58-.37-1.17-.74-1.75-1.11-4.98,10.18-9.96,20.35-14.95,30.53-3.34-1.59-6.68-3.18-10.02-4.77,.85-3.71,1.7-7.42,2.54-11.13-.72-1.22-1.44-2.44-2.16-3.65,4.28-6.23,8.57-12.45,12.85-18.68h-29.16c-3.79,7.96-7.58,15.92-11.37,23.89,1.65,.92,3.29,1.85,4.94,2.77,2.84-5.71,5.68-11.41,8.52-17.12l3.59,1.62c-3.43,7.53-6.86,15.06-10.28,22.6,1.01,.47,2.03,.95,3.04,1.42-1.29,2.77-2.57,5.55-3.86,8.32l-4.26,1.62c-.36,.72-.72,1.44-1.08,2.16-11.06-5.19-22.12-10.37-33.19-15.56-.41,.67-.81,1.33-1.22,2,10.62,5.07,21.24,10.14,31.85,15.21-.85,1.52-1.79,3.04-2.82,4.57-8.25,12.16-19.36,19.36-28.4,23.64,.05,.51,.1,1.02,.15,1.54-1.07,.72-2.15,1.43-3.22,2.15-1.18-.72-2.35-1.43-3.53-2.15-3.52,.4-8.66,.44-13.97-1.84-3.38-1.46-5.2-3.15-9.53-6.43-3.19-2.42-7.87-5.8-13.92-9.55-1.12-.09-2.8-.12-4.75,.29-4.4,.93-7.09,3.44-10.66,6.77-4.66,4.35-7.39,8.83-8.7,11.03-.16,.27-.29,.49-.38,.64-.1,.48-.19,.96-.29,1.44,8.35,11.86,16.71,23.71,25.06,35.57l2.16-2.02c-8.35-11.67-16.71-23.33-25.06-35,1.82-3.01,5.01-7.44,10.23-11.38,3.49-2.64,6.86-4.29,9.51-5.33h2.59c9.08,5.28,13.21,8.64,15.27,10.8,.53,.55,2.22,2.4,5.04,3.89,1.89,1,3.6,1.48,4.75,1.73,.97,.14,1.98,.33,3.02,.58,4.9,1.16,8.85,3.21,11.81,5.18-.18,.6-.48,1.48-1.01,2.45-1.59,2.91-4.01,4.49-8.79,7.06-7.07,3.79-10.32,4.91-10.23,6.62,.04,.77,.74,1.36,1.3,1.73-4.97,2.4-10.91,5.78-17.14,10.51-6.29,4.78-11.17,9.65-14.83,13.83-3.41,3.55-6.82,7.1-10.23,10.66,.43,.29,.86,.58,1.3,.86-8.41,9.12-18.11,18.72-29.24,28.37-7.44,6.45-14.73,12.26-21.76,17.48v47.94Z"/><path class="cls-9" d="M89.82,113.58c7.41,6.51,14.83,13.01,22.24,19.52,14.9-14.97,30.03-31.12,45.18-48.51,6.55-7.52,12.87-15,18.96-22.41,3.28,2.01,6.57,4.02,9.85,6.03,.21,.7,.41,1.4,.62,2.09,.41-.41,.82-.82,1.23-1.23-.12-1.56-.25-3.12-.37-4.68-8.09-5.37-16.18-10.74-24.28-16.11,.15,.39,.28,.86,.36,1.4,.23,1.65-.26,3.01-.58,3.71,3.31,1.88,6.61,3.77,9.92,5.65,.01,.42,.03,.84,.04,1.26-7.95,9.68-15.9,19.35-23.86,29.03l-12.32-16.06c-.64,.25-1.27,.5-1.91,.74,4.4,5.62,8.79,11.24,13.19,16.86-11.91,12.99-23.83,25.99-35.74,38.98-6.82-6.22-13.63-12.45-20.45-18.67-.7,.79-1.4,1.58-2.09,2.36Z"/></g><g id="kanal_nere"><path class="cls-9" d="M162.82,144.45c.25,.36,.71,.53,1.15,.41,4.59-1.58,9.18-3.15,13.76-4.73,.89,.24,1.81,.48,2.75,.71,1.9,.45,2.15,.62,2.54,.56,.53-.08,1.96-.59,3.04-5.15l15.25-11.93c.75,.21,1.51,.42,2.26,.64,.3,.1,1.22,.38,2.05-.07,.89-.48,1.13-1.5,1.34-2.4,.13-.55,.28-1.55,0-2.82,4.31-2.14,9.94-5.55,15.53-10.87,3.68-3.5,6.46-7,8.54-10.02,.51,.14,1.81,.43,3.32-.07,.41-.13,1.96-.67,2.89-2.19,1-1.63,.92-3.81-.14-5.65,1.91-2,4.21-4.84,6.21-8.61,1.32-2.5,2.21-4.84,2.82-6.85,.58,.07,3.16,.29,5.51-1.48,.6-.45,2.88-2.32,2.96-5.51,.09-3.49-2.55-5.58-2.82-5.79,.69-1.67,1.36-3.48,1.98-5.44,1.23-3.9,1.96-7.53,2.4-10.73,2.06-.89,3.4-2.04,4.16-2.82,.71-.72,1.4-1.44,1.91-2.61,.23-.55,1-2.4,.35-4.59-.83-2.81-3.35-3.99-3.74-4.16,.49-2.21,.89-4.86,.99-7.88,.14-4.23-.35-7.86-.95-10.65,.25-.03,1.97-.3,2.96-1.89,.11-.17,.94-1.55,.48-3.17-.22-.77-.62-1.24-1.16-1.85-1.27-1.44-3.36-2.84-4.05-2.33-.22,.16-.31,.53-.22,.78,.1,.26,.4,.3,.9,.52,.01,0,.41,.23,1.21,.69,1.01,.58,1.52,.87,1.55,.9,.75,.86,.41,2.72-.52,3.88-.64,.81-1.47,1.15-1.89,1.29,.59,3.94,.91,8.95,.17,14.64-.29,2.28-.72,4.38-1.21,6.29,.84,.54,2.32,1.69,3.1,3.66,.35,.9,.72,1.84,.39,2.84-.39,1.16-1.53,1.81-3.57,2.97-.68,.38-1.26,.67-1.68,.86-.18,2.27-.53,4.82-1.16,7.58-1.12,4.86-2.78,8.88-4.35,11.97,1.26,1.66,1.76,3.19,1.98,4.13,.26,1.13,.47,2.02,.04,2.93-.55,1.17-1.78,1.64-3.01,2.11-1.29,.49-2.44,.62-3.23,.65-.81,2.37-1.95,5.12-3.57,8.05-2.14,3.86-4.51,6.88-6.54,9.13,.25,.77,.56,1.98,.56,3.49,0,1.08,0,1.79-.39,2.37-.78,1.14-2.83,1.36-5.08,.78-1.25,2.27-2.5,4.07-3.5,5.37-.77,1-1.77,2.31-3.3,3.8-1.61,1.56-3,2.55-3.83,3.14-5.24,3.7-12.93,8.7-13.66,9.17,.2,.99,.29,2.36-.22,3.8-.27,.76-.59,1.67-1.39,1.96-.51,.19-1.11,0-2.31-.39-.81-.26-1.47-.53-1.93-.73l-15.6,11.86c-.72,1.6-1.28,2.86-1.66,3.81-.08,.19-.23,.6-.62,.77-.55,.24-1.2-.18-1.5-.35-.74-.43-1.92-.87-3.81-.92-4.78,1.62-9.55,3.24-14.33,4.85-.34,.36-.39,.91-.12,1.31Z"/><path class="cls-9" d="M254.03,17.4c-.51-4.29-1.14-4.61-1.37-8.21-.26-4.03,.3-7.35,.8-9.5h-5.5c-.32,.62-1.1,1.89-2.62,2.84-1.14,.71-2.23,.96-2.88,1.05-.23,1.74-.45,5.22,1.05,9.17,1.84,4.85,6.25,4.81,7.07,8.9,.73,3.62-1.4,8.09-3.89,8.77-.71,.19-.89-.07-1.65,.21-1.73,.63-2.42,2.58-3.45,5.62-.87,2.57-1.3,3.87-.78,4.82,.72,1.34,2.15,.99,3.1,2.58,.67,1.12,.17,1.66,.62,3.52,.68,2.81,2.16,2.96,2.07,4.45-.13,2.26-3.69,4.56-6.87,5.04-1.87,.28-2.78-.2-4.09,.65-.9,.58-1.4,1.55-2.38,3.47-1.21,2.38-1.81,3.57-1.76,4.49,.13,2.19,2.07,2.4,3.42,5.21,.33,.68,1.92,4.22,.33,7.15-1.37,2.54-4.83,4.08-7.49,3.66-1.06-.17-1.85-.62-3.16-.33-.46,.1-1.35,.38-2.81,1.76-1.45,1.37-3.66,3.47-3.72,6.27-.04,1.56,.64,1.58,1.18,3.82,.93,3.86,.04,8.39-1.76,8.91-.58,.17-.67-.24-1.76-.29-2.07-.1-2.82,1.3-4.51,1.47-1.99,.19-2.25-1.85-4.21-1.86-1.64-.01-1.85,1.34-4.95,3.21-2.81,1.7-3.98,1.41-4.65,2.76-.64,1.29,.36,1.98,.2,4.41-.03,.4-.45,6.02-2.84,6.66-1,.27-1.3-.61-4.41-1.47-2.07-.58-2.09-.23-3.04-.69-2.52-1.21-2.31-3.6-4.21-4.11-.91-.25-1.12,.26-4.11,1.27-3.89,1.32-4.41,.76-5.19,1.67-1.63,1.88,.25,4.74-1.57,6.37-.69,.62-1.05,.29-2.45,1.08-1.82,1.03-2.11,2.08-3.13,2.94-3.3,2.75-8.66-1.19-11.85,1.76-.57,.52-.32,.58-1.18,1.47-2.26,2.36-4.33,2.36-4.7,3.82-.2,.8,.39,.88,.69,2.35,.47,2.37-.89,3.1-1.18,6.46-.19,2.3,.36,3.03-.29,3.62-.68,.62-2.12,.22-5-.59-3.23-.91-3.93-1.57-4.21-1.86-1.06-1.11-.69-1.78-1.57-2.55-1.64-1.43-5.32-1.22-6.76,.59-1.34,1.69,.3,3.49-1.27,6.07-.29,.48-.23,.22-2.45,2.55-2.35,2.46-2.56,2.91-3.23,2.94-1.08,.05-1.29-1.09-3.82-3.04-1.94-1.5-2.41-1.28-3.04-2.25-1.11-1.74,.05-2.94-.88-4.51-1.26-2.13-5.17-2.86-6.66-1.57-.4,.35-.27,.53-1.47,2.84-.65,1.24-.97,1.87-1.27,2.15-1.07,1.01-1.93,.54-3.82,1.37-2.13,.94-2.19,2.06-3.23,1.96-1.1-.1-1.18-1.36-3.43-3.82-1.54-1.69-1.95-1.59-2.35-2.55-.79-1.91,.59-2.91,0-4.6-.84-2.4-4.85-3.9-6.66-2.74-.54,.34-.41,.62-1.37,2.06-1.13,1.68-1.97,2.95-3.33,3.53-1.95,.83-3.71-.27-4.21,.59-.26,.45-.03,1.15,.29,1.57,1.08,1.43,3.41,.05,4.9,1.37,1.13,1,.36,2.29,1.67,3.92,.85,1.05,1.95,1.47,2.74,1.76,12.99,4.73,18.22,5.58,18.22,5.58,9.37,1.53,14.06,2.29,18.02,1.67,5.77-.92,5.49-2.45,13.22-3.82,6.91-1.23,9.35-.4,11.95-2.84,2.53-2.37,2-4.82,5.29-7.35,1.34-1.03,2.84-1.51,5.78-2.42,7.46-2.32,9.69-1.4,13.72-3.92,1.83-1.14,1.63-1.5,3.82-2.79,3.91-2.3,5.18-1.55,7.12-3.4,2.28-2.18,1.4-4.04,3.71-5.57,1.67-1.11,2.87-.62,5.05-1.13,3.65-.87,5.7-3.51,7.53-5.47,5.62-6.01,7.72-3.96,14.75-10.42,3.96-3.63,3.1-4.1,12.79-15.68,5-5.97,4.48-4.96,6.19-7.22,1.19-1.57,3.88-5.3,11.04-22.39,5.13-12.23,6.24-16.25,5.98-19.7-.05-.65-.25-2.8,.1-5.67,.39-3.14,1.11-4.35,1.75-6.81,1.26-4.85,.77-9.04,.29-13.06Zm-70.02,105.02c-.19,1.57-.35,2.78-1.24,3.88-.32,.4-1.04,1.28-1.79,1.16-.59-.09-.61-.72-1.47-1.55-1.04-1.01-1.65-.73-2.41-1.55-.61-.66-1.13-1.83-.85-2.87,.59-2.18,4.34-2.38,4.81-2.41,.87-.05,2.16-.11,2.79,.7,.4,.51,.32,1.23,.16,2.64Z"/></g></g></g><g id="roads"><g id="road"><path class="cls-1" d="M243,292.08c-2.31-9.03-6.6-22.25-15.06-36.5-7.9-13.31-15.99-21.73-18.81-24.76-11.96-12.88-28.24-35.96-46.92-80.68-3.62-6.29-7.25-12.59-10.87-18.88-14.69-15.26-29.37-30.52-44.06-45.78l-25.53-11.84,2.98-3.98c7.07-3.43,14.15-6.85,21.22-10.28-1.95-5.58-3.83-11.54-5.58-17.87-1.19-4.33-2.24-8.54-3.15-12.61,4.77-9.73,9.54-19.46,14.31-29.2"/><path class="cls-1" d="M226.72,254.48c1.53-.51,3.74-1.5,5.58-3.54,.73-.81,1.12-1.47,1.77-2.59,4.49-7.72,5.13-9.06,6.81-10.34,.6-.46,2-.99,4.76-2.04,9.6-3.63,10.15-3.05,14.7-5.17,4.04-1.88,4.92-2.95,8.17-3.54,2.43-.44,3.48-.12,6.12-.27,2.45-.14,5.98-.65,10.27-2.45"/><path class="cls-1" d="M125.64-.31c-6.55,11.99-13.1,23.99-19.65,35.98-2.06,1.26-4.12,2.52-6.18,3.79"/><path class="cls-1" d="M-.43,176.38c27.24-30.37,41.25-41.48,49.04-45.65,1.67-.89,5.59-2.83,10.36-6.52,6.57-5.09,7.46-7.87,16.11-16.11,5.53-5.26,8.29-7.89,11.51-9.59,7-3.69,10.97-2.63,16.5-6.52,4.31-3.04,6.71-7.08,8.06-9.97-1.73-7.55-3.47-15.09-5.2-22.64"/><path class="cls-1" d="M284.9,146.6c-7.09-3.16-23.73-9.4-44.93-6.46-16.09,2.23-27.79,8.77-34.06,12.92-13.08-1.96-26.16-3.91-39.24-5.87-2.68,1.53-6.39,3.47-10.97,5.36-3.66,1.51-13.05,5.31-24.86,6.58-20.95,2.25-37.42-4.8-41.42-6.61-7.19-3.26-14.05-8.93-27.76-20.27-6.14-5.08-14.21-12.01-30.41-27.32-8.24-7.79-19.08-18.22-31.68-30.85"/><path class="cls-1" d="M148.48,292.08c1.37-3.84,1.03-6.5,.46-8.22-1.61-4.88-6.18-5.73-8.73-11.03-1.45-3.01-1.4-5.72-1.38-8.27,.07-8.56,5.99-44.77,15.4-93.64"/><path class="cls-1" d="M119.06,292.08c-.39-2.17-1.15-5.44-2.76-9.14-3.58-8.25-8.06-11.02-14.71-19.31-5.84-7.28-9.36-11.67-11.03-17.93-1.76-6.6,.27-8.78,2.76-23.9,3.95-24.06,.69-30.04,7.36-37.69,3.04-3.49,5.94-4.81,8.73-10.11,2.92-5.56,3.42-11.13,3.36-15.04"/><path class="cls-1" d="M4.14,292.08c.31-7.49,.61-14.98,.92-22.47,11.03-14.71,22.07-29.42,33.1-44.13,13.79-6.44,27.58-12.87,41.37-19.31,6.04-5.77,12.08-11.55,18.12-17.32"/><path class="cls-1" d="M198.32,292.08c1.5-2.65,3.72-6.8,5.97-12.11,3.2-7.55,3.43-10.29,5.47-13.93,2.24-3.99,6.7-9.13,16.61-13.02"/><path class="cls-1" d="M126.52,159.46c16.4,6.77,32.81,13.54,49.21,20.32"/></g><path class="cls-5" d="M233.07,257.1c-.36-1.07-.96-2.8-1.71-4.92-3.12-8.72-4.13-10.44-3.24-12.66,.85-2.12,3.13-3.94,5.62-3.99,2.3-.04,4.7,1.44,5.56,3.51,.91,2.19-.32,4.02-3.61,11.72-1.13,2.64-2.01,4.84-2.6,6.33Z"/><text class="cls-14" transform="translate(230.94 246.34) rotate(4.16) scale(1.13 1)"><tspan x="0" y="0">1</tspan></text></g><g id="Layer_5"><rect class="cls-3" x="-.52" y="-.31" width="180.68" height="152.83"/><path id="KANAL" class="cls-7" d="M144.24,151.29c-17.17-25.05-34.34-50.1-51.51-75.16-.9-1.25-1.92-3.11-2.02-5.41-.21-4.86,3.88-8.15,8.96-13.06,11.77-11.35,9.12-12.28,18.68-20.11,4.86-3.97,8.47-6.13,14-9.44,6.43-3.84,10.19-5.44,14.8-5.76,2.16-.15,3.97,.02,5.2,.2,9.44,6.85,18.88,13.71,28.32,20.56v-4.7c-8.04-6.6-16.08-13.2-24.12-19.8-.51-.34-1.32-.83-2.38-1.25-3.14-1.24-6.16-.96-8.73-.45-10.09,2-18.47,7.16-18.47,7.16-7.87,4.85-12.95,9.9-17.24,14.21-2.99,3.01-4.08,4.41-13.21,15.11-4.87,5.71-8.85,10.34-11.42,13.32-.41,.45-.89,1.08-1.24,1.93-.98,2.38-.19,4.62,.07,5.27,4.54,7.17,9.2,14.38,13.97,21.62,12.78,19.41,25.66,37.97,38.54,55.71,2.6,0,5.19,.01,7.79,.02Z"/><g id="ROADS"><path class="cls-2" d="M-.64,111.14c4.47,4.28,8.95,8.57,13.42,12.85,1.48,.41,2.96,.82,4.44,1.22,3.23,3.2,6.45,6.39,9.68,9.59-5.48,5.82-10.96,11.64-16.44,17.46h4.51c4.54-5.09,9.07-10.19,13.61-15.28,.76,.88,1.82,2.06,3.15,3.4,.55,.56,2.57,2.58,6.46,5.78,2.02,1.66,4.66,3.73,7.85,6,5.22,.05,10.44,.11,15.65,.16-.16-1.24-.32-2.49-.48-3.73,5.12-2.81,10.24-5.61,15.36-8.42,4.59,3.99,9.18,7.97,13.77,11.96,1.18,.03,2.36,.05,3.54,.08-1.32-1.26-2.63-2.52-3.95-3.79,9.17-6.02,18.35-12.04,27.52-18.06,4.85,7.32,9.69,14.64,14.54,21.95h2.82c-7.92-11.77-15.84-23.54-23.77-35.32,9.89-6.63,19.78-13.27,29.67-19.9,1.57,2.45,3.13,4.89,4.7,7.34l1.28-.75c-1.61-2.47-3.22-4.94-4.83-7.4,1.92-1.22,3.85-2.45,5.77-3.67,7.62,11.59,15.25,23.18,22.87,34.76-2.01,1.32-4.01,2.64-6.02,3.96-1.16-1.77-2.33-3.54-3.49-5.31-.07-.11-.17-.25-.34-.34-.54-.3-1.45,.07-1.75,.73-.15,.32-.12,.64-.08,.84,1.54,2.05,3.08,4.1,4.62,6.14,2.58-1.66,5.16-3.32,7.73-4.98,2.14,1.86,4.28,3.71,6.42,5.57-2.25,1.35-4.67,2.99-7.14,5.01-5.53,4.51-9.44,9.31-12.12,13.27,2.56,.14,5.11,.28,7.67,.42,1.25-1.69,2.68-3.45,4.31-5.24,3.34-3.66,6.7-6.51,9.72-8.72,.14-2.24,.28-4.48,.42-6.71-.56,.4-1.11,.81-1.67,1.21-1.29-1.93-2.59-3.95-3.88-6.07-1.48-2.41-2.84-4.78-4.09-7.07,.16-1.07,.33-2.14,.49-3.21,3.05-2.07,6.1-4.14,9.16-6.21v-2.44c-3.49,2.47-6.99,4.95-10.48,7.42-.44,1.27-.89,2.55-1.33,3.82,2.05,3.42,4.1,6.85,6.15,10.27-1.11-1.1-2.22-2.2-3.33-3.3-7.43-11.49-14.87-22.98-22.3-34.48,3.6-3.05,7.19-6.11,10.79-9.16,2.36-2.45,4.73-4.89,7.09-7.34,4.47,6.63,8.94,13.26,13.42,19.88v-4.2c-3.84-5.67-7.68-11.34-11.52-17.01,3.7-2.23,7.4-4.47,11.1-6.7,.14-.99,.28-1.98,.42-2.98-1.37,.73-2.74,1.45-4.11,2.18-3.24-4.74-6.48-9.49-9.72-14.23,2.2-3.01,4.4-6.01,6.6-9.02,.39,.83,.85,1.69,1.39,2.58,1.84,3.01,4,5.19,5.85,6.72v-7.2c-9.87-7.24-19.74-14.47-29.61-21.71,.58-2.49,1.15-4.97,1.73-7.46,.09-.15,.27-.39,.56-.5,.79-.29,1.8,.66,2.04,.88,1.34,1.2,11.11,8.53,25.07,18.92v-4.7c-13.22-8.96-22.8-15.45-24.61-16.59-.14-.09-.52-.33-.49-.57,.09-.61,2.73-.86,7.94-.74,3.73-2.91,7.46-5.82,11.19-8.73,.72,.48,1.45,.96,2.17,1.44,1.19,2.12,2.39,4.25,3.58,6.37,.14-1.49,.28-2.98,.42-4.47-.68-1.14-1.37-2.27-2.05-3.41-.73-.22-1.9-.7-3-1.74-.49-.47-.86-.95-1.12-1.36,1.62-.51,3.25-1.01,4.87-1.52-2.52-.03-5.05-.05-7.57-.08,.5,1.11,1,2.22,1.5,3.34-3.47,2.63-6.94,5.26-10.42,7.88-2.65,.35-5.3,.71-7.94,1.06,.52-.68,1.05-1.36,1.57-2.05-.7-3.35-1.4-6.71-2.1-10.06h-2.7c.63,2.95,1.25,5.9,1.88,8.85-.45,.66-.9,1.31-1.35,1.97h-1.65c-.65-.35-1.3-.71-1.95-1.06-.56-3.25-1.12-6.5-1.68-9.75h-2.5c.77,3.55,1.53,7.11,2.3,10.66,.14,.31,.29,.61,.43,.92-2.44,.29-4.98,.7-7.6,1.25-12.15,2.55-22.07,7.29-29.62,11.97-1.86-3.08-3.73-6.16-5.59-9.23,.84-.49,3.77-2.18,4.61-2.67,7.3-4.23,14.6-8.45,21.91-12.67-1.88-.11-3.77-.21-5.65-.32-3.17,1.92-6.47,4.12-9.82,6.65-1.2,.91-2.36,1.82-3.48,2.73-2.67,1.2-5.33,2.4-8,3.61-2.38-4.31-4.75-8.62-7.13-12.93h-2.87c2.61,4.93,5.22,9.85,7.83,14.78-2.67,1.79-5.35,3.58-8.02,5.37-3.89-2.82-8.43-6.71-12.83-11.96-2.26-2.69-4.13-5.33-5.68-7.79-.89-.06-1.77-.12-2.66-.19l6.41,8.34c-3.33,2.56-6.66,5.13-9.99,7.69-3.18-5.5-6.35-11-9.53-16.5-.86,.19-1.71,.37-2.57,.56,3.45,5.93,6.9,11.87,10.35,17.8l-12.1,8.71c-4.9-6.13-9.68-12.58-14.3-19.38-.35-.51-.7-1.03-1.04-1.54-1.42,.92-3.42,2.19-5.84,3.69-.83,.51-1.42,.88-1.48,.92-7.55,4.79-13.41,10.22-17.86,15.22-4.6-2.7-9.21-5.41-13.81-8.11-.43-1.03-.86-2.06-1.29-3.1v5.1c3.96,2.9,7.92,5.8,11.88,8.7-4.02,3.46-8.04,6.91-12.06,10.37,.06,.72,.12,1.45,.18,2.17,1.31-1.2,2.63-2.4,3.94-3.6,1.58,3.13,3.7,6.76,6.53,10.54,2.55,3.4,5.12,6.2,7.44,8.45-2.67,3.15-5.35,6.3-8.02,9.45-3.3-1.95-6.59-3.9-9.89-5.86v2.34c2.86,1.59,5.71,3.18,8.57,4.77-1.16,1.37-2.32,2.73-3.47,4.1-1.7-1.62-3.4-3.23-5.1-4.85v3.43c2.14,1.81,4.28,3.62,6.42,5.44-2.2,2.79-4.4,5.58-6.6,8.36,.06,1,.12,2.01,.18,3.01,2.58-3.37,5.16-6.75,7.74-10.12,4.46,4.08,8.91,8.16,13.37,12.23-4.76,5.72-9.51,11.44-14.27,17.15-2.28-2.11-4.56-4.23-6.84-6.34v12.1Z"/><path class="cls-2" d="M22.2,91.11c-4.3,4.49-8.59,8.98-12.89,13.47,7.46,6.61,14.92,13.22,22.38,19.83,3.09-5.46,6.18-10.92,9.27-16.38-6.25-5.64-12.5-11.28-18.75-16.92Z"/><path class="cls-2" d="M15.09,112.7c5.09,4.28,10.19,8.56,15.28,12.84"/><line class="cls-2" x1="7.72" y1="106.49" x2="13.62" y2="111.81"/><path class="cls-2" d="M52.94,150.91c.47-.57-9.52-9.68-10.05-10.17-3.88-3.53-7.19-6.28-9.44-8.1l-1.33,1.35c1.96,2.05,4.94,5.01,8.82,8.3,5.36,4.54,11.65,9.05,12,8.62Z"/><path class="cls-2" d="M42.8,109.3c-3.27,5.88-6.53,11.76-9.8,17.64,1.89,1.46,3.78,2.92,5.67,4.38,5.47-3.48,10.94-6.96,16.4-10.44-4.09-3.86-8.18-7.72-12.28-11.58Z"/><path class="cls-2" d="M40.51,132.57c5.29-3.49,10.58-6.97,15.87-10.46,5.48,5,10.96,9.99,16.44,14.99-5.32,3.87-10.64,7.74-15.95,11.61-1.98-2.11-3.96-4.23-5.94-6.34,.79-1.18,1.57-2.36,2.36-3.54l1.55-4.28c-.43-.19-.87-.38-1.3-.58-.33,1.15-.65,2.31-.98,3.46-.84,1.21-1.68,2.42-2.52,3.62-3.17-2.83-6.35-5.65-9.52-8.48Z"/><path class="cls-2" d="M78.68,138.25c10.26-6.81,20.51-13.61,30.77-20.42,2.33,3.49,4.67,6.97,7,10.46-9.55,6.26-19.1,12.52-28.65,18.77-3.04-2.94-6.08-5.87-9.12-8.81Z"/><path class="cls-2" d="M60.94,122.36c11.64-7.79,23.28-15.59,34.92-23.38,3.83,5.43,7.65,10.87,11.48,16.3-10.31,6.81-20.62,13.61-30.93,20.42-5.15-4.45-10.31-8.89-15.46-13.34Z"/><path class="cls-2" d="M44.66,107.62c12.94-9.5,25.88-18.99,38.82-28.49,3.77,6.09,7.54,12.18,11.31,18.27-7.16,4.67-14.32,9.34-21.48,14.01-1.06-1.48-2.12-2.96-3.17-4.45-.41,.27-.81,.55-1.22,.82,.98,1.48,1.95,2.96,2.93,4.45-4.26,2.91-8.52,5.82-12.78,8.73-4.8-4.45-9.6-8.89-14.41-13.34Z"/><path class="cls-2" d="M42.62,105.35c12.94-9.24,25.88-18.47,38.83-27.71-4.28-6.27-8.55-12.55-12.83-18.82-5.16,3.78-10.32,7.56-15.48,11.34,1.47,2.45,2.94,4.9,4.42,7.35-.2,.85-.41,1.7-.61,2.54-1.27,.89-2.53,1.77-3.8,2.66-.47-.49-.93-.98-1.4-1.47,1.19-.9,2.38-1.81,3.58-2.71-1.68-2.34-3.35-4.67-5.03-7.01-8.42,6.16-16.84,12.33-25.26,18.49,5.87,5.11,11.73,10.23,17.6,15.34Z"/><path class="cls-2" d="M23.13,88.05c10.1-7.42,20.21-14.85,30.31-22.27-2.46-2.8-4.93-5.59-7.39-8.39-10.61,7.37-21.21,14.75-31.82,22.12,2.97,2.85,5.93,5.7,8.9,8.54Z"/><path class="cls-2" d="M12.42,77.68c10.56-7.22,21.11-14.44,31.67-21.66-4.27-3.61-8.55-7.22-12.82-10.83-8.48,9.02-16.95,18.05-25.43,27.07,2.19,1.81,4.38,3.62,6.58,5.43Z"/><path class="cls-2" d="M4.82,35.34c2.67-2.12,5.35-4.24,8.02-6.36l16.2,14.87c-3.38,3.47-6.76,6.95-10.14,10.42-4.69-6.31-9.38-12.62-14.07-18.93Z"/><path class="cls-2" d="M32.73,13.31c-2.54,1.51-5.27,3.32-8.1,5.49-3.85,2.95-7.05,5.93-9.67,8.67,5.48,4.8,10.95,9.6,16.43,14.4,3.96-2.07,7.91-4.14,11.87-6.2,.37-.72,.73-1.43,1.1-2.15-3.88-6.73-7.76-13.47-11.64-20.2Z"/><path class="cls-2" d="M38.79,8.06c-1.39,1.06-2.78,2.12-4.17,3.18,3.75,6.76,7.5,13.52,11.24,20.28,1.78-1.43,3.56-2.86,5.35-4.3-4.14-6.39-8.28-12.78-12.42-19.17Z"/><path class="cls-2" d="M52.15,28.19c-1.86,1.91-3.72,3.82-5.58,5.73l-.94,2.86c-3.67,2.12-7.34,4.24-11.01,6.36,3.75,3.87,7.5,7.74,11.24,11.61,5.19-3.21,10.38-6.42,15.57-9.62-3.09-5.65-6.19-11.29-9.28-16.94Z"/><path class="cls-2" d="M68.27,19.36c-4.19,3.16-8.39,6.31-12.58,9.47,2.46,4.91,4.93,9.81,7.39,14.72,5.22-3.61,10.43-7.21,15.65-10.82-3.49-4.45-6.97-8.91-10.46-13.36Z"/><path class="cls-2" d="M62.45,48.15c-4.82,2.65-9.64,5.3-14.47,7.95,2.41,2.76,4.82,5.51,7.23,8.27,4.17-2.65,8.33-5.3,12.5-7.95-1.76-2.76-3.51-5.51-5.27-8.27Z"/><path class="cls-2" d="M80.06,34.39c-.16,.11-.33,.22-.49,.33-5.22,3.55-10.21,7.27-15,11.12,2.15,3.84,4.3,7.69,6.45,11.53,4.38-2.62,8.75-5.25,13.13-7.87,1.42-1.86,2.83-3.71,4.25-5.57-2.78-3.18-5.56-6.36-8.33-9.54Z"/><path class="cls-2" d="M90.36,45.37c-1.28,1.59-2.57,3.18-3.85,4.77-4.82,3.08-9.64,6.15-14.47,9.23,1.83,2.39,3.67,4.77,5.5,7.16,1.36-.8,2.73-1.59,4.09-2.39,4.46-4.83,8.91-9.65,13.37-14.48-1.55-1.43-3.09-2.86-4.64-4.3Z"/><path class="cls-2" d="M108.68,27.63c.73,1.33,1.47,2.65,2.2,3.98-4.77,5.36-9.54,10.71-14.31,16.07-1.52-1.22-3.04-2.44-4.56-3.66,1.52-2.41,3.04-4.83,4.56-7.24,4.04-3.05,8.07-6.1,12.11-9.15Z"/><path class="cls-2" d="M90.36,41.95c1.52-2.39,3.04-4.77,4.56-7.16,4.19-3.08,8.39-6.15,12.58-9.23-1.68-3.02-3.35-6.05-5.03-9.07l-8.26,4.69c-4.27,3.74-8.54,7.48-12.82,11.22,2.99,3.18,5.98,6.36,8.96,9.54Z"/><path class="cls-2" d="M80.06,10.29c-3.17,2.55-6.34,5.09-9.51,7.64,3.3,4.53,6.6,9.07,9.91,13.6,3.75-3.42,7.5-6.84,11.24-10.26-3.88-3.66-7.76-7.32-11.64-10.98Z"/><path class="cls-2" d="M148.31,13.81c.85,.43,1.37,1.01,1.65,1.35-.62,2.74-1.24,5.47-1.86,8.21-.96-.14-1.91-.27-2.87-.41-9.03,4.75-18.06,9.49-27.08,14.24-5.32,4.79-11.27,10.96-17.04,18.72-3.49,4.69-6.38,9.24-8.77,13.46-2.77,2.06-5.54,4.13-8.32,6.19-.58-.96-1.15-1.92-1.73-2.88l-2.22-3.75c.45-.2,1.21-.57,2.03-1.2,1.41-1.06,2.18-2.21,2.39-2.51,1.16-1.67,6.18-7.41,15.29-17.5,3.5-3.93,7.01-7.86,10.51-11.8,1.31-1.55,2.61-3.09,3.92-4.64-1.13-1.77-2.27-3.53-3.4-5.3,4.54-2.7,8.46-4.67,11.34-6.02,11.86-5.56,18.12-6.29,20.17-6.48,1.8-.17,3.27-.2,4.21-.19,.41,.03,1.07,.14,1.79,.51Z"/><path class="cls-2" d="M165.45,50.65l6.62-8.32c-4.98-3.67-9.96-7.34-14.94-11-.83,.63-1.67,1.25-2.5,1.88,3.61,5.82,7.21,11.63,10.82,17.45Z"/><path class="cls-2" d="M153.35,32.48c.73-.7,1.45-1.4,2.18-2.1-2.24-1.73-4.48-3.45-6.72-5.18-1.1,.03-2.21,.06-3.31,.1-4.54,2.3-9.08,4.59-13.62,6.89,1.93,3.2,3.87,6.39,5.8,9.59,5.22-3.1,10.44-6.2,15.66-9.3Z"/><path class="cls-2" d="M129.89,33.53c2.08,3.08,4.16,6.16,6.24,9.24-4.55,3.43-9.1,6.85-13.65,10.28-2.09-3.13-4.19-6.26-6.28-9.39,1.07-1.33,2.15-2.65,3.22-3.98,3.49-2.05,6.98-4.1,10.47-6.15Z"/><path class="cls-2" d="M114.25,45.3c2.16,3.01,4.31,6.03,6.47,9.04-5.9,4.18-11.8,8.37-17.7,12.55-1.51-.81-3.02-1.63-4.53-2.44,1.67-2.52,3.33-5.04,5-7.55,3.59-3.87,7.17-7.73,10.76-11.6Z"/><path class="cls-2" d="M107.49,88.54l-10.64,7.32c-3.7-5.95-7.41-11.89-11.11-17.84l6.23-5.06c1.94-2.52,3.88-5.04,5.82-7.55,1.21,.71,2.43,1.43,3.64,2.14,.41,.2,.82,.4,1.23,.59,6.81-4.45,13.76-9.19,20.81-14.21,4.62-3.3,9.11-6.59,13.46-9.87,.35-.06,.71-.12,1.06-.18,4.88-2.87,9.76-5.75,14.64-8.62,3.72,5.63,7.45,11.26,11.17,16.89-3.23,2.2-6.47,4.4-9.7,6.6,.27,.4,.55,.79,.82,1.19,3.23-2.18,6.47-4.36,9.7-6.54,3.16,4.82,6.31,9.63,9.47,14.45-2.09,1.41-4.18,2.81-6.27,4.22l-14.48,13.92c-14.58,9.6-29.16,19.19-43.74,28.79-3.74-5.59-7.49-11.18-11.23-16.77,3.63-2.5,7.25-5,10.88-7.49,2.53,2.38,5.06,4.76,7.58,7.14,1.57-.02,3.14-.04,4.7-.06,6.51-4.4,13.01-8.8,19.52-13.2,.05-1.66,.09-3.31,.14-4.97-4.08-6.17-8.17-12.35-12.25-18.52-1.2,.06-2.39,.12-3.59,.18-6.76,4.76-13.52,9.52-20.28,14.27-.14,1.74-.27,3.49-.41,5.23,.94,2.66,1.88,5.31,2.82,7.97Z"/><path class="cls-2" d="M107.14,76.47c6.62-4.56,13.25-9.12,19.87-13.68,3.95,5.57,7.9,11.14,11.86,16.71-.01,1.17-.03,2.34-.04,3.52-6,4.16-11.99,8.33-17.99,12.49-.94-.04-1.88-.08-2.82-.12l-7.95-6.54c-2.06-5.3-3.16-8.15-3.16-8.15h0s.08-1.47,.24-4.22Z"/></g><rect class="cls-4" x="-.61" y="-.31" width="180.86" height="152.83"/><g><path class="cls-10" d="M5.15,3.4h.9L3.72,11.63h-.9L5.15,3.4Z"/><path class="cls-10" d="M7.52,3.4h.9l-2.33,8.23h-.9L7.52,3.4Z"/><path d="M10.39,3.4h1.21V11.63h-1.21V3.4Z"/><path d="M12.52,3.4h1.23l1.98,4.59c.19,.45,.42,1.15,.42,1.15h.02s-.03-.85-.03-1.43V3.4h1.19V11.63h-1.17l-2.03-4.54c-.19-.44-.42-1.14-.42-1.14h-.02s.03,.86,.03,1.44v4.25h-1.19V3.4Z"/><path d="M18.24,3.4h2.32c1.59,0,2.62,1.77,2.62,4.2,0,1.33-.33,2.51-.95,3.23-.44,.51-1.02,.79-1.77,.79h-2.22V3.4Zm2.14,6.79c1.13,0,1.57-.96,1.57-2.59s-.52-2.77-1.54-2.77h-.97v5.36h.93Z"/><path d="M23.84,3.4h2.73c1.15,0,1.92,.92,1.92,2.29,0,.97-.32,1.7-1.09,1.99v.03c.55,.22,.83,.66,.91,1.66,.08,1.16,.05,2.05,.26,2.17v.08h-1.16c-.15-.09-.17-1.01-.22-1.9-.05-.9-.42-1.4-1.17-1.4h-.98v3.3h-1.21V3.4Zm1.21,3.64h1.28c.66,0,.98-.47,.98-1.13s-.31-1.16-.95-1.16h-1.32v2.29Z"/><path d="M29.26,3.4h4.38v1.4h-3.17v1.84h2.78v1.37h-2.78v2.22h3.2v1.39h-4.41V3.4Z"/><path d="M35.82,3.4h2.67c.64,0,1.13,.22,1.44,.6,.33,.4,.48,.9,.48,1.54,0,.84-.38,1.38-.93,1.65v.03c.66,.26,1.11,1.02,1.11,2.04,0,.77-.17,1.3-.52,1.71-.34,.41-.87,.66-1.5,.66h-2.73V3.4Zm2.52,3.31c.52,0,.88-.35,.88-.99,0-.61-.33-.97-.86-.97h-1.33v1.96h1.31Zm-1.31,3.53h1.39c.58,0,.93-.45,.93-1.12,0-.78-.42-1.19-.97-1.19h-1.36v2.3Z"/><path d="M42.63,8.45l-1.98-5.05h1.32l.9,2.44c.18,.49,.39,1.17,.39,1.17h.02s.23-.68,.4-1.17l.88-2.44h1.27l-1.98,5.05v3.18h-1.21v-3.18Z"/></g><g id="metori"><rect class="cls-6" x="140.23" y="10.29" width="6.94" height="6.94" rx="3.47" ry="3.47"/><polygon class="cls-8" points="141.46 15.91 142.27 15.91 142.27 13.33 143.2 15.91 144.06 15.91 144.98 13.33 144.98 15.91 145.81 15.91 145.81 11.63 144.65 11.63 143.63 14.48 142.6 11.63 141.46 11.63 141.46 15.91"/></g><g><path d="M113.34,20.25c-.14,.19-.43,.55-.86,.85-.48,.34-.96,.49-1.48,.42-.45-.07-.91-.36-1.25-.85-.64-.93-.46-2.06,.6-2.81,.37-.26,.71-.38,.89-.41l.13,.4c-.22,.04-.48,.13-.8,.36-.77,.54-.95,1.36-.41,2.14,.55,.79,1.36,.91,2.1,.39,.27-.19,.43-.35,.49-.47l-.65-.92-.65,.45-.22-.32,1.05-.73,1.04,1.49Z"/><path d="M115.38,19.16l-.22-.27h-.01c-.02,.27-.17,.59-.51,.8-.48,.3-.93,.13-1.14-.21-.35-.55-.04-1.18,.88-1.74l-.03-.05c-.12-.19-.39-.5-.87-.19-.22,.14-.41,.35-.51,.56l-.27-.21c.12-.25,.35-.5,.65-.69,.72-.45,1.2-.08,1.49,.38l.54,.86c.12,.2,.26,.39,.39,.53l-.39,.24Zm-.8-1.13c-.47,.28-.95,.7-.67,1.15,.17,.27,.44,.28,.66,.14,.31-.19,.38-.51,.33-.74-.01-.05-.03-.11-.06-.15l-.25-.4Z"/><path d="M115.4,16.8c-.14-.25-.25-.44-.38-.63l.39-.22,.23,.37h.02c.01-.31,.12-.65,.52-.87,.33-.19,.69-.13,.95,.09h.01c0-.18,.04-.33,.1-.46,.09-.19,.21-.34,.45-.47,.32-.18,.91-.24,1.37,.58l.78,1.39-.43,.24-.75-1.34c-.25-.45-.58-.63-.93-.44-.25,.14-.35,.43-.3,.68,.01,.07,.04,.16,.08,.23l.82,1.46-.43,.24-.79-1.42c-.21-.38-.53-.56-.87-.37-.28,.15-.36,.48-.31,.74,.01,.08,.04,.16,.08,.23l.8,1.43-.43,.24-.96-1.73Z"/><path d="M119.66,14.46c-.12-.25-.22-.46-.33-.65l.4-.19,.21,.39h.02c.03-.31,.16-.64,.58-.83,.34-.16,.7-.08,.94,.16h.01c.01-.18,.06-.33,.13-.46,.1-.18,.24-.32,.48-.44,.33-.16,.93-.18,1.33,.67l.68,1.45-.45,.21-.65-1.39c-.22-.47-.53-.67-.9-.5-.26,.12-.37,.41-.35,.66,0,.07,.03,.16,.07,.24l.71,1.52-.45,.21-.69-1.47c-.18-.39-.5-.59-.84-.43-.29,.13-.39,.46-.36,.71,0,.08,.03,.16,.07,.23l.7,1.48-.45,.21-.84-1.79Z"/><path d="M124.61,12.98c.26,.61,.77,.7,1.24,.51,.33-.14,.51-.28,.66-.42l.21,.29c-.14,.14-.39,.34-.8,.5-.79,.32-1.48,0-1.78-.75-.31-.76-.09-1.54,.66-1.85,.84-.34,1.36,.29,1.55,.75,.04,.09,.06,.17,.07,.22l-1.81,.73Zm1.24-.89c-.11-.29-.42-.69-.95-.48-.47,.19-.51,.7-.42,1.03l1.37-.56Z"/><path d="M126.06,9.49l.47-.18,1.4,3.73-.47,.18-1.4-3.73Z"/><path d="M129.61,11.82c.25,.06,.6,.07,.93-.04,.49-.16,.69-.5,.58-.86-.11-.34-.37-.47-.92-.5-.67-.02-1.14-.2-1.3-.71-.18-.56,.17-1.13,.88-1.36,.38-.12,.68-.12,.87-.08v.42c-.15-.03-.43-.05-.77,.05-.5,.16-.6,.52-.52,.76,.11,.34,.39,.43,.96,.46,.7,.04,1.11,.23,1.28,.76,.18,.56-.09,1.17-.96,1.45-.36,.11-.78,.14-1.02,.07v-.43Z"/><path d="M132.14,8.01l.21,.75,.7-.2,.1,.36-.7,.2,.4,1.41c.09,.33,.24,.48,.51,.41,.13-.04,.22-.08,.27-.11l.12,.35c-.08,.06-.23,.13-.41,.19-.23,.06-.43,.05-.58-.05-.18-.1-.29-.32-.38-.63l-.4-1.43-.42,.12-.1-.36,.42-.12-.18-.63,.44-.26Z"/><path d="M133.84,9.23c-.08-.31-.15-.58-.23-.82l.43-.11,.15,.51h.02c.03-.39,.27-.69,.6-.77,.06-.01,.1-.02,.14-.02l.12,.45c-.05,0-.1,0-.17,.03-.35,.09-.53,.41-.5,.78,0,.07,.01,.15,.04,.23l.36,1.4-.49,.12-.46-1.81Z"/><path d="M137.58,10.27l-.11-.33h-.02c-.11,.25-.36,.5-.75,.58-.55,.12-.92-.2-1-.58-.14-.64,.37-1.12,1.42-1.35v-.06c-.06-.22-.21-.6-.77-.48-.25,.06-.5,.19-.67,.35l-.18-.29c.19-.19,.5-.36,.84-.43,.83-.18,1.16,.33,1.27,.86l.22,.99c.05,.23,.11,.45,.18,.63l-.45,.1Zm-.37-1.34c-.54,.11-1.13,.34-1.02,.85,.07,.31,.31,.41,.57,.36,.35-.08,.53-.35,.56-.59,0-.05,0-.11,0-.16l-.1-.46Z"/><path d="M138.41,8.07c-.05-.28-.09-.5-.15-.72l.44-.08,.11,.44h.01c.09-.28,.37-.59,.82-.66,.38-.07,1.01,.05,1.17,.97l.28,1.6-.5,.09-.27-1.54c-.08-.43-.3-.76-.77-.68-.33,.06-.54,.33-.58,.61-.01,.06,0,.15,0,.23l.28,1.61-.5,.09-.34-1.95Z"/><path d="M143.71,5.24l.42,3.25c.03,.24,.07,.51,.11,.69l-.45,.06-.08-.47h-.01c-.11,.32-.42,.59-.87,.65-.67,.09-1.25-.4-1.36-1.22-.12-.9,.38-1.52,1.05-1.6,.42-.05,.73,.1,.89,.3h.01s-.21-1.61-.21-1.61l.5-.06Zm-.2,2.42c0-.06-.02-.14-.05-.2-.11-.3-.42-.52-.8-.48-.52,.07-.77,.55-.69,1.15,.07,.54,.4,.96,.94,.89,.34-.04,.62-.3,.66-.68,0-.07,0-.14,0-.21l-.06-.47Z"/></g><path class="cls-5" d="M66.78,48.71c-.23-.67-.59-1.76-1.06-3.09-1.94-5.48-2.57-6.56-2-7.95,.54-1.33,1.97-2.46,3.53-2.49,1.44-.02,2.94,.92,3.48,2.21,.57,1.38-.21,2.52-2.29,7.34-.71,1.65-1.27,3.03-1.65,3.96Z"/><path class="cls-5" d="M58.55,66.64c-.31-.7-.82-1.82-1.47-3.19-2.65-5.66-3.44-6.75-2.98-8.3,.44-1.48,1.85-2.85,3.52-3.04,1.54-.17,3.25,.67,3.96,2,.75,1.41,.04,2.72-1.68,8.1-.59,1.85-1.04,3.38-1.34,4.42Z"/><path class="cls-5" d="M68.43,49.93c.25-.67,.64-1.74,1.11-3.07,1.94-5.48,2.13-6.71,3.44-7.44,1.25-.69,3.08-.68,4.31,.29,1.14,.89,1.71,2.56,1.31,3.91-.42,1.43-1.75,1.82-6.4,4.27-1.6,.84-2.9,1.56-3.77,2.05Z"/><text class="cls-12" transform="translate(72.23 43.68) rotate(41.4) scale(1.13 1)"><tspan x="0" y="0">3</tspan></text><text class="cls-12" transform="translate(65.73 41.3) rotate(-.85) scale(1.13 1)"><tspan x="0" y="0">4</tspan></text><text class="cls-12" transform="translate(56.47 58.51) rotate(-.85) scale(1.13 1)"><tspan x="0" y="0">2</tspan></text></g></svg>