<?xml version="1.0" encoding="UTF-8"?><svg xmlns="http://www.w3.org/2000/svg" viewBox="0 0 439.08 568.06"><defs><style>.cls-1{fill:none;stroke:#fff;stroke-miterlimit:10;}</style></defs><g id="BODY_L"><path class="cls-1" d="M83.5,565.56c-3.89-3.07-9.44-8.23-14-16-10.58-18.03-7.76-36.48-7-41,2.9-17.27,10.47-15.95,30-49,17.17-29.05,14.38-35.26,28-48,6.35-5.94,12.51-9.79,16-19,3.94-10.41-.35-14.92,4-26,1.91-4.87,6.27-9.92,15-20,12.65-14.62,15.91-15.9,17-22,1.57-8.83-3.37-16.77-6-21-6.2-9.97-12.17-10.48-19-19-7.86-9.8-4.05-24.41-10-26-.99-.27-3.65-.59-6.5-2.5-1.97-1.32-2.73-2.52-3-3-1.03-1.81-1-3.55-1-5,0-6.62,0-9.94-1-13-.84-2.56-1.3-1.88-3-6-1.34-3.25-2.43-6.01-2-9,.48-3.34,2.52-4.47,4-7,3.18-5.43,.52-11.68-1-18-2.34-9.73-.79-7.19,0-30,.78-22.64,2.46-25.93,5-28,3.83-3.12,7.53-1.79,16-2,14.74-.37,45.05-5.43,58-23,1.94-2.63,4.96-7.54,8-7,3.51,.62,2.44,7.68,7,11,7.19,5.24,17.99-6.38,28-2,4.1,1.79,6.4,6.86,11,17,3.98,8.77,5.23,14.12,10,30,6.52,21.7,6.45,19.27,7,23,2.56,17.51-3.23,22.01,2,33,3,6.3,7.17,9.58,6,15-.79,3.68-3.38,5.24-4,11-.27,2.54,.05,3.93-1,6-1.4,2.76-3.33,3.19-5,5-3.34,3.62-1.63,8.6-2,14-.32,4.66-3.21,9.11-9,18-7.57,11.64-15.29,19.44-19,23-9.33,8.95-13.99,13.42-20,15-10.99,2.89-21.48-1.71-29-5-6.68-2.92-11.7-6.4-15-9"/></g><g id="BODY_R"><path class="cls-1" d="M383,566.06c2.44-39.21,.49-60.58-2-73-2.45-12.21-1.21-18.76-1-30,.39-20.31,2.66-25.2,1-39-1.16-9.64-2.27-18.92-8-29-8.08-14.22-16.09-13.78-26-31-.28-.48-1.28-2.91-3.08-6-.76-1.31-2.09-3.5-3.92-6-1.69-2.29-4.08-5.22-8-9-4.7-4.53-5.79-4.69-12-10-7.65-6.54-6.71-6.91-11-10-8.52-6.14-10.76-3.63-15-8-4.07-4.2-2.78-7.2-8-22-2.65-7.5-4.01-11.27-6-12-5.94-2.19-14.13,10.12-30,27-5.05,5.37-16.92,17.84-31,29-24.4,19.34-33.57,16.82-42,31-7.31,12.3-3.01,18.56-8,35-3.83,12.63-14.46,23.75-34,46-14.69,16.73-18.17,18.86-28,32-12.09,16.16-16.73,26.17-18,29-4.97,11.03-10,22.27-9,37,.58,8.6,3.01,15.49,5,20"/><path class="cls-1" d="M252,567.06c-2.07-7.96-4.92-19.3-8-33-6.72-29.88-10.05-45.04-9-56,2.08-21.68,12.51-37.03,22-51,3.01-4.43,15.11-21.72,37-38,18.04-13.41,25.15-19.33,35-20,7.56-.51,13.89,1.36,18,3"/></g><g id="KRAGE_R"><path class="cls-1" d="M177,369.06c3.43,2.82,8.74,7.27,15,13,20.46,18.72,24.79,26.94,33,27,6.4,.05,11.69-6.3,22-19,14.78-18.2,19.39-31.19,34-55,5.42-8.83,10.1-15.79,13-20"/><path class="cls-1" d="M173,323.06c1.84,3.3,4.78,9.63,5,18,.04,1.67,.18,7.89-3,16-4.46,11.37-9.09,11.72-15,22-4.14,7.21-6.33,14.77-9,31-.94,5.68-2.49,11.27-3,17-.07,.8-.23,2.67-1,5-1.55,4.68-5.02,9.53-7,9-1.14-.31-.9-2.17-3-8-1.42-3.96-1.69-3.53-2-5-1.12-5.28,3.33-6.86,4-14,.37-3.97-.3-7.93-1-12-.48-2.8-.82-3.78-1-6-.33-4.22,.36-7.71,1-10"/></g><g id="detaljer"><path class="cls-1" d="M281,336.06c5.47,1.63,12.02,4.12,19,8,11.03,6.13,18.87,13.39,24,19"/></g><g id="hår"><path class="cls-1" d="M260,96.06c2.81-1.92,6.88-4,11-3,4.65,1.13,5.72,5.3,10,10,9.71,10.68,23.23,10.12,23,14-.2,3.36-10.3,3.46-11,8-.53,3.45,4.69,7.41,9,9,9.05,3.34,17.97-2.32,19-3,10.16-6.67,11.34-18.45,13-18,1.75,.48,2.77,14.16-5,24-7.56,9.58-19.41,10.4-19,12,.44,1.75,14.79,1.54,29-4,4.74-1.85,7.62-3.57,8-3,.71,1.06-7,10.18-18,14-12.95,4.5-21.17-1.58-25,3-1.35,1.62-3.48,6.15,8,28,12.38,23.57,16.66,21.75,22,35,7.95,19.73-.35,26.74,9,48,1.46,3.33,5.98,9.89,15,23,18.32,26.63,22.97,30.53,29,44,4.86,10.85,7.79,17.41,8,27,.36,16.69-10.24,25.41-5,34,3.3,5.41,8.89,4.65,14,13,2.77,4.52,2.5,6.97,4,11,6.1,16.34,27.78,22.21,27,24-.7,1.62-17.03-6.05-20-2-.94,1.28-.61,3.85,8,17,8.87,13.53,15.93,22.11,15,23-1.02,.98-10.8-8.16-12-7-.86,.84,1.92,5.2,3,7,10.5,17.48,8.28,39.97,8,40-.16,.02,.52-7.78-3-17-7.51-19.68-28.66-31.37-31-29-2.92,2.96,21,30.21,20,31-1,.8-24.8-27.17-25-27-.15,.13,13.04,14.87,12,16-.44,.48-5.71-3.18-11-8-5.43-4.94-12.5-12.58-19-24"/><path class="cls-1" d="M194,120.06c-.06,2.29-30.07,10.06-59-3-24.99-11.28-39.27-33.63-38-35,1.02-1.09,11.7,11.48,32,22,34.26,17.75,65.06,13.67,65,16Z"/></g><g id="hår_strån"><path class="cls-1" d="M275,201.06c5.45,6.08,12.43,13.32,21,21,19.05,17.09,26.73,19.15,37,33,6.51,8.79,3.45,7.99,14,25,9.61,15.5,15.11,24.35,25,33,14.08,12.31,19.92,9.21,27,19,12.11,16.75,5.27,40.01,5,40-.31,0,9.06-31.15-7-56-10.42-16.13-19.56-11.05-30-29-9.12-15.67-6-26.14-19-40-4.69-5-6.52-6.01-11-12,0,0-5.2-6.88-13-28h0"/><path class="cls-1" d="M214,111.06c-.42,0-.26-2.91-1-5-3.37-9.45-26.29-4.4-54.3-12.98-12.5-3.83-22.75-9.51-31.34-17.66-5.29-5.02-10.26-11.5-9.22-12.29,1.17-.88,8.61,6.33,21.2,13.82,14.08,8.37,31.26,18.84,52.54,19.2,10.07,.17,18.8-1.94,22.12,3.07,2.79,4.21,.68,11.84,0,11.84Z"/><path class="cls-1" d="M282,227.06c-1.04,1.03,13.6,14.33,28,34,41.92,57.26,45.32,118.74,49,118,2.33-.47,.46-24.96-5-47-8.17-32.98-23.03-54.99-28-62-18.97-26.72-42.74-44.25-44-43Z"/><path class="cls-1" d="M123,212.06c-.99,1.21-20.05-8.88-31-29-.56-1.04-1-2-1-2-.04-.09-.09-.19-.14-.32,0,0-2.81-6.42-2.86-14.68-.07-12.62,8.59-28.18,9-28,.31,.13-5.23,8.56-5,21,.04,2,.15,6.44,2,12,7.25,21.78,30.16,39.59,29,41Z"/></g><g id="hår_top"><path class="cls-1" d="M130,133.06c-5.09-2.32-12.35-5.71-21-10-15.77-7.82-23.65-11.73-27-15-17.07-16.64-10.58-47.96-10-48,.48-.03-1.68,21.3,9,27,4.93,2.63,12.39,1.82,15-2,3.46-5.07-4.64-11.02-7-25-2.65-15.73,5.68-19.63,3-36-2.29-13.99-10.2-22.2-9-23,1.28-.86,12.17,7.28,16,20,5.39,17.93-7.96,29.35-1,40,5.63,8.62,20.16,9.99,22,7,2.33-3.78-15.1-15.24-12-22,1.95-4.25,10.84-4.05,13-4,10.41,.24,14.35,5.95,27,10,8.71,2.79,8.38,.58,17,3,14.33,4.03,17.77,10.86,41,24,12.54,7.09,13.69,6.32,14,6,2.43-2.5-6.23-18.9-21-28-13.9-8.56-27.02-6.85-27-9,.03-2.57,18.81-9.6,33-2,14.95,8,9.89,24.25,26,34,12.62,7.64,25.36,3.49,28,11,1.64,4.67-1.69,10.77-4,15-2.62,4.79-5.8,8.05-8,10"/></g><g id="hår_l"><path class="cls-1" d="M126,249.06c-3.82-.77-9.12-2.2-15-5-5.02-2.39-17.76-9.29-27-24-8.09-12.9-9.25-25.04-10-33-1-10.53,.2-18.72,1-24,1.45-9.53,4.51-21.2,6-21,2.46,.33-1,32.76,1,33,1.14,.14,5.24-9.94,5-22-.24-12-4.64-18.89-2-32,.26-1.3,1.4-6.99,3-7,3-.03,4.37,20.01,7,20,1.12,0,2.48-3.61,4-16"/></g><g id="face"><path class="cls-1" d="M193,218.06c.99-1.56,2.45-4.3,3-8,.68-4.56-.39-8.09-1-10-.41-1.29-1.93-5.75-6-10-3.84-4.01-7.9-5.73-11-7-6.5-2.67-12.22-2.99-15-3-13.18-.06-23.18,6.51-23,7,.14,.38,5.1-2.22,14-3,2.77-.24,8.29-.68,15,1,2.58,.64,4.64,1.43,6,2"/><path class="cls-1" d="M217,187.06c-.18-.35,3.34-3.23,8-5,7.9-3,15.34-1.42,22,0,7.12,1.52,12.06,3.81,12,4-.1,.32-13.98-7.47-29-4-7.13,1.65-12.77,5.43-13,5Z"/><path class="cls-1" d="M182,206.06c.15-1.03-.9-2.02-3-4-1.26-1.19-3.13-2.95-6-4-5.73-2.1-11.12,.2-13,1-2.25,.96-3.83,2.13-5,3-2.72,2.02-4.08,3.03-4,4,.21,2.42,8.48,3.9,15,4,6.55,.1,15.59-1.14,16-4Z"/><path class="cls-1" d="M225,202.06c2.11-2.29,3.17-3.44,4-4,4.73-3.19,11.02-1.29,12-1,1.28,.39,2.85,1.26,6,3,3.74,2.07,3.99,2.6,4,3,.03,2.14-7.16,3.8-8,4-4.8,1.11-8.28,.69-14,0-4.41-.53-5.81-1.13-6-2-.11-.47,.15-.99,2-3Z"/></g><g id="detaljer_ögon"><path class="cls-1" d="M185,203.06c-.11,.08-2-3.35-5-6-.43-.38-5.32-4.58-12-5-9.15-.58-16.86,6.24-17,6-.05-.09,1.12-.97,3-2,3.71-2.03,8.1-4.43,14-4,0,0,6.45,.47,12,5,1.69,1.38,3,3,3,3,1.12,1.39,2.08,2.95,2,3Z"/><path class="cls-1" d="M256,199.06c-.11,.06-2-2.44-5-4.37-5.12-3.29-10.57-3.64-12-3.64-9.69,0-17.44,7.61-17.5,7.51-.02-.03,.78-.72,3-2,5.7-3.3,9.41-5.45,14.5-5.51,0,0,5.69-.11,12,3.64,1.69,1,3,2.19,3,2.19,1.12,1.01,2.08,2.15,2,2.19Z"/><path class="cls-1" d="M223.5,210.56c.03-.07,4.94,3.63,12,4,4.55,.24,8-1.01,8-1,0,0-4.49,1.69-10,1-6.02-.76-10.03-3.94-10-4Z"/><path class="cls-1" d="M162.45,214.49c0-.07,5.95,1.5,12.62-.82,4.31-1.49,7.03-3.95,7.03-3.94,0,0-3.52,3.26-8.88,4.7-5.86,1.57-10.77,.13-10.77,.07Z"/><path class="cls-1" d="M166.21,198.46c-1.94,.87-3.39,3.21-3.19,5.53,.29,3.5,4.26,6.19,7.18,4.61,2.12-1.15,3.54-4.46,2.39-7.37-1.13-2.87-4.13-3.78-6.38-2.76Z"/><path class="cls-1" d="M233.21,197.46c-1.94,.87-3.39,3.21-3.19,5.53,.29,3.5,4.26,6.19,7.18,4.61,2.12-1.15,3.54-4.46,2.39-7.37-1.13-2.87-4.13-3.78-6.38-2.76Z"/></g><g id="näsa"><path class="cls-1" d="M190.4,236.82c-.36,.41-2.72,3.26-1.9,6.66,.05,.21,.85,3.41,2.86,3.81,1.59,.31,2.19-1.5,4.76-1.9,2.04-.32,3.76,.48,4.76,.95,2.77,1.3,2.42,2.6,4.76,3.81,3.58,1.85,7.5,.39,8.57,0,1.06-.39,2.17-.82,2.86-1.9,.77-1.21,.22-1.97,.95-2.86,.34-.41,.86-.66,4.76-.95,2.42-.18,2.75-.12,3.33-.48,1.77-1.09,1.9-3.69,1.9-3.81,.09-2.48-1.68-4.42-2.86-5.71-.76-.84-.97-.84-1.9-1.9-.28-.32-1.4-1.61-2.38-3.33-1.56-2.75-2.14-5.49-2.38-7.14"/><path class="cls-1" d="M213.5,292.56c3.92,.11,7.07,1.74,7,2-.08,.29-3.58-1.09-9-1-4.49,.07-7.98,1.11-8,1-.02-.09,2.05-.59,4-1,3.13-.66,4.69-1.04,6-1Z"/><line class="cls-1" x1="438" y1="567.06" y2="567.06"/></g><g id="mun"><path class="cls-1" d="M172,264.06c-.02,.09,4.8,1.79,11,3,4.8,.94,12.64,2.02,26,1,21.58-1.65,35.96-7.14,36-7,.04,.15-16.35,5.57-23,3-.78-.3-3.09-1.35-6-1-1.18,.14-1.62,.41-4,1,0,0-2.47,.61-5,1-4.08,.63-6.05-.67-10-1-5.41-.46-5.7,1.64-12,2-7.37,.42-12.97-2.1-13-2Z"/><path class="cls-1" d="M172.5,267.56c.33-.39,8.89,11.03,24,15,1.94,.51,18.96,4.71,34-5,9.11-5.88,13.03-13.97,13-14-.05-.04-6.8,14.23-21,20-13.7,5.56-27.47,.45-31-1-12.43-5.11-19.3-14.65-19-15Z"/></g></svg>