<svg xmlns="http://www.w3.org/2000/svg" width="165" height="132" fill="none" viewBox="0 0 165 132">
  <path fill="#DFFC6E" fill-rule="evenodd" d="M83.835.725c25.946-2.58 55.71 1.553 72.211 15.164 15.773 13.011 6.247 31.501 4.609 48.203-1.467 14.946.037 30.324-13.485 42.277-15.466 13.671-37.674 25.897-63.334 25.627-25.448-.269-45.196-13.822-61.364-26.943C8.1 93.389-1.384 79.159.165 64.092 1.622 49.919 16.281 39.048 30.353 28.39 45.856 16.65 60.645 3.03 83.835.725Z" clip-rule="evenodd"/>
  <path fill="#000" d="M22.077 76V57.09h6.74c1.465 0 2.681.253 3.648.758.972.505 1.698 1.203 2.178 2.096.48.886.72 1.911.72 3.075 0 1.157-.242 2.175-.729 3.056-.48.874-1.206 1.554-2.179 2.04-.966.486-2.182.73-3.647.73h-5.106v-2.457h4.848c.923 0 1.674-.132 2.253-.397.584-.264 1.012-.649 1.283-1.154.27-.504.406-1.11.406-1.819 0-.714-.138-1.332-.415-1.855-.271-.524-.699-.924-1.284-1.2-.578-.284-1.338-.425-2.28-.425H24.93V76h-2.853Zm9.335-8.531L36.084 76h-3.25l-4.58-8.531h3.158ZM38.835 76V57.09H50.69v2.457h-9.002v5.761h8.384v2.447h-8.384v5.789h9.113V76H38.835Zm23.8-10.655v2.4h-8.383v-2.4h8.383ZM66.537 76V57.09h6.925c1.342 0 2.453.222 3.333.666.88.437 1.539 1.03 1.976 1.782.437.744.656 1.585.656 2.52 0 .788-.145 1.453-.434 1.995-.29.535-.677.966-1.164 1.292-.48.32-1.01.554-1.588.702v.184c.628.031 1.24.234 1.838.61.603.37 1.101.896 1.495 1.579.394.683.591 1.514.591 2.493 0 .966-.228 1.834-.683 2.603-.45.764-1.145 1.37-2.087 1.82-.941.442-2.145.664-3.61.664h-7.248Zm2.853-2.447h4.118c1.367 0 2.346-.264 2.936-.794.591-.53.887-1.19.887-1.985a3.11 3.11 0 0 0-.453-1.643 3.233 3.233 0 0 0-1.292-1.191c-.554-.296-1.213-.444-1.976-.444h-4.22v6.057Zm0-8.282h3.823c.64 0 1.215-.123 1.726-.369a3.01 3.01 0 0 0 1.228-1.034c.308-.45.462-.979.462-1.588 0-.782-.274-1.437-.822-1.967-.547-.53-1.388-.794-2.52-.794H69.39v5.752Zm17.012-8.18V76h-2.853V57.09h2.853ZM90.556 76V57.09h6.74c1.465 0 2.68.253 3.647.758.973.505 1.699 1.203 2.179 2.096.48.886.72 1.911.72 3.075 0 1.157-.243 2.175-.729 3.056-.48.874-1.207 1.554-2.179 2.04-.967.486-2.182.73-3.647.73H92.18v-2.457h4.847c.923 0 1.674-.132 2.253-.397.585-.264 1.013-.649 1.283-1.154.271-.504.407-1.11.407-1.819 0-.714-.139-1.332-.416-1.855-.271-.524-.698-.924-1.283-1.2-.579-.284-1.339-.425-2.28-.425h-3.583V76h-2.853Zm9.334-8.531L104.562 76h-3.25l-4.58-8.531h3.158Zm6.491-7.922V57.09h14.634v2.456h-5.899V76h-2.844V59.547h-5.891ZM124.249 76V57.09h2.853v8.218h9.427v-8.217h2.862V76h-2.862v-8.245h-9.427V76h-2.853Z"/>
</svg>
