<svg xmlns="http://www.w3.org/2000/svg" width="100" height="127" fill="none" viewBox="0 0 100 127">
  <path stroke="#F3F3F3" stroke-miterlimit="10" stroke-width="2" d="M49.225 71.032c-.16.014-.424.028-.744.035 0 0-1.404.035-2.794-.223-5.331-.989-8.23-4.987-8.23-4.987-1.487-2.054-2.008-4.172-2.203-5.557a33.31 33.31 0 0 1 1.53-.767c2.758-1.302 4.1-2.04 4.69-2.207 1.016-.293 3.08-.502 6.402 1.72 7-3.475 8.348-4.583 8.21-4.931-.133-.334-1.613-.098-3.129.146-2.384.376-3.67.85-4.497 1.052-1.883.466-5.831-.787-8.132-2.974-5.61-5.307-2.732-16.882-1.634-16.966.14-.007.612 1.212 1.55 3.657 1.147 2.973 1.94 5.265 2.232 6.087 1.084 3.127 1.035 3.175 1.216 3.586.918 2.104 3.746 4.486 12.393 5.412"/>
  <path stroke="#F3F3F3" stroke-miterlimit="10" stroke-width="2" d="M37.59 37.741c-.988-1.525-2.774-2.277-4.442-1.901-1.55.348-2.697 1.588-3.024 2.925-.472 1.936.675 4.186 2.92 5.349-.23.23-.556.564-.904 1.01-.653.815-2.183 2.779-2.516 5.648-.118 1.003-.361 3.413 1.105 5.85 1.495 2.48 3.802 3.413 4.532 3.67m13.964 10.74a12.83 12.83 0 0 0 2.78-.188c3.086-.564 5.109-2.166 5.901-2.786 4.525-3.573 5.47-9.458 5.63-10.538"/>
  <path stroke="#F3F3F3" stroke-miterlimit="10" stroke-width="2" d="M54.876 53.969c.779.167 2.03.508 3.364 1.31 2.183 1.309 2.78 2.743 4.143 2.653 1.028-.07 1.021-.913 2.565-1.658 2.147-1.038 3.21.084 4.552-.829 1.85-1.26 2.46-5.16.827-6.47-.257-.209-.945-.647-2.363-.41"/>
  <path stroke="#F3F3F3" stroke-miterlimit="10" stroke-width="2" d="M54.132 53.969a14.43 14.43 0 0 0 4.768-.021c1.328-.23 8.07-1.344 9.933-6.721 1.272-3.65-.486-7.048-.96-7.891-.124-.223-2.766-4.743-7.728-5.196-.897-.083-3.1-.257-5.22 1.143-1.397.919-2.141 2.124-2.489 2.792"/>
  <path stroke="#F3F3F3" stroke-miterlimit="10" stroke-width="2" d="M41.968 43.522c.647-1.01 2.239-3.176 5.144-4.478 1.272-.572 3.434-1.533 5.964-.83 2.606.725 2.182 4.298 5.38 5.977a6.955 6.955 0 0 0 2.03.689m-7.188-7.926c-.07-.25-1.237-4.241-4.873-5.237-2.703-.745-5.025.647-5.88 1.163-1.98 1.19-3.003 2.841-3.433 3.65"/>
  <path stroke="#F3F3F3" stroke-miterlimit="10" stroke-width="2" d="M56.092 54.115c.25-.627 2.1-5.53-.646-10.036-1.453-2.39-3.517-3.56-4.539-4.054a10.958 10.958 0 0 0-4.316 3.67c-1.87 2.717-1.947 5.475-1.926 6.47"/>
  <path stroke="#F3F3F3" stroke-miterlimit="10" stroke-width="2" d="M48.356 41.669c-.772 2.062-.535 3.315-.125 4.102 1.286 2.473 5.025 1.783 6.944 4.437 1.028 1.42 1.084 3.182.931 4.547"/>
  <path stroke="#F3F3F3" stroke-miterlimit="10" stroke-width="2" d="M48.231 45.771c.167.063 2.405.83 4.26-.606 1.3-1.002 1.579-2.437 1.634-2.792m2.391 4.039c.223-.23 1.745-1.72 3.97-1.525 1.577.139 3.579 1.128 4.1 3.176.473 1.852-.445 3.9-2.266 4.896m-14.437 6.087c-.076.836-.07 2.145.751 2.946 1.39 1.358 3.767-.084 5.755.982 1.015.543 2.238 1.901 2.579 5.788m-7.771 43.633c.014-13.797.035-27.594.049-41.391"/>
  <path fill="#F3F3F3" d="m49.92 95.394 3.163 2.355c-1.057.828-2.12 1.65-3.177 2.479l.02-4.834h-.006Zm-1.084-14.709-3.163 2.354c1.057.829 2.12 1.65 3.177 2.48l-.021-4.834h.007Z"/>
  <path stroke="#F3F3F3" stroke-miterlimit="10" stroke-width="2" d="M54.876 86.048a10.65 10.65 0 0 1 1.647-5.356c.925-1.449 1.967-2.263 2.21-2.458 1.919-1.477 3.9-1.748 5.916-2.034a20.014 20.014 0 0 1 5.213-.042 12.57 12.57 0 0 1-.966 3.705c-.39.906-1.12 2.577-2.753 3.95-1.696 1.42-3.468 1.761-5.317 2.117a17.704 17.704 0 0 1-5.95.11v.008Z"/>
  <path stroke="#F3F3F3" stroke-miterlimit="10" stroke-width="2" d="M54.876 86.048c4.99-3.294 9.988-6.589 14.979-9.883M44.512 97.616a10.648 10.648 0 0 0-1.647-5.356c-.924-1.449-1.967-2.264-2.21-2.459-1.919-1.476-3.9-1.748-5.915-2.033a20.01 20.01 0 0 0-5.213-.042c.09.898.326 2.222.966 3.705.389.906 1.119 2.577 2.752 3.95 1.696 1.42 3.469 1.761 5.318 2.116 1.334.258 3.405.488 5.95.112v.007Z"/>
  <path stroke="#F3F3F3" stroke-miterlimit="10" stroke-width="2" d="M44.512 97.616c-4.99-3.294-9.988-6.589-14.979-9.883"/>
  <path stroke="#F3F3F3" stroke-linecap="round" stroke-miterlimit="10" stroke-width="2" d="M49.204 110.974c-.64 1.24-1.71 2.786-3.454 3.378-1.502.508-1.995-.209-4.233.174-.828.139-3.608.613-5.095 2.856a5.666 5.666 0 0 0-.779 1.817m13.561-12.201v4.826c3.969 3.747 6.52 4.137 8.132 3.768.876-.202 1.606-.662 2.864-.606 1.981.084 3.538 1.372 4.525 2.417"/>
  <path stroke="#F3F3F3" stroke-linecap="round" stroke-miterlimit="10" stroke-width="2" d="M49.204 107.45v4.381c.424 2.981-.18 4.193-.883 4.729-1.098.829-2.585.132-3.656 1.163-.736.71-.84 1.825-.799 2.681"/>
  <path fill="#F3F3F3" d="m16.784 60.639-8.088-2.893v1.116l3.996 1.368c1.056.36 2.076.697 3.012.925v.023c-.948.217-1.932.517-3.024.864l-3.984 1.26v1.128l8.088-2.64v-1.15Zm-8.088-3.764h8.088v-1.044H8.696v1.044Zm7.922-7.22.503-4.472-.87-.098-.387 3.434-7.166-.81-.117 1.038 8.037.908Zm.64-7.325c.253-.468.52-1.032.8-1.722.588-1.458.678-2.768.26-3.753-.405-.981-1.253-1.765-2.476-2.262-1.212-.492-2.237-.454-3.118-.035-.877.408-1.6 1.267-2.162 2.658a14.94 14.94 0 0 0-.676 2.121l7.372 2.992Zm-6.27-3.672a5.94 5.94 0 0 1 .36-1.175c.827-2.047 2.354-2.593 4.118-1.864 2.024.821 2.726 2.414 1.89 4.484-.154.378-.309.73-.452.956l-5.915-2.4Zm10.045-6.128c.492-.163 1.195-.696 1.674-1.311 1.17-1.507.886-2.9-.098-3.669-.936-.73-1.884-.587-3.14.168-1.025.616-1.62.775-2.216.31-.435-.34-.698-1.077-.02-1.949.449-.578.97-.856 1.245-.976l-.495-.752c-.382.159-.902.515-1.41 1.168-.964 1.242-.867 2.642.126 3.417.9.701 1.94.478 3.118-.277 1.001-.603 1.607-.679 2.203-.214.643.502.705 1.342.05 2.185a3.7 3.7 0 0 1-1.565 1.154l.528.747Zm5.374-6.226.822-.644-1.898-2.43.059-1.175 4.54 1.488.973-.762-5.349-1.724.193-4.511-1.02.8-.078 3.917c.002.334.01.694.031 1.074l-.028.022-2.4-3.074-.821.643 4.976 6.376Zm3.664-12.815 1.767 4.424c.93 2.329 2.44 2.745 3.977 2.128 1.627-.652 2.462-2.086 1.541-4.393l-1.75-4.38-.98.394 1.777 4.446c.663 1.66.244 2.682-.87 3.129-1.003.402-2.034-.012-2.706-1.695l-1.775-4.447-.98.393Zm12.589 3.686c.531.025 1.156.019 1.898-.031 1.569-.106 2.787-.597 3.49-1.402.705-.794 1.04-1.899.95-3.216-.087-1.305-.569-2.21-1.331-2.82-.75-.611-1.84-.887-3.336-.786-.826.056-1.576.179-2.204.317l.533 7.938Zm.56-7.242a5.932 5.932 0 0 1 1.214-.19c2.203-.148 3.362.988 3.478 2.893.146 2.179-.98 3.506-3.206 3.656-.408.027-.791.041-1.058.011l-.428-6.37Zm13.529 7.352.995.316 1.107-3.488 2.915.929.262-.824-2.916-.929.813-2.562 3.156 1.006.265-.835-4.15-1.323-2.447 7.71Zm13.33.602-2.692-1.625 1.318-2.19 2.845 1.717.452-.75-3.74-2.258-4.168 6.931 3.894 2.35.451-.75-3-1.811 1.503-2.499 2.692 1.625.445-.74Zm.641 5.371c.107.509.555 1.269 1.111 1.816 1.361 1.337 2.776 1.212 3.648.32.832-.848.797-1.808.19-3.144-.494-1.091-.584-1.702-.056-2.242.386-.395 1.148-.572 1.935.202.522.513.74 1.063.827 1.35l.802-.406c-.115-.398-.408-.956-.999-1.536-1.121-1.102-2.52-1.165-3.402-.264-.797.814-.694 1.875-.08 3.135.486 1.065.492 1.677-.037 2.217-.57.583-1.41.549-2.172-.2a3.705 3.705 0 0 1-.966-1.689l-.801.441Zm6.352 7.424.56.895 6.096-3.832 1.312 2.095.752-.472-3.178-5.075-.752.472 1.306 2.085-6.096 3.832Zm10.769 2.741-7.497 3.035.39.968 7.498-3.035-.39-.968Zm-5.477 9.04 8.491 1.283-.214-1.096-4.183-.574c-1.105-.15-2.17-.283-3.133-.327l-.005-.024c.89-.394 1.798-.878 2.802-1.43l3.668-2.003-.216-1.107-7.43 4.148.22 1.13Zm3.396 9.351-2.544.864v1.116l8.088-2.76v-1.26l-8.088-2.748v1.08l2.544.84v2.868Zm.816-2.652 2.34.792c.492.156.984.288 1.464.408v.024c-.468.12-.948.24-1.476.42l-2.328.792v-2.436Zm-3.36 5.823v4.5h.876V56.03h7.212v-1.044h-8.088Z"/>
</svg>
