<svg xmlns="http://www.w3.org/2000/svg" width="171" height="171" fill="none" viewBox="0 0 171 171">
  <path fill="#DFFC6E" fill-rule="evenodd" d="M83.755 1C108.127-2.558 150.499 6.232 166 25c14.817 17.939-13.461 53.472-15 76.5-1.377 20.608 4.953 29.02-7.75 45.5-14.528 18.85-27.144 22.873-51.25 22.5-23.906-.37-57.312 6.091-72.5-12-13.501-16.082-14.455-35.225-13-56 1.369-19.54-.219-61.806 13-76.5C34.064 8.812 61.97 4.18 83.755 1Z" clip-rule="evenodd"/>
  <path fill="#000" d="M24.383 55 19.14 36.09h3l3.685 14.644H26l3.832-14.643h2.973l3.831 14.653h.176l3.675-14.653h3.01L38.242 55h-2.871l-3.98-14.163h-.148L27.264 55h-2.88Zm24.253-8.42V55h-2.76V36.09h2.723v7.036h.176c.332-.763.84-1.37 1.523-1.819.683-.449 1.576-.674 2.677-.674.973 0 1.822.2 2.549.6.732.4 1.299.998 1.699 1.792.406.788.609 1.773.609 2.954V55h-2.76v-8.688c0-1.04-.268-1.847-.804-2.42-.535-.578-1.28-.867-2.234-.867-.653 0-1.237.138-1.755.415-.51.277-.914.684-1.209 1.22-.29.528-.434 1.169-.434 1.92Zm17.007 8.734c-.899 0-1.711-.166-2.437-.499a4.106 4.106 0 0 1-1.727-1.468c-.419-.64-.628-1.425-.628-2.354 0-.8.154-1.459.462-1.976a3.406 3.406 0 0 1 1.246-1.228 6.511 6.511 0 0 1 1.755-.683 17.42 17.42 0 0 1 1.975-.351l2.069-.24c.529-.068.914-.175 1.154-.323.24-.148.36-.388.36-.72v-.065c0-.806-.228-1.431-.683-1.874-.45-.444-1.12-.665-2.013-.665-.93 0-1.662.206-2.198.618-.529.407-.895.86-1.098 1.358l-2.595-.591c.308-.862.757-1.557 1.348-2.087a5.467 5.467 0 0 1 2.06-1.163 8.039 8.039 0 0 1 2.446-.37c.566 0 1.166.068 1.8.204.64.129 1.238.369 1.792.72.56.35 1.018.852 1.375 1.505.357.646.536 1.486.536 2.52V55h-2.696v-1.939h-.111a3.928 3.928 0 0 1-.803 1.053c-.357.344-.816.63-1.376.858-.56.228-1.231.342-2.013.342Zm.6-2.216c.764 0 1.416-.15 1.958-.452.548-.302.963-.696 1.246-1.182.29-.493.434-1.019.434-1.58v-1.827c-.098.098-.29.19-.572.277a8.92 8.92 0 0 1-.951.212c-.357.056-.705.108-1.044.157l-.85.11a6.846 6.846 0 0 0-1.467.343c-.437.16-.788.39-1.053.692-.258.296-.388.69-.388 1.182 0 .683.253 1.2.758 1.551.504.345 1.148.517 1.93.517Zm16.696-12.28v2.216h-7.747v-2.216h7.747Zm-5.67-3.398h2.761v13.416c0 .535.08.939.24 1.21.16.264.367.446.619.544.258.092.539.139.84.139.222 0 .416-.016.582-.047.166-.03.295-.055.388-.073l.498 2.28c-.16.062-.388.123-.683.185a5.41 5.41 0 0 1-1.108.11 4.861 4.861 0 0 1-2.031-.387 3.485 3.485 0 0 1-1.524-1.256c-.387-.566-.581-1.277-.581-2.133V37.42ZM93.096 55V36.09h11.726v2.457h-8.873v5.761h8.033v2.447h-8.033V55h-2.853Zm15.013 0V40.818h2.76V55h-2.76Zm1.394-16.37c-.48 0-.893-.16-1.237-.48a1.56 1.56 0 0 1-.508-1.163c0-.456.169-.844.508-1.164.344-.326.757-.49 1.237-.49.48 0 .889.164 1.228.49.345.32.517.708.517 1.163 0 .45-.172.838-.517 1.164-.339.32-.748.48-1.228.48Zm5.08 16.37V40.818h2.669v2.253h.147a3.429 3.429 0 0 1 1.367-1.8 3.91 3.91 0 0 1 2.234-.665 11.82 11.82 0 0 1 1.173.064v2.641a4.951 4.951 0 0 0-.591-.102 5.631 5.631 0 0 0-.849-.064c-.653 0-1.235.138-1.745.415a3.09 3.09 0 0 0-1.201 1.136c-.295.48-.443 1.028-.443 1.644V55h-2.761Zm15.583.286c-1.397 0-2.6-.298-3.61-.895-1.003-.604-1.779-1.45-2.326-2.54-.542-1.095-.813-2.379-.813-3.85 0-1.452.271-2.732.813-3.84.547-1.108 1.311-1.973 2.289-2.595.985-.622 2.136-.933 3.453-.933a6.95 6.95 0 0 1 2.327.398c.751.264 1.425.68 2.022 1.246.597.566 1.068 1.302 1.413 2.207.344.898.517 1.99.517 3.277v.98h-11.274v-2.07h8.569c0-.725-.148-1.369-.444-1.929a3.35 3.35 0 0 0-1.246-1.339c-.529-.326-1.151-.489-1.865-.489-.776 0-1.453.19-2.031.572a3.84 3.84 0 0 0-1.33 1.478 4.261 4.261 0 0 0-.462 1.966v1.616c0 .948.167 1.754.499 2.42.339.664.809 1.172 1.413 1.523.603.344 1.308.517 2.114.517.523 0 1-.074 1.431-.222a3.09 3.09 0 0 0 1.117-.683c.314-.302.554-.674.72-1.117l2.613.47a4.724 4.724 0 0 1-1.126 2.023c-.536.572-1.21 1.018-2.022 1.338-.806.314-1.727.471-2.761.471Zm19.775-11.005-2.502.443a2.967 2.967 0 0 0-.499-.914 2.46 2.46 0 0 0-.905-.711c-.381-.185-.858-.277-1.431-.277-.781 0-1.434.175-1.957.526-.523.345-.785.791-.785 1.339 0 .474.176.855.526 1.145.351.289.918.526 1.699.71l2.253.518c1.305.301 2.278.766 2.918 1.394.64.628.96 1.443.96 2.447a3.71 3.71 0 0 1-.739 2.27c-.486.66-1.166 1.176-2.04 1.552-.868.376-1.874.563-3.019.563-1.588 0-2.884-.338-3.887-1.015-1.004-.684-1.619-1.653-1.847-2.909l2.668-.406c.167.695.508 1.222 1.025 1.579.517.35 1.191.526 2.022.526.905 0 1.628-.188 2.17-.563.542-.382.812-.846.812-1.394a1.45 1.45 0 0 0-.498-1.117c-.326-.302-.828-.53-1.505-.684l-2.401-.526c-1.323-.302-2.302-.782-2.936-1.44-.628-.659-.942-1.493-.942-2.503 0-.837.234-1.57.702-2.197.468-.628 1.114-1.117 1.939-1.468.825-.357 1.77-.535 2.835-.535 1.532 0 2.739.332 3.619.997.88.658 1.462 1.542 1.745 2.65ZM29.79 69.547V67.09h14.635v2.456h-5.9V86H35.68V69.547h-5.89Zm21.564 16.74c-1.33 0-2.49-.306-3.48-.915-.992-.61-1.761-1.462-2.31-2.557-.547-1.096-.82-2.376-.82-3.841 0-1.471.273-2.758.82-3.86.549-1.102 1.318-1.957 2.31-2.566.99-.61 2.15-.915 3.48-.915s2.49.305 3.48.915c.992.609 1.761 1.465 2.309 2.566.548 1.102.822 2.389.822 3.86 0 1.465-.274 2.745-.822 3.84-.548 1.096-1.317 1.949-2.308 2.558-.991.61-2.151.914-3.481.914Zm.01-2.318c.86 0 1.575-.228 2.141-.683.566-.456.985-1.062 1.256-1.82.277-.756.415-1.59.415-2.501 0-.905-.138-1.736-.415-2.493-.27-.764-.69-1.376-1.256-1.838-.566-.461-1.28-.692-2.142-.692-.868 0-1.588.23-2.16.692-.567.462-.988 1.074-1.265 1.838-.271.757-.407 1.588-.407 2.493 0 .91.136 1.745.407 2.502.277.757.698 1.363 1.265 1.819.572.455 1.292.683 2.16.683Zm15.628 7.645c-1.126 0-2.096-.148-2.908-.444-.806-.295-1.465-.686-1.976-1.172a4.924 4.924 0 0 1-1.145-1.597l2.373-.98c.166.272.388.558.665.86.283.307.665.569 1.145.784.486.216 1.11.323 1.874.323 1.046 0 1.911-.255 2.594-.766.684-.505 1.025-1.31 1.025-2.419v-2.788h-.175a6.299 6.299 0 0 1-.72 1.006c-.308.37-.733.69-1.275.96-.541.271-1.246.407-2.114.407-1.12 0-2.13-.262-3.028-.785-.893-.53-1.6-1.308-2.124-2.336-.517-1.034-.775-2.305-.775-3.813s.255-2.801.766-3.878c.517-1.077 1.225-1.902 2.124-2.475.898-.578 1.917-.868 3.056-.868.88 0 1.59.148 2.133.444.541.289.963.627 1.264 1.015.308.388.545.73.711 1.025h.204v-2.299h2.705v14.496c0 1.219-.283 2.219-.85 3-.566.782-1.332 1.361-2.299 1.736-.96.376-2.043.564-3.25.564Zm-.027-8.116c.794 0 1.465-.185 2.012-.554.554-.376.973-.911 1.256-1.607.29-.701.434-1.541.434-2.52 0-.954-.142-1.794-.425-2.52-.283-.727-.698-1.293-1.246-1.7-.548-.412-1.225-.618-2.031-.618-.831 0-1.524.215-2.078.646-.554.425-.972 1.003-1.255 1.736-.277.732-.416 1.55-.416 2.456 0 .93.142 1.745.425 2.447.283.701.701 1.249 1.255 1.643.56.394 1.25.59 2.069.59Zm16.24 2.788c-1.397 0-2.6-.298-3.61-.895-1.003-.604-1.779-1.45-2.326-2.54-.542-1.095-.813-2.379-.813-3.85 0-1.452.27-2.733.813-3.84.547-1.108 1.31-1.973 2.29-2.595.984-.622 2.135-.933 3.453-.933.8 0 1.575.133 2.326.398.751.264 1.425.68 2.022 1.246.597.566 1.068 1.302 1.413 2.207.345.898.517 1.99.517 3.277v.98H78.016v-2.07h8.569c0-.726-.148-1.369-.444-1.929a3.35 3.35 0 0 0-1.246-1.339c-.53-.326-1.151-.489-1.865-.489-.776 0-1.453.19-2.031.573a3.842 3.842 0 0 0-1.33 1.477 4.265 4.265 0 0 0-.462 1.966v1.616c0 .948.167 1.754.5 2.42.338.664.809 1.172 1.412 1.523.603.344 1.308.517 2.114.517.523 0 1-.074 1.431-.222a3.1 3.1 0 0 0 1.117-.683c.314-.302.554-.674.72-1.117l2.613.47a4.73 4.73 0 0 1-1.126 2.023c-.535.572-1.21 1.018-2.022 1.338-.806.314-1.727.471-2.76.471Zm15.768-14.468v2.216h-7.746v-2.216h7.746Zm-5.67-3.397h2.761v13.415c0 .535.08.939.24 1.21.16.264.367.446.62.544.258.093.538.139.84.139.221 0 .415-.016.581-.046a29.7 29.7 0 0 0 .388-.074l.498 2.28a4.61 4.61 0 0 1-.683.185 5.41 5.41 0 0 1-1.108.11 4.861 4.861 0 0 1-2.031-.387 3.484 3.484 0 0 1-1.523-1.256c-.388-.566-.582-1.277-.582-2.133V68.421Zm11.789 9.158V86h-2.761V67.09h2.724v7.036h.176c.332-.763.84-1.37 1.523-1.819.683-.449 1.576-.674 2.678-.674.972 0 1.822.2 2.548.6.732.4 1.299.998 1.699 1.792.406.788.609 1.773.609 2.954V86h-2.761v-8.688c0-1.04-.267-1.847-.803-2.42-.535-.578-1.28-.867-2.234-.867-.653 0-1.237.138-1.754.415a2.994 2.994 0 0 0-1.21 1.22c-.289.528-.434 1.169-.434 1.92Zm18.992 8.707c-1.397 0-2.6-.298-3.61-.895-1.003-.604-1.779-1.45-2.327-2.54-.541-1.095-.812-2.379-.812-3.85 0-1.452.271-2.733.812-3.84.548-1.108 1.312-1.973 2.29-2.595.985-.622 2.136-.933 3.453-.933a6.95 6.95 0 0 1 2.327.398c.751.264 1.425.68 2.022 1.246.597.566 1.068 1.302 1.413 2.207.344.898.517 1.99.517 3.277v.98h-11.274v-2.07h8.569c0-.726-.148-1.369-.444-1.929a3.35 3.35 0 0 0-1.246-1.339c-.529-.326-1.151-.489-1.865-.489-.776 0-1.453.19-2.031.573a3.84 3.84 0 0 0-1.33 1.477 4.261 4.261 0 0 0-.462 1.966v1.616c0 .948.167 1.754.499 2.42.339.664.809 1.172 1.413 1.523.603.344 1.308.517 2.114.517.523 0 1-.074 1.431-.222a3.09 3.09 0 0 0 1.117-.683c.314-.302.554-.674.72-1.117l2.613.47a4.724 4.724 0 0 1-1.126 2.023c-.536.572-1.21 1.018-2.022 1.338-.806.314-1.727.471-2.761.471Zm9.148-.286V71.818h2.668v2.253h.148a3.427 3.427 0 0 1 1.366-1.8 3.913 3.913 0 0 1 2.235-.665 11.817 11.817 0 0 1 1.172.065v2.64a4.913 4.913 0 0 0-.591-.102 5.631 5.631 0 0 0-.849-.064c-.653 0-1.234.138-1.745.415-.505.271-.905.65-1.2 1.136-.296.48-.444 1.028-.444 1.644V86h-2.76ZM55.5 117l-5.245-18.91h3l3.685 14.644h.175l3.832-14.643h2.973l3.832 14.653h.175l3.675-14.653h3.01L69.358 117h-2.871l-3.98-14.163h-.147L58.38 117H55.5Zm21.492 0v-14.182h2.76V117h-2.76Zm1.394-16.37c-.48 0-.893-.16-1.237-.48a1.562 1.562 0 0 1-.508-1.163c0-.456.169-.844.507-1.164.345-.326.758-.49 1.238-.49s.89.164 1.228.49c.344.32.517.708.517 1.164 0 .449-.173.837-.517 1.163-.339.32-.748.48-1.228.48Zm5.08 16.37v-14.182h2.669v2.253h.147a3.428 3.428 0 0 1 1.367-1.8 3.904 3.904 0 0 1 2.234-.665 12.107 12.107 0 0 1 1.173.064v2.641a4.749 4.749 0 0 0-.591-.101 5.523 5.523 0 0 0-.85-.065c-.652 0-1.234.138-1.745.415a3.091 3.091 0 0 0-1.643 2.779V117h-2.76Zm15.583.286c-1.397 0-2.6-.298-3.61-.895-1.003-.604-1.779-1.45-2.327-2.539-.541-1.096-.812-2.379-.812-3.851 0-1.452.27-2.733.812-3.84.548-1.108 1.311-1.973 2.29-2.595.985-.622 2.136-.932 3.453-.932.8 0 1.576.132 2.327.397.751.264 1.425.68 2.022 1.246.597.566 1.068 1.302 1.413 2.207.344.898.517 1.991.517 3.277v.979H93.86v-2.068h8.568c0-.726-.147-1.37-.443-1.93a3.358 3.358 0 0 0-1.246-1.339c-.53-.326-1.151-.489-1.865-.489-.776 0-1.453.191-2.032.573a3.834 3.834 0 0 0-1.33 1.477 4.263 4.263 0 0 0-.46 1.966v1.616c0 .948.165 1.754.498 2.419.338.665.81 1.173 1.412 1.524.604.344 1.308.517 2.115.517.523 0 1-.074 1.431-.222a3.1 3.1 0 0 0 1.117-.683c.314-.302.554-.674.72-1.117l2.613.471a4.74 4.74 0 0 1-1.126 2.022c-.536.572-1.21 1.018-2.022 1.338-.807.314-1.727.471-2.76.471Zm19.775-11.005-2.502.443a2.965 2.965 0 0 0-.499-.914 2.454 2.454 0 0 0-.905-.711c-.381-.185-.858-.277-1.431-.277-.782 0-1.434.175-1.957.526-.523.345-.785.791-.785 1.339 0 .474.175.855.526 1.145.351.289.917.526 1.699.711l2.253.517c1.305.301 2.277.766 2.918 1.394.64.628.96 1.443.96 2.447 0 .849-.246 1.606-.739 2.271-.486.658-1.166 1.176-2.04 1.551-.868.375-1.875.563-3.02.563-1.588 0-2.883-.338-3.887-1.015-1.003-.684-1.618-1.653-1.846-2.909l2.668-.406c.166.696.508 1.222 1.025 1.579.517.351 1.191.526 2.022.526.905 0 1.628-.188 2.17-.563.541-.382.812-.846.812-1.394 0-.443-.166-.816-.498-1.117-.327-.302-.828-.53-1.505-.684l-2.401-.526c-1.323-.302-2.302-.782-2.936-1.44-.628-.659-.942-1.493-.942-2.502 0-.838.234-1.57.702-2.198.468-.628 1.114-1.117 1.939-1.468.825-.357 1.77-.535 2.834-.535 1.533 0 2.74.332 3.62.997.88.658 1.462 1.542 1.745 2.65ZM29.79 131.547v-2.456h14.635v2.456h-5.9V148H35.68v-16.453h-5.89Zm21.564 16.739c-1.33 0-2.49-.304-3.48-.914-.992-.609-1.761-1.462-2.31-2.557-.547-1.096-.82-2.376-.82-3.841 0-1.471.273-2.758.82-3.86.549-1.101 1.318-1.957 2.31-2.566.99-.61 2.15-.914 3.48-.914s2.49.304 3.48.914c.992.609 1.761 1.465 2.309 2.566.548 1.102.822 2.389.822 3.86 0 1.465-.274 2.745-.822 3.841-.548 1.095-1.317 1.948-2.308 2.557-.991.61-2.151.914-3.481.914Zm.01-2.317c.86 0 1.575-.228 2.141-.683.566-.456.985-1.062 1.256-1.819.277-.757.415-1.592.415-2.503 0-.904-.138-1.735-.415-2.492-.27-.764-.69-1.376-1.256-1.838-.566-.461-1.28-.692-2.142-.692-.868 0-1.588.231-2.16.692-.567.462-.988 1.074-1.265 1.838-.271.757-.407 1.588-.407 2.492 0 .911.136 1.746.407 2.503.277.757.698 1.363 1.265 1.819.572.455 1.292.683 2.16.683Zm15.628 7.645c-1.126 0-2.096-.148-2.908-.444-.806-.295-1.465-.686-1.976-1.172a4.926 4.926 0 0 1-1.145-1.597l2.373-.979c.166.271.388.557.665.859.283.307.665.569 1.145.784.486.216 1.11.323 1.874.323 1.046 0 1.911-.255 2.594-.766.684-.505 1.025-1.311 1.025-2.419v-2.788h-.175a6.306 6.306 0 0 1-.72 1.006c-.308.369-.733.69-1.275.96-.541.271-1.246.407-2.114.407-1.12 0-2.13-.262-3.028-.785-.893-.53-1.6-1.308-2.124-2.336-.517-1.034-.775-2.305-.775-3.813s.255-2.801.766-3.878c.517-1.077 1.225-1.902 2.124-2.475.898-.578 1.917-.867 3.056-.867.88 0 1.59.147 2.133.443.541.289.963.628 1.264 1.015.308.388.545.73.711 1.025h.204v-2.299h2.705v14.496c0 1.219-.283 2.219-.85 3.001-.566.781-1.332 1.36-2.299 1.735-.96.376-2.043.564-3.25.564Zm-.027-8.116c.794 0 1.465-.185 2.012-.554.554-.376.973-.911 1.256-1.607.29-.701.434-1.542.434-2.52 0-.954-.142-1.795-.425-2.521-.283-.726-.698-1.292-1.246-1.699-.548-.412-1.225-.618-2.031-.618-.831 0-1.524.215-2.078.646-.554.425-.972 1.003-1.255 1.736-.277.732-.416 1.551-.416 2.456 0 .929.142 1.745.425 2.446.283.702.701 1.25 1.255 1.644.56.394 1.25.591 2.069.591Zm16.24 2.788c-1.397 0-2.6-.298-3.61-.895-1.003-.604-1.779-1.45-2.326-2.539-.542-1.096-.813-2.379-.813-3.851 0-1.452.27-2.733.813-3.84.547-1.108 1.31-1.973 2.29-2.595.984-.622 2.135-.932 3.453-.932.8 0 1.575.132 2.326.397a5.63 5.63 0 0 1 2.022 1.246c.597.566 1.068 1.302 1.413 2.207.345.898.517 1.991.517 3.277v.979H78.016v-2.068h8.569c0-.726-.148-1.37-.444-1.93a3.358 3.358 0 0 0-1.246-1.339c-.53-.326-1.151-.489-1.865-.489-.776 0-1.453.191-2.031.573a3.833 3.833 0 0 0-1.33 1.477 4.265 4.265 0 0 0-.462 1.966v1.616c0 .948.167 1.754.5 2.419.338.665.809 1.173 1.412 1.524.603.344 1.308.517 2.114.517.523 0 1-.074 1.431-.222a3.1 3.1 0 0 0 1.117-.683c.314-.302.554-.674.72-1.117l2.613.471a4.735 4.735 0 0 1-1.126 2.022c-.535.572-1.21 1.018-2.022 1.338-.806.314-1.727.471-2.76.471Zm15.768-14.468v2.216h-7.746v-2.216h7.746Zm-5.67-3.398h2.761v13.416c0 .535.08.939.24 1.209.16.265.367.447.62.545.258.093.538.139.84.139.221 0 .415-.016.581-.046l.388-.074.498 2.28a4.61 4.61 0 0 1-.683.185 5.374 5.374 0 0 1-1.108.111 4.863 4.863 0 0 1-2.031-.388 3.488 3.488 0 0 1-1.523-1.256c-.388-.566-.582-1.277-.582-2.133V130.42Zm11.789 9.16V148h-2.761v-18.909h2.724v7.035h.176a4.071 4.071 0 0 1 1.523-1.818c.683-.45 1.576-.674 2.678-.674.972 0 1.822.2 2.548.6.732.4 1.299.997 1.699 1.791.406.788.609 1.773.609 2.954V148h-2.761v-8.688c0-1.04-.267-1.847-.803-2.419-.535-.579-1.28-.868-2.234-.868-.653 0-1.237.138-1.754.415a2.997 2.997 0 0 0-1.21 1.219c-.289.529-.434 1.17-.434 1.921Zm18.992 8.706c-1.397 0-2.6-.298-3.61-.895-1.003-.604-1.779-1.45-2.327-2.539-.541-1.096-.812-2.379-.812-3.851 0-1.452.271-2.733.812-3.84.548-1.108 1.312-1.973 2.29-2.595.985-.622 2.136-.932 3.453-.932a6.94 6.94 0 0 1 2.327.397c.751.264 1.425.68 2.022 1.246.597.566 1.068 1.302 1.413 2.207.344.898.517 1.991.517 3.277v.979h-11.274v-2.068h8.569c0-.726-.148-1.37-.444-1.93a3.358 3.358 0 0 0-1.246-1.339c-.529-.326-1.151-.489-1.865-.489-.776 0-1.453.191-2.031.573a3.83 3.83 0 0 0-1.33 1.477 4.261 4.261 0 0 0-.462 1.966v1.616c0 .948.167 1.754.499 2.419.339.665.809 1.173 1.413 1.524.603.344 1.308.517 2.114.517.523 0 1-.074 1.431-.222a3.1 3.1 0 0 0 1.117-.683c.314-.302.554-.674.72-1.117l2.613.471a4.73 4.73 0 0 1-1.126 2.022c-.536.572-1.21 1.018-2.022 1.338-.806.314-1.727.471-2.761.471Zm9.148-.286v-14.182h2.668v2.253h.148a3.427 3.427 0 0 1 1.366-1.8 3.907 3.907 0 0 1 2.235-.665 12.105 12.105 0 0 1 1.172.064v2.641a4.726 4.726 0 0 0-.591-.101 5.517 5.517 0 0 0-.849-.065c-.653 0-1.234.138-1.745.415-.505.271-.905.65-1.2 1.136-.296.48-.444 1.028-.444 1.643V148h-2.76Z"/>
</svg>
