<?xml version="1.0" encoding="UTF-8"?><svg xmlns="http://www.w3.org/2000/svg" viewBox="0 0 490.21 718.89"><defs><style>.cls-1{fill:none;stroke:#fff;stroke-miterlimit:10;}</style></defs><g id="body_L_and_head"><path class="cls-1" d="M53.51,706.59c-6.86-14.4-9.18-26.5-10-35-1.32-13.58,1.02-19.06-2-33-2.44-11.26-4.96-11.9-9-25-1.78-5.78-2.96-11.07-6-38-2.76-24.47-4.14-36.7-4-43,.22-9.55,2.15-20.04,6-41,2.84-15.44,9.77-50.91,6-52-.59-.17-1.51,.49-2,0-.82-.82,.92-3.56,2-6,1.63-3.68,1.53-6.22,2-11,.94-9.62,2.4-10.57,5-29,1.15-8.14,1.87-14.6,2.38-19.79,.57-5.95,.5-7.09,1.62-13.21,3.58-19.44,8.1-44.14,26-64,9.5-10.54,19.17-15.73,29-21,15.32-8.22,41.37-18.34,64-25,0,0,17.29-5.09,22-15,1.6-3.35,2-7,2-7,.18-1.66,.61-5.54-1-9-1.77-3.79-5.03-5.04-8-7-4.46-2.95-6.97-7.3-12-16-5.44-9.43-7.85-17.37-11-28-4.23-14.28-3.07-15.32-7-26-2.84-7.7-5.88-13.78-9-20-7.79-15.54-8.92-14.3-11-21-2.65-8.55-2.41-15.74-2-28,.25-7.42,.41-11.2,2-15,2.41-5.75,4.93-6.09,13-16,7.28-8.94,6.21-9.87,11-14,6.42-5.53,11.85-5.52,13-9,1.28-3.87-4.43-7.09-3-10,1.39-2.82,7.98-2.31,12-2,10.18,.78,16.31,4.19,17,3,.94-1.61-9.66-9-9-10,.52-.78,7.04,3.48,18,7,2.05,.66,4.11,1.32,7,2,10.12,2.38,14.06,1.15,16,4,2.2,3.24-.91,7.72,1,9,1.65,1.11,3.93-2.26,8-3,5.17-.94,8.81,3.17,22,13,9.31,6.95,8.33,5.52,11,8,3.26,3.03,10.36,9.77,14,21,3.7,11.41,1.8,21.17,1,25-.99,4.75-1.35,2.95-7,19-3.31,9.39-4.23,12.98-6,13-2.26,.03-4.99-5.82-5-11,0-3.06,.94-3.72,1-8,.06-4.17-.78-7.22-1-8-1.11-3.85-2.12-7.36-5-9-2.84-1.62-4.59,.25-12,0-5.02-.17-7.63-.26-9-2-3.04-3.88,3.36-11.78,1-14-2.51-2.35-11.97,4.4-13,3-.96-1.31,7.4-7.28,6-11-1.29-3.41-9.94-2.7-10-4-.08-1.63,13.55-1.9,14-5,.4-2.74-9.31-8.77-16-6-4.95,2.05-4.05,7.2-10,16-4.47,6.6-9.47,10.36-17,16-12.28,9.2-14.7,7.1-19,13-5.72,7.86-2.39,12.92-9,21-4.5,5.5-11.44,9.74-14,8-3.35-2.28,2.67-13.53-1-16-2.03-1.37-6.75,.13-8,3-2.2,5.02,7.91,10.37,9,22,.35,3.77-.36,6.94-1,9"/></g><g id="body"><path class="cls-1" d="M98.51,345.59c1.43,23.22,1.92,40.07,2,53,.08,13.16-.25,21.97,5,32,3.02,5.77,5.79,7.92,7,14,1.7,8.51-1.74,14.26-5,24-3.68,10.98-4.5,19.17-6,34-1.33,13.17,.2,13.98,0,36-.1,11.62-.24,23.93-2,40-1.47,13.38-4.03,29-6,41-.41,2.5-.76,4.58-1,6"/><path class="cls-1" d="M378.51,308.59c-4.93,22.74-7.02,41.65-8,55-.8,10.93-.87,27.29-1,60,0,1.12,0,.28,0,48,0,20.63,0,30.95,0,31-.07,12,.33,24,0,36,0,0-.28,10.33,1,27,.09,1.17,.31,3.73,1,7,.62,2.94,1.39,5.33,2,7"/><path class="cls-1" d="M374.51,397.59c-.25-.12,2.19-4.73,5-13,4.14-12.2,4.84-19.91,5-22,.48-6.19-.03-10,0-10,.05,0,2.72,13.97-2,29-2.87,9.14-7.68,16.15-8,16Z"/><path class="cls-1" d="M139.51,420.59c-1.28,.01,1.53,20.06-5,46-8.79,34.94-28.56,56.94-27,58,1.13,.76,11.31-10.73,19-24,5.55-9.58,11.32-22.74,14-39,3.6-21.84,.25-41.01-1-41Z"/><path class="cls-1" d="M246.51,385.59c-1.7-.42-4.62,27.07-25,58-15.94,24.2-32.96,35.92-32,37,1.09,1.23,25.02-11.84,41-37,17.53-27.6,17.75-57.56,16-58Z"/></g><g id="inner_arms"><path class="cls-1" d="M109.51,442.59c-3.5,7.76-6.16,14.31-8,19-4.71,12.02-7.64,19.6-10,30-1.89,8.33-2.57,14.75-3,19-1.82,17.78-.5,31.5,0,36,1.62,14.72,3.53,13.04,5,27,1.15,10.89,.74,19.08,0,34-.53,10.78-.89,17.92-2,28-1.6,14.53-2.91,18.18-1,25,.7,2.5,3.42,12.24,12,18,8.45,5.68,14.43,1.9,21,7,3.59,2.78,7.59,8.39,8,21"/><path class="cls-1" d="M373.51,458.59c-.36,9.82-.59,23.55,0,40,.75,20.69,2.01,24.22,2,41,0,14.17-.94,13.52-2,41-.85,22.18-.15,20.24-1,33-1.7,25.63-3.98,25.28-3,38,.59,7.62,1.86,13.69,0,23-1.33,6.64-3.67,11.99-5,15-3.31,7.47-7.1,13.16-10,17"/></g><g id="arms"><path class="cls-1" d="M413.51,706.59c1.01-5.14,2.63-12.8,5-22,3.4-13.17,6.47-22.15,8-27,5.11-16.24,7.44-29.36,12-55,4.95-27.87,7.43-41.8,7-54-.64-18.19-4.14-22.19-7-44-1.75-13.31-3.19-32.71-1-57"/><path class="cls-1" d="M111.51,442.59c-13.79-.14-25.61-.55-35-1-18.6-.88-27.9-1.33-30-2-2.04-.65-5.75-2.17-10-1-2.12,.58-3.39,1.56-4,1-1-.91,1.54-4.31,3-10,.74-2.89,.94-5.35,1-7"/></g><g id="t-shirt-r"><path class="cls-1" d="M369.51,458.59c9.5-.88,17.09-2.11,22-3,17.96-3.27,26.28-6.75,47-11,7.27-1.49,13.24-2.44,17-3-2.87-7.25-6.8-18.23-10-32-2.77-11.88-2.9-16.82-5-30-2.91-18.24-5.74-35.97-13-55-6.57-17.21-10.64-27.89-21-38-3.09-3.01-3.38-2.7-48-24-27.23-13-33.34-16.08-39-17-2.57-.42-7.07-.72-11-4-2.18-1.83-3.02-3.59-6-5-3.44-1.62-6.91-1.42-7-1-.12,.52,4.99,.75,7,4,2.08,3.36-.2,8.27-1,10-5.11,11.03-24.02,24.43-48,27-3.02,.32-15.69,1.5-31-3-6.75-1.98-15.42-4.53-24-12-9.05-7.88-13.18-17.04-15-22"/></g><g id="t-shirt_detail"><path class="cls-1" d="M175.51,246.59c.15,2.21,.6,5.43,2,9,1.37,3.49,5.02,10.83,19,19,15.28,8.93,31.06,11.95,42,13"/></g><g id="head_r"><path class="cls-1" d="M192.51,219.59c3.16,2.45,8.55,5.98,16,8,12.67,3.43,23.11,.24,27-1,11.29-3.61,18.16-10.21,21-13,8.15-8.01,11.44-16.18,15-25,4.41-10.94,6.62-16.41,5-23-1.04-4.25-3.76-9.62-2-11,.83-.65,1.76,.27,4,0,2.8-.33,5.69-2.28,7-5,1.42-2.95,.57-5.96,0-8-1.07-3.79-2.6-3.91-3-7-.35-2.72,.77-3.13,1-7,.11-1.94-.26-3.96-1-8-1.46-7.96-2.44-8.69-3-9-1.81-.99-4.47-.03-6,1-1,.67-1.63,1.46-2,2"/></g><g id="neck"><path class="cls-1" d="M298.51,236.59c-2.23-.44-5.7-1.45-9-4-4.2-3.25-5.87-7.24-9-15-1.76-4.35-3.68-9.13-5-16-1.56-8.13-1.53-15.34-1-21"/></g><g id="nose"><path class="cls-1" d="M189.51,122.59c1.7,1.75,3.75,4.39,5,8,1.26,3.63,1.18,6.7,1,12-.11,3.07-.21,6.06-1,10-1.33,6.61-3.2,8.97-2,13,.13,.43,1.17,3.82,3,4,1.2,.12,1.6-1.25,4-2,.75-.23,2.51-.78,4,0,1.18,.62,.96,1.42,2,2,1.9,1.05,5.34-.13,6-2,.41-1.15-.5-1.82,0-3,.61-1.46,2.61-1.91,3-2,3.34-.75,5.03,1.93,7,1,2.08-.98,2.01-4.84,2-5-.08-2.65-1.68-4.51-3-6-2.05-2.32-4.11-3.44-5-4-4.82-3.02-6.39-8.96-9-19-2.12-8.16-2.05-13.34-2-15,.05-1.45,.37-5.03,1.7-9.37,.84-2.75,1.26-4.13,2.3-5.63,2.09-3,4.96-4.09,10-6,1.27-.48,6.08-2.24,13-3,3.16-.34,7.9-.61,8,0,.07,.44-2.35,.95-8,3-5.72,2.08-8.63,3.16-11,5-1.32,1.02-2.72,1.94-4,3-1.4,1.16-1.97,1.76-3,2-1.59,.37-3.1-.41-4-1"/></g><g id="details"><path class="cls-1" d="M219.51,125.59c-.17-.75,.55-1.51,2-3,2.06-2.12,3.86-3.97,7-5,3.12-1.02,5.6-.59,9,0,2.67,.46,4.64,.81,5,2,.56,1.85-3.16,4.42-4,5-.81,.56-3.86,2.55-9,3-3.62,.32-9.54-.01-10-2Z"/><path class="cls-1" d="M168.51,137.59c-.3-1.16,1.32-2.55,3-4,1.07-.92,2.57-2.21,5-3,3.62-1.17,6.67-.37,8,0,1.75,.49,4.8,1.34,5,3,.2,1.67-2.6,3.22-4,4-3.96,2.2-7.81,2.09-10,2-2.08-.08-6.55-.27-7-2Z"/><path class="cls-1" d="M183.51,116.59c.34-.71-6.33-6.58-14-6-2.38,.18-4.92,.31-7,2-.85,.69-1.89,1.85-4,3-1.18,.64-2.03,.92-2,1,.08,.23,6.59-3.01,14-3,7.85,0,12.72,3.59,13,3Z"/><path class="cls-1" d="M219.69,129.1c.05-.13,7.06,4.25,15.69,3.27,3.02-.34,5.24-1.23,5.23-1.27-.01-.06-5.18,2.02-11.32,1.4-5.83-.59-9.65-3.31-9.61-3.41Z"/><path class="cls-1" d="M180.56,145.48s4.02-1.95,7.73-5.16c1.3-1.12,2.13-2.04,2.12-2.04-.02,0-1.94,2.12-4.84,4.22-2.75,2-5.01,3-5.01,2.97Z"/></g><g id="Layer_13"><path class="cls-1" d="M191.51,188.59c-.2-.4,3.96-3.03,8-5,3.86-1.88,5.97-2.88,9-3,2.46-.09,2.96,.5,5,0,2.94-.72,3.1-2.25,6-3,1.15-.3,1.11-.06,6,0,3.72,.04,3.82-.1,6,0,2.4,.11,6.99,.48,7,1,0,.45-3.39,.64-12,2-3.48,.55-2.82,.5-6,1-7.88,1.23-8.91,1.05-13,2-2.64,.61-4.7,1.27-7,2-6.04,1.92-8.84,3.32-9,3Z"/><path class="cls-1" d="M198.51,188.59c-.03-.21,3.76-.78,13-3,3.5-.84,3.2-.82,4.72-1.15,7.41-1.64,15.19-2.35,15.28-1.85,.1,.54-8.69,2.66-16,4-9.07,1.66-16.95,2.3-17,2Z"/><path class="cls-1" d="M177.84,131.55c-.34,.22-1.12,.75-1.55,1.87-.58,1.53-.25,3.54,.77,4.67,1.49,1.65,4.26,1.25,5.41-.93,.93-1.77,.62-4.38-.77-5.6-1.61-1.42-3.7-.11-3.86,0Z"/><path class="cls-1" d="M228.1,118.63c-.38,.24-1.28,.84-1.77,2.09-.67,1.72-.29,3.97,.88,5.24,1.7,1.85,4.87,1.4,6.18-1.05,1.06-1.98,.71-4.91-.88-6.28-1.84-1.59-4.23-.12-4.42,0Z"/><line class="cls-1" x1="8.51" y1="706.59" x2="482.51" y2="706.59"/></g></svg>