<?xml version="1.0" encoding="UTF-8"?><svg xmlns="http://www.w3.org/2000/svg" viewBox="0 0 595.28 610"><defs><style>.cls-1{letter-spacing:-.13em;}.cls-1,.cls-2,.cls-3{fill:#dffc6e;}.cls-4{stroke:#141414;stroke-width:3px;}.cls-4,.cls-5,.cls-6,.cls-7,.cls-3,.cls-8{stroke-miterlimit:10;}.cls-4,.cls-5,.cls-7{fill:none;}.cls-9{font-size:11.71px;}.cls-9,.cls-10,.cls-11,.cls-12{font-family:MyriadPro-Regular, 'Myriad Pro';}.cls-13{fill:#f2f2f2;}.cls-14{fill:#fff;}.cls-15{fill:#e5e3e4;}.cls-16{fill:#898989;}.cls-10{font-size:10.86px;}.cls-17{letter-spacing:-.03em;}.cls-5,.cls-3,.cls-8{stroke-width:.75px;}.cls-5,.cls-8{stroke:#383838;}.cls-6{fill:#b7b7b7;}.cls-6,.cls-7{stroke:#000;}.cls-11{font-size:17.54px;}.cls-18{font-family:NHaasGroteskDSPro-55Rg, 'Neue Haas Grotesk Display Pro';}.cls-18,.cls-12{font-size:19.33px;}.cls-19{font-family:NHaasGroteskDSPro-65Md, 'Neue Haas Grotesk Display Pro';font-size:24px;}.cls-3{stroke:#221f20;}.cls-8{fill:#444;}</style></defs><g id="Layer_2"><rect class="cls-16" width="595.28" height="610"/><text class="cls-18" transform="translate(387.75 393.96) rotate(66.37) scale(.72 1)"><tspan x="0" y="0">A</tspan></text><text class="cls-18" transform="translate(391.56 402.72) rotate(63.2) scale(.72 1)"><tspan x="0" y="0">M</tspan></text><text class="cls-18" transform="translate(397.07 413.52) rotate(59.9) scale(.72 1)"><tspan x="0" y="0">A</tspan></text><text class="cls-18" transform="translate(401.59 421.36) rotate(56.86) scale(.72 1)"><tspan x="0" y="0">G</tspan></text><text class="cls-18" transform="translate(407.56 430.44) rotate(53.6) scale(.72 1)"><tspan x="0" y="0">E</tspan></text><text class="cls-18" transform="translate(413.02 437.83) rotate(50.47) scale(.72 1)"><tspan x="0" y="0">R</tspan></text><text class="cls-18" transform="translate(419.09 445.14) rotate(48.19) scale(.72 1)"><tspan x="0" y="0">B</tspan></text><text class="cls-18" transform="translate(425.09 451.82) rotate(47.51) scale(.72 1)"><tspan x="0" y="0">R</tspan></text><text class="cls-18" transform="translate(431.26 458.52) rotate(48.24) scale(.72 1)"><tspan x="0" y="0">O</tspan></text><text class="cls-18" transform="translate(438.46 466.59) rotate(49.81) scale(.72 1)"><tspan x="0" y="0">G</tspan></text><text class="cls-18" transform="translate(445.1 474.46) rotate(51.35) scale(.72 1)"><tspan x="0" y="0">A</tspan></text><text class="cls-18" transform="translate(450.72 481.48) rotate(52.73) scale(.72 1)"><tspan x="0" y="0">D</tspan></text><text class="cls-18" transform="translate(456.48 489.06) rotate(54.07) scale(.72 1)"><tspan x="0" y="0">E</tspan></text><text class="cls-12" transform="translate(312.22 250.66) rotate(-48.93) scale(.72 1)"><tspan x="0" y="0">C</tspan></text><text class="cls-12" transform="translate(317.56 244.53) rotate(-48.93) scale(.72 1)"><tspan x="0" y="0">H</tspan><tspan x="12.58" y="0">R</tspan></text><text class="cls-12" transform="translate(328.5 231.98) rotate(-48.93) scale(.72 1)"><tspan x="0" y="0">I</tspan></text><text class="cls-12" transform="translate(330.7 229.45) rotate(-48.93) scale(.72 1)"><tspan x="0" y="0">S</tspan></text><text class="cls-12" transform="translate(335.24 224.25) rotate(-48.93) scale(.72 1)"><tspan x="0" y="0">T</tspan></text><text class="cls-12" transform="translate(339.81 219) rotate(-48.93) scale(.72 1)"><tspan x="0" y="0">I</tspan><tspan x="4.62" y="0">A</tspan></text><text class="cls-12" transform="translate(347.65 210.01) rotate(-48.93) scale(.72 1)"><tspan x="0" y="0">N</tspan></text><text class="cls-12" transform="translate(353.69 203.07) rotate(-48.93) scale(.72 1)"><tspan x="0" y="0">S</tspan></text><text class="cls-12" transform="translate(358.23 197.87) rotate(-48.93) scale(.72 1)"><tspan x="0" y="0">H</tspan></text><text class="cls-12" transform="translate(364.22 190.99) rotate(-48.93) scale(.72 1)"><tspan x="0" y="0">A</tspan></text><text class="cls-12" transform="translate(369.37 185.08) rotate(-48.93) scale(.72 1)"><tspan x="0" y="0">V</tspan><tspan x="10.8" y="0">N</tspan></text><text class="cls-12" transform="translate(248.67 63.16) rotate(25.13) scale(.72 1)"><tspan x="0" y="0">N</tspan></text><text class="cls-12" transform="translate(256.92 67.03) rotate(25.13) scale(.72 1)"><tspan x="0" y="0">Y</tspan></text><text class="cls-12" transform="translate(263.7 70.21) rotate(25.13) scale(.72 1)"><tspan x="0" y="0">H</tspan></text><text class="cls-12" transform="translate(271.97 74.09) rotate(25.13) scale(.72 1)"><tspan x="0" y="0">A</tspan></text><text class="cls-12" transform="translate(279.05 77.41) rotate(25.13) scale(.72 1)"><tspan x="0" y="0">V</tspan></text><text class="cls-12" transform="translate(286.12 80.73) rotate(25.13) scale(.72 1)"><tspan x="0" y="0">N</tspan></text><text class="cls-12" transform="translate(149.13 219.18) rotate(-52.46) scale(.72 1)"><tspan x="0" y="0"> </tspan></text><text class="cls-12" transform="translate(150.87 216.91) rotate(-50.56) scale(.72 1)"><tspan x="0" y="0"> </tspan></text><text class="cls-12" transform="translate(152.67 214.71) rotate(-48.52) scale(.72 1)"><tspan x="0" y="0">I</tspan></text><text class="cls-12" transform="translate(154.68 212.27) rotate(-44.47) scale(.72 1)"><tspan x="0" y="0">N</tspan></text><text class="cls-12" transform="translate(161.07 206.04) rotate(-39.61) scale(.72 1)"><tspan x="0" y="0">D</tspan></text><text class="cls-12" transform="translate(168 200.26) rotate(-34.07) scale(.72 1)"><tspan x="0" y="0">R</tspan></text><text class="cls-12" transform="translate(173.94 196.22) rotate(-27.61) scale(.72 1)"><tspan x="0" y="0">E</tspan></text><text class="cls-12" transform="translate(179.82 193.22) rotate(-22.85) scale(.72 1)"><tspan x="0" y="0"> </tspan></text><text class="cls-12" transform="translate(182.24 192.06) rotate(-17.43) scale(.72 1)"><tspan x="0" y="0">B</tspan></text><text class="cls-12" transform="translate(188.94 190) rotate(-10.32) scale(.72 1)"><tspan x="0" y="0">Y</tspan></text></g><g id="WATER"><g id="water"><g id="kanal_toppo"><path id="vatten1" class="cls-15" d="M0,485.18c1.46-2.5,22.57-38.53,35.93-57.63,4.33-6.19,8.15-11.27,8.15-11.27,8.03-10.54,13.37-15.84,30.44-39.35,8.47-11.66,15.52-21.79,27.56-36.08,6.7-7.95,8.82-9.92,15.04-17.54,12.37-15.17,14.62-20.43,24.06-33.08,11.81-15.83,14.67-16.15,47.11-52.62,6.24-7.01,11.29-12.8,14.53-16.54,1.22,.8,2.45,1.6,3.67,2.4,.9-.28,1.08-.62,1.12-.82,.2-1.06-2.88-2.39-3.26-2.55,2.65-2.11,5.3-4.21,7.95-6.32,.33,.12,.83,.25,1.43,.2,1.58-.13,2.5-1.41,2.65-1.63,.92,.68,1.84,1.36,2.75,2.04,.38-.37,.48-.73,.51-.92,.16-.91-.56-1.98-1.84-2.55,5.99-5.67,9.58-8.53,11.83-9.89,.57-.34,2.18-1.28,3.16-3.16,.68-1.31,.81-2.61,.82-3.47,6.22-5.81,12.44-11.62,18.66-17.43,5.26,2.71,8.08,5.75,9.69,8.09,.95,1.37,2.05,3.33,3.54,3.28,1.44-.04,2.56-1.94,3.28-3.54-4.04-3.79-8.08-7.58-12.12-11.36,5.55-6.03,13.64-13.01,24.75-17.93,2.25-.99,4.44-1.83,6.57-2.53,11.7-8.92,23.4-17.85,35.1-26.77,3.62,3.62,7.24,7.24,10.86,10.86,1.94-1.26,3.87-2.53,5.81-3.79l-9.6-12.37c.81-.19,7.87-1.95,10.86-8.84,2.13-4.91,.89-9.42,.49-10.68,4.31-7.99,8.62-15.97,12.93-23.96,8.75,4.06,17.51,8.13,26.26,12.19-3.36,7.59-6.72,15.18-10.08,22.78v4.64c1.01,.81,2.02,1.61,3.02,2.42,4.57-9.27,9.14-18.54,13.71-27.82,25.43,11.64,50.87,23.29,76.3,34.93-2.92,7.76-5.85,15.52-8.77,23.28-9.9,11.64-19.79,23.28-29.69,34.92-6.75,.17-13.5,.34-20.24,.51-2.7-11.47-5.4-22.94-8.1-34.41-.73,.51-1.46,1.01-2.19,1.52,.26,2.13,.65,5.29,1.18,9.11,3.08,22.16,5.05,25.18,7.42,27.16,4.24,3.53,9.71,3.66,12.15,3.71,1.71,.04,7.71,.1,13.16-3.71,2.96-2.07,3.53-3.72,7.42-8.6,3.09-3.88,3.52-3.82,9.95-10.8,11.76-12.74,17.55-20.74,18.89-22.61,3.23-4.5,4.78-7.12,6.07-9.62,2.6-5.05,3.39-8.2,5.06-12.99,4.06-11.63,5.95-11.69,9.45-21.59,1.6-4.54,2.59-9.21,4.55-18.56,2.29-10.85,3.69-17.53,4.55-26.15,.79-7.91,.65-14.83,.34-28.34-.17-7.27-.52-17.32-1.35-29.41h-30.87c-1.86,3.84-3.71,7.68-5.57,11.53,4.95,2.36,9.9,4.72,14.85,7.09,.9,9.9,1.8,19.79,2.7,29.69-2.81,14.17-5.62,28.34-8.43,42.51l-4.72,8.94c.56,.79,1.12,1.57,1.69,2.36-1.52,3.66-3.04,7.31-4.55,10.97-3.21-1.24-6.41-2.47-9.62-3.71-.62,1.8-1.24,3.6-1.86,5.4-19.63-9-39.25-17.99-58.88-26.99,11.2-23.13,22.4-46.26,33.6-69.39-1.22-.77-2.43-1.55-3.65-2.32l-31.18,63.69c-6.97-3.32-13.93-6.63-20.9-9.95,1.77-7.74,3.54-15.48,5.31-23.22-1.51-2.54-3.01-5.08-4.52-7.62,8.94-12.99,17.88-25.98,26.82-38.97h-60.83c-7.9,16.61-15.81,33.22-23.71,49.84,3.43,1.93,6.87,3.86,10.3,5.79,5.93-11.9,11.86-23.81,17.78-35.71l7.48,3.39c-7.15,15.71-14.3,31.43-21.45,47.14,2.12,.99,4.23,1.98,6.35,2.96-2.68,5.79-5.36,11.57-8.05,17.36l-8.89,3.39c-.75,1.51-1.51,3.01-2.26,4.52-23.08-10.82-46.16-21.64-69.24-32.46-.85,1.39-1.7,2.78-2.55,4.17,22.15,10.57,44.3,21.15,66.46,31.72-1.77,3.16-3.73,6.35-5.89,9.54-17.21,25.37-40.39,40.39-59.25,49.32,.11,1.07,.21,2.14,.32,3.2-2.24,1.49-4.48,2.99-6.73,4.48-2.46-1.49-4.91-2.99-7.37-4.48-7.35,.83-18.07,.92-29.14-3.84-7.06-3.04-10.85-6.58-19.87-13.42-6.66-5.05-16.42-12.1-29.04-19.93-2.34-.19-5.84-.26-9.92,.6-9.18,1.93-14.8,7.18-22.23,14.12-9.72,9.07-15.41,18.43-18.14,23-.33,.56-.6,1.02-.79,1.34-.2,1-.4,2-.6,3,17.43,24.74,34.85,49.48,52.28,74.21l4.51-4.21c-17.43-24.34-34.85-48.67-52.28-73.01,3.79-6.28,10.45-15.51,21.33-23.74,7.27-5.5,14.31-8.94,19.83-11.12h5.41c18.94,11.02,27.56,18.03,31.85,22.53,1.1,1.15,4.64,5.01,10.52,8.11,3.93,2.08,7.52,3.08,9.92,3.61,2.03,.29,4.14,.69,6.31,1.2,10.22,2.42,18.46,6.69,24.64,10.82-.37,1.26-1,3.08-2.1,5.11-3.31,6.07-8.36,9.38-18.33,14.72-14.75,7.91-21.52,10.25-21.33,13.82,.09,1.6,1.54,2.83,2.7,3.61-10.36,5.01-22.77,12.06-35.75,21.93-13.12,9.97-23.3,20.13-30.95,28.84-7.11,7.41-14.22,14.82-21.33,22.23,.9,.6,1.8,1.2,2.7,1.8-17.54,19.02-37.78,39.05-60.99,59.19-15.51,13.47-30.73,25.58-45.39,36.47v100.01Z"/><path class="cls-15" d="M188.28,237.6c15.47,13.57,30.94,27.15,46.41,40.72,31.08-31.23,62.64-64.92,94.26-101.2,13.68-15.69,26.85-31.28,39.55-46.75,6.85,4.2,13.7,8.39,20.55,12.59,.43,1.46,.86,2.91,1.28,4.37,.86-.86,1.71-1.71,2.57-2.57-.26-3.25-.51-6.51-.77-9.76-16.88-11.2-33.77-22.4-50.65-33.6,.31,.82,.59,1.8,.75,2.93,.47,3.45-.54,6.27-1.21,7.74,6.9,3.93,13.8,7.86,20.7,11.79,.03,.87,.06,1.75,.09,2.62-16.59,20.19-33.18,40.38-49.77,60.57l-25.7-33.5c-1.33,.52-2.66,1.04-3.98,1.55,9.17,11.73,18.35,23.46,27.52,35.19-24.86,27.11-49.71,54.22-74.57,81.33-14.22-12.98-28.44-25.97-42.66-38.95-1.46,1.64-2.91,3.29-4.37,4.93Z"/></g><g id="kanal_nere"><path class="cls-15" d="M340.59,302c.52,.76,1.49,1.11,2.4,.85,9.57-3.29,19.14-6.58,28.72-9.87,1.85,.51,3.77,1,5.74,1.47,3.96,.94,4.49,1.3,5.3,1.18,1.11-.17,4.09-1.22,6.33-10.75l31.81-24.89c1.57,.44,3.14,.88,4.71,1.33,.62,.21,2.54,.78,4.27-.15,1.86-1,2.36-3.12,2.8-5.01,.27-1.15,.58-3.24,0-5.89,8.98-4.47,20.73-11.57,32.4-22.68,7.67-7.3,13.48-14.6,17.82-20.91,1.06,.3,3.77,.89,6.92-.15,.85-.28,4.09-1.4,6.04-4.57,2.09-3.41,1.92-7.95-.29-11.78,3.98-4.17,8.79-10.1,12.96-17.97,2.76-5.21,4.62-10.1,5.89-14.28,1.21,.14,6.6,.61,11.49-3.09,1.25-.95,6.01-4.85,6.19-11.49,.19-7.29-5.31-11.64-5.89-12.08,1.44-3.48,2.84-7.26,4.12-11.34,2.56-8.14,4.09-15.71,5.01-22.38,4.29-1.85,7.09-4.26,8.69-5.89,1.48-1.5,2.93-3,3.98-5.45,.49-1.14,2.08-5.01,.74-9.57-1.73-5.87-6.98-8.32-7.81-8.69,1.01-4.6,1.86-10.15,2.08-16.45,.3-8.83-.73-16.4-1.98-22.23,.51-.07,4.1-.63,6.17-3.95,.23-.36,1.95-3.23,1-6.62-.45-1.61-1.29-2.58-2.43-3.86-2.65-3-7.01-5.93-8.44-4.85-.45,.34-.65,1.12-.45,1.62,.22,.54,.84,.63,1.89,1.08,.02,.01,.85,.49,2.52,1.44,2.12,1.21,3.17,1.82,3.23,1.89,1.56,1.79,.85,5.67-1.08,8.08-1.34,1.69-3.07,2.4-3.95,2.69,1.24,8.22,1.89,18.67,.36,30.54-.61,4.76-1.5,9.15-2.52,13.11,1.74,1.12,4.84,3.52,6.47,7.64,.74,1.88,1.51,3.84,.81,5.93-.82,2.43-3.19,3.78-7.46,6.2-1.41,.8-2.63,1.39-3.5,1.8-.37,4.73-1.1,10.06-2.43,15.81-2.33,10.14-5.8,18.52-9.07,24.97,2.64,3.46,3.68,6.66,4.13,8.62,.55,2.36,.98,4.21,.09,6.11-1.14,2.43-3.72,3.42-6.29,4.4-2.68,1.03-5.09,1.29-6.74,1.35-1.68,4.95-4.06,10.69-7.46,16.8-4.47,8.04-9.4,14.35-13.65,19.04,.52,1.6,1.16,4.13,1.17,7.28,0,2.26,.01,3.74-.81,4.94-1.62,2.38-5.91,2.84-10.6,1.62-2.61,4.74-5.22,8.49-7.31,11.21-1.6,2.1-3.7,4.82-6.89,7.92-3.35,3.26-6.25,5.33-7.99,6.56-10.94,7.71-26.98,18.14-28.5,19.13,.42,2.07,.6,4.92-.46,7.93-.57,1.59-1.24,3.49-2.89,4.1-1.06,.39-2.33,0-4.82-.8-1.69-.54-3.07-1.11-4.02-1.53l-32.55,24.75c-1.51,3.34-2.67,5.97-3.46,7.96-.16,.4-.49,1.26-1.29,1.61-1.14,.5-2.51-.37-3.13-.72-1.55-.89-4-1.81-7.96-1.93-9.97,3.38-19.93,6.75-29.9,10.13-.71,.76-.81,1.9-.24,2.73Z"/><path class="cls-15" d="M530.87,36.94c-1.06-8.95-2.38-9.62-2.85-17.12-.54-8.4,.62-15.33,1.67-19.82h-11.47c-.68,1.29-2.29,3.93-5.46,5.92-2.38,1.49-4.65,1.99-6.01,2.19-.48,3.64-.94,10.89,2.19,19.12,3.85,10.12,13.03,10.04,14.75,18.58,1.52,7.55-2.92,16.88-8.12,18.3-1.48,.41-1.86-.14-3.45,.43-3.6,1.31-5.06,5.39-7.21,11.72-1.82,5.35-2.7,8.07-1.64,10.06,1.5,2.8,4.49,2.07,6.47,5.39,1.4,2.35,.36,3.45,1.29,7.33,1.42,5.87,4.5,6.17,4.31,9.27-.28,4.71-7.7,9.52-14.34,10.51-3.9,.58-5.8-.41-8.53,1.35-1.87,1.21-2.93,3.23-4.96,7.23-2.52,4.96-3.78,7.44-3.67,9.37,.28,4.56,4.32,5.01,7.14,10.86,.69,1.43,4.01,8.81,.69,14.92-2.87,5.29-10.08,8.5-15.62,7.63-2.21-.35-3.86-1.3-6.59-.69-.95,.21-2.82,.79-5.86,3.68-3.02,2.87-7.63,7.25-7.77,13.08-.07,3.25,1.33,3.3,2.45,7.97,1.95,8.06,.08,17.51-3.68,18.6-1.2,.35-1.4-.5-3.68-.61-4.31-.21-5.89,2.72-9.4,3.07-4.16,.41-4.7-3.86-8.79-3.88-3.42-.02-3.85,2.79-10.33,6.71-5.86,3.54-8.29,2.94-9.69,5.76-1.33,2.68,.75,4.12,.41,9.2-.06,.83-.94,12.55-5.93,13.9-2.08,.56-2.72-1.26-9.2-3.07-4.32-1.2-4.35-.48-6.34-1.43-5.26-2.52-4.82-7.51-8.79-8.58-1.9-.51-2.34,.54-8.58,2.66-8.11,2.74-9.2,1.59-10.83,3.47-3.4,3.93,.52,9.88-3.27,13.28-1.43,1.29-2.18,.6-5.11,2.25-3.8,2.14-4.39,4.34-6.54,6.13-6.88,5.73-18.06-2.48-24.73,3.68-1.18,1.09-.67,1.21-2.45,3.07-4.71,4.92-9.03,4.92-9.81,7.97-.42,1.67,.82,1.84,1.43,4.9,.98,4.95-1.86,6.47-2.45,13.49-.4,4.8,.74,6.33-.61,7.56-1.43,1.3-4.43,.46-10.42-1.23-6.74-1.89-8.2-3.27-8.79-3.88-2.22-2.32-1.43-3.71-3.27-5.31-3.42-2.98-11.11-2.54-14.1,1.23-2.8,3.52,.64,7.28-2.66,12.67-.61,1.01-.48,.46-5.11,5.31-4.9,5.14-5.35,6.07-6.74,6.13-2.26,.1-2.69-2.27-7.97-6.34-4.05-3.12-5.03-2.67-6.34-4.7-2.32-3.62,.1-6.13-1.84-9.4-2.64-4.43-10.78-5.97-13.9-3.27-.84,.73-.57,1.12-3.07,5.93-1.35,2.59-2.03,3.9-2.66,4.5-2.23,2.11-4.03,1.13-7.97,2.86-4.45,1.96-4.56,4.29-6.74,4.09-2.3-.22-2.46-2.83-7.15-7.97-3.22-3.53-4.08-3.32-4.9-5.31-1.65-3.98,1.23-6.07,0-9.6-1.74-5.02-10.11-8.13-13.9-5.72-1.13,.72-.85,1.3-2.86,4.29-2.35,3.51-4.12,6.15-6.95,7.36-4.06,1.74-7.73-.57-8.79,1.23-.55,.93-.05,2.39,.61,3.27,2.26,2.98,7.12,.1,10.22,2.86,2.35,2.09,.74,4.78,3.47,8.17,1.77,2.2,4.07,3.08,5.72,3.68,27.11,9.87,38.01,11.65,38.01,11.65,19.55,3.19,29.33,4.79,37.6,3.47,12.04-1.91,11.45-5.1,27.59-7.97,14.41-2.56,19.5-.83,24.93-5.93,5.28-4.95,4.18-10.06,11.04-15.33,2.79-2.14,5.92-3.14,12.05-5.05,15.56-4.84,20.22-2.92,28.62-8.18,3.81-2.39,3.4-3.12,7.96-5.81,8.16-4.81,10.8-3.23,14.85-7.1,4.75-4.54,2.92-8.43,7.75-11.62,3.49-2.31,5.99-1.29,10.55-2.37,7.62-1.81,11.89-7.32,15.71-11.41,11.72-12.53,16.1-8.27,30.78-21.74,8.26-7.58,6.46-8.55,26.69-32.71,10.43-12.46,9.36-10.35,12.91-15.07,2.47-3.28,8.08-11.06,23.03-46.7,10.7-25.53,13.01-33.91,12.48-41.11-.1-1.35-.53-5.85,.22-11.84,.82-6.55,2.32-9.08,3.66-14.2,2.64-10.12,1.61-18.86,.62-27.24Zm-146.07,219.11c-.39,3.28-.73,5.79-2.59,8.1-.67,.83-2.16,2.68-3.72,2.43-1.23-.2-1.28-1.49-3.08-3.24-2.17-2.1-3.43-1.51-5.02-3.24-1.27-1.38-2.36-3.82-1.78-5.99,1.22-4.56,9.06-4.97,10.04-5.02,1.82-.1,4.5-.24,5.83,1.46,.84,1.07,.68,2.56,.32,5.51Z"/></g></g></g><g id="roads"><g id="road"><path class="cls-4" d="M507.85,610c-4.82-18.83-13.78-46.42-31.43-76.16-16.48-27.77-33.37-45.33-39.25-51.66-24.94-26.88-58.93-75.02-97.89-168.32-7.56-13.13-15.12-26.26-22.68-39.39-30.64-31.83-61.28-63.67-91.92-95.5l-53.26-24.71,6.23-8.3c14.76-7.15,29.51-14.3,44.27-21.44-4.07-11.63-8-24.07-11.64-37.28-2.49-9.04-4.67-17.82-6.58-26.32,9.95-20.3,19.91-40.61,29.86-60.91"/><path class="cls-4" d="M473.9,531.56c3.18-1.06,7.8-3.13,11.64-7.38,1.53-1.69,2.34-3.08,3.69-5.4,9.36-16.1,10.7-18.9,14.2-21.58,1.26-.96,4.17-2.07,9.94-4.26,20.02-7.58,21.17-6.36,30.67-10.79,8.42-3.92,10.25-6.15,17.04-7.38,5.06-.92,7.27-.26,12.78-.57,5.11-.28,12.47-1.36,21.42-5.11"/><path class="cls-4" d="M263.01,0c-13.67,25.02-27.33,50.04-41,75.06-4.3,2.63-8.59,5.27-12.89,7.9"/><path class="cls-4" d="M0,368.63c56.84-63.37,86.05-86.54,102.31-95.24,3.48-1.86,11.66-5.9,21.61-13.61,13.7-10.61,15.56-16.42,33.61-33.61,11.53-10.98,17.3-16.47,24.01-20.01,14.61-7.71,22.89-5.49,34.41-13.61,8.99-6.34,14-14.77,16.81-20.81-3.62-15.75-7.24-31.49-10.85-47.24"/><path class="cls-4" d="M595.28,306.49c-14.8-6.59-49.5-19.61-93.75-13.48-33.56,4.65-57.99,18.3-71.05,26.95-27.29-4.08-54.58-8.17-81.87-12.25-5.59,3.19-13.33,7.24-22.88,11.18-7.64,3.15-27.23,11.09-51.86,13.73-43.7,4.68-78.06-10.01-86.42-13.79-15-6.79-29.31-18.63-57.92-42.29-12.81-10.59-29.64-25.06-63.43-57C48.9,203.29,26.29,181.55,0,155.2"/><path class="cls-4" d="M310.67,610c2.87-8.01,2.14-13.57,.96-17.15-3.36-10.18-12.9-11.96-18.22-23.02-3.02-6.27-2.92-11.93-2.88-17.26,.15-17.85,12.49-93.39,32.13-195.37"/><path class="cls-4" d="M249.29,610c-.82-4.53-2.4-11.35-5.75-19.07-7.47-17.2-16.82-22.99-30.69-40.28-12.18-15.18-19.53-24.35-23.02-37.4-3.68-13.77,.57-18.31,5.75-49.87,8.25-50.2,1.43-62.67,15.34-78.64,6.34-7.27,12.4-10.03,18.22-21.1,6.1-11.6,7.13-23.21,7.01-31.37"/><path class="cls-4" d="M9.53,610c.64-15.63,1.28-31.25,1.92-46.88,23.02-30.69,46.03-61.38,69.05-92.07,28.77-13.43,57.54-26.85,86.31-40.28,12.6-12.04,25.2-24.09,37.81-36.13"/><path class="cls-4" d="M414.64,610c3.14-5.52,7.77-14.19,12.46-25.26,6.67-15.75,7.15-21.47,11.42-29.07,4.68-8.33,13.99-19.05,34.66-27.17"/><path class="cls-4" d="M264.84,333.33l102.66,42.39"/></g><path class="cls-3" d="M487.13,537.02c-.76-2.24-2-5.84-3.58-10.26-6.5-18.2-8.62-21.77-6.76-26.41,1.77-4.42,6.53-8.22,11.72-8.31,4.8-.09,9.8,3.01,11.59,7.32,1.9,4.57-.68,8.38-7.54,24.45-2.35,5.51-4.2,10.09-5.43,13.2Z"/><text class="cls-11" transform="translate(482.71 514.59) rotate(4.16) scale(1.13 1)"><tspan x="0" y="0">1</tspan></text></g><g id="Layer_5"><rect class="cls-6" x="-.19" width="376.94" height="318.84"/><path id="KANAL" class="cls-13" d="M301.81,316.28c-35.82-52.27-71.65-104.53-107.47-156.8-1.87-2.6-4.01-6.48-4.22-11.29-.44-10.15,8.09-17.01,18.7-27.24,24.55-23.68,19.03-25.62,38.98-41.96,10.13-8.29,17.67-12.8,29.2-19.69,13.41-8.01,21.25-11.36,30.88-12.02,4.52-.31,8.29,.04,10.85,.42,19.7,14.3,39.39,28.6,59.09,42.9v-9.81c-16.77-13.77-33.54-27.53-50.32-41.3-1.06-.71-2.75-1.73-4.97-2.6-6.56-2.59-12.86-2-18.21-.93-21.05,4.18-38.53,14.94-38.53,14.94-16.43,10.11-27.02,20.65-35.96,29.66-6.24,6.29-8.51,9.21-27.55,31.52-10.16,11.91-18.46,21.56-23.82,27.79-.86,.93-1.85,2.26-2.58,4.04-2.03,4.97-.4,9.64,.14,11,9.48,14.95,19.19,29.99,29.14,45.11,26.66,40.48,53.53,79.21,80.4,116.23,5.41,.01,10.83,.03,16.24,.04Z"/><g id="ROADS"><path class="cls-5" d="M-.44,232.52c9.33,8.94,18.66,17.87,27.99,26.81,3.08,.85,6.17,1.7,9.25,2.55,6.73,6.67,13.46,13.33,20.19,20-11.43,12.14-22.86,24.28-34.29,36.43h9.41c9.46-10.62,18.93-21.25,28.39-31.87,1.58,1.83,3.8,4.3,6.58,7.1,1.15,1.16,5.37,5.39,13.49,12.06,4.22,3.47,9.72,7.79,16.38,12.52,10.89,.11,21.77,.23,32.66,.34-.33-2.59-.67-5.19-1-7.78,10.68-5.85,21.36-11.71,32.04-17.56,9.58,8.32,19.15,16.64,28.73,24.95,2.46,.06,4.93,.11,7.39,.17-2.75-2.63-5.5-5.27-8.25-7.9,19.14-12.56,38.28-25.12,57.42-37.67,10.11,15.27,20.22,30.53,30.33,45.8h5.88l-49.58-73.68c20.64-13.84,41.27-27.68,61.91-41.52,3.27,5.1,6.54,10.2,9.8,15.3l2.66-1.56c-3.36-5.15-6.72-10.3-10.08-15.44,4.02-2.55,8.03-5.1,12.05-7.65,15.9,24.18,31.81,48.35,47.71,72.53-4.19,2.75-8.37,5.51-12.56,8.26-2.43-3.69-4.86-7.39-7.29-11.08-.14-.24-.36-.53-.71-.72-1.14-.62-3.02,.15-3.65,1.53-.31,.67-.25,1.34-.17,1.75,3.22,4.27,6.43,8.54,9.65,12.82,5.38-3.46,10.76-6.93,16.14-10.39,4.47,3.87,8.93,7.75,13.4,11.62-4.69,2.81-9.74,6.25-14.9,10.45-11.54,9.4-19.69,19.43-25.29,27.69,5.34,.29,10.67,.59,16.01,.88,2.6-3.52,5.58-7.21,8.99-10.94,6.96-7.63,13.99-13.59,20.28-18.2,.29-4.67,.59-9.34,.88-14.01-1.16,.84-2.33,1.69-3.49,2.53-2.69-4.02-5.4-8.24-8.1-12.67-3.08-5.04-5.92-9.97-8.54-14.75,.34-2.24,.69-4.47,1.03-6.71,6.37-4.32,12.74-8.64,19.1-12.96v-5.09c-7.29,5.16-14.58,10.32-21.87,15.48-.93,2.66-1.85,5.32-2.78,7.97,4.28,7.14,8.55,14.28,12.83,21.42-2.32-2.29-4.64-4.59-6.96-6.88l-46.52-71.93c7.5-6.37,15-12.74,22.51-19.12,4.93-5.1,9.87-10.2,14.8-15.31,9.33,13.83,18.66,27.66,27.99,41.49v-8.76c-8.01-11.83-16.03-23.66-24.04-35.5,7.72-4.66,15.44-9.32,23.16-13.98,.29-2.07,.59-4.14,.88-6.21-2.86,1.52-5.72,3.03-8.58,4.55-6.76-9.9-13.52-19.79-20.28-29.69,4.59-6.27,9.18-12.54,13.76-18.81,.81,1.73,1.77,3.53,2.9,5.37,3.84,6.27,8.35,10.83,12.2,14.03v-15.03c-20.59-15.1-41.18-30.19-61.77-45.29,1.2-5.19,2.4-10.38,3.6-15.56,.19-.32,.56-.82,1.17-1.04,1.65-.6,3.75,1.37,4.26,1.83,2.8,2.5,23.18,17.79,52.29,39.46v-9.81c-27.59-18.69-47.57-32.23-51.33-34.62-.29-.19-1.09-.68-1.01-1.2,.18-1.28,5.7-1.79,16.56-1.54,7.78-6.07,15.56-12.14,23.34-18.21,1.51,1,3.02,2,4.53,3,2.49,4.43,4.98,8.86,7.47,13.28,.29-3.11,.59-6.22,.88-9.33-1.43-2.37-2.86-4.74-4.28-7.12-1.52-.47-3.97-1.46-6.25-3.64-1.03-.98-1.79-1.98-2.34-2.85,3.39-1.05,6.77-2.11,10.16-3.16-5.26-.05-10.53-.11-15.79-.16,1.04,2.32,2.08,4.64,3.13,6.96-7.24,5.48-14.49,10.97-21.73,16.45-5.52,.74-11.05,1.48-16.57,2.21,1.09-1.42,2.19-2.85,3.28-4.27-1.46-6.99-2.92-13.99-4.39-20.98h-5.62c1.3,6.15,2.61,12.3,3.91,18.45-.94,1.37-1.88,2.74-2.81,4.11h-3.44c-1.35-.74-2.71-1.48-4.06-2.21-1.17-6.78-2.34-13.57-3.5-20.35h-5.21c1.6,7.42,3.2,14.83,4.8,22.25,.3,.64,.6,1.27,.89,1.91-5.09,.61-10.38,1.46-15.85,2.61-25.34,5.31-46.04,15.22-61.79,24.98-3.89-6.42-7.78-12.84-11.67-19.26,1.76-1.02,7.86-4.56,9.62-5.58,15.23-8.82,30.46-17.63,45.71-26.43-3.93-.22-7.86-.45-11.79-.67-6.61,4.01-13.49,8.6-20.49,13.88-2.51,1.89-4.93,3.79-7.26,5.69-5.56,2.51-11.13,5.02-16.69,7.52-4.96-8.99-9.92-17.98-14.87-26.98h-5.99c5.44,10.28,10.88,20.55,16.33,30.83-5.58,3.73-11.15,7.46-16.73,11.2-8.11-5.89-17.59-14-26.77-24.95-4.71-5.62-8.62-11.12-11.85-16.25-1.85-.13-3.7-.26-5.54-.39l13.38,17.41c-6.95,5.35-13.89,10.7-20.84,16.05-6.63-11.48-13.26-22.95-19.88-34.43-1.78,.39-3.57,.77-5.35,1.16,7.2,12.38,14.4,24.76,21.6,37.13l-25.24,18.18c-10.22-12.79-20.19-26.25-29.82-40.42-.73-1.07-1.45-2.14-2.17-3.21-2.97,1.91-7.13,4.56-12.18,7.71-1.73,1.07-2.97,1.83-3.09,1.92-15.75,9.99-27.97,21.33-37.26,31.76-9.6-5.64-19.21-11.29-28.81-16.93-.9-2.15-1.8-4.3-2.7-6.46v10.65c8.26,6.05,16.52,12.1,24.78,18.15-8.39,7.21-16.77,14.43-25.16,21.64,.13,1.51,.25,3.02,.38,4.54,2.74-2.5,5.48-5,8.22-7.5,3.3,6.54,7.72,14.1,13.63,21.99,5.31,7.1,10.68,12.93,15.53,17.63-5.58,6.57-11.16,13.15-16.73,19.72-6.88-4.07-13.76-8.14-20.64-12.22v4.89c5.96,3.32,11.92,6.63,17.88,9.95-2.42,2.85-4.83,5.7-7.25,8.55-3.54-3.37-7.09-6.75-10.63-10.12v7.16c4.46,3.78,8.93,7.56,13.39,11.34-4.59,5.82-9.18,11.63-13.77,17.45,.13,2.09,.25,4.19,.38,6.28,5.38-7.04,10.77-14.08,16.15-21.12,9.3,8.51,18.6,17.02,27.9,25.52-9.92,11.93-19.84,23.86-29.77,35.79-4.76-4.41-9.52-8.82-14.28-13.23v25.24Z"/><path class="cls-5" d="M47.2,190.71c-8.97,9.37-17.93,18.74-26.9,28.11,15.56,13.79,31.12,27.59,46.68,41.38,6.45-11.39,12.89-22.79,19.34-34.18-13.04-11.77-26.08-23.54-39.12-35.31Z"/><path class="cls-5" d="M32.38,235.78c10.63,8.93,21.26,17.85,31.89,26.78"/><line class="cls-5" x1="16.99" y1="222.82" x2="29.3" y2="233.91"/><path class="cls-5" d="M111.34,315.49c.98-1.19-19.86-20.2-20.98-21.22-8.09-7.36-15-13.1-19.69-16.89l-2.78,2.82c4.1,4.28,10.32,10.46,18.41,17.32,11.18,9.48,24.3,18.87,25.04,17.97Z"/><path class="cls-5" d="M90.17,228.68c-6.82,12.27-13.63,24.53-20.45,36.8,3.95,3.05,7.89,6.1,11.84,9.15,11.41-7.26,22.81-14.52,34.22-21.77-8.54-8.06-17.08-16.11-25.61-24.17Z"/><path class="cls-5" d="M85.4,277.21c11.04-7.27,22.07-14.54,33.11-21.82,11.43,10.42,22.87,20.84,34.3,31.27-11.09,8.07-22.19,16.15-33.28,24.22-4.13-4.41-8.26-8.82-12.4-13.23,1.64-2.46,3.28-4.92,4.92-7.39l3.23-8.93c-.91-.4-1.81-.8-2.72-1.2-.68,2.4-1.36,4.81-2.04,7.21-1.75,2.52-3.51,5.04-5.26,7.56-6.62-5.9-13.24-11.8-19.87-17.69Z"/><path class="cls-5" d="M165.04,289.07c21.4-14.2,42.79-28.4,64.19-42.6,4.87,7.27,9.74,14.54,14.6,21.82-19.92,13.06-39.85,26.11-59.77,39.17-6.34-6.13-12.68-12.25-19.02-18.38Z"/><path class="cls-5" d="M128.02,255.91c24.28-16.26,48.56-32.52,72.85-48.79,7.98,11.34,15.96,22.68,23.94,34.01-21.51,14.2-43.02,28.4-64.53,42.6-10.75-9.28-21.51-18.55-32.26-27.83Z"/><path class="cls-5" d="M94.06,225.16c27-19.81,54-39.63,81-59.44,7.86,12.71,15.73,25.41,23.59,38.12-14.94,9.74-29.88,19.48-44.82,29.22-2.21-3.09-4.41-6.18-6.62-9.28-.85,.57-1.7,1.15-2.55,1.72,2.04,3.09,4.08,6.18,6.11,9.28-8.89,6.07-17.77,12.14-26.66,18.21-10.02-9.28-20.04-18.55-30.06-27.83Z"/><path class="cls-5" d="M89.81,220.44c27-19.27,54-38.53,81-57.8-8.92-13.09-17.84-26.18-26.76-39.27-10.77,7.89-21.54,15.77-32.3,23.66,3.07,5.11,6.14,10.22,9.21,15.34-.43,1.77-.86,3.54-1.28,5.31-2.64,1.85-5.29,3.7-7.93,5.54-.97-1.02-1.94-2.04-2.92-3.07,2.49-1.89,4.98-3.78,7.46-5.66-3.5-4.88-7-9.75-10.5-14.63-17.57,12.86-35.14,25.72-52.71,38.58,12.24,10.67,24.48,21.33,36.72,32Z"/><path class="cls-5" d="M49.13,184.34c21.08-15.49,42.16-30.98,63.24-46.47-5.14-5.84-10.28-11.67-15.42-17.51-22.13,15.38-44.26,30.77-66.38,46.15,6.19,5.94,12.37,11.88,18.56,17.82Z"/><path class="cls-5" d="M26.8,162.7c22.02-15.07,44.05-30.13,66.07-45.2-8.91-7.53-17.83-15.07-26.74-22.6-17.68,18.82-35.36,37.65-53.05,56.47,4.57,3.77,9.15,7.55,13.72,11.32Z"/><path class="cls-5" d="M10.95,74.38c5.58-4.43,11.15-8.85,16.73-13.28,11.26,10.34,22.53,20.69,33.79,31.03-7.05,7.25-14.11,14.49-21.16,21.74-9.79-13.17-19.57-26.33-29.36-39.5Z"/><path class="cls-5" d="M69.18,28.41c-5.29,3.15-11,6.93-16.9,11.45-8.02,6.15-14.7,12.37-20.18,18.09,11.43,10.01,22.86,20.02,34.28,30.04,8.26-4.31,16.51-8.63,24.77-12.94,.77-1.49,1.53-2.99,2.3-4.48-8.09-14.05-16.18-28.1-24.28-42.15Z"/><path class="cls-5" d="M81.81,17.46c-2.9,2.21-5.8,4.43-8.69,6.64,7.82,14.11,15.64,28.21,23.46,42.32,3.72-2.99,7.44-5.97,11.15-8.96-8.64-13.33-17.28-26.66-25.92-39.99Z"/><path class="cls-5" d="M109.69,59.45c-3.88,3.98-7.76,7.97-11.65,11.95l-1.97,5.97c-7.65,4.43-15.31,8.85-22.96,13.28,7.82,8.08,15.64,16.15,23.46,24.23,10.83-6.69,21.65-13.39,32.48-20.08-6.45-11.78-12.9-23.56-19.36-35.35Z"/><path class="cls-5" d="M143.32,41.03c-8.75,6.58-17.5,13.17-26.25,19.75,5.14,10.23,10.28,20.47,15.42,30.7,10.88-7.52,21.76-15.05,32.64-22.57-7.27-9.29-14.54-18.59-21.82-27.88Z"/><path class="cls-5" d="M131.18,101.1c-10.06,5.53-20.12,11.06-30.18,16.59,5.03,5.75,10.06,11.51,15.09,17.26,8.69-5.53,17.39-11.06,26.08-16.59-3.66-5.75-7.33-11.51-10.99-17.26Z"/><path class="cls-5" d="M167.92,72.39c-.34,.23-.68,.46-1.02,.69-10.88,7.42-21.31,15.16-31.29,23.2,4.48,8.02,8.97,16.04,13.45,24.06,9.13-5.48,18.26-10.95,27.39-16.43,2.95-3.87,5.91-7.74,8.86-11.62-5.8-6.64-11.59-13.28-17.39-19.91Z"/><path class="cls-5" d="M189.41,95.29c-2.68,3.32-5.36,6.64-8.04,9.96-10.06,6.42-20.12,12.83-30.18,19.25,3.83,4.98,7.65,9.96,11.48,14.94,2.84-1.66,5.69-3.32,8.53-4.98,9.3-10.07,18.59-20.13,27.89-30.2-3.23-2.99-6.45-5.97-9.68-8.96Z"/><path class="cls-5" d="M227.63,58.28c1.53,2.77,3.06,5.53,4.59,8.3-9.95,11.17-19.9,22.35-29.85,33.52-3.17-2.54-6.34-5.09-9.51-7.63,3.17-5.03,6.34-10.07,9.51-15.1,8.42-6.36,16.84-12.72,25.26-19.08Z"/><path class="cls-5" d="M189.41,88.15c3.17-4.98,6.34-9.96,9.51-14.94,8.75-6.42,17.5-12.83,26.25-19.25-3.5-6.31-7-12.61-10.5-18.92l-17.22,9.79c-8.91,7.8-17.82,15.6-26.74,23.4,6.23,6.64,12.47,13.28,18.7,19.91Z"/><path class="cls-5" d="M167.92,22.11c-6.62,5.31-13.23,10.62-19.85,15.93,6.89,9.46,13.78,18.92,20.67,28.38,7.82-7.14,15.64-14.27,23.46-21.41-8.09-7.63-16.18-15.27-24.28-22.9Z"/><path class="cls-5" d="M310.3,29.45c1.77,.89,2.87,2.1,3.43,2.82-1.29,5.71-2.59,11.42-3.88,17.13-2-.29-3.99-.57-5.99-.86-18.84,9.9-37.67,19.81-56.51,29.71-11.09,10-23.51,22.87-35.56,39.06-7.29,9.79-13.32,19.28-18.3,28.09-5.78,4.3-11.57,8.61-17.35,12.91-1.2-2.01-2.41-4.01-3.61-6.02l-4.62-7.83c.94-.42,2.52-1.2,4.24-2.5,2.93-2.21,4.55-4.62,4.99-5.25,2.43-3.47,12.9-15.46,31.91-36.52,7.31-8.2,14.62-16.41,21.94-24.61,2.73-3.23,5.45-6.46,8.18-9.68-2.37-3.68-4.73-7.37-7.1-11.05,9.46-5.63,17.65-9.74,23.65-12.55,24.73-11.59,37.81-13.12,42.08-13.52,3.75-.35,6.82-.41,8.77-.4,.86,.07,2.23,.3,3.73,1.06Z"/><path class="cls-5" d="M346.07,106.32c4.6-5.79,9.21-11.58,13.81-17.37-10.39-7.65-20.78-15.3-31.17-22.96-1.74,1.31-3.48,2.61-5.22,3.92,7.53,12.13,15.05,24.27,22.58,36.4Z"/><path class="cls-5" d="M320.81,68.4c1.51-1.46,3.03-2.91,4.54-4.37-4.67-3.6-9.34-7.2-14.01-10.8-2.3,.07-4.6,.13-6.91,.2-9.47,4.79-18.94,9.58-28.41,14.37,4.04,6.67,8.07,13.34,12.11,20.01,10.89-6.47,21.79-12.94,32.68-19.41Z"/><path class="cls-5" d="M271.88,70.59c4.34,6.43,8.68,12.86,13.02,19.28-9.49,7.15-18.99,14.29-28.48,21.44-4.37-6.53-8.73-13.06-13.1-19.59,2.24-2.77,4.48-5.53,6.72-8.3,7.28-4.28,14.56-8.55,21.84-12.83Z"/><path class="cls-5" d="M239.25,95.15c4.5,6.29,8.99,12.57,13.49,18.86-12.31,8.73-24.61,17.45-36.92,26.18-3.15-1.7-6.3-3.39-9.44-5.09,3.48-5.25,6.95-10.51,10.43-15.76,7.48-8.07,14.96-16.13,22.45-24.2Z"/><path class="cls-5" d="M225.14,185.36c-7.4,5.09-14.8,10.17-22.2,15.26-7.73-12.41-15.45-24.82-23.18-37.22,4.33-3.52,8.67-7.03,13-10.55,4.05-5.25,8.09-10.51,12.14-15.76,2.53,1.49,5.07,2.98,7.6,4.47,.86,.41,1.72,.83,2.58,1.24,14.21-9.29,28.71-19.17,43.42-29.66,9.64-6.88,19.01-13.75,28.09-20.6,.74-.12,1.47-.25,2.21-.37,10.18-6,20.36-11.99,30.54-17.99,7.77,11.75,15.54,23.49,23.3,35.24-6.75,4.59-13.49,9.18-20.24,13.77,.57,.83,1.14,1.65,1.72,2.48,6.75-4.55,13.49-9.1,20.24-13.65,6.58,10.05,13.16,20.1,19.75,30.15-4.36,2.93-8.73,5.87-13.09,8.8-10.07,9.68-20.14,19.36-30.21,29.05-30.42,20.02-60.83,40.04-91.25,60.06-7.81-11.66-15.62-23.33-23.43-34.99,7.56-5.21,15.13-10.42,22.69-15.63,5.27,4.96,10.55,9.93,15.82,14.89,3.27-.04,6.54-.08,9.81-.12,13.57-9.18,27.15-18.36,40.72-27.55,.1-3.46,.2-6.91,.3-10.37-8.52-12.88-17.04-25.76-25.56-38.65-2.49,.12-4.99,.25-7.48,.37-14.1,9.93-28.21,19.85-42.31,29.78-.29,3.64-.57,7.28-.86,10.92,1.96,5.54,3.92,11.08,5.89,16.63Z"/><path class="cls-5" d="M224.41,160.17c13.82-9.51,27.64-19.03,41.46-28.54,8.25,11.62,16.49,23.24,24.74,34.85-.03,2.44-.06,4.89-.09,7.33-12.51,8.69-25.02,17.37-37.53,26.06-1.96-.08-3.92-.17-5.89-.25-5.53-4.55-11.05-9.09-16.58-13.64-4.29-11.07-6.6-17.01-6.6-17.01h0s.17-3.06,.49-8.81Z"/></g><rect class="cls-7" x="-.38" width="377.32" height="318.84"/><text class="cls-19" transform="translate(6.54 24.9) scale(.72 1)"><tspan class="cls-1" x="0" y="0">/</tspan><tspan class="cls-2" x="6.82" y="0">/</tspan><tspan x="16.75" y="0" xml:space="preserve"> INDRE </tspan><tspan class="cls-17" x="94.06" y="0">B</tspan><tspan x="109.2" y="0">Y</tspan></text><g id="metori"><rect class="cls-8" x="293.45" y="22.11" width="14.47" height="14.47" rx="4.11" ry="4.11"/><polygon class="cls-14" points="296.01 33.83 297.7 33.83 297.7 28.45 299.64 33.83 301.43 33.83 303.36 28.45 303.36 33.83 305.09 33.83 305.09 24.92 302.67 24.92 300.55 30.86 298.39 24.92 296.01 24.92 296.01 33.83"/></g><text class="cls-9" transform="translate(231.79 47.23) rotate(-34.97) scale(1.02 1)"><tspan x="0" y="0">G</tspan></text><text class="cls-9" transform="translate(238.16 42.8) rotate(-32.26) scale(1.02 1)"><tspan x="0" y="0">a</tspan></text><text class="cls-9" transform="translate(242.92 39.72) rotate(-29.16) scale(1.02 1)"><tspan x="0" y="0">m</tspan></text><text class="cls-9" transform="translate(251.54 34.91) rotate(-25.24) scale(1.02 1)"><tspan x="0" y="0">m</tspan></text><text class="cls-9" transform="translate(260.53 30.73) rotate(-22.1) scale(1.02 1)"><tspan x="0" y="0">e</tspan></text><text class="cls-9" transform="translate(266.03 28.52) rotate(-20.56) scale(1.02 1)"><tspan x="0" y="0">l</tspan></text><text class="cls-9" transform="translate(268.67 27.54) rotate(-19.32) scale(1.02 1)"><tspan x="0" y="0"> </tspan></text><text class="cls-9" transform="translate(271.02 26.69) rotate(-17.67) scale(1.02 1)"><tspan x="0" y="0">S</tspan></text><text class="cls-9" transform="translate(276.56 24.94) rotate(-15.76) scale(1.02 1)"><tspan x="0" y="0">t</tspan></text><text class="cls-9" transform="translate(280.31 23.88) rotate(-14.23) scale(1.02 1)"><tspan x="0" y="0">r</tspan></text><text class="cls-9" transform="translate(284 22.92) rotate(-12.38) scale(1.02 1)"><tspan x="0" y="0">a</tspan></text><text class="cls-9" transform="translate(289.58 21.69) rotate(-9.95) scale(1.02 1)"><tspan x="0" y="0">n</tspan></text><text class="cls-9" transform="translate(296.04 20.55) rotate(-7.35) scale(1.02 1)"><tspan x="0" y="0">d</tspan></text><path class="cls-3" d="M140.21,102.26c-.47-1.4-1.24-3.67-2.22-6.44-4.04-11.43-5.36-13.68-4.18-16.58,1.12-2.77,4.12-5.14,7.37-5.19,3.01-.04,6.14,1.91,7.25,4.62,1.18,2.87-.44,5.25-4.79,15.32-1.49,3.45-2.66,6.32-3.44,8.27Z"/><path class="cls-3" d="M123.05,139.68c-.65-1.45-1.72-3.79-3.06-6.66-5.53-11.81-7.18-14.08-6.23-17.31,.91-3.08,3.86-5.94,7.34-6.33,3.22-.36,6.77,1.4,8.25,4.18,1.57,2.95,.08,5.67-3.51,16.91-1.23,3.85-2.18,7.05-2.8,9.22Z"/><path class="cls-3" d="M143.64,104.82c.52-1.39,1.34-3.63,2.32-6.4,4.05-11.43,4.44-14,7.18-15.52,2.61-1.45,6.43-1.41,8.99,.6,2.37,1.86,3.57,5.35,2.74,8.15-.89,2.98-3.65,3.81-13.36,8.9-3.33,1.75-6.04,3.24-7.87,4.27Z"/><text class="cls-10" transform="translate(151.51 91.71) rotate(41.4) scale(1.13 1)"><tspan x="0" y="0">3</tspan></text><text class="cls-10" transform="translate(137.95 86.8) rotate(-.85) scale(1.13 1)"><tspan x="0" y="0">4</tspan></text><text class="cls-10" transform="translate(118.68 122.69) rotate(-.85) scale(1.13 1)"><tspan x="0" y="0">2</tspan></text></g></svg>