<?xml version="1.0" encoding="UTF-8"?><svg xmlns="http://www.w3.org/2000/svg" viewBox="0 0 490 624.92"><defs><style>.cls-1{fill:#fff;}.cls-1,.cls-2,.cls-3{stroke:#fff;stroke-miterlimit:10;}.cls-2,.cls-3{fill:none;}.cls-3{stroke-width:.25px;}</style></defs><g id="body_detaljerv"><path class="cls-2" d="M59,624.42c.44-5.24,1.11-12.84,2-22,1.54-15.88,2.36-23.82,3-28,2.04-13.41,4.36-13.56,14-43,8.98-27.43,6.58-26.1,11-34,6.57-11.72,13.19-17.02,12-26-.79-5.99-4.36-8.3-9-15-5.98-8.63-7.99-17.08-12-34-6.02-25.38-9.2-38.75-4-54,3.01-8.83,6.05-10.14,9-21,3.28-12.06,2.88-22.76,2-30"/><path class="cls-2" d="M393,624.42c-2.88-5.61-6.98-14.19-11-25-7.82-21.05-6.54-26.78-14-54-7.59-27.7-10.84-28.29-15-50-2.33-12.19-1.96-15.4-5-25-4.89-15.44-9.86-19.76-10-31-.08-6.48,1.49-6.11,5-21,2.48-10.53,5.65-24.34,5-41-.24-6.27-1.14-11.85-3-23-2-12-4.24-21.92-6-29"/><path class="cls-2" d="M131,270.42c.18-.34,23.6,18.93,57,24,6,.91,51.03,7.08,83-21,12.58-11.05,19.14-23.89,19-24-.16-.13-9.53,15.7-27,28-3.15,2.22-15.56,10.66-34,15-29.73,7-54.47-1.51-67-6-18.75-6.72-31.13-15.76-31-16Z"/></g><g id="body_l"><path class="cls-2" d="M59,624.42c-.98-3.24-2.74-7.97-6-13-4.67-7.2-9.04-10-12-13-7.83-7.94-4.14-18.75-4-43,.04-7.07-1.31-21.05-4-49-1.81-18.79-2.84-24.96-4-36-1.6-15.2-4.2-46.78-2-84,2.22-37.69,8.23-61.89,12-75,8.11-28.19,16.26-41.03,27-48,2.3-1.49,10.04-6.17,20-11,11.85-5.75,12.79-4.9,20-9,4.13-2.35,13.82-7.86,23-18,6.63-7.32,8.85-12.47,16-15,4.33-1.53,8.36-1.36,11-1"/></g><g id="body_r"><path class="cls-2" d="M144,211.42c-1.01,3.71-2.11,10.03,0,17,4.09,13.5,17.21,19.4,23,22,16.63,7.47,32.27,4.35,44,2,8.17-1.63,27.12-5.68,42-21,2.79-2.88,12.95-13.34,10-20-2.56-5.77-13.18-6-13-7,.18-.96,10.22-2.28,19,3,6.48,3.89,6.83,8.1,13,14,4.93,4.71,9.75,6.96,21,11,20.04,7.19,31.78,10.5,36,12,22.82,8.12,32.61,37.18,43,68,13.25,39.31,15.3,71.29,17,101,1.31,22.92,3.02,56.49-4,100-4.72,29.27-11.84,53.39-18,71"/></g><g id="head_l"><path class="cls-2" d="M144,226.42c1.56-1.46,3.87-3.36,7-5,3.6-1.89,5.53-2.01,7-4,.69-.94,1.08-2.03,1-8-.07-5.59-.45-7.79-.76-14.74-.11-2.39-.1-3.09-.24-5.26-.31-4.97-.47-7.45-1-9-1.48-4.3-4.15-3.47-7-8-3.37-5.36-3.11-12.05-3-15,.23-5.89-.06-8.84,0-9,.05-.14,.23-.64,0-1-.5-.77-2.38-.04-4,0-2.74,.07-5.96-1.77-7-4-1.36-2.92,1.79-4.78,2-11,.1-2.91-.5-5.14-1-7-1.35-5.03-3.05-6.03-4-11-.44-2.3-.75-4.05,0-6,1.14-2.97,3.93-4.35,5-5,6.36-3.84,6.68-15.17,8-22,2.87-14.87,13.67-25.04,20-31,4.2-3.96,15.73-14.81,33-18,12.73-2.35,19.51,1.14,27-5,4.34-3.56,8.79-10.24,7-16-.37-1.18-1.74-4.83-9-8-3.06-1.34-14.56-5.85-34,0-5.6,1.68-24.65,7.69-40,26-11.15,13.29-15.44,27.21-20,42-2.91,9.45-5.12,19.86-6,24-1.4,6.62-2.97,14.01-4,23-1.76,15.41,.31,15.74-1,30-1.33,14.4-2.22,24.13-8,35-3.58,6.73-9.45,14.71-8,16,1,.89,4.49-2.21,6-1,1.88,1.51-1.7,7.78,0,9,1.51,1.08,5.11-3.3,8-2,1.67,.75,1.12,2.51,3,4,2.69,2.13,7.26,1.23,10,0,4.22-1.89,3.87-4.45,7-5,3.46-.61,5.02,2.33,9,2,2.63-.22,4.67-1.73,6-3"/></g><g id="heasd_r"><path class="cls-2" d="M167,184.42c3.17,3.37,8.41,8.16,16,12,8.9,4.5,16.6,5.48,21,6,7.28,.86,16.01,1.89,26-2,9.34-3.64,14.93-9.78,19-14,4.57-4.73,7.44-7.97,9-13,.94-3.02,2.09-5.97,3-9,1.03-3.39,1.43-5.13,3-6,2.1-1.17,3.67,.67,6,0,3.42-.99,4.7-6.31,6-12,1.98-8.64,.16-8.35,2-15,1.61-5.84,4.01-9.68,2-13-.65-1.08-1.44-1.57-2-2-5.61-4.39-3.55-16.31-4-27-.1-2.37-.7-12.42-5-23-1.41-3.47-5.29-12.72-14-21-12.35-11.74-26.64-14.15-26-20,.3-2.7,3.63-4.8,4-10,.05-.74,.08-2.04,1-3,1.17-1.22,3.16-1.23,5-1,3.35,.41,6.51,1.65,14,6,4.76,2.76,5.53,3.58,8,4,2.97,.5,5.6-.05,6,1,.39,1.02-1.95,1.95-2,4-.07,2.53,3.43,4.15,3,5-.45,.91-4.4-.84-5,0-1.08,1.51,9.3,10.1,14,15,3.61,3.77,8.91,10.82,13,47,4.56,40.34,6.84,60.51,2,72-1.77,4.19-9.28,20.49-3,29,1.05,1.43,3.63,4.17,3,5-.64,.85-3.88-1.29-10-2-2.5-.29-3.76-.44-5,0-3.9,1.37-3.5,5.45-7,7-2.55,1.12-4.08-.45-9-1-2.55-.28-6.28-.32-11,1"/><path class="cls-2" d="M206,90.42c1.19-.34,2.9-.76,5-1,2.11-.24,3.84-.44,6,0,1.74,.35,2.91,.95,5,2,2.06,1.04,3.74,2.11,5,3"/></g><g id="glasses"><path class="cls-2" d="M146,81.42c3.52,.93,8.59,1.67,14,0,4.37-1.35,5.29-3.15,9-5,7.26-3.62,17.84-3.95,26,1,1.91,1.16,9.7,5.88,11,15,1.37,9.62-5.57,16.57-7,18-1.36,1.37-6.63,6.31-15,7-10.51,.87-17.6-5.64-19-7-1.77-1.71-6.07-5.99-7-13-.75-5.67,1.09-10.13,2-12"/><path class="cls-2" d="M273,99.42c-.86-4.9-3.29-8.12-4-9-5.69-7.13-14.7-7.77-18-8-2.84-.2-10.08-.61-17,4-1.85,1.23-5.83,3.88-8,9-3.77,8.88,1.14,17.49,2,19,.92,1.61,4.15,7.1,11,10,9.26,3.92,17.81,0,20-1,2.44-1.12,8.56-4.04,12-11,.75-1.53,3.14-6.53,2-13Z"/></g><g id="eyes"><path class="cls-2" d="M165,97.42c3.47-3.6,8-5,8-5,1.92-.59,5.54-1.72,10-1,8.48,1.36,14.81,8.53,14,10-.48,.87-3.22-.66-11-1-2.72-.12-4.92-.04-6,0-1.54,.06-7.26,.31-13,0-1.03-.06-2.71-.17-3-1-.23-.64,.47-1.45,1-2Z"/><path class="cls-2" d="M231,104.42c-.47-1.49,4.33-4.46,8-6,2.16-.91,4.59-1.93,8-2,7.04-.14,11.77,3.92,13,5,1.04,.92,4.82,4.27,4,6-1.17,2.45-10.89,.25-12,0-4.6-1.04-4.06-1.77-7-2-3.56-.28-5.92,.66-11,0-2.54-.33-2.9-.69-3-1Z"/><path class="cls-3" d="M195.19,104.08c-.08-.11-3.94,4.14-9.35,4.3-1.88,.06-3.34-.4-3.33-.46,0-.08,3.63,.96,7.4-.24,3.46-1.1,5.35-3.53,5.29-3.61Z"/><path class="cls-3" d="M241.76,112.75c0-.09-2.6-.17-5.4-1.87-2.28-1.39-3.49-3.13-3.49-3.13,0,0,2.18,3.01,5.53,4.36,1.86,.75,3.37,.71,3.36,.64Z"/></g><g id="cirkles"><path class="cls-2" d="M179,92.42c-1.45,.56-3.05,2.04-3,4,.05,2.15,2.06,3.74,4,4,2.06,.28,4.39-.9,5-3,.42-1.43-.05-2.98-1-4-1.36-1.46-3.46-1.6-5-1Z"/><path class="cls-2" d="M242,97.42c-1.45,.56-3.05,2.04-3,4,.05,2.15,2.06,3.74,4,4,2.06,.28,4.39-.9,5-3,.42-1.43-.05-2.98-1-4-1.36-1.46-3.46-1.6-5-1Z"/><path class="cls-2" d="M188.25,93.8c.04-.22-5.51-2.83-11.59-1.25-4.75,1.23-7.87,4.5-7.75,4.68,.11,.18,3.18-2.6,8.17-3.78,6.19-1.46,11.14,.55,11.18,.34Z"/><path class="cls-2" d="M259,103.42c.13-.18-3.81-4.88-10-6-4.82-.87-9.03,.79-9,1,.03,.21,3.98-1.03,9,0,6.23,1.28,9.88,5.17,10,5Z"/></g><g id="nose"><path class="cls-2" d="M208,97.42c.56,2.16,1.06,5.45,0,9-1.11,3.73-3.04,4.69-8,12-1.88,2.77-4.5,6.45-4,10,.05,.37,.25,1.78,1,2,.82,.24,1.35-1.23,3-2,1.96-.91,4.81-.51,6,1,.85,1.08,.17,1.8,1,3,1.26,1.82,4.04,1.93,6,2,1.77,.07,3.55,.13,5-1,1.03-.8,.94-1.45,2-2,1.51-.78,3.27-.23,4,0,2.51,.78,3.09,2.32,4,2,1.11-.4,1.3-3.07,1-5-.33-2.11-1.17-2.79-2-5-.49-1.32-1.03-3.31-1-6"/><path class="cls-2" d="M180,152.42c.09,.3,4.6-1.43,12-2,3.03-.23,5.35-.17,10,0,6.61,.24,9.92,.35,13,1,3.77,.79,3.73,1.41,12,4,5.01,1.57,7.8,2.44,8,2,.28-.62-4.66-3.83-10-6-4.46-1.82-8.18-2.5-11-3-5.64-1.01-10.08-1.03-12-1-5.02,.08-8.79,.77-10,1-6.73,1.3-12.1,3.67-12,4Z"/><path class="cls-2" d="M180,153.42c.54-.98,9.6,5.32,25,8,1.27,.22,15.24,2.54,26-1,.6-.2,3-1.01,3-1,0,.01-6.16,2.57-12,4-4.19,1.03-16.34,4.01-29-1-7.68-3.04-13.45-8.19-13-9Z"/><path class="cls-2" d="M193,178.42s5.51-2.2,13-2c9.29,.25,15.98,4.04,16,4,.01-.04-5.74-3.4-14-4-8.46-.62-15,2-15,2Z"/><path class="cls-2" d="M225,89.42c-.45-.49,2.2-4.32,6-7,.96-.67,5.14-3.5,13-4,11.81-.75,21.17,4.45,21,5-.2,.66-13.6-6.98-27-2-7.57,2.81-12.42,8.64-13,8Z"/></g><g id="Layer_12"><path class="cls-2" d="M207,86.42c.5-.48-2.08-4.74-6-8-7.23-6.02-15.83-6.01-20-6-11.06,.02-19.08,4.74-19,5,.1,.31,12.01-7.21,25-4,12.06,2.98,19.19,13.78,20,13Z"/><path class="cls-1" d="M220,14.42c.15-1.59-13.19-7.34-28-5-22.54,3.56-36.25,22.46-41,29-13.44,18.52-15.28,36.9-15,37,.37,.12,3.66-30.14,26-46,9.48-6.73,20.62-9.61,26-11,18.44-4.77,31.85-2.42,32-4Z"/><line class="cls-2" y1="624.42" x2="490" y2="624.42"/></g></svg>