<?xml version="1.0" encoding="UTF-8"?><svg xmlns="http://www.w3.org/2000/svg" viewBox="0 0 474.51 473.99"><defs><style>.cls-1{fill:#fff;}.cls-1,.cls-2{stroke:#fff;stroke-miterlimit:10;}.cls-2{fill:none;}</style></defs><g id="arms_big"><path class="cls-2" d="M60.51,473.49c-7.43-2.65-17.74-7.39-28-16-9.27-7.79-14.77-15.6-17-19-3.24-4.93-6.73-10.23-9-18-3.08-10.54-.07-12.44-3-28-1.76-9.35-3.12-10.13-3-16,.08-3.64,.65-5.4,3-18,2-10.71,1.63-9.63,2-11,3.02-11.13,10.28-18.33,16-24,7.41-7.34,12.18-12.08,20-14,9.97-2.45,12.68,2.85,20,0,5.57-2.17,7.03-6.09,19-28,11.72-21.44,12.18-22.69,13-25,4.32-12.11,4.7-20.69,8-21,2.49-.23,3.37,4.53,10,12,1.34,1.51,6.01,6.62,13,11,5.85,3.66,11.99,7.51,20,7,4.86-.31,13.21-2.4,15-8,.91-2.85-.13-5.86-.65-7.37-1.72-4.98-5.37-7.61-5.35-7.63,.03-.03,7.85,4.77,10,13,1.22,4.67,.06,8.36-3,17-7.72,21.8-9.23,23.36-11,31-2.72,11.75-2.14,21.01-2,23,.92,12.84,4.86,17.3,7,27,2.96,13.39-.2,23.98-6,42-7.01,21.78-16.92,36.72-24,47-9.36,13.58-18.76,23.86-26,31"/><path class="cls-2" d="M304.51,473.49c-4.25-6.88-9.91-17.02-15-30-4.49-11.44-9.92-25.3-11-44-.9-15.49,1.56-28.43,3-36,1.85-9.74,3.19-12.15,6-27,3.62-19.11,3.22-24.7,3-27-.65-6.84-2.44-12.23-6-23-3.14-9.49-4.71-14.23-7-19-2.32-4.83-4.2-7.77-5-13-1-6.49,.35-12,1-12,.75,0-.24,7.24,4,15,1.5,2.75,3.39,6.2,7,8,6.66,3.31,14.9-1.15,22-5,7.91-4.29,12.82-8.98,18-14,10.94-10.61,17.52-16.99,17-25-.45-6.83-5.82-11.32-5-12,.91-.75,7.99,4.28,13,12,5.58,8.6,4.51,14.22,8,32,3.27,16.68,4.67,14.04,7,28,2.8,16.77,.74,20.35,5,30,2.38,5.39,5.58,9.59,12,18,8.26,10.82,9.33,9.97,15,18,5,7.09,10.15,14.38,13,25,1.52,5.65,1.39,8.55,4,15,2.7,6.68,4.59,7.93,7,13,4.33,9.14,4.15,17.66,4,25-.04,2.12-.36,12.43-5,25-3.69,9.98-8.71,17.63-13,23"/></g><g id="arms_details"><path class="cls-2" d="M138.51,311.49c.5,.21-3.43,15.16-14,31-3.89,5.83-9.63,14.27-20,22-2.04,1.52-10.08,7.35-24,12-29.51,9.86-56.01,4.59-56,4,0-.5,19.21,2.4,44-5,10.71-3.2,18.52-7.14,22-9,5.55-2.97,18.05-9.77,29-22,14.55-16.25,18.47-33.23,19-33Z"/><path class="cls-2" d="M85.51,318.49c4.04,5.87,9.1,9.32,12,11,10.73,6.2,21.02,4.93,21,6-.02,.92-7.71,3-16,1-14.95-3.6-21.53-17.93-22-19-4.42-10.04-2.67-19.93-2-20,.7-.07-.04,10.75,7,21Z"/><path class="cls-2" d="M53.51,322.49c-.1-.12-6.76,6.31-17,12-11.15,6.2-20.03,7.91-20,8,.03,.1,12.79-2.23,26-11,6.61-4.39,11.08-8.9,11-9Z"/><path class="cls-2" d="M295.51,318.49c.12-.45,26.94,13.38,50,2,10.01-4.94,16.68-13.34,17-13,.33,.35-6.12,9.73-16,15-22.51,12.01-51.12-3.54-51-4Z"/><path class="cls-2" d="M310.51,264.49c-.64,.19,1.19,14.48,9,29,7.75,14.41,18.41,23.49,19,23,.63-.52-10.46-11.76-20-32-5.59-11.87-7.5-20.15-8-20Z"/><path class="cls-2" d="M314.51,397.49c.07-.89,21.62,6.4,40-5,13.19-8.18,19.39-22.95,21-22,1.04,.61-1.21,6.46-3,10,0,0-4.22,8.34-12,14-17.55,12.75-46.08,4.02-46,3Z"/><path class="cls-2" d="M310.51,405.49c1.74-.76,16.95,24.28,20,53,.17,1.6,1.04,9.79,0,10-1.17,.24-3.98-9.83-11-33-8.62-28.44-9.41-29.82-9-30Z"/></g><g id="left_detail_"><path class="cls-2" d="M43.51,306.49c1.99-4.54,4.99-11.81,8-21,4.92-15.04,4.76-19.7,10-38,6.25-21.86,10.58-29.55,12-32,3.9-6.72,8.26-14.03,17-20,8.05-5.49,16.09-7.31,21-8"/></g><g id="finge_top_L"><path class="cls-2" d="M125.51,173.49c1.36-1.53,3.65-3.66,7-5,1.91-.76,2.75-.71,12-1,6.65-.21,10.02-.29,12,1,.58,.38,.61,.5,4,3,1.66,1.23,2.62,1.91,4,3,2.65,2.09,3.98,3.15,4,4,.05,1.81-2.7,3.54-5,4-3.62,.73-6.51-1.59-7-2"/></g><g id="finger_1_l"><path class="cls-2" d="M103.51,235.49c.46-4.27,.27-7.68,0-10-.28-2.46-.58-3.21-2-11-.88-4.81-.98-5.73-1-7-.04-2.64-.06-6.06,2-9,.38-.54,.42-.48,3-3,2.21-2.16,3.86-3.77,5-5,3.09-3.34,2.9-4.45,7-10,2.18-2.94,3.26-4.41,4-5,3.46-2.76,8.35-2.54,18-2,8.68,.49,11.17,1.59,13,3,.98,.76,1.99,1.84,4,4,3.39,3.65,3.88,4.88,4,6,.18,1.7-.5,3.15-1,4-1.19,.33-3.05,.66-5,0-4.11-1.39-4.17-5.67-8-7-2.4-.83-2.76,.71-8,1-5.92,.33-7.75-1.52-10,0-2.13,1.44-1.58,3.82-3,7-1.23,2.75-4,6.27-11,9"/></g><g id="finger_2_l"><path class="cls-2" d="M116.51,199.49c3.76-2.25,6.85-3.9,9-5,2.65-1.36,2.97-1.42,6-3,4.45-2.32,4.56-2.6,6-3,3.6-.99,6.74-.3,8,0,1.27,.3,2.53,.87,5,2,4.07,1.86,6.74,3.44,9,5,4.09,2.83,4.06,3.71,4,4-.27,1.43-3.46,1.92-4,2-4.45,.63-5.92-1.98-12-3-3.88-.65-6.89-.2-8,0-1.62,.29-3.79,.68-6,2-3.43,2.05-3.99,4.56-8,10-1.13,1.53-2.78,3.63-5,6"/></g><g id="finger_3_l"><path class="cls-2" d="M121.51,215.49c3.98-2.26,6.98-4.43,9-6,3.96-3.09,4.51-4.19,7-5,2.35-.76,4.9-.51,10,0,3.46,.34,5.19,.52,7,1,4.68,1.25,11.33,4.43,11,7-.23,1.82-3.98,3.37-7,3-2.19-.27-2.69-1.38-5-2-2.95-.79-5.52,.12-8,1-2.45,.87-7.71,2.73-11,8-4.16,6.67-2.37,13.58-2,15,.83,3.19,2.8,7.21,4,7"/></g><g id="thum_l"><path class="cls-2" d="M155.51,244.49c-1.64-.38-4.9-1.37-6-4-.59-1.41-.24-2.55,1-7,1.02-3.66,1.99-7.34,3-11,.51-1.85,1.23-4.59,2-8"/></g><g id="r_finger_1"><path class="cls-2" d="M336.51,209.49c-.68-.28-1.89-.87-3-2-2.57-2.62-2.15-5.66-4-13-.93-3.69-1.61-5.2-2-6-.98-2.01-2.27-4.59-5-6-1.13-.59-2.09-.73-4-1-3-.43-4.39-.1-9,0-3.77,.08-3.28-.13-6,0-2.66,.12-5.12,.24-8,1-3.11,.82-5.26,2.02-7,3-2.73,1.54-6.85,4.29-11,9"/><path class="cls-2" d="M302.51,191.49c4.25,.68,7.66,.91,10,1,2.77,.1,4.03,0,5,1,1.48,1.51,.48,3.67,2,7,.63,1.38,1.44,2.38,2,3"/></g><g id="r_finger_2"><path class="cls-2" d="M327.51,212.49c-2.26-3.5-4.3-6.53-6-9-3.88-5.62-5.03-6.94-7-8-1.96-1.05-2.16-.47-7-2-4.61-1.46-4.71-2.08-8-3-2.57-.71-5.99-1.67-10-1-2.74,.46-2.49,1.12-9,4-6,2.65-8.86,3.26-9,5-.09,1.16,1.08,2.19,2,3,2,1.76,4.34,1.95,5,2,2.88,.2,4.04-1.11,7-2,3.91-1.18,7.32-.52,10,0,2.21,.43,7,1.35,11,5,3.34,3.05,3,5.15,8,12,1.62,2.23,3.07,3.94,4,5"/></g><g id="r_finger_3"><path class="cls-2" d="M318.51,223.49c-4.67-3.45-7.9-6.68-10-9-2.15-2.38-3.35-3.98-6-6-3.18-2.42-6.21-3.42-8-4-5.83-1.88-10.47-1.38-14-1-2.93,.31-5.63,.63-6,2-.35,1.3,1.52,3.13,3,4,.52,.31,1.37,.72,3,1,4.31,.73,5.6-.96,8,0,1.6,.64,1.13,1.34,4,4,3.43,3.18,4.76,2.8,6,5,.74,1.31,1.11,2.87,1,6-.34,9.91,.69,8.98,0,12-.95,4.12-8,12-8,12-1.35,1.51-3.45,3.9-6,7"/></g><g id="r_finger_top"><path class="cls-2" d="M306.51,181.49c-3.55-2.18-6.56-4.23-9-6-3.49-2.53-4.1-3.22-6-4-1.76-.73-3.11-.91-11-1-8.29-.1-9.52,.07-10,1-.83,1.62,1.14,4.51,3,6,1.56,1.25,3.14,1.6,5,2,4.43,.94,6.04-.2,9,1,1.23,.5,2.63,1.38,4,3"/></g><g id="r_thum"><path class="cls-2" d="M274.51,243.49c1.09,.07,2.71,0,4-1,2.12-1.64,1.71-4.46,3-9,1.08-3.81,2.07-4.28,3-7,1.07-3.12,1.62-7.91-1-15"/></g><g id="glasses"><path class="cls-1" d="M156.51,193.49c7.31-2.24,13.53-3.38,18-4,13.09-1.82,19.94-.45,22,0,5.37,1.17,11.19,2.44,13,7,1.37,3.45-.05,7.51-2,10-3.03,3.87-7.7,4.4-13,5-4.18,.48-14.77,1.58-25-5-3.22-2.07-5.52-4.33-7-6"/><path class="cls-1" d="M282.51,189.49c-2.34-.62-5.78-1.42-10-2-3.41-.47-13.73-1.67-27,1-7.27,1.46-13.91,2.88-15,7-.52,1.97,.42,3.84,1,5,2.81,5.59,9.37,7.31,12,8,10.33,2.71,19.49-1.42,23-3,3.05-1.37,5.41-2.88,7-4"/></g><g id="glasses_details"><path class="cls-1" d="M209.51,196.49c3.04-.45,6.39-.81,10-1,3.98-.21,7.66-.17,11,0"/><path class="cls-1" d="M160.51,171.49c.06-2.54,.1-6.36,0-11-.14-6.59-.45-8.43-1-18-.83-14.38-.66-19.07,0-24,.62-4.63,1.63-9.04,2-9,.33,.04,.06,3.52,0,12,0,0,0,.86,0,6,.01,10.39,.71,18.33,1,28,.12,4.15,.22,10.34,0,18"/><path class="cls-1" d="M278.51,170.49c-.23-2.83-.55-6.58-1-11-.86-8.53-1.08-8.67-2-17-1.36-12.28-1.5-17.04-3-21-.75-1.97-1.19-4.05-2-6-.8-1.94-1.57-3.4-1-4,.52-.55,1.87-.05,2,0,2.25,.87,3.18,3.73,4,7,1.89,7.52,2,11,2,11s.12,3.7,2,25c.33,3.74,.91,9.26,2,16"/><path class="cls-1" d="M279.51,179.49c-.13,1.69-.07,3.07,0,4,.2,2.47,.43,5.42,2,6,.13,.05,.62,.23,1,0,.89-.54,.22-2.74,0-6-.11-1.74-.06-3.14,0-4"/><path class="cls-1" d="M160.51,182.49c-.02,1.06-.03,2.42,0,4,.02,1.48,.05,1.56,0,2-.27,2.3-1.45,3.56-1,4,.16,.16,.44,.1,1,0,.34-.06,1.47-.27,2-1,.43-.59,.13-1.06,0-3v-6"/></g><g id="sweater_neck"><path class="cls-2" d="M162.51,153.49c1.35-1.6,3.24-3.38,5-3,2.15,.46,2.69,3.81,4,7,1.68,4.09,5.79,7.73,14,15,6.1,5.4,9.15,8.1,13,10,2.59,1.28,8.04,3.89,15,4,10.84,.16,19.23-5.86,25-10,9.6-6.89,14.4-10.34,16-12,1.45-1.51,4.33-4.68,7-4,1.58,.4,2.46,1.98,3,3,2.19,4.1,.73,7.49,1,12,.15,2.59,.93,6.41,4,11"/><path class="cls-2" d="M219.51,223.49c-.22-.01,.73-8.33,0-21-.41-7.22-1.15-11.98-1-12,.18-.02,1.61,6.8,2,15,.48,10.06-.79,18.01-1,18Z"/><path class="cls-2" d="M171.95,163.27c.17,.04-1.56,6.7-2.49,17.1-.53,5.92-.51,9.89-.63,9.89-.14,0-.47-5.72,.19-12.44,.81-8.25,2.76-14.57,2.93-14.54Z"/><path class="cls-2" d="M227.51,221.49c-.22-.01,.73-8.33,0-21-.41-7.22-1.15-11.98-1-12,.18-.02,1.61,6.8,2,15,.48,10.06-.79,18.01-1,18Z"/><path class="cls-2" d="M260.59,217.36c-.06,0,.21-2.4,0-6.05-.12-2.08-.33-3.45-.29-3.45,.05,0,.47,1.96,.58,4.32,.14,2.9-.23,5.19-.29,5.18Z"/><path class="cls-2" d="M162.51,215.49c-.07,.13,4,2.77,11,6,11.3,5.21,29.14,13.43,51.72,11.6,12.99-1.05,23.73-5.12,30.28-7.6,5.03-1.91,9.08-3.79,9-4-.2-.51-23.09,14.09-49.57,13.3-28.81-.85-52.26-19.64-52.43-19.3Z"/><path class="cls-2" d="M163.51,302.49c9.53,.1,16.68,2.3,19,3,11.51,3.48,20.09,6.08,29,7,13.93,1.44,25.91-1.5,32-3,12.37-3.04,22-6,22-6,4.87-1.5,10.02-1.91,15-3,3.16-.69,6.97-1.56,8,0,.38,.57,.35,1.42,0,2-1.02,1.7-4.83,1.13-6,1-5.89-.67-9.78,2.26-22,6-9.71,2.97-17.45,4.25-22,5-7.65,1.26-16.84,2.78-28,2-10.9-.76-10.7-2.79-35-8-12.69-2.72-21.1-3.95-21-5,.08-.87,5.92-1.03,9-1Z"/><path class="cls-2" d="M139.51,417.49c4.65,2.44,11.8,5.72,21,8,1.94,.48,8.08,1.94,24,3,19.63,1.31,18.09-.54,30,1,10.52,1.36,15.13,3.25,26,3,4.14-.09,7.24-.45,12-1,16.5-1.9,24.8-4.68,25-4,.24,.78-10.39,5.87-24,8-3.26,.51-7.99,1.05-16,1-12.78-.09-20.12-1.6-31-3-25.4-3.27-27.56-.47-44-4-10.99-2.36-19.61-5.67-25-8"/><path class="cls-2" d="M270.51,211.49c-3,2.28-7.36,5.26-13,8-14.13,6.87-26.64,7.6-35,8-8.96,.43-25.07,1.02-43-7-6.06-2.71-10.77-5.71-14-8"/></g><g id="head"><path class="cls-2" d="M183.51,170.49c-1.89-2.25-4.46-5.6-7-10-.99-1.72-2.5-4.33-4-8-3.3-8.06-2.53-11.32-6-14-1.71-1.31-2.87-1.28-4-3-.75-1.14-.92-2.2-1-7-.05-3.28,0-4.75,0-10v-29c.08-11.37,.13-17.06,2-23,2.09-6.63,5.31-11.19,8-15,4.47-6.33,7.15-9.9,12-13,8.3-5.3,13.94-3.2,18-9,2.58-3.69,2.79-8.1,4-8,1.42,.12,.67,6.23,4,8,2.05,1.09,3.9-.39,8-1,0,0,3.82-.57,11,1,7.32,1.6,19.86,10.37,29,25,12.39,19.83,13.11,44.41,12,50-.18,.89-.97,4.13,0,8,.5,1.99,.95,2.09,2,5,.46,1.26,1.6,4.63,2,9,.36,3.95,.6,6.6-1,8-1.46,1.27-2.89,.16-5,1-3.43,1.36-3.76,5.9-6,12-2.1,5.72-4.69,9.57-7,13-2.13,3.16-5.56,7.53-11,12"/></g><g id="hair"><path class="cls-2" d="M205.51,21.49c-.1-.79-.35-1.88-1-3-2.62-4.52-9.18-4.86-11-5-5.88-.46-10.19,1.99-17,6-4.5,2.64-10.77,6.33-17,13-3.94,4.22-5.86,7.48-11,10-2.21,1.09-3.59,1.33-6,3-2.06,1.43-5.73,3.97-7,8-.67,2.13,.21,6.11,2,14,.93,4.08,1.4,5.57,1,8-.54,3.29-1.93,3.69-3,7-1.46,4.53,.28,6.49,0,12-.25,4.91-1.7,4.96-3,11-1.37,6.38-.88,11.61,0,21,.77,8.15,1.5,8.5,1,12-.88,6.18-3.51,7.49-6,14-3.93,10.28-2.33,19.97-2,20,.24,.02,1.47-4.91,2-10,.1-.93,.22-2.34,1-4,.99-2.1,2.93-4.37,4-4,.79,.27,.75,1.85,1,5,.28,3.46,.7,6.23,1,8"/></g><g id="hair-r"><path class="cls-2" d="M198.51,13.49c.95-.64,2.37-1.65,4-3,4.01-3.32,6.23-6.18,7-7,5.05-5.44,21.35-2.89,33,3,8.01,4.05,19.02,12.3,24,22,.94,1.82,2.81,5.95,7,10,2.95,2.85,3.76,2.5,8,6,2.47,2.04,6.69,5.59,10,11,2.77,4.53,1.63,5.02,4,9,1.29,2.17,2.9,4.16,13,12,8.75,6.8,11.08,8.05,13,12,1.51,3.1,1.74,5.75,2,9,1.06,13.46-3.99,25.22-5,25-.77-.17,2.19-7.14,0-17-1.96-8.85-6.86-14.57-9-17-2.92-3.32-9.09-9.28-11-8-1.86,1.24,.55,9.15,4,15,3.98,6.76,6.61,6.12,9,12,1.84,4.51,.67,5.8,3,13,1.42,4.37,2.14,6.59,4,9,3.63,4.7,10.68,8.92,16,7,4.35-1.57,5.49-6.52,7-6,1.46,.5,2.03,5.69,0,10-2.99,6.37-9.54,6.35-10,10-.49,3.89,6.66,5.99,13,12,11.87,11.27,12.87,28.67,12,29-.59,.22-2.58-7.25-10-17-6.01-7.9-10.92-11.16-15-13-3.83-1.73-9.28-3.27-10-2-.95,1.67,7.73,5.84,15,17,3.51,5.39,2.8,6.43,6,10,5.64,6.29,9.48,4.87,14,10,6.42,7.29,5.19,17.55,5,19-1.13,8.42-6.6,15.46-8,15-.22-.07-.48-.72-1-2-.57-1.42-.92-2.65-1-3-.66-2.86,2.81-5.93,4-10,1.01-3.45,.49-7.96-2-11-3.2-3.9-10.17-6-13-3-2.04,2.17-1.73,6.81,1,11"/></g><g id="eyes"><path class="cls-2" d="M175.51,99.49c.63,2.51,11.82,1.48,17,1,7.57-.7,7.94-1.7,8-2,.32-1.6-4.2-4.08-8-5-1.54-.37-6.06-1.23-11,1-1.83,.83-6.42,3.3-6,5Z"/><path class="cls-2" d="M228.51,96.49c0-1.89,3.92-3.27,6-4,4.54-1.6,8.25-1.11,9-1,2.73,.4,4.63,1.32,6,2,2.27,1.13,5.12,2.54,5,4-.13,1.52-3.46,2.36-6,3-3.04,.76-8.1,1.97-14,0-1.64-.55-6.01-2-6-4Z"/><path class="cls-2" d="M200.48,101.42s-1.24,2.68-3.95,4.05c-3.75,1.89-8,.1-8,.1,0,0,4.25,1.79,8-.1,2.71-1.37,3.95-4.05,3.95-4.05Z"/><path class="cls-2" d="M237.83,107.29s-1.27,.08-3.14-.84c-2.58-1.28-4.71-3.69-4.71-3.69,.24,.25,2.59,2.69,4.71,3.69,.71,.34,1.43,.55,1.43,.55,.79,.24,1.36,.29,1.71,.29Z"/></g><g id="face"><path class="cls-2" d="M209.51,110.49c.37,1.83,.58,4.27,0,7-.38,1.78-.73,3.44-2,5-2.08,2.55-4.29,2.02-5,4-.66,1.83,.48,4.37,2,5,.32,.13,.46,.1,3,0,2.6-.1,2.75-.09,3,0,1.53,.54,1.28,1.84,3,3,1.47,.99,3.1,1,4,1,1.26,0,2.86,.01,4-1,1.77-1.58,.52-3.94,2-5,1.7-1.21,4.24,1.27,6,0,1.13-.81,1.3-2.71,1-4-.54-2.29-2.6-2.82-5-5-3.17-2.88-4.41-6.35-5-8-1.24-3.49-1.15-6.36-1-11,.14-4.29,.82-7.24,1-8,.59-2.48,1.35-4.51,2-6"/><path class="cls-2" d="M167.51,83.49c-.14-.39,3.99-2.45,9-4,7.04-2.17,11.9-2.11,14-2,3.72,.19,7.57,.44,9,3,.69,1.23,.86,3.05,0,4-.77,.86-2.28,.9-6,0-4.64-1.13-7.25-2.4-9-3-8.27-2.85-16.8,2.57-17,2Z"/><path class="cls-2" d="M228.51,78.49c-.2,.23-1.42,1.62-1,3,.49,1.63,2.89,1.98,3,2,1.38,.19,2.17-.38,4-1,0,0,.91-.31,5-1,6.51-1.11,18.64,2.96,19,2,.22-.57-3.75-2.71-7-4-2.76-1.1-4.99-1.58-7-2-2.36-.5-4.79-.99-8-1-3.39,0-6.28,.03-8,2Z"/><path class="cls-2" d="M236.32,93.81c-.89,1.16-1.5,3.04-.85,4.53,1.15,2.64,5.85,3.07,7.69,.91,.91-1.07,.86-2.47,.85-2.72-.08-2.28-2-4.49-4.27-4.53-1.94-.04-3.19,1.52-3.42,1.81Z"/><path class="cls-2" d="M185.19,95.01c-.79,.97-1.33,2.54-.76,3.79,1.02,2.2,5.18,2.56,6.82,.76,.81-.89,.77-2.06,.76-2.27-.07-1.9-1.77-3.75-3.79-3.79-1.72-.03-2.83,1.27-3.03,1.51Z"/><path class="cls-2" d="M192.51,144.49c3.55,.15,6.83,.29,10,0,4.21-.39,4.11-1.17,7-1,3.12,.18,3.4,1.09,6,1,2.97-.11,3.51-1.33,7-2,.83-.16,1.69-.27,7,0,6.64,.33,9.96,.5,10,1,.05,.66-4.56,1.53-7,2-3.35,.64-5.93,.9-7,1-3.71,.36-7.8,.66-18,1-5.63,.19-6.56,.17-8,0-5.28-.64-10.11-2.52-10-3,.04-.18,.8-.09,3,0Z"/><path class="cls-2" d="M205.51,156.49c.05-.22,4.97,1.66,12,1,5.33-.5,8.94-2.19,9-2,.07,.2-3.86,2.45-9,3-6.66,.71-12.05-1.77-12-2Z"/><path class="cls-2" d="M210.51,169.49c-.07-.21,2.61-1.66,6-2,3.81-.39,7.03,.77,7,1-.03,.21-2.72-.39-7,0-3.72,.34-5.94,1.19-6,1Z"/><line class="cls-2" x1="4.51" y1="473.49" x2="474.51" y2="473.49"/></g></svg>