<?xml version="1.0" encoding="UTF-8"?><svg id="Layer_2" xmlns="http://www.w3.org/2000/svg" xmlns:xlink="http://www.w3.org/1999/xlink" viewBox="0 0 414.9 586.79"><defs><style>.cls-1,.cls-2{fill:none;}.cls-3{font-size:18.12px;}.cls-3,.cls-4,.cls-5,.cls-6,.cls-7,.cls-8,.cls-9,.cls-10,.cls-11,.cls-12{fill:#f4f4f5;}.cls-3,.cls-13{font-family:NeueHaasUnicaW1G-Medium, 'Neue Haas Unica W1G';}.cls-14{clip-path:url(#clippath);}.cls-4{letter-spacing:.05em;}.cls-15,.cls-16{fill:#161616;}.cls-5{letter-spacing:.03em;}.cls-6{letter-spacing:.05em;}.cls-7{letter-spacing:-.02em;}.cls-17{letter-spacing:-.1em;}.cls-17,.cls-18,.cls-19,.cls-20{fill:#dde570;}.cls-18{letter-spacing:-.1em;}.cls-21{fill:#fff;font-family:AntiqueOli-Med, 'Antique Olive';font-size:25.09px;}.cls-13{font-size:14.64px;}.cls-16{stroke:#dde571;}.cls-16,.cls-2{stroke-miterlimit:10;}.cls-19,.cls-8{letter-spacing:.07em;}.cls-9{letter-spacing:.07em;}.cls-20,.cls-10{letter-spacing:.07em;}.cls-2{stroke:#dde570;}.cls-11{letter-spacing:.05em;}.cls-12{letter-spacing:.05em;}</style><clipPath id="clippath"><rect class="cls-1" width="414.9" height="586.79"/></clipPath></defs><g id="clip_mask"><g class="cls-14"><rect class="cls-15" width="414.9" height="590.5"/><path class="cls-16" d="M-2.28-8.76V590.31H426.4V-8.76H-2.28ZM112.44,575.46c-7.61-1.36-42.46-7.58-62.92-36.37-11.45-16.11-15.66-35.45-16.52-39.65-.88-4.31-1.36-7.97-1.63-10.58,8.26-2.31,41.86-10.66,76.48,7.29,6.18,3.2,36.8,19.08,47.92,53.5,3.07,9.49,3.84,17.88,3.97,23.77-11.13,2.91-27.82,5.53-47.31,2.05Zm248.13-140.12c-23.19,33.62-61.06,40.27-71.39,42.08-19.01,3.34-35.05,1.36-45.12-.68,1.23-8.38,4.07-20.93,11.42-34.33,17.88-32.6,48.66-45.25,60-49.16,26.82-9.22,50.29-5.74,61.42-3.3-1.28,12.36-5.17,29.19-16.34,45.38Zm27.95-240.1c-5.19,11.65-16.89,19.67-27.59,20.95-5.27,.63-6.96-.77-12.7-.1-10.83,1.27-18.88,7.91-23.95,13.24-.7,7.77-2.33,18.73-6.46,31.22-3.87,11.72-13.96,42.23-43.78,63.88-28.42,20.63-58.4,21.33-73.92,21.7-11.35,.27-31.92,.75-53.53-8.58-47.82-20.65-63.4-73.25-66.15-83.17-1.78,.15-4.25,.21-7.12-.2-23.85-3.39-40.02-34-44.39-54.04-9.83-45.06,30.12-81.94,32.58-84.14-3.05-.8-7.36-2.32-11.74-5.41-11.29-7.98-21.17-25.12-15.62-42.53,6-18.81,27.26-29.26,44-24.72,8.99,2.43,14.72,8.65,17.47,12.2,5.96-17.26,10.74-25.65,14.33-25.17,1.94,.26,3.53,3.1,4.78,8.52,1.57-1.25,3.97-3.15,6.92-5.44,17.93-13.89,26.89-20.84,34.61-24.23,1.85-.81,17.94-7.63,35.6-3.46,30.2,7.13,42.01,41,43.05,44.13,3.8-4.53,10.09-10.84,19.38-15.43,34.7-17.15,73.78,8.19,77.94,10.97,22.47,15.04,44.12,44.09,41.21,76.95-1.05,11.84-5.04,21.29-8.4,27.57,3.42-.57,7.58-.63,11.63,1.14,13.11,5.71,19.09,27.87,11.84,44.14Z"/></g></g><text class="cls-3" transform="translate(11.6 479.05) rotate(-21.49)"><tspan x="0" y="0"> </tspan></text><text class="cls-3" transform="translate(16.49 477.15) rotate(-19.04)"><tspan x="0" y="0"> </tspan></text><text class="cls-3" transform="translate(21.49 475.45) rotate(-16.65)"><tspan x="0" y="0"> </tspan></text><text class="cls-3" transform="translate(26.55 473.96) rotate(-14.29)"><tspan x="0" y="0"> </tspan></text><text class="cls-3" transform="translate(31.52 472.58) rotate(-10.11)"><tspan x="0" y="0">Å</tspan></text><text class="cls-3" transform="translate(44.33 470.34) rotate(-4.35)"><tspan x="0" y="0">B</tspan></text><text class="cls-3" transform="translate(56.76 469.38) rotate(2.11)"><tspan x="0" y="0">N</tspan></text><text class="cls-3" transform="translate(71.55 470.15) rotate(7.23)"><tspan x="0" y="0">I</tspan></text><text class="cls-3" transform="translate(77.86 470.8) rotate(12.4)"><tspan x="0" y="0">N</tspan></text><text class="cls-3" transform="translate(92.25 474.05) rotate(18.96)"><tspan x="0" y="0">G</tspan></text><text class="cls-3" transform="translate(105.7 478.77) rotate(24.98)"><tspan x="0" y="0">S</tspan></text><text class="cls-3" transform="translate(116.82 483.97) rotate(31.08)"><tspan x="0" y="0">C</tspan></text><text class="cls-3" transform="translate(128.33 491) rotate(37.48)"><tspan x="0" y="0">E</tspan></text><text class="cls-3" transform="translate(138 498.45) rotate(44.05)"><tspan x="0" y="0">R</tspan></text><text class="cls-3" transform="translate(147.07 507.32) rotate(50.84)"><tspan x="0" y="0">E</tspan></text><text class="cls-3" transform="translate(154.86 516.63) rotate(59.19)"><tspan x="0" y="0">M</tspan></text><text class="cls-3" transform="translate(163.97 532.32) rotate(67.96)"><tspan x="0" y="0">O</tspan></text><text class="cls-3" transform="translate(169.27 545.52) rotate(75.65)"><tspan x="0" y="0">N</tspan></text><text class="cls-3" transform="translate(172.7 559.92) rotate(81.08)"><tspan x="0" y="0">I</tspan></text><text class="cls-21" transform="translate(227.24 488.43) rotate(-86.57)"><tspan x="0" y="0"> </tspan></text><text class="cls-21" transform="translate(227.53 481.1) rotate(-81.35)"><tspan x="0" y="0">V</tspan></text><text class="cls-21" transform="translate(230.19 465.2) rotate(-76.22)"><tspan x="0" y="0">I</tspan></text><text class="cls-21" transform="translate(231.89 458.01) rotate(-71.71)"><tspan x="0" y="0">L</tspan></text><text class="cls-21" transform="translate(235.77 446.07) rotate(-65.01)"><tspan x="0" y="0">D</tspan></text><text class="cls-21" transform="translate(242.88 431.13) rotate(-57.89)"><tspan x="0" y="0">S</tspan></text><text class="cls-21" transform="translate(250.27 419.35) rotate(-50.93)"><tspan x="0" y="0">K</tspan></text><text class="cls-21" transform="translate(260.12 407.26) rotate(-43.57)"><tspan x="0" y="0">U</tspan></text><text class="cls-21" transform="translate(272.06 395.98) rotate(-36.01)"><tspan x="0" y="0">D</tspan></text><text class="cls-21" transform="translate(285.7 386.4) rotate(-30.4)"><tspan x="0" y="0"> </tspan></text><text class="cls-21" transform="translate(291.93 382.6) rotate(-24.87)"><tspan x="0" y="0">F</tspan></text><text class="cls-21" transform="translate(304.69 376.74) rotate(-17.71)"><tspan x="0" y="0">E</tspan></text><text class="cls-21" transform="translate(318.28 372.47) rotate(-10.8)"><tspan x="0" y="0">S</tspan></text><text class="cls-21" transform="translate(331.61 369.92) rotate(-3.96)"><tspan x="0" y="0">T</tspan></text><text class="cls-21" transform="translate(346.79 369.09) rotate(1.08)"><tspan x="0" y="0">I</tspan></text><text class="cls-21" transform="translate(353.96 369.07) rotate(6.12)"><tspan x="0" y="0">V</tspan></text><text class="cls-21" transform="translate(368.58 370.58) rotate(12.39)"><tspan x="0" y="0">A</tspan></text><text class="cls-21" transform="translate(385.47 374.47) rotate(18.58)"><tspan x="0" y="0">L</tspan></text><text class="cls-13" transform="translate(253.27 552.3)"><tspan class="cls-10" x="0" y="0">02 </tspan><tspan class="cls-5" x="23.36" y="0">A</tspan><tspan class="cls-8" x="33.9" y="0">UG </tspan><tspan class="cls-17" x="61.46" y="0">/</tspan><tspan class="cls-20" x="66.89" y="0">/</tspan><tspan class="cls-10" x="74.81" y="0"> </tspan><tspan class="cls-4" x="79.17" y="0">K</tspan><tspan class="cls-10" x="89.3" y="0">L 16:00 </tspan><tspan class="cls-18" x="14.71" y="17.56">/</tspan><tspan class="cls-19" x="20.14" y="17.56">/</tspan><tspan class="cls-10" x="28.06" y="17.56"> </tspan><tspan class="cls-12" x="32.42" y="17.56">T</tspan><tspan class="cls-10" x="42.06" y="17.56">E</tspan><tspan class="cls-7" x="52.21" y="17.56">A</tspan><tspan class="cls-11" x="62" y="17.56">T</tspan><tspan class="cls-9" x="71.65" y="17.56">ERHUS</tspan><tspan class="cls-6" x="125.71" y="17.56">E</tspan><tspan class="cls-9" x="135.62" y="17.56">T</tspan></text><g><path class="cls-2" d="M264.93,330.95c.6-5.51,2.32-27.08-11.39-40.94-13.02-13.16-34.8-14.14-41.5-14.13-11.68,.03-16.73,3.16-21.19-.76-7.36-6.47,1.63-19.25-5.94-31.15-5.2-8.19-14.88-10.67-26.35-13.61-6.72-1.72-17.39-4.64-30.07-1.8-1.38,.31-2.57,.64-3.73,1.04-9.66,3.32-16,7.22-22.13,11.18-5.03,3.25-12.39,7.88-22.18,13.59"/><path class="cls-2" d="M364.4,149.71c-8.36,10.44-24.23,27.56-49.02,39.54-47.18,22.81-112.06,19.96-147.28-15.03-15.53-15.43-30.92-41.73-35.3-69.26-3.59-22.55-12.84-43.84-18.05-66.07-.5-2.12-1.89-8.13-4.78-8.52-5.7-.76-12.94,20.98-14.33,25.17-15.73,47.25-.58,88.53-.58,88.53,6.22,16.95,17.38,47.01,48.86,61.03,30.76,13.69,60.42,2.53,67.72-.46,14.65-2.47,29.31-4.95,43.96-7.42,2.28-4.2,5.33-10.67,7.39-18.98,7.43-30.07-3.74-62.17-23.02-83.54-4.99-5.53-14.04-14.17-28.39-21.1-7.55,3.62-16.74,9.21-25.54,17.93-25.36,25.13-28.79,57.36-29.43,68.17"/><path class="cls-2" d="M324.29,229.33c-2.89,2.06-8.92,5.68-15.71,4.41-3.57-.67-7.25-2.67-13.01-8.27-6.23-6.06-10.57-9.71-13.82-12.24-3.42-2.66-5.41-5.49-9.62-7.61-2.77-1.39-5.26-2.09-6.97-2.47-3.78,.73-9.33,2.11-15.6,4.92-9.08,4.06-14.93,9.01-16.74,10.48-7.21,5.89-20.66,14.27-47.92,25.42"/><path class="cls-2" d="M318.28,187.8c3.33-4.15,8.3-11.64,9.8-21.95,2.62-17.99-6.35-37.48-22.39-46.67-8.23-4.71-16.44-5.62-22.04-5.61-1.96-.08-8.23-.1-14.38,4.18-6.13,4.27-8.29,10.14-8.89,12.01,.74-2.27,2.33-6.01,5.77-9.4,6.78-6.68,15.49-6.81,17.5-6.79-4.66-1.92-11.49-5.4-17.71-11.8-13.22-13.61-10.01-26.25-18.98-36.51-13.79-15.79-43.15-10.77-52.99-8.62,0,0-1.3,.27-2.58,.59-10.14,2.53-31.23,11.09-58.6,47.73"/><path class="cls-2" d="M239.95,94.7c-5.31,20.76-13.1,27.81-18.26,30.57-.25,.13-.48,.25-.5,.26-9.43,4.78-21.53,3.55-27.48-.47-12.17-8.23-6.56-33.49-7.68-33.53-1.17-.04-9.17,27.01,4.13,40.98,3.48,3.65,5.93,3.8,18.13,8.83,20.84,8.59,31.26,12.89,37.78,19.72,4.81,5.04,12.33,16.5,8.89,42.78"/></g></svg>