<?xml version="1.0" encoding="UTF-8"?><svg xmlns="http://www.w3.org/2000/svg" viewBox="0 0 595.28 841.89"><defs><style>.cls-1{letter-spacing:-.01em;}.cls-2,.cls-3,.cls-4{font-size:23px;}.cls-2,.cls-3,.cls-4,.cls-5,.cls-6{font-family:NeueHaasUnicaW1G-Medium, 'Neue Haas Unica W1G';}.cls-2,.cls-7,.cls-8,.cls-6{fill:#fff;}.cls-3{fill:#231f20;}.cls-4{fill:#dce573;}.cls-9{letter-spacing:0em;}.cls-7{font-family:NeueHaasUnicaW1G-Regular, 'Neue Haas Unica W1G';font-size:16px;}.cls-5{fill:#dde573;font-size:72px;letter-spacing:0em;}.cls-10{stroke-width:6px;}.cls-10,.cls-11{stroke:#fff;}.cls-10,.cls-11,.cls-12{fill:none;stroke-miterlimit:10;}.cls-13{letter-spacing:.02em;}.cls-14{letter-spacing:0em;}.cls-8{font-family:MyriadPro-Regular, 'Myriad Pro';font-size:17.1px;}.cls-15{letter-spacing:0em;}.cls-16{fill:#171717;}.cls-17{letter-spacing:-.03em;}.cls-18{letter-spacing:0em;}.cls-19{letter-spacing:0em;}.cls-20{letter-spacing:-.02em;}.cls-21{letter-spacing:-.02em;}.cls-22{letter-spacing:0em;}.cls-23{letter-spacing:.02em;}.cls-12{stroke:#dde571;stroke-width:9px;}.cls-24{letter-spacing:.01em;}.cls-25{letter-spacing:.01em;}.cls-26{letter-spacing:-.01em;}.cls-6{font-size:42px;}.cls-27{letter-spacing:.02em;}</style></defs><g id="Layer_1"><rect class="cls-16" width="595.28" height="841.89"/></g><g id="Layer_3"><path class="cls-12" d="M595.28,92.25c-3.35-.49-8.43-.84-14.21,.51-22.5,5.25-32.92,30.89-44.26,51.89-21.63,40.08-34.9,41.62-49.17,66.79-33.46,59,18.93,86.7,12.88,214.71-.77,16.39-5.71,102.2,20.98,151.81,.37,.69,2.08,3.85,2.2,4.06,20.14,37.14,43.95,55.52,44.37,85.04,.26,18.68,.62,30.24,10.46,37.68,5.45,4.12,12.04,4.72,16.75,4.58"/><text class="cls-6" transform="translate(74.04 419.32) rotate(-33.77)"><tspan x="0" y="0"> </tspan></text><text class="cls-6" transform="translate(86.2 410.56) rotate(-49)"><tspan x="0" y="0"> </tspan></text><text class="cls-6" transform="translate(99.73 391.09) rotate(-89.52)"><tspan x="0" y="0">N</tspan></text><text class="cls-6" transform="translate(98.41 360.47) rotate(-72.11)"><tspan x="0" y="0">y</tspan></text><text class="cls-6" transform="translate(104.33 343.01) rotate(-52.98)"><tspan x="0" y="0"> </tspan></text><text class="cls-6" transform="translate(108.51 336.03) rotate(-36.41)"><tspan x="0" y="0">d</tspan></text><text class="cls-6" transform="translate(128.02 322.28) rotate(-27.74)"><tspan x="0" y="0">a</tspan></text><text class="cls-6" transform="translate(148.09 311.78) rotate(-25.48)"><tspan x="0" y="0">n</tspan></text><text class="cls-6" transform="translate(170.43 301.15) rotate(-23.39)"><tspan x="0" y="0">s</tspan></text><text class="cls-6" transform="translate(190.05 292.67) rotate(-21.16)"><tspan x="0" y="0">k</tspan></text><text class="cls-6" transform="translate(210.68 284.77) rotate(-20.18)"><tspan x="0" y="0"> </tspan></text><text class="cls-6" transform="translate(220.44 281.39) rotate(-21.79)"><tspan x="0" y="0">d</tspan></text><text class="cls-6" transform="translate(245.3 271.14) rotate(-27.9)"><tspan x="0" y="0">r</tspan></text><text class="cls-6" transform="translate(259.96 263.33) rotate(-32.03)"><tspan x="0" y="0">a</tspan></text><text class="cls-6" transform="translate(282.08 250.31) rotate(-40.21)"><tspan x="0" y="0">m</tspan></text><text class="cls-6" transform="translate(312.83 222.67) rotate(-52.93)"><tspan x="0" y="0">a</tspan></text><text class="cls-6" transform="translate(327.53 202.47) rotate(-60.6)"><tspan x="0" y="0">t</tspan></text><text class="cls-6" transform="translate(335.33 188.27) rotate(-65.83)"><tspan x="0" y="0">i</tspan></text><text class="cls-6" transform="translate(340.95 176.18) rotate(-72.38)"><tspan x="0" y="0">k</tspan></text><path class="cls-12" d="M0,447.28c4.2-.05,10.3-.64,17.1-3.21,11.49-4.34,12.15-10.68,20.68-14.67,15.1-7.05,26.56,5.53,36.93-.66,4.85-2.89,9.96-10.19,9.44-30.42"/><path class="cls-12" d="M342.33,143.03c2.31-6.38,5.11-16.28,5.29-28.51,.36-24.95-10.43-44.73-15.3-53.41-9.98-17.8-17.62-21.42-22.81-38.94-2.69-9.09-3.26-17-3.34-22.16"/><text class="cls-2" transform="translate(189.32 507.69) rotate(-9.68)"><tspan x="0" y="0">0</tspan></text><text class="cls-2" transform="translate(202.38 505.46) rotate(-5.98)"><tspan x="0" y="0">4</tspan></text><text class="cls-2" transform="translate(215.68 504.16) rotate(-3.37)"><tspan x="0" y="0"> </tspan></text><text class="cls-2" transform="translate(220.91 503.71) rotate(-.42)"><tspan x="0" y="0">A</tspan></text><text class="cls-2" transform="translate(235.77 503.55) rotate(3.95)"><tspan x="0" y="0">U</tspan></text><text class="cls-2" transform="translate(251.94 504.66) rotate(8.52)"><tspan x="0" y="0">G</tspan></text><text class="cls-3" transform="translate(268.65 507.31) rotate(11.42)"><tspan x="0" y="0"> </tspan></text><text class="cls-4" transform="translate(273.88 508.32) rotate(13.53)"><tspan x="0" y="0">/</tspan></text><text class="cls-4" transform="translate(280.67 509.89) rotate(15.36)"><tspan x="0" y="0">/</tspan></text><text class="cls-4" transform="translate(291.16 512.82) rotate(17.51)"><tspan x="0" y="0"> </tspan></text><text class="cls-2" transform="translate(296.24 514.33) rotate(20.05)"><tspan x="0" y="0">1</tspan></text><text class="cls-2" transform="translate(308.7 518.88) rotate(23.78)"><tspan x="0" y="0">6</tspan></text><text class="cls-2" transform="translate(320.87 524.33) rotate(26.52)"><tspan x="0" y="0">:</tspan></text><text class="cls-2" transform="translate(325.86 526.72) rotate(29.34)"><tspan x="0" y="0">3</tspan></text><text class="cls-2" transform="translate(337.4 533.2) rotate(33.41)"><tspan x="0" y="0">0</tspan></text><text class="cls-2" transform="translate(348.45 540.59) rotate(36.61)"><tspan x="0" y="0">-</tspan></text><text class="cls-2" transform="translate(354.21 544.63) rotate(40.9)"><tspan x="0" y="0">1</tspan></text><text class="cls-2" transform="translate(364.09 553.33) rotate(45.85)"><tspan x="0" y="0">7</tspan></text><text class="cls-2" transform="translate(373.39 563) rotate(47.23)"><tspan x="0" y="0">:</tspan></text><text class="cls-2" transform="translate(377.27 567.16) rotate(47.88)"><tspan x="0" y="0">3</tspan></text><text class="cls-2" transform="translate(386.32 577.19) rotate(48.26)"><tspan x="0" y="0">0</tspan></text><text class="cls-2" transform="translate(395.31 587.27) rotate(48.35)"><tspan x="0" y="0"> </tspan></text><text class="cls-4" transform="translate(398.94 591.34) rotate(48.45)"><tspan x="0" y="0">/</tspan></text><text class="cls-4" transform="translate(403.66 596.65) rotate(48.9)"><tspan x="0" y="0">/</tspan></text><text class="cls-2" transform="translate(410.88 604.94) rotate(49.62)"><tspan x="0" y="0"> </tspan></text><text class="cls-2" transform="translate(414.39 608.94) rotate(51.17)"><tspan x="0" y="0">U</tspan></text><text class="cls-2" transform="translate(424.62 621.45) rotate(56.74)"><tspan x="0" y="0">K</tspan></text><text class="cls-2" transform="translate(432.14 633.28) rotate(63.88)"><tspan x="0" y="0">I</tspan></text><text class="cls-2" transform="translate(435.23 639.12) rotate(69.55)"><tspan x="0" y="0">R</tspan></text><text class="cls-2" transform="translate(440.37 652.88) rotate(76.95)"><tspan x="0" y="0">K</tspan></text><text class="cls-2" transform="translate(443.56 666.57) rotate(83.52)"><tspan x="0" y="0">E</tspan></text><path class="cls-12" d="M452.94,692.37c.32,7.87-.24,20.45-6.09,34.05-1.29,2.99-5.82,12.39-21.51,29.19-13.62,14.58-26.85,24.42-37.97,32.6-21.12,15.55-29.91,18.82-36.02,31.4-4.15,8.55-4.84,16.82-4.82,22.28"/><path class="cls-12" d="M175.68,503.93c-8.12,2.58-14.47,5.7-18.96,8.24-7.58,4.3-13.01,8.78-17.05,11.99-14.05,11.15-14.05,14.28-20.18,18.08-19.58,12.12-46.77,1.81-51.29,0-7.47-2.99-24.27-11.23-37.42-24.38-2.84-2.84-9.47-9.87-20.18-12.61-4.34-1.11-8.11-1.2-10.61-1.11"/><path class="cls-10" d="M157.68,0c8.79,64.9-5.12,95.02-20.46,110.46-7.55,7.6-17.86,14.05-24.74,29.5-10.97,24.63,.52,41.26-4.95,57.13-5.35,15.51-27.76,32.78-107.53,36.12"/><path class="cls-10" d="M379.02,0c-.58,17.51,.15,44.45,8.01,75.95,6.39,25.6,21.75,87.12,75.28,124.85,12.95,9.13,50.05,35.28,75.28,23.26,8.17-3.89,17-12.69,35.51-17.44,9.06-2.32,16.9-2.76,22.19-2.76"/><path class="cls-10" d="M595.28,614.15c-3.93,.03-9.91,.52-16.49,3.04-21.51,8.25-30.6,31.07-40.75,57.62-12.66,33.13-18.99,49.7-16.64,69.89,3.23,27.76,18.16,42.22,20.47,84.96,.28,5.14,.3,9.39,.28,12.22"/><text class="cls-7" transform="translate(45.83 722.84)"><tspan class="cls-15" x="0" y="0">Opl</tspan><tspan class="cls-25" x="25.17" y="0">æ</tspan><tspan class="cls-14" x="39.17" y="0">sning </tspan><tspan class="cls-9" x="82.93" y="0">a</tspan><tspan class="cls-14" x="91.37" y="0">f </tspan><tspan class="cls-26" x="100.16" y="0">n</tspan><tspan class="cls-14" x="109.17" y="0">y dansk </tspan><tspan class="cls-15" x="0" y="19.2">d</tspan><tspan class="cls-20" x="9.33" y="19.2">r</tspan><tspan class="cls-18" x="14.86" y="19.2">am</tspan><tspan class="cls-9" x="37.39" y="19.2">a</tspan><tspan class="cls-15" x="45.84" y="19.2">ti</tspan><tspan class="cls-23" x="55.09" y="19.2">k</tspan><tspan class="cls-18" x="63.41" y="19.2">.</tspan><tspan class="cls-15" x="0" y="38.4">Snak </tspan><tspan class="cls-27" x="39.7" y="38.4">o</tspan><tspan class="cls-14" x="49.01" y="38.4">g dis</tspan><tspan class="cls-22" x="83.44" y="38.4">k</tspan><tspan class="cls-15" x="91.31" y="38.4">ussion om </tspan><tspan class="cls-26" x="0" y="57.6">n</tspan><tspan class="cls-17" x="9.01" y="57.6">y</tspan><tspan class="cls-15" x="16.08" y="57.6">, </tspan><tspan class="cls-13" x="23.6" y="57.6">s</tspan><tspan class="cls-1" x="31.86" y="57.6">å</tspan><tspan class="cls-19" x="40.19" y="57.6">v</tspan><tspan class="cls-15" x="47.65" y="57.6">æl </tspan><tspan class="cls-24" x="69.36" y="57.6">s</tspan><tspan class="cls-14" x="77.47" y="57.6">om gammel, </tspan><tspan class="cls-15" x="0" y="76.8">dansk d</tspan><tspan class="cls-21" x="56.51" y="76.8">r</tspan><tspan class="cls-15" x="62.05" y="76.8">am</tspan><tspan class="cls-9" x="84.57" y="76.8">a</tspan><tspan class="cls-14" x="93.02" y="76.8">ti</tspan><tspan class="cls-23" x="102.27" y="76.8">k</tspan><tspan class="cls-15" x="110.59" y="76.8">.</tspan></text><text class="cls-5" transform="translate(15.93 736.93)"><tspan x="0" y="0">“</tspan></text><g><path class="cls-11" d="M59.84,78.21c-.15,.01-.4,.03-.7,.04,0,0-1.31,.03-2.61-.21-4.98-.93-7.69-4.71-7.69-4.71-1.39-1.94-1.88-3.94-2.06-5.25,.3-.16,.8-.42,1.43-.72,2.58-1.23,3.83-1.92,4.38-2.08,.95-.27,2.87-.47,5.98,1.63,6.54-3.28,7.8-4.33,7.67-4.66-.12-.31-1.51-.09-2.92,.14-2.22,.36-3.43,.8-4.2,1-1.76,.44-5.44-.75-7.6-2.81-5.24-5.02-2.55-15.95-1.52-16.02,.13,0,.57,1.14,1.45,3.45,1.07,2.81,1.81,4.97,2.08,5.75,1.01,2.96,.97,3,1.14,3.39,.86,1.99,3.5,4.23,11.58,5.11"/><path class="cls-11" d="M48.97,46.76c-.92-1.44-2.59-2.15-4.15-1.8-1.45,.33-2.52,1.5-2.82,2.76-.44,1.83,.63,3.96,2.73,5.05-.21,.21-.52,.54-.85,.95-.61,.77-2.04,2.62-2.35,5.34-.11,.94-.34,3.22,1.03,5.53,1.39,2.34,3.55,3.22,4.23,3.47"/><path class="cls-11" d="M59.84,78.21c.64,.03,1.54,.02,2.6-.18,2.88-.54,4.77-2.05,5.51-2.63,4.23-3.38,5.11-8.94,5.26-9.95"/><path class="cls-11" d="M65.12,62.09c.73,.15,1.89,.48,3.14,1.24,2.04,1.24,2.6,2.59,3.87,2.51,.96-.07,.95-.86,2.4-1.57,2.01-.98,3,.08,4.25-.78,1.73-1.19,2.3-4.88,.77-6.11-.24-.19-.88-.61-2.21-.39"/><path class="cls-11" d="M64.43,62.09c1.02,.17,2.59,.31,4.46-.02,1.24-.22,7.54-1.27,9.28-6.35,1.19-3.45-.45-6.66-.9-7.46-.12-.21-2.58-4.48-7.22-4.91-.83-.08-2.9-.24-4.88,1.08-1.3,.87-2,2-2.33,2.64"/><path class="cls-11" d="M53.06,52.22c.6-.95,2.09-3,4.8-4.23,1.19-.54,3.2-1.45,5.57-.78,2.43,.68,2.04,4.06,5.03,5.64,.77,.41,1.47,.58,1.9,.65"/><path class="cls-11" d="M63.65,46.02c-.06-.24-1.16-4.01-4.55-4.95-2.52-.7-4.7,.61-5.49,1.1-1.85,1.12-2.81,2.68-3.21,3.45"/><path class="cls-11" d="M66.26,62.22c.23-.59,1.96-5.22-.6-9.48-1.35-2.25-3.28-3.36-4.24-3.83-.86,.41-2.64,1.41-4.03,3.47-1.74,2.56-1.82,5.17-1.8,6.11"/><path class="cls-11" d="M59.03,50.47c-.72,1.94-.5,3.13-.12,3.87,1.2,2.34,4.69,1.68,6.49,4.19,.96,1.34,1.01,3,.87,4.29"/><path class="cls-11" d="M58.91,54.35c.16,.06,2.25,.78,3.98-.57,1.21-.94,1.47-2.3,1.53-2.64"/><path class="cls-11" d="M66.65,54.95c.21-.22,1.63-1.62,3.71-1.44,1.47,.13,3.34,1.07,3.83,3,.44,1.75-.41,3.68-2.12,4.63"/><path class="cls-11" d="M58.59,66.88c-.07,.79-.07,2.02,.7,2.78,1.3,1.29,3.52-.08,5.37,.92,.95,.51,2.09,1.8,2.41,5.47"/></g><text class="cls-8" transform="translate(27.99 71.86) rotate(-90) scale(.99 1)"><tspan x="0" y="0">V</tspan><tspan x="9.54" y="0">I</tspan></text><text class="cls-8" transform="translate(27.76 58.67) rotate(-84.29) scale(.99 1)"><tspan x="0" y="0">L</tspan></text><text class="cls-8" transform="translate(28.17 51.37) rotate(-68.65) scale(.99 1)"><tspan x="0" y="0">D</tspan></text><text class="cls-8" transform="translate(32.08 41.64) rotate(-52.82) scale(.99 1)"><tspan x="0" y="0">S</tspan></text><text class="cls-8" transform="translate(36.64 35.42) rotate(-38.72) scale(.99 1)"><tspan x="0" y="0">K</tspan></text><text class="cls-8" transform="translate(43.07 29.97) rotate(-22.49) scale(.99 1)"><tspan x="0" y="0">U</tspan></text><text class="cls-8" transform="translate(52.4 25.95) rotate(-4.47) scale(.99 1)"><tspan x="0" y="0">D</tspan></text><text class="cls-8" transform="translate(63.04 25.45) rotate(7.46) scale(.99 1)"><tspan x="0" y="0"> </tspan></text><text class="cls-8" transform="translate(66.18 25.63) rotate(17.04) scale(.99 1)"><tspan x="0" y="0">F</tspan></text><text class="cls-8" transform="translate(73.5 27.79) rotate(30.51) scale(.99 1)"><tspan x="0" y="0">E</tspan></text><text class="cls-8" transform="translate(80.15 31.62) rotate(43.89) scale(.99 1)"><tspan x="0" y="0">S</tspan></text><text class="cls-8" transform="translate(85.76 36.92) rotate(57.38) scale(.99 1)"><tspan x="0" y="0">T</tspan></text><text class="cls-8" transform="translate(89.9 43.65) rotate(67.47) scale(.99 1)"><tspan x="0" y="0">I</tspan></text><text class="cls-8" transform="translate(91.54 46.81) rotate(78.43) scale(.99 1)"><tspan x="0" y="0">V</tspan></text><text class="cls-8" transform="translate(93.14 54.56) rotate(90) scale(.99 1)"><tspan x="0" y="0">A</tspan><tspan x="10.46" y="0">L</tspan></text></g></svg>