<?xml version="1.0" encoding="UTF-8"?><svg xmlns="http://www.w3.org/2000/svg" viewBox="0 0 315.98 446.91"><defs><style>.cls-1{stroke-width:6px;}.cls-1,.cls-2{stroke:#fff;}.cls-1,.cls-2,.cls-3{fill:none;stroke-miterlimit:10;}.cls-4,.cls-5{fill:#fff;}.cls-6{fill:#dce573;}.cls-7{fill:#171717;}.cls-8{fill:#dde573;font-family:NeueHaasUnicaW1G-Medium, 'Neue Haas Unica W1G';font-size:38.22px;letter-spacing:0em;}.cls-3{stroke:#dde571;stroke-width:9px;}.cls-5{font-family:MyriadPro-Regular, 'Myriad Pro';font-size:9.08px;}</style></defs><g id="Layer_1"><rect class="cls-7" width="315.98" height="446.88"/></g><g id="Layer_3"><path class="cls-3" d="M315.98,48.96c-1.78-.26-4.47-.45-7.54,.27-11.94,2.79-17.48,16.4-23.49,27.54-11.48,21.28-18.52,22.09-26.1,35.45-17.76,31.32,10.05,46.02,6.84,113.97-.41,8.7-3.03,54.25,11.14,80.58,.2,.37,1.11,2.05,1.17,2.16,10.69,19.71,23.33,29.47,23.55,45.14,.14,9.92,.33,16.05,5.55,20,2.9,2.19,6.39,2.51,8.89,2.43"/><g><path class="cls-4" d="M53.04,196.43l-6.68,3.37c-2.26,1.14-4.57,2.25-6.85,3.3v.04c2.41-.07,4.82-.09,7.22-.06l6.24,.06-.02,2.59-15.87-.15,.04-3.86,6.68-3.35c2.26-1.14,4.57-2.25,6.85-3.3v-.04c-2.41,.04-4.82,.06-7.22,.04l-6.24-.06,.02-2.56,15.87,.15-.04,3.83Z"/><path class="cls-4" d="M54.7,185.21c2.41,1.9,2.86,3.35,2.06,5.86-.15,.47-.35,.87-.54,1.16l-1.98-.63c.17-.25,.35-.59,.47-.97,.42-1.32,.12-2.05-1.21-3.03l-12.14,.47,.83-2.59,8.89-.13v-.04s-7.13-5.35-7.13-5.35l.8-2.51,9.93,7.76Z"/><path class="cls-4" d="M64.79,173.06l-.93-1.26-.04,.03c.15,1.33-.47,2.62-1.62,3.47-2.31,1.71-5.18,.94-7.32-1.96-2.15-2.9-2.07-5.87,.25-7.58,1.13-.83,2.54-1.07,3.72-.56l.04-.03-3.58-4.84,2.04-1.51,9.43,12.77-1.99,1.47Zm-7.77-1.3c1.43,1.94,3.24,2.54,4.62,1.52,1.33-.98,1.3-2.85-.15-4.82-1.47-1.99-3.24-2.54-4.56-1.56-1.38,1.02-1.33,2.92,.1,4.86Z"/><path class="cls-4" d="M73.84,159.81l1.97,3.75c.62,1.18,1.16,1.96,1.65,2.51l-2.03,1.07c-.33-.38-.63-.85-.88-1.33l-.04,.02c-.17,1.45-1,2.59-2.52,3.4-2.09,1.1-4.06,.52-4.96-1.19-.86-1.64-.46-3.21,2.18-5.18,.74-.56,1.86-1.31,2.55-1.72l-.21-.39c-.78-1.48-1.9-1.65-3.04-1.04-1.24,.65-1.55,1.7-1.05,2.8l-2.21,1.16c-.9-1.95-.31-4.17,2.4-5.6,2.64-1.39,4.81-.87,6.19,1.75Zm-1.31,2.78c-.65,.39-1.56,1-2.17,1.47-1.32,1-1.62,1.71-1.14,2.62,.47,.89,1.41,1.15,2.56,.54,.69-.36,1.25-.93,1.46-1.63,.24-.83,.12-1.45-.44-2.51l-.26-.49Z"/><path class="cls-4" d="M86.03,154.27l2.98,6.26-2.29,1.09-2.89-6.06c-.87-1.83-2-2.18-3.29-1.57-1.31,.62-1.86,2.1-.93,4.05l2.71,5.68-2.29,1.09-4.88-10.22,2.17-1.04,.63,1.33,.04-.02c.2-1.23,.96-2.39,2.31-3.03,2.31-1.1,4.4-.37,5.73,2.43Z"/><path class="cls-4" d="M96.6,148.7l-2.25,.97c-.54-1.25-1.53-1.52-2.78-.98-1.08,.47-1.52,1.21-1.19,1.97,.39,.9,1.19,.77,3,.48,2.12-.33,4.34-.76,5.41,1.72,.81,1.88-.31,3.9-2.99,5.06-2.78,1.2-5.02,.69-6.11-1.78l2.37-1.03c.55,1.27,1.64,1.65,3.03,1.05,1.19-.51,1.66-1.33,1.32-2.1-.46-1.06-1.37-.92-3.36-.59-1.93,.32-3.91,.72-4.92-1.61-.8-1.84,.29-3.82,2.73-4.87,2.64-1.14,4.73-.59,5.75,1.72Z"/><path class="cls-4" d="M108.88,152.25l-6.1-3.52-.04,.02,1.98,5.11-2.37,.92-5.74-14.8,2.37-.92,3.32,8.56,.04-.02,2.17-5.81,2.76-1.07-2.5,6.51,7.09,3.85-2.99,1.16Z"/><path class="cls-4" d="M125.33,146.04l-.58-1.45-.04,.02c-.19,1.32-1.12,2.42-2.45,2.95-2.67,1.07-5.25-.4-6.59-3.75s-.51-6.21,2.16-7.27c1.3-.52,2.72-.39,3.74,.4l.04-.02-2.23-5.59,2.36-.94,5.89,14.74-2.3,.92Zm-7.19-3.22c.89,2.24,2.49,3.28,4.08,2.64,1.53-.61,1.98-2.43,1.07-4.7-.92-2.3-2.49-3.28-4.02-2.67-1.59,.64-2.03,2.49-1.14,4.73Z"/><path class="cls-4" d="M132.11,130.05l1.05,1.99c-.31,.09-.57,.2-.83,.34-1.79,.95-2.17,2.61-1.07,4.7l2.59,4.91-2.25,1.19-5.29-10.01,2.09-1.1,.78,1.48,.04-.02c.1-1.44,.76-2.47,2-3.13,.26-.14,.59-.26,.88-.34Z"/><path class="cls-4" d="M143.07,128.08l2.24,3.59c.71,1.13,1.3,1.87,1.83,2.38l-1.95,1.22c-.35-.36-.69-.81-.97-1.26l-.04,.02c-.06,1.46-.81,2.66-2.26,3.57-2,1.25-4.01,.82-5.04-.82-.98-1.57-.69-3.17,1.8-5.33,.69-.62,1.76-1.44,2.41-1.9l-.24-.38c-.89-1.42-2.02-1.5-3.11-.82-1.19,.74-1.42,1.81-.84,2.86l-2.12,1.32c-1.04-1.87-.61-4.14,1.98-5.76,2.53-1.58,4.73-1.22,6.3,1.29Zm-1.1,2.87c-.62,.44-1.49,1.11-2.06,1.63-1.24,1.09-1.49,1.82-.95,2.69,.53,.85,1.49,1.04,2.59,.35,.66-.41,1.17-1.02,1.34-1.73,.18-.85,.01-1.45-.63-2.47l-.3-.47Z"/><path class="cls-4" d="M159.02,115.88l4.5,5.33-1.94,1.64-4.35-5.14c-1.29-1.53-2.41-1.64-3.38-.82-1.14,.96-1,2.51,.39,4.16l3.94,4.67-1.94,1.64-4.52-5.35c-1.04-1.23-2.19-1.48-3.19-.63-1.16,.98-.99,2.53,.42,4.2l3.91,4.63-1.94,1.64-7.31-8.65,1.86-1.57,.88,1.04,.03-.03c-.09-1.35,.33-2.41,1.35-3.27,1.19-1.01,2.57-1.24,3.88-.59-.2-1.52,.14-2.8,1.45-3.91,1.84-1.55,3.97-1.31,5.94,1.02Z"/><path class="cls-4" d="M166.61,105.47l3.38,2.55c1.07,.8,1.88,1.28,2.56,1.57l-1.38,1.83c-.46-.21-.93-.51-1.36-.83l-.03,.04c.47,1.38,.2,2.77-.83,4.14-1.42,1.89-3.45,2.2-5,1.04-1.48-1.11-1.78-2.71-.23-5.62,.43-.82,1.12-1.97,1.57-2.64l-.36-.27c-1.34-1.01-2.42-.68-3.2,.35-.84,1.12-.68,2.2,.24,2.97l-1.5,1.99c-1.64-1.38-2.06-3.64-.22-6.08,1.8-2.39,3.98-2.84,6.35-1.05Zm0,3.07c-.42,.63-.99,1.57-1.34,2.26-.77,1.46-.74,2.24,.08,2.85,.8,.6,1.76,.44,2.54-.6,.47-.62,.73-1.38,.63-2.09-.14-.86-.51-1.36-1.47-2.09l-.44-.34Z"/><path class="cls-4" d="M175.45,100.46l1.73,.98c-.09,.38-.3,.93-.53,1.34-1.17,2.08-2.56,2.5-4.71,1.28l-5.26-2.97-.93,1.65-1.69-.95,.93-1.65-2.46-1.39,1.25-2.21,2.46,1.39,1.08-1.92,1.69,.95-1.08,1.92,4.93,2.78c1.11,.62,1.76,.51,2.31-.46,.14-.25,.26-.55,.29-.73Z"/><path class="cls-4" d="M166.38,93l-2.22-1,1.04-2.32,2.22,1-1.04,2.32Zm12.26,5.51l-10.32-4.64,1.04-2.32,10.32,4.64-1.04,2.32Z"/><path class="cls-4" d="M183.57,85.35l-6.56,2.54v.04s5.21,1.66,5.21,1.66l-.77,2.42-15.12-4.81,.77-2.42,8.75,2.78v-.04s-3.15-5.34-3.15-5.34l.9-2.82,3.51,6.03,7.44-3.1-.97,3.06Z"/></g><path class="cls-3" d="M0,237.42c2.23-.03,5.47-.34,9.08-1.7,6.1-2.3,6.45-5.67,10.98-7.79,8.02-3.74,14.1,2.93,19.6-.35,2.57-1.53,5.29-5.41,5.01-16.15"/><path class="cls-3" d="M181.71,75.92c1.22-3.38,2.71-8.64,2.81-15.14,.19-13.25-5.54-23.74-8.12-28.35-5.3-9.45-9.35-11.37-12.11-20.67-1.43-4.83-1.73-9.02-1.77-11.76"/><g><path class="cls-4" d="M106.38,264.3c.47,2.72-.37,4.43-2.36,4.77-2,.34-3.35-.99-3.82-3.71-.47-2.72,.37-4.42,2.37-4.77,1.99-.34,3.34,.99,3.81,3.71Zm-4.7,.8c.34,1.96,1.09,2.95,2.13,2.77,1.04-.18,1.42-1.36,1.08-3.32-.33-1.95-1.08-2.92-2.12-2.75-1.05,.18-1.43,1.35-1.1,3.3Z"/><path class="cls-4" d="M112.78,265.75l.21,1.97-1.43,.15-.21-1.97-3.9,.41-.13-1.24,2.89-5.34,1.92-.2,.53,5.06,1.25-.13,.12,1.15-1.25,.13Zm-1.52-1.01l-.11-1.06c-.1-.96-.18-1.92-.24-2.89h-.02c-.46,.97-.97,1.92-1.48,2.88l-.73,1.33,2.59-.27Z"/><path class="cls-4" d="M119.67,265l-.79,2.36h-1.54s3.1-8.7,3.1-8.7h1.97s3.23,8.65,3.23,8.65h-1.54s-.82-2.34-.82-2.34l-3.6,.03Zm2.92-1.98c-.4-1.16-.79-2.29-1.15-3.45h-.02c-.35,1.16-.69,2.3-1.08,3.46l-.23,.69,2.72-.02-.24-.68Z"/><path class="cls-4" d="M133.05,264.54c-.16,2.25-1.42,3.38-3.56,3.23-2.14-.15-3.25-1.44-3.1-3.69l.37-5.39,1.46,.1-.37,5.35c-.1,1.46,.53,2.25,1.72,2.33,1.19,.08,1.93-.61,2.03-2.07l.37-5.35,1.45,.1-.37,5.39Z"/><path class="cls-4" d="M142.63,263.12l-1.54-.23c-.02-1-.63-1.65-1.73-1.81-1.53-.23-2.67,.85-2.97,2.85-.3,2.02,.44,3.39,1.94,3.61,1.32,.2,2.29-.43,2.55-2.1l-2.2-.33,.18-1.21,3.55,.53-.7,4.65-1.24-.19,.16-1.06h-.02c-.57,.68-1.6,1-2.78,.82-2.2-.33-3.35-2.21-2.93-4.96,.42-2.8,2.2-4.29,4.66-3.92,2.04,.31,3.17,1.6,3.08,3.34Z"/><path class="cls-6" d="M145.51,270.97l5.92-9.05,1.12,.27-5.92,9.05-1.12-.27Z"/><path class="cls-6" d="M149.1,271.81l6.2-8.85,1.11,.3-6.2,8.85-1.11-.3Z"/><path class="cls-4" d="M160.25,274.11l1.99-5.43-1.8-.66,.36-.99c1.26,.46,1.95,.28,2.43-.59l1.2,.44-2.83,7.72-1.35-.5Z"/><path class="cls-4" d="M172.25,272.52l-1.34-.59c.21-.74-.02-1.28-.66-1.56-.94-.41-1.94,.05-2.78,1.82h.02c.68-.36,1.42-.4,2.17-.07,1.45,.64,1.98,2.07,1.33,3.54-.69,1.56-2.26,2.13-3.86,1.42-1.78-.78-2.24-2.46-1.16-4.9,1.2-2.71,2.94-3.71,4.81-2.88,1.42,.63,1.95,1.84,1.46,3.23Zm-5.28,1.42c-.39,.88-.15,1.67,.67,2.03,.8,.35,1.58,.02,1.98-.89,.39-.88,.13-1.69-.66-2.04-.8-.35-1.6,.02-1.98,.9Z"/><path class="cls-4" d="M170.98,278.65l.78-1.55,1.44,.72-.78,1.55-1.44-.72Zm2-4l.78-1.55,1.44,.72-.78,1.55-1.44-.72Z"/><path class="cls-4" d="M181.57,277.4c-.47,.83-1.14,1.11-2.17,.94v.02c.74,.83,.87,1.62,.35,2.54-.7,1.24-2.18,1.49-3.72,.62-1.68-.95-2.14-2.35-1.27-3.9l1.28,.72c-.5,.89-.31,1.62,.58,2.12,.77,.43,1.52,.29,1.88-.34,.42-.74,.1-1.43-.94-2.02l-.25-.14,.58-1.03,.26,.14c.91,.52,1.72,.4,2.1-.27,.35-.63,.1-1.33-.64-1.75-.78-.44-1.47-.27-1.97,.6l-1.27-.71c.83-1.48,2.28-1.81,3.87-.92,1.51,.85,2,2.17,1.32,3.37Z"/><path class="cls-4" d="M187.02,283.33c-1.52,2.3-3.29,2.97-4.97,1.86-1.69-1.12-1.77-3.01-.25-5.31,1.52-2.3,3.29-2.97,4.98-1.85,1.68,1.11,1.76,3,.24,5.31Zm-3.97-2.62c-1.1,1.66-1.22,2.89-.34,3.48,.88,.58,1.96-.02,3.06-1.68,1.09-1.65,1.21-2.87,.34-3.45-.89-.59-1.96,0-3.05,1.65Z"/><path class="cls-4" d="M187.14,284.83l.69-.92,2.45,1.82-.69,.92-2.45-1.82Z"/><path class="cls-4" d="M190.46,291.21l3.8-4.37-1.45-1.26,.69-.79c1.01,.88,1.72,.96,2.48,.31l.97,.84-5.4,6.21-1.09-.95Z"/><path class="cls-4" d="M202.85,293.57c-2.12,.34-4.62,1.29-6.95,2.85l-1.1-1.14c2.73-1.69,5.31-2.52,7.08-2.76l-3.13-3.23,.89-.86,4.12,4.26-.9,.88Z"/><path class="cls-4" d="M198.75,299.43l1.27-1.18,1.09,1.18-1.27,1.18-1.09-1.18Zm3.28-3.03l1.27-1.18,1.09,1.18-1.27,1.18-1.09-1.18Z"/><path class="cls-4" d="M209.13,301.74c-.71,.64-1.44,.69-2.35,.2l-.02,.02c.45,1.03,.32,1.81-.47,2.53-1.06,.96-2.54,.72-3.72-.59-1.29-1.43-1.28-2.91,.04-4.1l.98,1.09c-.76,.69-.81,1.44-.12,2.2,.59,.65,1.34,.76,1.89,.27,.63-.57,.55-1.32-.25-2.21l-.2-.22,.88-.79,.2,.22c.7,.78,1.51,.92,2.08,.41,.53-.48,.52-1.23-.05-1.86-.6-.66-1.31-.72-2.05-.05l-.97-1.08c1.26-1.14,2.74-.99,3.96,.36,1.16,1.29,1.21,2.69,.19,3.61Z"/><path class="cls-4" d="M212.67,308.72c-2.06,1.84-3.95,2.03-5.29,.53-1.35-1.51-.94-3.37,1.12-5.2,2.06-1.84,3.95-2.03,5.3-.52,1.34,1.5,.93,3.36-1.12,5.19Zm-3.17-3.55c-1.48,1.33-1.92,2.49-1.21,3.28,.7,.78,1.9,.48,3.39-.85,1.48-1.32,1.9-2.47,1.21-3.25-.71-.79-1.9-.5-3.38,.82Z"/><path class="cls-6" d="M211.27,314.97l10.04-4.03,.76,.86-10.04,4.03-.76-.86Z"/><path class="cls-6" d="M213.77,317.78l10.07-3.95,.75,.86-10.07,3.95-.75-.87Z"/><path class="cls-4" d="M227.42,327.27c-1.76,1.41-3.45,1.25-4.79-.43-1.35-1.68-1.15-3.37,.61-4.78l4.22-3.39,.92,1.14-4.18,3.36c-1.14,.92-1.3,1.92-.55,2.85,.75,.93,1.76,1,2.9,.08l4.18-3.36,.91,1.13-4.22,3.39Z"/><path class="cls-4" d="M229.75,336.53l-1.03-1.58,1.67-5.1v-.02s-3.52,2.29-3.52,2.29l-.8-1.23,7.28-4.75,.8,1.23-3.24,2.11v.02s4.99,.54,4.99,.54l.96,1.47-5.41-.71-1.7,5.73Z"/><path class="cls-4" d="M229.93,337.25l7.82-3.8,.64,1.32-7.82,3.8-.64-1.32Z"/><path class="cls-4" d="M240.66,340.22c.74,2.01,.24,3.22-1.18,3.74-1.02,.38-2,.08-2.58-.77h-.02c.02,.66-.23,1.06-1.11,1.8l-1.99,1.69-.55-1.5,1.8-1.44c.8-.66,.98-1.13,.67-1.96l-.44-1.18-3.28,1.21-.51-1.38,8.16-3.01,1.04,2.81Zm-4.29-.05l.5,1.36c.42,1.13,1.14,1.4,1.95,1.09,.87-.32,1.04-1.06,.64-2.14l-.47-1.28-2.62,.97Z"/><path class="cls-4" d="M235.54,354.35l-.42-1.84,3.34-4.2v-.02s-4.09,.93-4.09,.93l-.33-1.43,8.47-1.93,.33,1.43-3.77,.86v.02s4.48,2.23,4.48,2.23l.39,1.71-4.82-2.54-3.58,4.79Z"/><path class="cls-4" d="M243.13,355.71l-2.34,.26,.45,4.05-1.25,.14-.45-4.05-2.52,.28,.49,4.44-1.26,.14-.65-5.9,8.64-.96,.64,5.77-1.26,.14-.48-4.32Z"/></g><path class="cls-3" d="M240.43,367.51c.17,4.18-.13,10.85-3.23,18.07-.68,1.59-3.09,6.58-11.42,15.5-7.23,7.74-14.25,12.96-20.15,17.3-11.21,8.25-15.88,9.99-19.12,16.67-2.2,4.54-2.57,8.93-2.56,11.83"/><path class="cls-3" d="M93.25,267.49c-4.31,1.37-7.68,3.03-10.06,4.37-4.02,2.28-6.91,4.66-9.05,6.36-7.46,5.92-7.46,7.58-10.71,9.6-10.39,6.43-24.83,.96-27.23,0-3.97-1.59-12.88-5.96-19.86-12.94-1.51-1.51-5.03-5.24-10.71-6.69-2.31-.59-4.31-.64-5.63-.59"/><path class="cls-1" d="M83.7,0c4.66,34.45-2.72,50.44-10.86,58.63-4.01,4.03-9.48,7.46-13.13,15.66-5.82,13.07,.28,21.9-2.63,30.33-2.84,8.23-14.74,17.4-57.08,19.17"/><path class="cls-1" d="M201.18,0c-.31,9.3,.08,23.59,4.25,40.31,3.39,13.59,11.55,46.24,39.96,66.27,6.88,4.85,26.56,18.73,39.96,12.34,4.34-2.07,9.02-6.74,18.85-9.26,4.81-1.23,8.97-1.47,11.78-1.46"/><path class="cls-1" d="M315.98,326c-2.08,.02-5.26,.27-8.75,1.62-11.42,4.38-16.24,16.49-21.63,30.59-6.72,17.59-10.08,26.38-8.83,37.1,1.72,14.74,9.64,22.41,10.86,45.1,.15,2.73,.16,4.99,.15,6.49"/><g><path class="cls-4" d="M30.18,380.66c0,1.93-1.06,3.15-2.75,3.15s-2.75-1.22-2.75-3.15,1.06-3.14,2.75-3.14,2.75,1.22,2.75,3.14Zm-4.67,0c0,1.49,.74,2.43,1.93,2.43s1.93-.94,1.93-2.43-.75-2.43-1.93-2.43-1.93,.94-1.93,2.43Z"/><path class="cls-4" d="M35.15,381.52c0,1.38-.71,2.27-1.8,2.27-.58,0-1.08-.28-1.32-.71h-.02v2.18h-.75v-5.89h.74v.62h.02c.23-.45,.74-.73,1.32-.73,1.1,0,1.81,.88,1.81,2.26Zm-3.17,0c0,1.03,.46,1.67,1.17,1.67s1.22-.65,1.22-1.67-.48-1.66-1.22-1.66-1.17,.64-1.17,1.66Z"/><path class="cls-4" d="M36.22,383.69v-6.05h.75v6.05h-.75Z"/><path class="cls-4" d="M43.86,382.4h.76c-.14,.76-.76,1.41-1.84,1.41-.72,0-1.26-.34-1.57-.92-.31,.59-.93,.92-1.7,.92-.94,0-1.54-.54-1.54-1.3,0-.82,.5-1.37,1.99-1.37h.94v-.3c0-.7-.38-1.01-.99-1.01s-.97,.35-1,.86h-.75c.05-.82,.65-1.44,1.75-1.44,.67,0,1.16,.22,1.43,.7,.31-.43,.8-.7,1.43-.7,.93,0,1.61,.59,1.82,1.51,.06,.25,.09,.56,.09,.94h-3.09c.04,1.05,.56,1.52,1.22,1.52,.59,0,.97-.35,1.07-.83Zm-3.81-.69c-.99,0-1.31,.28-1.31,.77,0,.45,.33,.75,.9,.75,.36,0,.69-.12,.9-.35,.26-.27,.36-.52,.36-1.04v-.14h-.85Zm1.53-.57h2.35c-.05-.86-.53-1.31-1.16-1.31s-1.11,.47-1.18,1.31Z"/><path class="cls-4" d="M48.83,380.72h-.73c0-.58-.36-.89-.96-.89-.52,0-.84,.24-.84,.61,0,.45,.31,.53,1.04,.7,.79,.2,1.63,.37,1.63,1.38,0,.77-.66,1.29-1.71,1.29-1.13,0-1.8-.54-1.81-1.56h.76c0,.62,.39,.96,1.06,.96,.56,0,.93-.25,.93-.65,0-.5-.36-.59-1.19-.8-.72-.18-1.46-.32-1.46-1.27,0-.74,.65-1.25,1.6-1.25,1.05,0,1.68,.52,1.68,1.47Z"/><path class="cls-4" d="M53.65,381.05v2.63h-.75v-2.58c0-.9-.37-1.22-.99-1.22s-1.12,.46-1.12,1.33v2.47h-.75v-4.32h.72v.57h.02c.26-.4,.73-.66,1.31-.66,.99,0,1.56,.6,1.56,1.78Z"/><path class="cls-4" d="M54.99,378.48v-.84h.75v.84h-.75Zm0,5.21v-4.32h.75v4.32h-.75Z"/><path class="cls-4" d="M60.73,381.05v2.63h-.75v-2.58c0-.9-.37-1.22-.99-1.22s-1.12,.46-1.12,1.33v2.47h-.75v-4.32h.72v.57h.02c.26-.4,.73-.66,1.31-.66,.99,0,1.56,.6,1.56,1.78Z"/><path class="cls-4" d="M64.87,380h.02v-.63h.72v4.05c0,1.27-.68,1.9-1.89,1.9-1.1,0-1.76-.52-1.78-1.37h.75c.03,.5,.42,.79,1.05,.79,.77,0,1.15-.4,1.15-1.36v-.47h-.02c-.31,.48-.74,.72-1.28,.72-1.11,0-1.83-.87-1.83-2.19s.71-2.19,1.83-2.19c.55,0,.99,.25,1.29,.74Zm-2.34,1.45c0,.94,.46,1.56,1.16,1.56,.75,0,1.21-.6,1.21-1.56s-.46-1.57-1.21-1.57c-.71,0-1.16,.62-1.16,1.57Z"/><path class="cls-4" d="M72.24,380.93v1.66c0,.48,.04,.84,.1,1.1h-.68c-.04-.2-.06-.43-.06-.63h-.02c-.3,.46-.8,.72-1.5,.72-.9,0-1.46-.54-1.46-1.27s.4-1.16,1.64-1.36c.38-.06,.91-.12,1.25-.14v-.17c0-.71-.4-1.01-.98-1.01-.63,0-.96,.35-.99,.86h-.75c.04-.82,.64-1.44,1.73-1.44s1.7,.54,1.7,1.67Zm-.72,.65c-.33,.03-.8,.08-1.13,.14-.74,.11-.99,.32-.99,.75s.32,.74,.88,.74c.35,0,.68-.12,.89-.34,.26-.27,.35-.51,.35-1.02v-.26Z"/><path class="cls-4" d="M74.43,378.92v.45h.86v.59h-.86v3.72h-.74v-3.72h-.76v-.59h.76v-.54c0-.83,.42-1.24,1.18-1.24,.15,0,.33,.02,.43,.04v.58c-.05-.02-.15-.03-.25-.03-.42,0-.63,.2-.63,.73Z"/><path class="cls-4" d="M81.76,381.05v2.63h-.75v-2.58c0-.9-.37-1.22-.99-1.22s-1.12,.46-1.12,1.33v2.47h-.75v-4.32h.72v.57h.02c.26-.4,.73-.66,1.31-.66,.99,0,1.56,.6,1.56,1.78Z"/><path class="cls-4" d="M84.6,383.88c-.42,1.1-.85,1.41-1.78,1.41-.14,0-.28,0-.39-.04v-.63c.1,.03,.22,.05,.36,.05,.57,0,.79-.2,1.07-.97l-1.64-4.33h.81l1.24,3.43h.02l1.26-3.43h.79l-1.73,4.51Z"/><path class="cls-4" d="M91.85,383.69v-.63h-.02c-.24,.45-.74,.73-1.33,.73-1.1,0-1.81-.89-1.81-2.27s.71-2.26,1.8-2.26c.58,0,1.08,.27,1.32,.71h.02v-2.33h.75v6.05h-.73Zm-2.37-2.17c0,1.01,.48,1.67,1.22,1.67s1.18-.64,1.18-1.67-.47-1.66-1.18-1.66-1.22,.65-1.22,1.66Z"/><path class="cls-4" d="M97.2,380.93v1.66c0,.48,.04,.84,.1,1.1h-.68c-.04-.2-.06-.43-.06-.63h-.02c-.3,.46-.8,.72-1.5,.72-.9,0-1.46-.54-1.46-1.27s.4-1.16,1.64-1.36c.38-.06,.91-.12,1.25-.14v-.17c0-.71-.4-1.01-.98-1.01-.63,0-.96,.35-.99,.86h-.75c.04-.82,.64-1.44,1.73-1.44s1.7,.54,1.7,1.67Zm-.72,.65c-.33,.03-.8,.08-1.13,.14-.74,.11-.99,.32-.99,.75s.32,.74,.88,.74c.35,0,.68-.12,.89-.34,.26-.27,.35-.51,.35-1.02v-.26Z"/><path class="cls-4" d="M102.15,381.05v2.63h-.75v-2.58c0-.9-.37-1.22-.99-1.22s-1.12,.46-1.12,1.33v2.47h-.75v-4.32h.72v.57h.02c.26-.4,.73-.66,1.31-.66,.99,0,1.56,.6,1.56,1.78Z"/><path class="cls-4" d="M106.54,380.72h-.73c0-.58-.36-.89-.96-.89-.52,0-.84,.24-.84,.61,0,.45,.31,.53,1.04,.7,.79,.2,1.63,.37,1.63,1.38,0,.77-.66,1.29-1.71,1.29-1.13,0-1.8-.54-1.81-1.56h.76c0,.62,.39,.96,1.06,.96,.56,0,.93-.25,.93-.65,0-.5-.36-.59-1.19-.8-.72-.18-1.46-.32-1.46-1.27,0-.74,.65-1.25,1.6-1.25,1.05,0,1.68,.52,1.68,1.47Z"/><path class="cls-4" d="M110.42,383.69l-1.91-2.16h-.02v2.16h-.75v-6.05h.75v3.53h.02l1.74-1.79h.93l-1.94,1.95,2.17,2.36h-.99Z"/><path class="cls-4" d="M27.83,393.88v-.63h-.02c-.24,.45-.74,.73-1.33,.73-1.1,0-1.81-.89-1.81-2.27s.71-2.26,1.8-2.26c.58,0,1.08,.27,1.32,.71h.02v-2.33h.75v6.05h-.73Zm-2.37-2.17c0,1.01,.48,1.67,1.22,1.67s1.18-.64,1.18-1.67-.47-1.66-1.18-1.66-1.22,.65-1.22,1.66Z"/><path class="cls-4" d="M32.26,389.55v.67c-.09,0-.2-.03-.3-.03-.82,0-1.27,.53-1.27,1.48v2.2h-.75v-4.32h.71v.66h.02c.29-.48,.72-.71,1.27-.71,.09,0,.22,0,.31,.03Z"/><path class="cls-4" d="M36.12,391.12v1.66c0,.48,.04,.84,.1,1.1h-.68c-.04-.2-.06-.43-.06-.63h-.02c-.3,.46-.8,.72-1.5,.72-.9,0-1.46-.54-1.46-1.27s.4-1.16,1.64-1.36c.38-.06,.91-.12,1.25-.14v-.17c0-.71-.4-1.01-.98-1.01-.63,0-.96,.35-.99,.86h-.75c.04-.82,.64-1.44,1.73-1.44s1.7,.54,1.7,1.67Zm-.72,.65c-.33,.03-.8,.08-1.13,.14-.74,.11-.99,.32-.99,.75s.32,.74,.88,.74c.35,0,.68-.12,.89-.34,.26-.27,.35-.51,.35-1.02v-.26Z"/><path class="cls-4" d="M43.5,391.21v2.67h-.75v-2.61c0-.87-.33-1.19-.88-1.19-.63,0-1.02,.53-1.02,1.35v2.45h-.75v-2.72c0-.68-.32-1.08-.88-1.08-.64,0-1.03,.54-1.03,1.4v2.4h-.75v-4.32h.72v.54h.02c.31-.42,.71-.63,1.21-.63,.59,0,1.05,.28,1.28,.82,.29-.52,.73-.82,1.37-.82,.92,0,1.45,.58,1.45,1.74Z"/><path class="cls-4" d="M48.07,391.12v1.66c0,.48,.04,.84,.1,1.1h-.68c-.04-.2-.06-.43-.06-.63h-.02c-.3,.46-.8,.72-1.5,.72-.9,0-1.46-.54-1.46-1.27s.4-1.16,1.64-1.36c.38-.06,.91-.12,1.25-.14v-.17c0-.71-.4-1.01-.98-1.01-.63,0-.96,.35-.99,.86h-.75c.04-.82,.64-1.44,1.73-1.44s1.7,.54,1.7,1.67Zm-.72,.65c-.33,.03-.8,.08-1.13,.14-.74,.11-.99,.32-.99,.75s.32,.74,.88,.74c.35,0,.68-.12,.89-.34,.26-.27,.35-.51,.35-1.02v-.26Z"/><path class="cls-4" d="M51.15,393.25v.61c-.13,.03-.32,.05-.48,.05-.82,0-1.17-.35-1.17-1.24v-2.52h-.75v-.59h.75v-1.05h.75v1.05h.86v.59h-.86v2.44c0,.49,.16,.7,.59,.7,.11,0,.23-.02,.31-.04Z"/><path class="cls-4" d="M52.1,388.67v-.84h.75v.84h-.75Zm0,5.21v-4.32h.75v4.32h-.75Z"/><path class="cls-4" d="M56.91,393.88l-1.91-2.16h-.02v2.16h-.75v-6.05h.75v3.53h.02l1.74-1.79h.93l-1.94,1.95,2.17,2.36h-.99Z"/><path class="cls-4" d="M58.48,393.88v-.99h.92v.99h-.92Z"/><path class="cls-4" d="M28.94,399.89h-.79c0-.89-.49-1.32-1.39-1.32-.75,0-1.2,.37-1.2,.94,0,.65,.47,.83,1.46,1.08,1.15,.28,2.06,.57,2.06,1.81,0,1.09-.85,1.79-2.17,1.79-1.41,0-2.26-.73-2.26-2.12h.81c0,.99,.55,1.45,1.46,1.45s1.35-.4,1.35-1.07-.5-.84-1.48-1.09c-1.16-.29-2.03-.58-2.03-1.79,0-.98,.77-1.67,2.01-1.67,1.44,0,2.17,.68,2.17,1.99Z"/><path class="cls-4" d="M33.83,401.44v2.63h-.75v-2.58c0-.9-.37-1.22-.99-1.22s-1.12,.46-1.12,1.33v2.47h-.75v-4.32h.72v.57h.02c.26-.4,.73-.66,1.31-.66,.99,0,1.56,.6,1.56,1.78Z"/><path class="cls-4" d="M38.41,401.31v1.66c0,.48,.04,.84,.1,1.1h-.68c-.04-.2-.06-.43-.06-.63h-.02c-.3,.46-.8,.72-1.5,.72-.9,0-1.46-.54-1.46-1.27s.4-1.16,1.64-1.36c.38-.06,.91-.12,1.25-.14v-.17c0-.71-.4-1.01-.98-1.01-.63,0-.96,.35-.99,.86h-.75c.04-.82,.64-1.44,1.73-1.44s1.7,.54,1.7,1.67Zm-.72,.65c-.33,.03-.8,.08-1.13,.14-.74,.11-.99,.32-.99,.75s.32,.74,.88,.74c.35,0,.68-.12,.89-.34,.26-.27,.35-.51,.35-1.02v-.26Z"/><path class="cls-4" d="M42.42,404.07l-1.91-2.16h-.02v2.16h-.75v-6.05h.75v3.53h.02l1.74-1.79h.93l-1.94,1.95,2.17,2.36h-.99Z"/><path class="cls-4" d="M49.85,401.91c0,1.41-.79,2.28-2.06,2.28s-2.05-.87-2.05-2.28,.78-2.28,2.05-2.28,2.06,.87,2.06,2.28Zm-3.32,0c0,1.03,.48,1.67,1.27,1.67s1.27-.64,1.27-1.67-.48-1.67-1.27-1.67-1.27,.64-1.27,1.67Z"/><path class="cls-4" d="M53.81,400.38h.02v-.63h.72v4.05c0,1.27-.68,1.9-1.89,1.9-1.1,0-1.76-.52-1.78-1.37h.75c.03,.5,.42,.79,1.05,.79,.77,0,1.15-.4,1.15-1.36v-.47h-.02c-.31,.48-.74,.72-1.28,.72-1.11,0-1.83-.87-1.83-2.19s.71-2.19,1.83-2.19c.55,0,.99,.25,1.29,.74Zm-2.34,1.45c0,.94,.46,1.56,1.16,1.56,.75,0,1.21-.6,1.21-1.56s-.46-1.57-1.21-1.57c-.71,0-1.16,.62-1.16,1.57Z"/><path class="cls-4" d="M60.78,404.07v-.63h-.02c-.24,.45-.74,.73-1.33,.73-1.1,0-1.81-.89-1.81-2.27s.71-2.26,1.8-2.26c.58,0,1.08,.27,1.32,.71h.02v-2.33h.75v6.05h-.73Zm-2.37-2.17c0,1.01,.48,1.67,1.22,1.67s1.18-.64,1.18-1.67-.47-1.66-1.18-1.66-1.22,.65-1.22,1.66Z"/><path class="cls-4" d="M62.89,398.86v-.84h.75v.84h-.75Zm0,5.21v-4.32h.75v4.32h-.75Z"/><path class="cls-4" d="M68.07,401.1h-.73c0-.58-.36-.89-.96-.89-.52,0-.84,.24-.84,.61,0,.45,.31,.53,1.04,.7,.79,.2,1.63,.37,1.63,1.38,0,.77-.66,1.29-1.71,1.29-1.13,0-1.8-.54-1.81-1.56h.76c0,.62,.39,.96,1.06,.96,.56,0,.93-.25,.93-.65,0-.5-.36-.59-1.19-.8-.72-.18-1.46-.32-1.46-1.27,0-.74,.65-1.25,1.6-1.25,1.05,0,1.68,.52,1.68,1.47Z"/><path class="cls-4" d="M71.96,404.07l-1.91-2.16h-.02v2.16h-.75v-6.05h.75v3.53h.02l1.74-1.79h.93l-1.94,1.95,2.17,2.36h-.99Z"/><path class="cls-4" d="M73.41,402.39v-2.63h.75v2.58c0,.9,.37,1.22,.99,1.22s1.12-.46,1.12-1.33v-2.47h.75v4.32h-.72v-.57h-.02c-.26,.4-.74,.66-1.32,.66-.99,0-1.56-.59-1.56-1.78Z"/><path class="cls-4" d="M81.46,401.1h-.73c0-.58-.36-.89-.96-.89-.52,0-.84,.24-.84,.61,0,.45,.31,.53,1.04,.7,.79,.2,1.63,.37,1.63,1.38,0,.77-.66,1.29-1.71,1.29-1.13,0-1.8-.54-1.81-1.56h.76c0,.62,.39,.96,1.06,.96,.56,0,.93-.25,.93-.65,0-.5-.36-.59-1.19-.8-.72-.18-1.46-.32-1.46-1.27,0-.74,.65-1.25,1.6-1.25,1.05,0,1.68,.52,1.68,1.47Z"/><path class="cls-4" d="M85.71,401.1h-.73c0-.58-.36-.89-.96-.89-.52,0-.84,.24-.84,.61,0,.45,.31,.53,1.04,.7,.79,.2,1.63,.37,1.63,1.38,0,.77-.66,1.29-1.71,1.29-1.13,0-1.8-.54-1.81-1.56h.76c0,.62,.39,.96,1.06,.96,.56,0,.93-.25,.93-.65,0-.5-.36-.59-1.19-.8-.72-.18-1.46-.32-1.46-1.27,0-.74,.65-1.25,1.6-1.25,1.05,0,1.68,.52,1.68,1.47Z"/><path class="cls-4" d="M86.92,398.86v-.84h.75v.84h-.75Zm0,5.21v-4.32h.75v4.32h-.75Z"/><path class="cls-4" d="M92.84,401.91c0,1.41-.79,2.28-2.06,2.28s-2.05-.87-2.05-2.28,.78-2.28,2.05-2.28,2.06,.87,2.06,2.28Zm-3.32,0c0,1.03,.48,1.67,1.27,1.67s1.27-.64,1.27-1.67-.48-1.67-1.27-1.67-1.27,.64-1.27,1.67Z"/><path class="cls-4" d="M97.52,401.44v2.63h-.75v-2.58c0-.9-.37-1.22-.99-1.22s-1.12,.46-1.12,1.33v2.47h-.75v-4.32h.72v.57h.02c.26-.4,.73-.66,1.31-.66,.99,0,1.56,.6,1.56,1.78Z"/><path class="cls-4" d="M104.66,401.91c0,1.41-.79,2.28-2.06,2.28s-2.05-.87-2.05-2.28,.78-2.28,2.05-2.28,2.06,.87,2.06,2.28Zm-3.32,0c0,1.03,.48,1.67,1.27,1.67s1.27-.64,1.27-1.67-.48-1.67-1.27-1.67-1.27,.64-1.27,1.67Z"/><path class="cls-4" d="M111.78,401.4v2.67h-.75v-2.61c0-.87-.33-1.19-.88-1.19-.63,0-1.02,.53-1.02,1.35v2.45h-.75v-2.72c0-.68-.32-1.08-.88-1.08-.64,0-1.03,.54-1.03,1.4v2.4h-.75v-4.32h.72v.54h.02c.31-.42,.71-.63,1.21-.63,.59,0,1.05,.28,1.28,.82,.29-.52,.73-.82,1.37-.82,.92,0,1.45,.58,1.45,1.74Z"/><path class="cls-4" d="M28.6,411.63v2.63h-.75v-2.58c0-.9-.37-1.22-.99-1.22s-1.12,.46-1.12,1.33v2.47h-.75v-4.32h.72v.57h.02c.26-.4,.73-.66,1.31-.66,.99,0,1.56,.6,1.56,1.78Z"/><path class="cls-4" d="M31.44,414.46c-.42,1.1-.85,1.41-1.78,1.41-.14,0-.28,0-.39-.04v-.63c.1,.03,.22,.05,.36,.05,.57,0,.79-.2,1.07-.97l-1.64-4.33h.81l1.24,3.43h.02l1.26-3.43h.79l-1.73,4.51Z"/><path class="cls-4" d="M33.84,415.49h-.49l.32-1.22h-.31v-.99h.92v.99l-.44,1.22Z"/><path class="cls-4" d="M40.57,411.3h-.73c0-.58-.36-.89-.96-.89-.52,0-.84,.24-.84,.61,0,.45,.31,.53,1.04,.7,.79,.2,1.63,.37,1.63,1.38,0,.77-.66,1.29-1.71,1.29-1.13,0-1.8-.54-1.81-1.56h.76c0,.62,.39,.96,1.06,.96,.56,0,.93-.25,.93-.65,0-.5-.36-.59-1.19-.8-.72-.18-1.46-.32-1.46-1.27,0-.74,.65-1.25,1.6-1.25,1.05,0,1.68,.52,1.68,1.47Z"/><path class="cls-4" d="M45.14,411.5v1.66c0,.48,.04,.84,.1,1.1h-.68c-.04-.2-.06-.43-.06-.63h-.02c-.3,.46-.8,.72-1.5,.72-.9,0-1.46-.54-1.46-1.27s.4-1.16,1.64-1.36c.38-.06,.91-.12,1.25-.14v-.17c0-.71-.4-1.01-.98-1.01-.63,0-.96,.35-.99,.86h-.75c.04-.82,.64-1.44,1.73-1.44s1.7,.54,1.7,1.67Zm-.72,.65c-.33,.03-.8,.08-1.13,.14-.74,.11-.99,.32-.99,.75s.32,.74,.88,.74c.35,0,.68-.12,.89-.34,.26-.27,.35-.51,.35-1.02v-.26Zm-.18-3.55c0,.48-.38,.86-.86,.86s-.85-.38-.85-.86,.38-.85,.85-.85,.86,.38,.86,.85Zm-1.34,0c0,.28,.22,.49,.48,.49,.28,0,.49-.21,.49-.49s-.21-.49-.49-.49c-.26,0-.48,.22-.48,.49Z"/><path class="cls-4" d="M47.17,414.26l-1.56-4.32h.8l.61,1.81c.22,.65,.42,1.27,.63,1.92h.02c.2-.65,.4-1.27,.62-1.92l.62-1.81h.8l-1.56,4.32h-.97Z"/><path class="cls-4" d="M55.79,412.97h.77c-.14,.76-.77,1.41-1.84,1.41-.72,0-1.26-.34-1.57-.92-.31,.59-.93,.92-1.7,.92-.94,0-1.54-.54-1.54-1.3,0-.82,.5-1.37,1.99-1.37h.94v-.3c0-.7-.38-1.01-.99-1.01s-.97,.35-1,.86h-.75c.05-.82,.65-1.44,1.75-1.44,.67,0,1.16,.22,1.43,.7,.31-.43,.8-.7,1.43-.7,.93,0,1.61,.59,1.82,1.51,.06,.25,.09,.56,.09,.94h-3.09c.04,1.05,.56,1.52,1.22,1.52,.59,0,.97-.35,1.07-.83Zm-3.81-.69c-.99,0-1.31,.28-1.31,.77,0,.45,.33,.75,.9,.75,.36,0,.69-.12,.9-.35,.26-.27,.36-.52,.36-1.04v-.14h-.85Zm1.53-.57h2.35c-.05-.86-.53-1.31-1.16-1.31s-1.11,.47-1.18,1.31Z"/><path class="cls-4" d="M57.66,414.26v-6.05h.75v6.05h-.75Z"/><path class="cls-4" d="M64.86,411.3h-.73c0-.58-.36-.89-.96-.89-.52,0-.84,.24-.84,.61,0,.45,.31,.53,1.04,.7,.79,.2,1.63,.37,1.63,1.38,0,.77-.66,1.29-1.71,1.29-1.13,0-1.8-.54-1.81-1.56h.76c0,.62,.39,.96,1.06,.96,.56,0,.93-.25,.93-.65,0-.5-.36-.59-1.19-.8-.72-.18-1.46-.32-1.46-1.27,0-.74,.65-1.25,1.6-1.25,1.05,0,1.68,.52,1.68,1.47Z"/><path class="cls-4" d="M69.9,412.1c0,1.41-.79,2.28-2.06,2.28s-2.05-.87-2.05-2.28,.78-2.28,2.05-2.28,2.06,.87,2.06,2.28Zm-3.32,0c0,1.03,.48,1.67,1.27,1.67s1.27-.64,1.27-1.67-.48-1.67-1.27-1.67-1.27,.64-1.27,1.67Z"/><path class="cls-4" d="M77.02,411.59v2.67h-.75v-2.61c0-.87-.33-1.19-.88-1.19-.63,0-1.02,.53-1.02,1.35v2.45h-.75v-2.72c0-.68-.32-1.08-.88-1.08-.64,0-1.03,.54-1.03,1.4v2.4h-.75v-4.32h.72v.54h.02c.31-.42,.71-.63,1.21-.63,.59,0,1.05,.28,1.28,.82,.29-.52,.73-.82,1.37-.82,.92,0,1.45,.58,1.45,1.74Z"/><path class="cls-4" d="M83.17,410.57h.02v-.63h.72v4.05c0,1.27-.68,1.9-1.89,1.9-1.1,0-1.76-.52-1.78-1.37h.75c.03,.5,.42,.79,1.05,.79,.77,0,1.15-.4,1.15-1.36v-.47h-.02c-.31,.48-.74,.72-1.28,.72-1.11,0-1.83-.87-1.83-2.19s.71-2.19,1.83-2.19c.55,0,.99,.25,1.29,.74Zm-2.34,1.45c0,.94,.46,1.56,1.16,1.56,.75,0,1.21-.6,1.21-1.56s-.46-1.57-1.21-1.57c-.71,0-1.16,.62-1.16,1.57Z"/><path class="cls-4" d="M88.53,411.5v1.66c0,.48,.04,.84,.1,1.1h-.68c-.04-.2-.06-.43-.06-.63h-.02c-.3,.46-.8,.72-1.5,.72-.9,0-1.46-.54-1.46-1.27s.4-1.16,1.64-1.36c.38-.06,.91-.12,1.25-.14v-.17c0-.71-.4-1.01-.98-1.01-.63,0-.96,.35-.99,.86h-.75c.04-.82,.64-1.44,1.73-1.44s1.7,.54,1.7,1.67Zm-.72,.65c-.33,.03-.8,.08-1.13,.14-.74,.11-.99,.32-.99,.75s.32,.74,.88,.74c.35,0,.68-.12,.89-.34,.26-.27,.35-.51,.35-1.02v-.26Z"/><path class="cls-4" d="M95.92,411.59v2.67h-.75v-2.61c0-.87-.33-1.19-.88-1.19-.63,0-1.02,.53-1.02,1.35v2.45h-.75v-2.72c0-.68-.32-1.08-.88-1.08-.64,0-1.03,.54-1.03,1.4v2.4h-.75v-4.32h.72v.54h.02c.31-.42,.71-.63,1.21-.63,.59,0,1.05,.28,1.28,.82,.29-.52,.73-.82,1.37-.82,.92,0,1.45,.58,1.45,1.74Z"/><path class="cls-4" d="M103.3,411.59v2.67h-.75v-2.61c0-.87-.33-1.19-.88-1.19-.63,0-1.02,.53-1.02,1.35v2.45h-.75v-2.72c0-.68-.32-1.08-.88-1.08-.64,0-1.03,.54-1.03,1.4v2.4h-.75v-4.32h.72v.54h.02c.31-.42,.71-.63,1.21-.63,.59,0,1.05,.28,1.28,.82,.29-.52,.73-.82,1.37-.82,.92,0,1.45,.58,1.45,1.74Z"/><path class="cls-4" d="M107.5,412.97h.77c-.14,.76-.8,1.41-1.9,1.41-1.27,0-2.03-.93-2.03-2.34,0-1.27,.75-2.22,2.01-2.22,.98,0,1.67,.58,1.89,1.5,.06,.25,.08,.55,.08,.93h-3.23c.03,1.06,.58,1.55,1.28,1.55,.63,0,1.04-.35,1.14-.83Zm-2.41-1.28h2.48c-.08-.84-.57-1.28-1.23-1.28s-1.17,.46-1.25,1.28Z"/><path class="cls-4" d="M109.37,414.26v-6.05h.75v6.05h-.75Z"/><path class="cls-4" d="M111.82,415.49h-.49l.32-1.22h-.31v-.99h.92v.99l-.44,1.22Z"/><path class="cls-4" d="M27.83,424.45v-.63h-.02c-.24,.45-.74,.73-1.33,.73-1.1,0-1.81-.89-1.81-2.27s.71-2.26,1.8-2.26c.58,0,1.08,.27,1.32,.71h.02v-2.33h.75v6.05h-.73Zm-2.37-2.17c0,1.01,.48,1.67,1.22,1.67s1.18-.64,1.18-1.67-.47-1.66-1.18-1.66-1.22,.65-1.22,1.66Z"/><path class="cls-4" d="M33.18,421.69v1.66c0,.48,.04,.84,.1,1.1h-.68c-.04-.2-.06-.43-.06-.63h-.02c-.3,.46-.8,.72-1.5,.72-.9,0-1.46-.54-1.46-1.27s.4-1.16,1.64-1.36c.38-.06,.91-.12,1.25-.14v-.17c0-.71-.4-1.01-.98-1.01-.63,0-.96,.35-.99,.86h-.75c.04-.82,.64-1.44,1.73-1.44s1.7,.54,1.7,1.67Zm-.72,.65c-.33,.03-.8,.08-1.13,.14-.74,.11-.99,.32-.99,.75s.32,.74,.88,.74c.35,0,.68-.12,.89-.34,.26-.27,.35-.51,.35-1.02v-.26Z"/><path class="cls-4" d="M38.12,421.82v2.63h-.75v-2.58c0-.9-.37-1.22-.99-1.22s-1.12,.46-1.12,1.33v2.47h-.75v-4.32h.72v.57h.02c.26-.4,.73-.66,1.31-.66,.99,0,1.56,.6,1.56,1.78Z"/><path class="cls-4" d="M42.51,421.49h-.73c0-.58-.36-.89-.96-.89-.52,0-.84,.24-.84,.61,0,.45,.31,.53,1.04,.7,.79,.2,1.63,.37,1.63,1.38,0,.77-.66,1.29-1.71,1.29-1.13,0-1.8-.54-1.81-1.56h.76c0,.62,.39,.96,1.06,.96,.56,0,.93-.25,.93-.65,0-.5-.36-.59-1.19-.8-.72-.18-1.46-.32-1.46-1.27,0-.74,.65-1.25,1.6-1.25,1.05,0,1.68,.52,1.68,1.47Z"/><path class="cls-4" d="M46.39,424.45l-1.91-2.16h-.02v2.16h-.75v-6.05h.75v3.53h.02l1.74-1.79h.93l-1.94,1.96,2.17,2.36h-.99Z"/><path class="cls-4" d="M52.87,424.45v-.63h-.02c-.24,.45-.74,.73-1.33,.73-1.1,0-1.81-.89-1.81-2.27s.71-2.26,1.8-2.26c.58,0,1.08,.27,1.32,.71h.02v-2.33h.75v6.05h-.73Zm-2.37-2.17c0,1.01,.48,1.67,1.22,1.67s1.18-.64,1.18-1.67-.47-1.66-1.18-1.66-1.22,.65-1.22,1.66Z"/><path class="cls-4" d="M57.31,420.13v.67c-.09,0-.2-.03-.3-.03-.82,0-1.27,.53-1.27,1.48v2.2h-.75v-4.32h.71v.66h.02c.29-.48,.72-.71,1.27-.71,.09,0,.22,0,.31,.03Z"/><path class="cls-4" d="M61.16,421.69v1.66c0,.48,.04,.84,.1,1.1h-.68c-.04-.2-.06-.43-.06-.63h-.02c-.3,.46-.8,.72-1.5,.72-.9,0-1.46-.54-1.46-1.27s.4-1.16,1.64-1.36c.38-.06,.91-.12,1.25-.14v-.17c0-.71-.4-1.01-.98-1.01-.63,0-.96,.35-.99,.86h-.75c.04-.82,.64-1.44,1.73-1.44s1.7,.54,1.7,1.67Zm-.72,.65c-.33,.03-.8,.08-1.13,.14-.74,.11-.99,.32-.99,.75s.32,.74,.88,.74c.35,0,.68-.12,.89-.34,.26-.27,.35-.51,.35-1.02v-.26Z"/><path class="cls-4" d="M68.54,421.79v2.67h-.75v-2.61c0-.87-.33-1.19-.88-1.19-.63,0-1.02,.53-1.02,1.35v2.45h-.75v-2.72c0-.68-.32-1.08-.88-1.08-.64,0-1.03,.54-1.03,1.4v2.4h-.75v-4.32h.72v.54h.02c.31-.42,.71-.63,1.21-.63,.59,0,1.05,.28,1.28,.82,.29-.52,.73-.82,1.37-.82,.92,0,1.45,.58,1.45,1.74Z"/><path class="cls-4" d="M73.12,421.69v1.66c0,.48,.04,.84,.1,1.1h-.68c-.04-.2-.06-.43-.06-.63h-.02c-.3,.46-.8,.72-1.5,.72-.9,0-1.46-.54-1.46-1.27s.4-1.16,1.64-1.36c.38-.06,.91-.12,1.25-.14v-.17c0-.71-.4-1.01-.98-1.01-.63,0-.96,.35-.99,.86h-.75c.04-.82,.64-1.44,1.73-1.44s1.7,.54,1.7,1.67Zm-.72,.65c-.33,.03-.8,.08-1.13,.14-.74,.11-.99,.32-.99,.75s.32,.74,.88,.74c.35,0,.68-.12,.89-.34,.26-.27,.35-.51,.35-1.02v-.26Z"/><path class="cls-4" d="M76.19,423.83v.61c-.13,.03-.32,.05-.48,.05-.82,0-1.17-.35-1.17-1.24v-2.52h-.75v-.59h.75v-1.05h.75v1.05h.86v.59h-.86v2.44c0,.49,.16,.7,.59,.7,.11,0,.23-.02,.31-.04Z"/><path class="cls-4" d="M77.14,419.24v-.84h.75v.84h-.75Zm0,5.21v-4.32h.75v4.32h-.75Z"/><path class="cls-4" d="M81.95,424.45l-1.91-2.16h-.02v2.16h-.75v-6.05h.75v3.53h.02l1.74-1.79h.93l-1.94,1.96,2.17,2.36h-.99Z"/><path class="cls-4" d="M83.53,424.45v-.99h.92v.99h-.92Z"/></g><text class="cls-8" transform="translate(8.46 391.16)"><tspan x="0" y="0">“</tspan></text><g><path class="cls-2" d="M31.77,41.51c-.08,0-.21,.02-.37,.02,0,0-.69,.02-1.38-.11-2.64-.49-4.08-2.5-4.08-2.5-.74-1.03-1-2.09-1.09-2.79,.16-.09,.43-.23,.76-.38,1.37-.65,2.03-1.02,2.32-1.11,.5-.15,1.53-.25,3.18,.86,3.47-1.74,4.14-2.3,4.07-2.47-.06-.17-.8-.05-1.55,.07-1.18,.19-1.82,.43-2.23,.53-.94,.23-2.89-.4-4.03-1.49-2.78-2.66-1.35-8.47-.81-8.51,.07,0,.3,.61,.77,1.83,.57,1.49,.96,2.64,1.1,3.05,.54,1.57,.51,1.59,.6,1.8,.45,1.05,1.86,2.25,6.15,2.71"/><path class="cls-2" d="M25.99,24.82c-.49-.77-1.37-1.14-2.2-.95-.77,.17-1.34,.8-1.5,1.47-.23,.97,.34,2.1,1.45,2.68-.11,.11-.27,.28-.45,.51-.32,.41-1.08,1.39-1.25,2.83-.06,.5-.18,1.71,.55,2.93,.74,1.24,1.89,1.71,2.25,1.84"/><path class="cls-2" d="M31.77,41.51c.34,.02,.82,0,1.38-.1,1.53-.28,2.53-1.09,2.92-1.4,2.24-1.79,2.71-4.74,2.79-5.28"/><path class="cls-2" d="M34.57,32.96c.39,.08,1,.26,1.67,.66,1.08,.66,1.38,1.38,2.05,1.33,.51-.03,.51-.46,1.27-.83,1.07-.52,1.59,.04,2.26-.42,.92-.63,1.22-2.59,.41-3.24-.13-.1-.47-.33-1.17-.21"/><path class="cls-2" d="M34.2,32.96c.54,.09,1.38,.16,2.37,0,.66-.12,4-.67,4.93-3.37,.63-1.83-.24-3.53-.48-3.96-.06-.11-1.37-2.38-3.83-2.61-.44-.04-1.54-.13-2.59,.57-.69,.46-1.06,1.06-1.23,1.4"/><path class="cls-2" d="M28.17,27.72c.32-.51,1.11-1.59,2.55-2.24,.63-.29,1.7-.77,2.96-.42,1.29,.36,1.08,2.15,2.67,3,.41,.22,.78,.31,1.01,.35"/><path class="cls-2" d="M33.79,24.43c-.03-.13-.62-2.13-2.42-2.63-1.34-.37-2.49,.33-2.91,.58-.98,.6-1.49,1.43-1.7,1.83"/><path class="cls-2" d="M35.17,33.03c.12-.32,1.04-2.77-.32-5.03-.72-1.2-1.74-1.79-2.25-2.03-.46,.22-1.4,.75-2.14,1.84-.93,1.36-.96,2.75-.95,3.24"/><path class="cls-2" d="M31.33,26.79c-.38,1.03-.27,1.66-.06,2.06,.64,1.24,2.49,.89,3.44,2.22,.51,.71,.54,1.59,.46,2.28"/><path class="cls-2" d="M31.27,28.85c.08,.03,1.19,.41,2.11-.3,.64-.5,.78-1.22,.81-1.4"/><path class="cls-2" d="M35.38,29.17c.11-.11,.87-.86,1.97-.76,.78,.07,1.77,.57,2.03,1.59,.23,.93-.22,1.96-1.12,2.46"/><path class="cls-2" d="M31.1,35.5c-.04,.42-.04,1.07,.37,1.48,.69,.68,1.87-.04,2.85,.49,.5,.27,1.11,.95,1.28,2.9"/></g><text class="cls-5" transform="translate(14.86 38.16) rotate(-90) scale(.99 1)"><tspan x="0" y="0">V</tspan><tspan x="5.09" y="0">I</tspan></text><text class="cls-5" transform="translate(14.73 31.14) rotate(-84.29) scale(.99 1)"><tspan x="0" y="0">L</tspan></text><text class="cls-5" transform="translate(14.94 27.32) rotate(-68.83) scale(.99 1)"><tspan x="0" y="0">D</tspan></text><text class="cls-5" transform="translate(17 22.16) rotate(-53.04) scale(.99 1)"><tspan x="0" y="0">S</tspan></text><text class="cls-5" transform="translate(19.38 18.87) rotate(-39.02) scale(.99 1)"><tspan x="0" y="0">K</tspan></text><text class="cls-5" transform="translate(22.77 15.96) rotate(-22.84) scale(.99 1)"><tspan x="0" y="0">U</tspan></text><text class="cls-5" transform="translate(27.68 13.81) rotate(-4.98) scale(.99 1)"><tspan x="0" y="0">D</tspan></text><text class="cls-5" transform="translate(33.3 13.5) rotate(6.89) scale(.99 1)"><tspan x="0" y="0"> </tspan></text><text class="cls-5" transform="translate(34.94 13.57) rotate(16.4) scale(.99 1)"><tspan x="0" y="0">F</tspan></text><text class="cls-5" transform="translate(38.8 14.66) rotate(29.72) scale(.99 1)"><tspan x="0" y="0">E</tspan></text><text class="cls-5" transform="translate(42.35 16.65) rotate(43.12) scale(.99 1)"><tspan x="0" y="0">S</tspan></text><text class="cls-5" transform="translate(45.34 19.39) rotate(56.48) scale(.99 1)"><tspan x="0" y="0">T</tspan></text><text class="cls-5" transform="translate(47.59 22.92) rotate(66.55) scale(.99 1)"><tspan x="0" y="0">I</tspan></text><text class="cls-5" transform="translate(48.48 24.57) rotate(77.45) scale(.99 1)"><tspan x="0" y="0">V</tspan></text><text class="cls-5" transform="translate(49.44 28.61) rotate(90) scale(.99 1)"><tspan x="0" y="0">A</tspan><tspan x="5.55" y="0">L</tspan></text></g></svg>