<?xml version="1.0" encoding="UTF-8"?><svg xmlns="http://www.w3.org/2000/svg" viewBox="0 0 500 485.88"><defs><style>.cls-1{fill:none;stroke:#fff;stroke-miterlimit:10;}</style></defs><g id="line"><line class="cls-1" x1="99" y1="484.87" x2="500" y2="484.87"/></g><g id="person"><path class="cls-1" d="M0,484.87H100c-3.58-28.2-4.23-52.12-4-70,.62-47.7,7.9-82.53,14-105,7.75-28.53,11.83-42.96,22-51,17.54-13.88,39.03-9.55,55-30,5.34-6.83,3.93-8.59,10-17,13.86-19.22,33.47-14.67,39-29,1.46-3.78,1.11-9.46,0-21-.61-6.38-1.91-19.94-7-21-3.24-.68-5.76,4.2-9,3-1.95-.72-2.44-3.01-4-7-2.84-7.26-3.94-6.58-6-12-3.3-8.67-4.35-20.51,0-23,1.33-.76,2.25-.13,3-1,2-2.32-3.88-7.62-6-16-1.42-5.62-.28-11.41,2-23,1.19-6.04,1.78-9.06,3-12,5.05-12.22,15.02-18.71,14-20-.64-.8-4.56,1.67-5,1-.48-.74,3.71-4.45,7-7,5.5-4.27,10-7,10-7,3.76-2.28,5.75-3.12,6-5,.31-2.34-2.42-3.64-2-5,.71-2.31,9.29-1.09,16-1,17.39,.24,18.57-7.07,30-5,4.6,.83,10.73,5.22,23,14,3.67,2.63,6.67,4.99,8,9,1.29,3.89-.11,6,1,10,1.21,4.38,3.95,5.73,8,10,0,0,10.45,11.03,14,32,.11,.65,.25,1.71,0,3-.59,3.06-2.81,4.4-4,6-2.3,3.09-.09,6.25,1,15,.29,2.36,.2,7.24,0,17-.09,4.6-.23,8.02-2,12-.97,2.18-1.82,3.21-3,5-4.83,7.35-4.41,11.45-8,19-2.69,5.64-5.77,9.33-8,12-4.08,4.88-13.69,16.38-30,19-16.77,2.7-29.68-5.75-33-8-9.02-6.1-13.8-13.8-16-18"/></g><g id="höger_sida"><path class="cls-1" d="M439,484.87c-2.48-3.48-5.94-8.89-9-16-5.2-12.09-6.35-22.84-7-30-2.26-24.94,4.21-46.05,7-78,2.37-27.14,3.98-48.25-5-73-4.42-12.19-9.52-26.23-23-37-14.49-11.58-22.58-6.5-40-21-6.64-5.53-16.19-15.19-24-24-8.48-9.57-13.18-16.19-16-15-2.51,1.06-2.47,7.87-1,13,2.15,7.52,7.3,11.24,11,15,8.57,8.71,6.91,15.14,15,38,5.75,16.24,7.56,15.75,14,32,4.82,12.17,8.28,26.61,15,55,10.51,44.39,11.59,55.97,12,61,.63,7.83,.75,16.55,1,34,.28,19.66,.16,35.87,0,47"/></g><g id="krage_v"><path class="cls-1" d="M182,233.87c-1.49,4.99-3.32,13.04-3,23,.2,6.19,.67,20.86,7,23,4.47,1.51,6.93-4.9,16-6,9.12-1.1,13.68,4.52,17,2,3.44-2.61-.27-9.53-1-22-.24-4.02-.92-18.05,5-32,4.58-10.8,9.43-12.84,12-24,1.4-6.08,1.31-11.38,1-15"/></g><g id="vänsetr_sida"><path class="cls-1" d="M191,483.87c-.73-7.61-1.34-19.11,0-33,1.27-13.19,3-15.16,5-31,2.89-22.91-.1-23.77,3-39,3.63-17.84,7.56-15.77,11-34,3.63-19.22-.56-22.42,5-35,3.67-8.3,7.96-12.52,8-21,.03-6.82-2.72-12.4-5-16"/></g><g id="krage_h"><path class="cls-1" d="M355,274.87c1.79-3.64,3.72-4.66,5-5,4.86-1.27,8.88,5.15,20,8,2.81,.72,4.09,.7,5,0,2.45-1.9,.72-7.75-1-14-1.57-5.7-3.69-13.82-6-24"/></g><g id="linne"><path class="cls-1" d="M221,301.87c4.88,4.27,12.65,10.57,23,17,16.48,10.23,31.56,19.59,50,18,10.02-.86,16.91-4.6,25-9,9.46-5.14,26.42-16.27,41-39"/></g><g id="glasögon"><path class="cls-1" d="M211,93.87c11.2-.05,16.9-.96,20-2,.54-.18,2.03-.71,3,0,1.64,1.21,.18,4.85,0,8-.41,6.99,5.27,14.58,12,18,1.34,.68,9,4.39,17,1,9.47-4.01,13.17-15.32,12-24-.31-2.31-1.88-11.19-10-16-6.67-3.95-13.52-2.64-16-2-9.07,2.35-13.28,9.69-14,11"/><path class="cls-1" d="M337,91.87c-2.71,.3-6.33,.21-9-2-3.35-2.77-2.21-6.24-5-10-3.57-4.81-11.08-5.7-16-5-.46,.07-10.58,1.67-15,11-3,6.34-1.48,12.25-1,14,2.57,9.4,10.74,13.41,12,14,1.98,.93,10.95,5.15,19,0,5.75-3.67,8.82-10.7,8-18"/></g><g id="glasögon_mitt"><path class="cls-1" d="M275,90.87c5-.33,10-.67,15-1"/></g><g id="näsa"><path class="cls-1" d="M273,110.87c-.8,1.32-2.04,3.8-2,7,.04,3.09,1.26,6.06,2,6,.71-.06,.24-2.9,2-4,1.45-.91,4.03-.39,5,1,.81,1.15,.12,2.34,1,3,.58,.44,1.12,.09,3,0,2.74-.14,3.15,.52,4,0,1.41-.88,.52-2.88,2-4,1.09-.83,2.89-.73,4,0,1.55,1.01,1.28,2.9,2,3,1.09,.15,3.61-3.98,3-8-.56-3.67-3.29-4.41-6-8-5.52-7.32-4.65-18.14-2-25,1.27-3.29,2.94-5.66,4-7"/></g><g id="face"><path class="cls-1" d="M261,143.87c.02-.18,3.81,.97,9,0,3.56-.67,4.25-1.68,8-2,2.57-.22,2.77,.2,6,0,4.27-.27,4.2-1.01,7-1,3.82,.02,4.24,1.43,9,2,4.28,.51,6.95-.29,7,0,.08,.45-6.32,2.62-14,3-.89,.04-.61,0-9,0-7.46,0-7.01,.03-8,0-8.38-.22-15.03-1.76-15-2Z"/><path class="cls-1" d="M278,153.87c-.07-.1,1.13-.7,2.5-1.04,1.1-.27,2.06-.33,2.5-.35,.63-.03,.6,0,2,0,1.17,0,1.42-.05,1.72-.03,.07,0,.16,.01,.28,.03,2.2,.31,3.5,1.04,3.5,1.04,.19,.1,.54,.3,.5,.35-.08,.09-1.59-.68-3.5-1.04-2.05-.39-3.84-.15-5,0-2.73,.36-4.42,1.15-4.5,1.04Z"/><path class="cls-1" d="M240,97.87c-.55-.75,2.45-4.97,7-7,4.6-2.05,8.97-.97,10.5-.5,4.38,1.35,7.92,4.62,7.5,5.5-.44,.92-4.78-1.61-12-1-2.87,.24-5.76,.94-6,1-4.69,1.15-6.62,2.52-7,2Z"/><path class="cls-1" d="M299,94.87c-.24-.54,2.69-2.71,6-4,1.64-.64,5.92-2.25,11-1,4.56,1.12,8.34,4.19,8,5-.26,.63-2.8-.47-9-1-3.16-.27-6.17-.52-10,0-3.74,.51-5.81,1.43-6,1Z"/></g><g id="hår"><path class="cls-1" d="M213,97.87c-.61-2.79-.88-6.18,1-8,2.05-1.99,4.83-.29,7-2,3.11-2.45,.9-8.36,1-16,.01-.82,.21-10.15,4-17,1.47-2.65,4.64-7.02,28-17,13.16-5.62,21.28-8.14,21-11-.27-2.77-8.14-3.22-8-5,.13-1.74,7.84-4.13,13-1,2.7,1.64,1.99,3.15,5,6,4.56,4.32,11.95,6.33,17,4,1.71-.79,3.05-2.02,3.13-2.1,3.05-2.84,2.93-5.8,3.87-5.9,2.08-.22,4.53,14.29,9,27,3.6,10.25,7.87,17.48,10,21,3.68,6.08,7.31,10.79,10,14"/></g></svg>