<?xml version="1.0" encoding="UTF-8"?><svg id="Layer_1" xmlns="http://www.w3.org/2000/svg" width="612" height="1008" viewBox="0 0 612 1008"><defs><style>.cls-1{stroke:#dde571;}.cls-1,.cls-2,.cls-3{fill:#dde571;}.cls-1,.cls-2,.cls-4{stroke-width:5px;}.cls-1,.cls-2,.cls-4,.cls-5,.cls-6,.cls-7{stroke-miterlimit:10;}.cls-2,.cls-4,.cls-7{stroke:#dde570;}.cls-8{fill:#fff;}.cls-9{fill:#f1f2f2;}.cls-4,.cls-6,.cls-7{fill:none;}.cls-5{fill:#151515;stroke:#231f20;}.cls-6{stroke:#f3f3f3;}.cls-6,.cls-7{stroke-width:2px;}</style></defs><rect class="cls-5" x="-.31" width="612" height="1008"/><g><path class="cls-8" d="M48.32,179.12c1.87,1.15,4.61,2.11,7.49,2.11,4.27,0,6.77-2.26,6.77-5.52,0-3.02-1.73-4.75-6.1-6.43-5.28-1.87-8.54-4.61-8.54-9.17,0-5.04,4.18-8.78,10.47-8.78,3.31,0,5.71,.77,7.15,1.58l-1.15,3.41c-1.06-.58-3.22-1.54-6.14-1.54-4.42,0-6.1,2.64-6.1,4.85,0,3.02,1.97,4.51,6.43,6.24,5.47,2.11,8.26,4.75,8.26,9.5,0,4.99-3.7,9.31-11.33,9.31-3.12,0-6.53-.91-8.26-2.06l1.06-3.5Z"/><path class="cls-8" d="M95.17,183.15c-1.54,.77-4.61,1.54-8.54,1.54-9.12,0-15.99-5.76-15.99-16.37s6.86-16.99,16.9-16.99c4.03,0,6.58,.86,7.68,1.44l-1.01,3.41c-1.58-.77-3.84-1.34-6.53-1.34-7.58,0-12.62,4.85-12.62,13.35,0,7.92,4.56,13.01,12.43,13.01,2.54,0,5.14-.53,6.82-1.34l.86,3.31Z"/><path class="cls-8" d="M117.15,169.04h-12.58v11.67h14.02v3.5h-18.19v-32.35h17.47v3.5h-13.3v10.23h12.58v3.46Z"/><path class="cls-8" d="M124.02,184.21v-32.35h4.56l10.37,16.37c2.4,3.79,4.27,7.2,5.81,10.51l.1-.05c-.38-4.32-.48-8.26-.48-13.3v-13.54h3.94v32.35h-4.22l-10.27-16.42c-2.26-3.6-4.42-7.3-6.05-10.8l-.14,.05c.24,4.08,.34,7.97,.34,13.35v13.83h-3.94Z"/><path class="cls-8" d="M172.35,169.04h-12.58v11.67h14.02v3.5h-18.19v-32.35h17.47v3.5h-13.3v10.23h12.58v3.46Z"/><path class="cls-8" d="M179.21,151.85h4.18v15.6h.14c.86-1.25,1.73-2.4,2.54-3.46l9.89-12.15h5.18l-11.71,13.73,12.62,18.63h-4.94l-10.66-15.89-3.07,3.55v12.34h-4.18v-32.35Z"/><path class="cls-8" d="M209.41,151.85v19.15c0,7.25,3.22,10.32,7.54,10.32,4.8,0,7.87-3.17,7.87-10.32v-19.15h4.22v18.87c0,9.94-5.23,14.02-12.24,14.02-6.62,0-11.62-3.79-11.62-13.83v-19.06h4.22Z"/><path class="cls-8" d="M236.29,184.21v-32.35h4.56l10.37,16.37c2.4,3.79,4.27,7.2,5.81,10.51l.1-.05c-.38-4.32-.48-8.26-.48-13.3v-13.54h3.94v32.35h-4.22l-10.27-16.42c-2.26-3.6-4.42-7.3-6.05-10.8l-.14,.05c.24,4.08,.34,7.97,.34,13.35v13.83h-3.94Z"/><path class="cls-8" d="M267.29,179.12c1.87,1.15,4.61,2.11,7.49,2.11,4.27,0,6.77-2.26,6.77-5.52,0-3.02-1.73-4.75-6.1-6.43-5.28-1.87-8.54-4.61-8.54-9.17,0-5.04,4.18-8.78,10.46-8.78,3.31,0,5.71,.77,7.15,1.58l-1.15,3.41c-1.06-.58-3.22-1.54-6.14-1.54-4.42,0-6.1,2.64-6.1,4.85,0,3.02,1.97,4.51,6.43,6.24,5.47,2.11,8.26,4.75,8.26,9.5,0,4.99-3.7,9.31-11.33,9.31-3.12,0-6.53-.91-8.26-2.06l1.06-3.5Z"/><path class="cls-8" d="M297.68,155.4h-9.84v-3.55h23.95v3.55h-9.89v28.8h-4.22v-28.8Z"/></g><g><path class="cls-9" d="M473.44,350.76c0,11.14-6.77,17.04-15.03,17.04s-14.55-6.62-14.55-16.42c0-10.27,6.38-16.99,15.03-16.99s14.55,6.77,14.55,16.37Zm-25.11,.53c0,6.91,3.74,13.1,10.32,13.1s10.37-6.1,10.37-13.44c0-6.43-3.36-13.15-10.32-13.15s-10.37,6.38-10.37,13.49Z"/><path class="cls-9" d="M506.12,353.07c-.24-4.51-.53-9.94-.48-13.97h-.14c-1.1,3.79-2.45,7.82-4.08,12.29l-5.71,15.7h-3.17l-5.23-15.41c-1.54-4.56-2.83-8.74-3.75-12.58h-.1c-.1,4.03-.34,9.46-.62,14.31l-.86,13.87h-3.98l2.26-32.35h5.33l5.52,15.65c1.34,3.98,2.45,7.54,3.26,10.9h.14c.82-3.26,1.97-6.82,3.41-10.9l5.76-15.65h5.33l2.02,32.35h-4.08l-.82-14.21Z"/></g><g><path class="cls-9" d="M360.84,232.38h-9.84v-3.55h23.95v3.55h-9.89v28.8h-4.22v-28.8Z"/><path class="cls-9" d="M380.18,251l-3.36,10.18h-4.32l10.99-32.35h5.04l11.04,32.35h-4.46l-3.46-10.18h-11.47Zm10.61-3.26l-3.17-9.31c-.72-2.11-1.2-4.03-1.68-5.9h-.1c-.48,1.92-1.01,3.89-1.63,5.86l-3.17,9.36h9.75Z"/><path class="cls-9" d="M404.32,229.26c1.82-.38,4.7-.67,7.63-.67,4.18,0,6.86,.72,8.88,2.35,1.68,1.25,2.69,3.17,2.69,5.71,0,3.12-2.06,5.86-5.47,7.1v.1c3.07,.77,6.67,3.31,6.67,8.11,0,2.78-1.1,4.9-2.74,6.48-2.26,2.06-5.9,3.02-11.18,3.02-2.88,0-5.09-.19-6.48-.38v-31.83Zm4.18,13.25h3.79c4.42,0,7.01-2.3,7.01-5.42,0-3.79-2.88-5.28-7.1-5.28-1.92,0-3.02,.14-3.7,.29v10.42Zm0,15.51c.82,.14,2.02,.19,3.5,.19,4.32,0,8.3-1.58,8.3-6.29,0-4.42-3.79-6.24-8.35-6.24h-3.46v12.34Z"/><path class="cls-9" d="M434.51,228.83v19.15c0,7.25,3.22,10.32,7.54,10.32,4.8,0,7.87-3.17,7.87-10.32v-19.15h4.22v18.87c0,9.94-5.23,14.02-12.24,14.02-6.62,0-11.62-3.79-11.62-13.83v-19.06h4.22Z"/></g><g><path class="cls-6" d="M60.73,78.8c-.13,.01-.35,.02-.62,.03,0,0-1.16,.03-2.31-.18-4.42-.82-6.82-4.13-6.82-4.13-1.23-1.7-1.66-3.46-1.83-4.6,.42-.22,.84-.43,1.27-.64,2.28-1.08,3.4-1.69,3.89-1.83,.84-.24,2.55-.42,5.3,1.42,5.8-2.88,6.92-3.8,6.8-4.09-.11-.28-1.34-.08-2.59,.12-1.98,.31-3.04,.7-3.73,.87-1.56,.39-4.83-.65-6.74-2.46-4.65-4.4-2.26-13.99-1.35-14.06,.12,0,.51,1,1.28,3.03,.95,2.46,1.61,4.36,1.85,5.04,.9,2.59,.86,2.63,1.01,2.97,.76,1.74,3.1,3.72,10.27,4.48"/><path class="cls-6" d="M51.09,51.22c-.82-1.26-2.3-1.89-3.68-1.57-1.28,.29-2.23,1.32-2.51,2.42-.39,1.6,.56,3.47,2.42,4.43-.19,.19-.46,.47-.75,.84-.54,.68-1.81,2.3-2.08,4.68-.1,.83-.3,2.83,.92,4.85,1.24,2.05,3.15,2.83,3.75,3.04m11.57,8.9c.77,.03,1.54-.02,2.3-.16,2.56-.47,4.23-1.79,4.89-2.31,3.75-2.96,4.53-7.84,4.66-8.73"/><path class="cls-6" d="M65.41,64.67c.65,.14,1.68,.42,2.79,1.09,1.81,1.08,2.3,2.27,3.43,2.2,.85-.06,.85-.76,2.13-1.37,1.78-.86,2.66,.07,3.77-.69,1.53-1.04,2.04-4.27,.69-5.36-.21-.17-.78-.54-1.96-.34"/><path class="cls-6" d="M64.79,64.67c1.31,.21,2.64,.21,3.95-.02,1.1-.19,6.69-1.11,8.23-5.57,1.05-3.02-.4-5.84-.8-6.54-.1-.18-2.29-3.93-6.4-4.3-.74-.07-2.57-.21-4.32,.95-1.16,.76-1.77,1.76-2.06,2.31"/><path class="cls-6" d="M54.71,56.01c.54-.84,1.85-2.63,4.26-3.71,1.05-.47,2.84-1.27,4.94-.69,2.16,.6,1.81,3.56,4.46,4.95,.53,.28,1.1,.47,1.68,.57m-5.95-6.57c-.06-.21-1.02-3.51-4.04-4.34-2.24-.62-4.16,.54-4.87,.96-1.64,.99-2.49,2.35-2.84,3.02"/><path class="cls-6" d="M66.42,64.79c.21-.52,1.74-4.58-.54-8.31-1.2-1.98-2.91-2.95-3.76-3.36-1.44,.68-2.67,1.73-3.58,3.04-1.55,2.25-1.61,4.54-1.6,5.36"/><path class="cls-6" d="M60.01,54.48c-.64,1.71-.44,2.75-.1,3.4,1.07,2.05,4.16,1.48,5.75,3.68,.85,1.18,.9,2.64,.77,3.77"/><path class="cls-6" d="M59.9,57.88c.14,.05,1.99,.69,3.53-.5,1.08-.83,1.31-2.02,1.35-2.31m1.98,3.35c.18-.19,1.45-1.42,3.29-1.26,1.31,.12,2.97,.93,3.4,2.63,.39,1.53-.37,3.23-1.88,4.06m-11.96,5.04c-.06,.69-.06,1.78,.62,2.44,1.15,1.13,3.12-.07,4.77,.81,.84,.45,1.85,1.57,2.14,4.8"/></g><g><path class="cls-9" d="M30.8,60.55l-7.31,1.48,.11-.96,3.6-.69c.99-.19,1.87-.35,2.72-.45v-.02c-.79-.28-1.65-.67-2.54-1.08l-3.36-1.55,.11-.95,6.79,3.25-.11,.98Z"/><path class="cls-9" d="M25.06,52.89l6.84,1.89-.24,.86-6.84-1.89,.24-.86Z"/><path class="cls-9" d="M26.1,49.69l.36-.82,5.79,2.57,1.2-2.71,.7,.31-1.57,3.53-6.5-2.88Z"/><path class="cls-9" d="M29.34,43.4c.26-.49,.59-1.05,1.02-1.62,.77-1.03,1.56-1.59,2.39-1.73,.83-.15,1.71,.05,2.63,.74,.93,.69,1.48,1.54,1.62,2.45,.15,.92-.21,1.99-1.01,3.07-.38,.51-.73,.92-1.04,1.26l-5.61-4.17Zm5.57,3.03c.17-.16,.37-.42,.58-.7,1.14-1.54,.88-3.03-.66-4.17-1.34-1.01-2.74-.9-3.88,.62-.28,.37-.45,.68-.55,.9l4.5,3.34Z"/><path class="cls-9" d="M38.86,41.01c.47-.06,1.06-.28,1.53-.68,.71-.59,.8-1.31,.34-1.86-.42-.51-.95-.56-1.91-.24-1.13,.41-2.06,.4-2.7-.37-.71-.85-.55-2.06,.49-2.92,.55-.46,1.05-.66,1.4-.72l.29,.73c-.25,.05-.75,.18-1.23,.59-.73,.61-.63,1.28-.32,1.66,.42,.51,.96,.49,1.94,.17,1.2-.4,2.03-.34,2.7,.46,.7,.84,.7,2.08-.56,3.13-.51,.43-1.2,.75-1.65,.79l-.32-.74Z"/><path class="cls-9" d="M40.77,31.98l.79-.43,1.66,3h.03c.03-.34,.07-.66,.11-.94l.57-3.36,.98-.54-.75,3.85,4.35,2.27-.93,.51-3.69-1.95-.2,1,1.31,2.37-.79,.43-3.43-6.22Z"/><path class="cls-9" d="M48.68,28.29l1.14,4.04c.43,1.53,1.28,1.99,2.17,1.74,.99-.28,1.44-1.13,1.02-2.64l-1.14-4.05,.87-.25,1.12,3.98c.59,2.1-.25,3.26-1.7,3.67-1.37,.38-2.63-.13-3.22-2.25l-1.13-4.03,.87-.25Z"/><path class="cls-9" d="M56.61,26.65c.54-.1,1.19-.18,1.9-.2,1.29-.04,2.22,.24,2.84,.8,.64,.56,1.02,1.37,1.05,2.52,.03,1.16-.29,2.12-.92,2.79-.63,.68-1.69,1.07-3.04,1.11-.64,.02-1.18,0-1.63-.04l-.2-6.98Zm1.08,6.25c.23,.04,.56,.04,.91,.03,1.92-.06,2.93-1.18,2.87-3.1-.04-1.67-1-2.71-2.89-2.66-.46,.01-.81,.06-1.05,.12l.16,5.6Z"/><path class="cls-9" d="M69.3,27.5l3.6,1.04-.21,.74-2.73-.79-.66,2.27,2.53,.73-.21,.73-2.53-.73-.9,3.09-.86-.25,1.98-6.82Z"/><path class="cls-9" d="M77.46,34.75l-2.41-1.21-1.15,2.29,2.69,1.35-.35,.69-3.49-1.75,3.19-6.34,3.35,1.69-.35,.69-2.55-1.28-1.01,2,2.41,1.21-.34,.68Z"/><path class="cls-9" d="M78.38,37.91c.17,.44,.51,.97,1,1.34,.73,.55,1.46,.48,1.89-.09,.4-.53,.33-1.05-.19-1.92-.66-1.01-.85-1.91-.25-2.71,.67-.88,1.88-.99,2.96-.18,.57,.43,.88,.88,1.02,1.2l-.65,.45c-.11-.24-.35-.69-.85-1.07-.76-.57-1.39-.33-1.69,.06-.4,.53-.26,1.04,.27,1.93,.66,1.08,.78,1.9,.16,2.73-.66,.87-1.87,1.15-3.17,.16-.53-.41-1-1.01-1.14-1.43l.64-.48Z"/><path class="cls-9" d="M87.83,39.23l-1.43-1.56,.57-.53,3.47,3.79-.57,.53-1.44-1.57-4.66,4.27-.61-.67,4.66-4.27Z"/><path class="cls-9" d="M92.44,43.78l-5.86,4.01-.51-.74,5.86-4.01,.51,.74Z"/><path class="cls-9" d="M88.51,51.11l5.42-5.13,.42,.87-2.68,2.49c-.74,.69-1.4,1.29-2.07,1.82v.02c.83-.18,1.77-.31,2.74-.43l3.67-.46,.42,.87-7.48,.84-.43-.89Z"/><path class="cls-9" d="M92.72,55.62l-2.34-.14-.23-.9,7.47,.51,.27,1.05-6.28,4.08-.24-.93,1.98-1.28-.62-2.39Zm1.26,2.03l1.81-1.17c.41-.27,.79-.47,1.16-.67v-.02c-.44,0-.89,0-1.34-.02l-2.16-.14,.52,2.03Z"/><path class="cls-9" d="M98.82,61.51l.05,.9-6.32,.34,.16,2.96-.77,.04-.2-3.86,7.09-.38Z"/></g><line class="cls-2" x1="331.41" y1="167.93" x2="486.79" y2="167.93"/><line class="cls-1" x1="488.48" y1="317.56" x2="488.48" y2="165.35"/><line class="cls-4" x1="420.63" y1="355.49" x2="311.79" y2="355.49"/><line class="cls-4" x1="314.25" y1="242.34" x2="314.25" y2="357.81"/><line class="cls-1" x1="311.79" y1="244.85" x2="341.53" y2="244.85"/><g><rect class="cls-7" x="44.41" y="553.02" width="529.68" height="127.51"/><line class="cls-7" x1="574.09" y1="574.28" x2="44.41" y2="574.28"/><line class="cls-7" x1="574.09" y1="595.53" x2="44.41" y2="595.53"/><line class="cls-7" x1="574.09" y1="616.78" x2="44.41" y2="616.78"/><line class="cls-7" x1="574.09" y1="638.03" x2="44.41" y2="638.03"/><line class="cls-7" x1="574.09" y1="659.28" x2="44.41" y2="659.28"/><line class="cls-7" x1="132.69" y1="680.54" x2="132.69" y2="553.02"/><line class="cls-7" x1="220.97" y1="680.54" x2="220.97" y2="553.02"/><line class="cls-7" x1="309.25" y1="680.54" x2="309.25" y2="553.02"/><line class="cls-7" x1="397.53" y1="680.54" x2="397.53" y2="553.02"/><line class="cls-7" x1="485.81" y1="680.54" x2="485.81" y2="553.02"/></g><g><path class="cls-8" d="M65.36,493.45c0,5.74-3.22,10.85-9.79,10.85-6.14,0-9.57-4.75-9.57-10.74s3.5-10.74,9.81-10.74c5.88,0,9.55,4.41,9.55,10.62Zm-16.47,.03c0,4.51,2.31,8.46,6.8,8.46,4.85,0,6.77-3.99,6.77-8.45s-2.19-8.3-6.77-8.3-6.8,3.83-6.8,8.29Z"/><path class="cls-8" d="M71.31,504v-.2c0-2.86,1.43-6.01,6.37-9.6,3.21-2.34,4.28-3.05,4.28-5.36,0-2.14-1.35-3.72-3.74-3.72-2.59,0-3.73,1.49-4.14,3.88h-2.71c.33-3.41,2.58-6.15,6.86-6.15,4.71,0,6.53,3.05,6.53,5.88,0,3.2-1.37,4.48-5.31,7.23-3.28,2.32-4.59,4.29-4.97,5.72h11.16l-.41,2.32h-13.92Z"/><path class="cls-8" d="M105.78,497.74l-2.25,6.26h-2.75l7.43-20.87h3.41l7.75,20.87h-2.95l-2.32-6.26h-8.33Zm7.62-2.37c-1.99-5.49-3.08-8.4-3.54-9.99h-.03c-.51,1.77-1.73,5.3-3.34,9.99h6.9Z"/><path class="cls-8" d="M127.57,483.13v12.56c0,4.93,2.7,6.27,5.38,6.27,3.13,0,5.33-1.44,5.33-6.27v-12.56h2.79v12.42c0,6.77-3.75,8.72-8.18,8.72s-8.12-2.1-8.12-8.52v-12.61h2.81Z"/><path class="cls-8" d="M166.29,504h-2.13c-.14-.4-.22-1.33-.26-2.83-.91,1.48-2.71,3.11-6.48,3.11-6.02,0-9.21-4.57-9.21-10.51,0-6.25,3.43-10.95,9.73-10.95,4.85,0,7.9,2.62,8.5,6.36h-2.77c-.71-2.33-2.39-4.05-5.79-4.05-4.85,0-6.77,3.87-6.77,8.51,0,4.3,1.94,8.31,6.65,8.31s5.84-3.11,5.84-6.64v-.22h-5.88v-2.37h8.57v11.27Z"/><path class="cls-3" d="M183.39,505.53l8.4-22.7h2.35l-8.39,22.7h-2.36Z"/><path class="cls-3" d="M199.8,505.53l8.4-22.7h2.35l-8.39,22.7h-2.36Z"/><path class="cls-8" d="M230.91,504v-17.45c-.93,.74-3.27,1.52-4.4,1.65v-2.1c1.88-.47,3.96-1.66,5.12-2.97h2.04v20.87h-2.77Z"/><path class="cls-8" d="M243.85,499.39c.56,1.83,1.78,2.79,3.77,2.79,4.06,0,4.53-5.09,4.65-8.43-.99,1.75-2.76,2.51-5,2.51-3.58,0-6.44-2.38-6.44-6.56,0-3.84,2.55-6.86,6.89-6.86,4.98,0,7.26,3.52,7.26,9.65,0,4.85-.92,11.88-7.47,11.88-3.96,0-5.84-2.17-6.39-4.97h2.73Zm-.27-9.83c0,2.76,1.71,4.48,4.15,4.48,2.71,0,4.2-1.38,4.2-4.21,0-2.16-.9-4.82-4.18-4.82-2.48,0-4.16,1.64-4.16,4.54Z"/><path class="cls-8" d="M262.32,493.17v-4.33h2.66v4.33h-2.66Zm0,10.83v-4.35h2.66v4.35h-2.66Z"/><path class="cls-8" d="M286.54,493.42c0,5-1.48,10.94-7.31,10.94s-7.28-5.45-7.28-10.8,1.8-10.74,7.38-10.74,7.2,5.43,7.2,10.6Zm-11.75,.14c0,3.97,.89,8.51,4.46,8.51s4.48-4.31,4.48-8.64c0-4.02-.82-8.33-4.37-8.33s-4.57,3.88-4.57,8.46Z"/><path class="cls-8" d="M307.33,493.42c0,5-1.48,10.94-7.3,10.94s-7.28-5.45-7.28-10.8,1.8-10.74,7.38-10.74,7.2,5.43,7.2,10.6Zm-11.75,.14c0,3.97,.89,8.51,4.46,8.51s4.48-4.31,4.48-8.64c0-4.02-.82-8.33-4.37-8.33s-4.57,3.88-4.57,8.46Z"/><path class="cls-8" d="M321.52,492.12v2.38h-7.88v-2.38h7.88Z"/><path class="cls-8" d="M327.75,504v-.2c0-2.86,1.43-6.01,6.37-9.6,3.21-2.34,4.28-3.05,4.28-5.36,0-2.14-1.35-3.72-3.74-3.72-2.59,0-3.73,1.49-4.14,3.88h-2.71c.33-3.41,2.58-6.15,6.86-6.15,4.71,0,6.53,3.05,6.53,5.88,0,3.2-1.37,4.48-5.31,7.23-3.28,2.32-4.59,4.29-4.97,5.72h11.16l-.41,2.32h-13.92Z"/><path class="cls-8" d="M362.08,493.42c0,5-1.48,10.94-7.3,10.94s-7.28-5.45-7.28-10.8,1.8-10.74,7.38-10.74,7.2,5.43,7.2,10.6Zm-11.75,.14c0,3.97,.89,8.51,4.46,8.51s4.48-4.31,4.48-8.64c0-4.02-.82-8.33-4.37-8.33s-4.57,3.88-4.57,8.46Z"/><path class="cls-8" d="M369.09,493.17v-4.33h2.66v4.33h-2.66Zm0,10.83v-4.35h2.66v4.35h-2.66Z"/><path class="cls-8" d="M393.31,493.42c0,5-1.48,10.94-7.3,10.94s-7.28-5.45-7.28-10.8,1.8-10.74,7.38-10.74,7.2,5.43,7.2,10.6Zm-11.75,.14c0,3.97,.89,8.51,4.46,8.51s4.48-4.31,4.48-8.64c0-4.02-.82-8.33-4.37-8.33s-4.57,3.88-4.57,8.46Z"/><path class="cls-8" d="M414.1,493.42c0,5-1.48,10.94-7.3,10.94s-7.28-5.45-7.28-10.8,1.8-10.74,7.38-10.74,7.2,5.43,7.2,10.6Zm-11.75,.14c0,3.97,.89,8.51,4.46,8.51s4.48-4.31,4.48-8.64c0-4.02-.82-8.33-4.37-8.33s-4.57,3.88-4.57,8.46Z"/><path class="cls-8" d="M434.79,483.13v20.87h-2.77v-20.87h2.77Z"/><path class="cls-8" d="M456.49,483.13v12.56c0,4.93,2.7,6.27,5.38,6.27,3.13,0,5.33-1.44,5.33-6.27v-12.56h2.79v12.42c0,6.77-3.75,8.72-8.18,8.72s-8.12-2.1-8.12-8.52v-12.61h2.81Z"/><path class="cls-8" d="M478.4,483.13h2.75v10.24c1.55-1.61,6.85-6.86,10.14-10.24h3.45l-8.97,8.8,9.42,12.07h-3.36l-8-10.28-2.67,2.42v7.86h-2.75v-20.87Z"/><path class="cls-8" d="M503.61,483.13v20.87h-2.77v-20.87h2.77Z"/><path class="cls-8" d="M515.02,494.81v9.19h-2.74v-20.87h8.16c4.29,0,6.57,2.33,6.57,5.58,0,2.71-1.56,4.36-3.56,4.91,1.7,.46,3.19,1.73,3.19,5.35v.89c0,1.44-.07,3.26,.28,4.13h-2.69c-.38-.9-.35-2.53-.35-4.49v-.44c0-2.97-.84-4.26-4.58-4.26h-4.27Zm0-2.33h4.54c3.19,0,4.59-1.2,4.59-3.54,0-2.22-1.45-3.48-4.28-3.48h-4.85v7.02Z"/><path class="cls-8" d="M534.68,483.13h2.75v10.24c1.55-1.61,6.85-6.86,10.14-10.24h3.45l-8.97,8.8,9.42,12.07h-3.36l-8-10.28-2.67,2.42v7.86h-2.75v-20.87Z"/><path class="cls-8" d="M570.22,494.24h-10.38v7.39h11.4l-.36,2.37h-13.76v-20.87h13.59v2.37h-10.88v6.37h10.38v2.37Z"/></g><g><path class="cls-9" d="M59.6,753.61c-.53,1.74-.87,3.96-.91,5.28h-1.77c.09-1.62,.73-4.09,1.3-5.28h1.37Zm3.46,0c-.55,1.77-.87,3.89-.91,5.28h-1.77c.09-1.72,.78-4.18,1.31-5.28h1.36Z"/><path class="cls-9" d="M67.54,754.21h1.85v5.81h7.25v-5.81h1.85v13.92h-1.85v-6.53h-7.25v6.53h-1.85v-13.92Z"/><path class="cls-9" d="M85.98,768.13l-3.55-9.75h1.39l1.72,4.86c.5,1.43,1,2.87,1.22,3.76h.03c.21-.8,.76-2.3,1.27-3.72l1.79-4.91h1.33l-3.67,9.75h-1.53Z"/><path class="cls-9" d="M102.41,763.2c0,2.68-1.5,5.07-4.57,5.07-2.87,0-4.47-2.22-4.47-5.01s1.63-5.01,4.58-5.01c2.74,0,4.46,2.06,4.46,4.96Zm-7.69,.01c0,2.11,1.08,3.95,3.17,3.95,2.26,0,3.16-1.87,3.16-3.95s-1.02-3.87-3.16-3.87-3.18,1.79-3.18,3.87Z"/><path class="cls-9" d="M107.11,763.84v4.29h-1.28v-9.75h3.81c2,0,3.07,1.09,3.07,2.61,0,1.27-.73,2.03-1.66,2.29,.79,.21,1.49,.81,1.49,2.5v.42c0,.67-.03,1.52,.13,1.93h-1.26c-.18-.42-.17-1.18-.17-2.09v-.21c0-1.39-.39-1.99-2.14-1.99h-1.99Zm0-1.09h2.12c1.49,0,2.14-.56,2.14-1.66,0-1.04-.68-1.62-2-1.62h-2.26v3.28Z"/><path class="cls-9" d="M116.28,758.38h3.48c2.74,0,4.59,1.87,4.59,4.77s-1.81,4.97-4.64,4.97h-3.44v-9.75Zm1.29,8.65h2.04c2.29,0,3.38-1.64,3.38-3.85,0-1.92-.99-3.7-3.38-3.7h-2.05v7.55Z"/><path class="cls-9" d="M128.98,765.21l-1.05,2.92h-1.29l3.47-9.75h1.59l3.62,9.75h-1.38l-1.08-2.92h-3.89Zm3.56-1.11c-.93-2.56-1.44-3.92-1.65-4.67h-.01c-.24,.83-.81,2.47-1.56,4.67h3.22Z"/><path class="cls-9" d="M138.26,768.13v-9.75h1.71c1.4,2.28,4.44,7.13,4.99,8.19h.02c-.09-1.25-.08-2.79-.08-4.38v-3.81h1.22v9.75h-1.61c-1.29-2.12-4.46-7.33-5.07-8.42h-.02c.07,1.11,.07,2.76,.07,4.52v3.9h-1.23Z"/><path class="cls-9" d="M157.14,758.38h1.28v4.78c.72-.75,3.2-3.2,4.74-4.78h1.61l-4.19,4.11,4.4,5.64h-1.57l-3.74-4.8-1.25,1.13v3.67h-1.28v-9.75Z"/><path class="cls-9" d="M168.76,765.21l-1.05,2.92h-1.29l3.47-9.75h1.59l3.62,9.75h-1.38l-1.08-2.92h-3.89Zm3.56-1.11c-.93-2.56-1.44-3.92-1.65-4.67h-.01c-.24,.83-.81,2.47-1.56,4.67h3.22Z"/><path class="cls-9" d="M178.04,768.13v-9.75h1.71c1.4,2.28,4.44,7.13,4.99,8.19h.02c-.09-1.25-.08-2.79-.08-4.38v-3.81h1.22v9.75h-1.61c-1.29-2.12-4.46-7.33-5.07-8.42h-.02c.07,1.11,.07,2.76,.07,4.52v3.9h-1.23Z"/><path class="cls-9" d="M199.3,768.13l-3.55-9.75h1.39l1.72,4.86c.5,1.43,1,2.87,1.22,3.76h.03c.21-.8,.76-2.3,1.27-3.72l1.79-4.91h1.33l-3.67,9.75h-1.53Z"/><path class="cls-9" d="M208.65,758.38v9.75h-1.29v-9.75h1.29Z"/><path class="cls-9" d="M219.67,758.38h3.74c2.06,0,3.02,1.08,3.02,2.43,0,1.13-.65,1.87-1.4,2.12,.68,.22,1.72,.9,1.72,2.33,0,1.84-1.4,2.85-3.25,2.85h-3.83v-9.75Zm3.49,4.05c1.41,0,1.96-.56,1.96-1.51,0-.86-.62-1.48-1.76-1.48h-2.42v2.99h2.22Zm-2.22,4.63h2.41c1.22,0,2.07-.58,2.07-1.79,0-1.06-.68-1.77-2.32-1.77h-2.16v3.56Z"/><path class="cls-9" d="M231.42,763.84v4.29h-1.28v-9.75h3.81c2,0,3.07,1.09,3.07,2.61,0,1.27-.73,2.03-1.66,2.29,.79,.21,1.49,.81,1.49,2.5v.42c0,.67-.03,1.52,.13,1.93h-1.26c-.18-.42-.17-1.18-.17-2.09v-.21c0-1.39-.39-1.99-2.14-1.99h-1.99Zm0-1.09h2.12c1.49,0,2.14-.56,2.14-1.66,0-1.04-.68-1.62-2-1.62h-2.26v3.28Z"/><path class="cls-9" d="M241.72,758.38v5.87c0,2.3,1.26,2.93,2.51,2.93,1.46,0,2.49-.67,2.49-2.93v-5.87h1.3v5.8c0,3.16-1.75,4.07-3.82,4.07s-3.79-.98-3.79-3.98v-5.89h1.31Z"/><path class="cls-9" d="M259.8,768.13h-.99c-.07-.19-.1-.62-.12-1.32-.42,.69-1.26,1.45-3.03,1.45-2.81,0-4.3-2.13-4.3-4.91,0-2.92,1.6-5.11,4.54-5.11,2.26,0,3.69,1.23,3.97,2.97h-1.29c-.33-1.09-1.11-1.89-2.7-1.89-2.26,0-3.16,1.81-3.16,3.97,0,2.01,.91,3.88,3.11,3.88s2.73-1.45,2.73-3.1v-.1h-2.74v-1.11h4v5.26Z"/><path class="cls-9" d="M269.67,763.58h-4.85v3.45h5.32l-.17,1.11h-6.42v-9.75h6.35v1.11h-5.08v2.98h4.85v1.11Z"/><path class="cls-9" d="M280.99,765.42c.26,1.17,1.06,1.8,2.48,1.8,1.52,0,2.12-.71,2.12-1.63,0-.98-.48-1.53-2.43-2-2.3-.56-3.09-1.34-3.09-2.71,0-1.45,1.07-2.63,3.24-2.63,2.32,0,3.28,1.34,3.41,2.62h-1.31c-.17-.87-.72-1.58-2.14-1.58-1.19,0-1.85,.53-1.85,1.46s.55,1.28,2.26,1.69c2.78,.68,3.27,1.76,3.27,3.01,0,1.57-1.16,2.8-3.55,2.8s-3.51-1.34-3.71-2.83h1.32Z"/><path class="cls-9" d="M298.02,765.37c-.43,1.65-1.67,2.89-3.88,2.89-2.91,0-4.38-2.21-4.38-4.97s1.47-5.04,4.43-5.04c2.3,0,3.55,1.31,3.83,2.94h-1.29c-.35-1.06-1.05-1.86-2.59-1.86-2.15,0-3.03,1.95-3.03,3.93s.83,3.93,3.08,3.93c1.5,0,2.16-.86,2.53-1.81h1.3Z"/><path class="cls-9" d="M307.43,763.58h-4.85v3.45h5.32l-.17,1.11h-6.42v-9.75h6.35v1.11h-5.08v2.98h4.85v1.11Z"/><path class="cls-9" d="M311.06,768.13v-9.75h1.71c1.4,2.28,4.44,7.13,4.99,8.19h.02c-.09-1.25-.08-2.79-.08-4.38v-3.81h1.22v9.75h-1.61c-1.29-2.12-4.46-7.33-5.07-8.42h-.02c.07,1.11,.07,2.76,.07,4.52v3.9h-1.23Z"/><path class="cls-9" d="M329.08,763.58h-4.85v3.45h5.32l-.17,1.11h-6.42v-9.75h6.35v1.11h-5.08v2.98h4.85v1.11Z"/><path class="cls-9" d="M332.71,758.38h1.28v4.78c.73-.75,3.2-3.2,4.74-4.78h1.61l-4.19,4.11,4.4,5.64h-1.57l-3.74-4.8-1.25,1.13v3.67h-1.28v-9.75Z"/><path class="cls-9" d="M344.08,758.38v5.87c0,2.3,1.26,2.93,2.51,2.93,1.46,0,2.49-.67,2.49-2.93v-5.87h1.3v5.8c0,3.16-1.75,4.07-3.82,4.07s-3.79-.98-3.79-3.98v-5.89h1.31Z"/><path class="cls-9" d="M354.31,768.13v-9.75h1.71c1.4,2.28,4.44,7.13,4.99,8.19h.02c-.09-1.25-.08-2.79-.08-4.38v-3.81h1.22v9.75h-1.61c-1.29-2.12-4.46-7.33-5.07-8.42h-.02c.07,1.11,.07,2.76,.07,4.52v3.9h-1.23Z"/><path class="cls-9" d="M366.71,765.42c.26,1.17,1.06,1.8,2.48,1.8,1.52,0,2.12-.71,2.12-1.63,0-.98-.48-1.53-2.43-2-2.3-.56-3.09-1.34-3.09-2.71,0-1.45,1.07-2.63,3.24-2.63,2.32,0,3.28,1.34,3.41,2.62h-1.31c-.17-.87-.72-1.58-2.14-1.58-1.19,0-1.85,.53-1.85,1.46s.55,1.28,2.26,1.69c2.78,.68,3.27,1.76,3.27,3.01,0,1.57-1.16,2.8-3.55,2.8s-3.51-1.34-3.71-2.83h1.32Z"/><path class="cls-9" d="M377.93,759.49h-3.15v-1.11h7.6v1.11h-3.15v8.64h-1.3v-8.64Z"/><path class="cls-9" d="M394.2,759.49h-3.15v-1.11h7.6v1.11h-3.15v8.64h-1.3v-8.64Z"/><path class="cls-9" d="M402.73,758.38v9.75h-1.29v-9.75h1.29Z"/><path class="cls-9" d="M406.77,758.38h1.29v8.64h5.08l-.18,1.11h-6.2v-9.75Z"/><path class="cls-9" d="M58.8,789.21l-1.05,2.92h-1.29l3.47-9.75h1.59l3.62,9.75h-1.38l-1.08-2.92h-3.89Zm3.56-1.11c-.93-2.56-1.44-3.92-1.65-4.67h-.01c-.24,.83-.81,2.47-1.56,4.67h3.22Z"/><path class="cls-9" d="M68.91,783.49h-3.15v-1.11h7.6v1.11h-3.15v8.64h-1.3v-8.64Z"/><path class="cls-9" d="M83.21,782.38h3.74c2.06,0,3.02,1.08,3.02,2.43,0,1.13-.65,1.87-1.4,2.12,.68,.22,1.72,.9,1.72,2.33,0,1.84-1.4,2.85-3.25,2.85h-3.83v-9.75Zm3.49,4.05c1.41,0,1.96-.56,1.96-1.51,0-.86-.62-1.48-1.76-1.48h-2.42v2.99h2.22Zm-2.22,4.63h2.41c1.22,0,2.07-.58,2.07-1.79,0-1.06-.68-1.77-2.32-1.77h-2.16v3.56Z"/><path class="cls-9" d="M94.96,787.84v4.29h-1.28v-9.75h3.81c2,0,3.07,1.09,3.07,2.61,0,1.27-.73,2.03-1.66,2.29,.79,.21,1.49,.81,1.49,2.5v.42c0,.67-.03,1.52,.13,1.93h-1.26c-.18-.42-.17-1.18-.17-2.09v-.21c0-1.39-.39-1.99-2.14-1.99h-1.99Zm0-1.09h2.12c1.49,0,2.14-.56,2.14-1.66,0-1.04-.68-1.62-2-1.62h-2.26v3.28Z"/><path class="cls-9" d="M106.39,792.13v-3.58c0-.09-.02-.19-.07-.26l-3.43-5.91h1.48c.89,1.58,2.3,4.1,2.74,4.95,.42-.84,1.88-3.38,2.8-4.95h1.38l-3.54,5.93c-.03,.06-.06,.11-.06,.25v3.56h-1.3Z"/><path class="cls-9" d="M113.78,782.38h3.48c2.74,0,4.59,1.87,4.59,4.77s-1.81,4.97-4.64,4.97h-3.44v-9.75Zm1.29,8.65h2.04c2.29,0,3.38-1.64,3.38-3.85,0-1.92-.99-3.7-3.38-3.7h-2.05v7.55Z"/><path class="cls-9" d="M131.39,787.58h-4.85v3.45h5.32l-.17,1.11h-6.42v-9.75h6.35v1.11h-5.08v2.98h4.85v1.11Z"/><path class="cls-9" d="M144.07,783.49h-3.15v-1.11h7.6v1.11h-3.15v8.64h-1.3v-8.64Z"/><path class="cls-9" d="M151.55,789.21l-1.05,2.92h-1.29l3.47-9.75h1.59l3.62,9.75h-1.38l-1.08-2.92h-3.89Zm3.56-1.11c-.93-2.56-1.44-3.92-1.65-4.67h-.01c-.24,.83-.81,2.47-1.56,4.67h3.22Z"/><path class="cls-9" d="M160.83,782.38h3.74c2.06,0,3.02,1.08,3.02,2.43,0,1.13-.65,1.87-1.4,2.12,.68,.22,1.72,.9,1.72,2.33,0,1.84-1.4,2.85-3.25,2.85h-3.83v-9.75Zm3.49,4.05c1.41,0,1.96-.56,1.96-1.51,0-.86-.62-1.48-1.76-1.48h-2.42v2.99h2.22Zm-2.22,4.63h2.41c1.22,0,2.07-.58,2.07-1.79,0-1.06-.68-1.77-2.32-1.77h-2.16v3.56Z"/><path class="cls-9" d="M172.45,782.38v5.87c0,2.3,1.26,2.93,2.51,2.93,1.46,0,2.49-.67,2.49-2.93v-5.87h1.3v5.8c0,3.16-1.75,4.07-3.82,4.07s-3.79-.98-3.79-3.98v-5.89h1.31Z"/><path class="cls-9" d="M188.8,787.58h-4.85v3.45h5.32l-.17,1.11h-6.42v-9.75h6.35v1.11h-5.08v2.98h4.85v1.11Z"/><path class="cls-9" d="M193.71,787.84v4.29h-1.28v-9.75h3.81c2,0,3.07,1.09,3.07,2.61,0,1.27-.73,2.03-1.66,2.29,.79,.21,1.49,.81,1.49,2.5v.42c0,.67-.03,1.52,.13,1.93h-1.26c-.18-.42-.17-1.18-.17-2.09v-.21c0-1.39-.39-1.99-2.14-1.99h-1.99Zm0-1.09h2.12c1.49,0,2.14-.56,2.14-1.66,0-1.04-.68-1.62-2-1.62h-2.26v3.28Z"/><path class="cls-9" d="M218.37,787.2c0,2.68-1.5,5.07-4.57,5.07-2.87,0-4.47-2.22-4.47-5.01s1.63-5.01,4.58-5.01c2.74,0,4.46,2.06,4.46,4.96Zm-7.69,.01c0,2.11,1.08,3.95,3.17,3.95,2.26,0,3.16-1.87,3.16-3.95s-1.02-3.87-3.16-3.87-3.18,1.79-3.18,3.87Z"/><path class="cls-9" d="M229.69,792.13h-.99c-.07-.19-.1-.62-.12-1.32-.42,.69-1.26,1.45-3.03,1.45-2.81,0-4.3-2.13-4.3-4.91,0-2.92,1.6-5.11,4.54-5.11,2.26,0,3.69,1.23,3.97,2.97h-1.29c-.33-1.09-1.11-1.89-2.7-1.89-2.26,0-3.16,1.81-3.16,3.97,0,2.01,.91,3.88,3.11,3.88s2.73-1.45,2.73-3.1v-.1h-2.74v-1.11h4v5.26Z"/><path class="cls-9" d="M241.05,789.42c.26,1.17,1.06,1.8,2.48,1.8,1.52,0,2.12-.71,2.12-1.63,0-.98-.48-1.53-2.43-2-2.3-.56-3.09-1.34-3.09-2.71,0-1.45,1.07-2.63,3.24-2.63,2.32,0,3.28,1.34,3.41,2.62h-1.32c-.17-.87-.72-1.58-2.14-1.58-1.19,0-1.85,.53-1.85,1.46s.55,1.28,2.26,1.69c2.78,.68,3.27,1.76,3.27,3.01,0,1.57-1.16,2.8-3.55,2.8s-3.51-1.34-3.71-2.83h1.31Z"/><path class="cls-9" d="M252.75,792.13l-3.55-9.75h1.39l1.72,4.86c.5,1.43,1,2.87,1.22,3.76h.03c.21-.8,.76-2.3,1.27-3.72l1.79-4.91h1.33l-3.67,9.75h-1.53Z"/><path class="cls-9" d="M271.34,782.38v1.12h-5.07v2.95h4.84v1.12h-4.84v3.44h5.31l-.17,1.12h-6.42v-3.32h-3.3l-2.08,3.32h-1.4l6.07-9.75h7.04Zm-6.35,5.31v-4.29h-.03l-2.65,4.29h2.69Z"/><path class="cls-9" d="M276.02,787.84v4.29h-1.28v-9.75h3.81c2,0,3.07,1.09,3.07,2.61,0,1.27-.73,2.03-1.66,2.29,.8,.21,1.49,.81,1.49,2.5v.42c0,.67-.03,1.52,.13,1.93h-1.26c-.18-.42-.17-1.18-.17-2.09v-.21c0-1.39-.39-1.99-2.14-1.99h-1.99Zm0-1.09h2.12c1.49,0,2.14-.56,2.14-1.66,0-1.04-.67-1.62-2-1.62h-2.27v3.28Z"/><path class="cls-9" d="M291.31,787.58h-4.85v3.45h5.32l-.17,1.11h-6.42v-9.75h6.35v1.11h-5.08v2.98h4.85v1.11Z"/><path class="cls-9" d="M308.13,787.58h-4.85v3.45h5.32l-.17,1.11h-6.42v-9.75h6.35v1.11h-5.08v2.98h4.85v1.11Z"/><path class="cls-9" d="M320.1,787.98c0-1.81,.02-3.65,.06-4.67h-.05c-.42,1.58-1.99,5.76-3.11,8.83h-1.16c-.84-2.49-2.48-7.18-2.92-8.85h-.04c.07,1.13,.11,3.29,.11,4.96v3.89h-1.22v-9.75h1.93c1.11,3.02,2.46,6.93,2.79,8.17h.02c.23-.94,1.83-5.22,2.97-8.17h1.88v9.75h-1.26v-4.15Z"/><path class="cls-9" d="M325.41,792.13v-9.75h1.71c1.4,2.28,4.44,7.13,4.99,8.19h.02c-.09-1.25-.08-2.79-.08-4.38v-3.81h1.22v9.75h-1.61c-1.29-2.12-4.46-7.33-5.07-8.42h-.02c.07,1.11,.07,2.76,.07,4.52v3.9h-1.23Z"/><path class="cls-9" d="M343.42,787.58h-4.85v3.45h5.32l-.17,1.11h-6.42v-9.75h6.35v1.11h-5.08v2.98h4.85v1.11Z"/><path class="cls-9" d="M348.33,787.84v4.29h-1.28v-9.75h3.81c2,0,3.07,1.09,3.07,2.61,0,1.27-.73,2.03-1.66,2.29,.8,.21,1.49,.81,1.49,2.5v.42c0,.67-.03,1.52,.13,1.93h-1.26c-.18-.42-.17-1.18-.17-2.09v-.21c0-1.39-.39-1.99-2.14-1.99h-1.99Zm0-1.09h2.12c1.49,0,2.14-.56,2.14-1.66,0-1.04-.67-1.62-2-1.62h-2.27v3.28Z"/><path class="cls-9" d="M360.23,787.93v-.3c0-1.06,.32-2.06,1.9-3.46,1.15-1.03,1.34-1.81,1.34-2.63,0-.97-.61-2.07-2.13-2.07s-2.17,.92-2.38,2.29h-1.73c.07-1.22,.9-3.75,4.15-3.74,2.92,0,3.89,2.03,3.89,3.55,0,1.4-.45,2.31-1.92,3.64-1,.91-1.32,1.6-1.32,2.56v.17h-1.8Zm0,4.2v-2.76h1.8v2.76h-1.8Z"/><path class="cls-9" d="M57.47,806.38h1.29v4.07h5.08v-4.07h1.29v9.75h-1.29v-4.57h-5.08v4.57h-1.29v-9.75Z"/><path class="cls-9" d="M71.51,816.13l-3.55-9.75h1.39l1.72,4.86c.5,1.43,1,2.87,1.22,3.76h.03c.21-.8,.76-2.3,1.27-3.72l1.79-4.91h1.33l-3.67,9.75h-1.53Z"/><path class="cls-9" d="M79.89,813.21l-1.05,2.92h-1.29l3.47-9.75h1.59l3.62,9.75h-1.38l-1.08-2.92h-3.89Zm3.56-1.11c-.93-2.56-1.44-3.92-1.65-4.67h-.01c-.24,.83-.81,2.47-1.56,4.67h3.22Z"/><path class="cls-9" d="M89.17,806.38h3.48c2.74,0,4.59,1.87,4.59,4.77s-1.81,4.97-4.64,4.97h-3.44v-9.75Zm1.29,8.65h2.04c2.29,0,3.38-1.64,3.38-3.85,0-1.92-.99-3.7-3.38-3.7h-2.05v7.55Z"/><path class="cls-9" d="M108.33,813.42c.26,1.17,1.06,1.8,2.48,1.8,1.52,0,2.12-.71,2.12-1.63,0-.98-.48-1.53-2.43-2-2.3-.56-3.09-1.34-3.09-2.71,0-1.45,1.07-2.63,3.24-2.63,2.32,0,3.28,1.34,3.41,2.62h-1.32c-.17-.87-.72-1.58-2.14-1.58-1.19,0-1.85,.53-1.85,1.46s.55,1.28,2.26,1.69c2.78,.68,3.27,1.76,3.27,3.01,0,1.57-1.16,2.8-3.55,2.8s-3.51-1.34-3.71-2.83h1.31Z"/><path class="cls-9" d="M117.56,806.38h1.28v4.78c.73-.75,3.2-3.2,4.74-4.78h1.61l-4.19,4.11,4.4,5.64h-1.57l-3.74-4.8-1.25,1.13v3.67h-1.28v-9.75Z"/><path class="cls-9" d="M129.18,813.21l-1.05,2.92h-1.29l3.47-9.75h1.59l3.62,9.75h-1.38l-1.08-2.92h-3.89Zm3.56-1.11c-.93-2.56-1.44-3.92-1.65-4.67h-.01c-.24,.83-.81,2.47-1.56,4.67h3.22Z"/><path class="cls-9" d="M138.47,806.38h1.29v8.64h5.08l-.18,1.11h-6.2v-9.75Z"/><path class="cls-9" d="M155.39,813.42c.26,1.17,1.06,1.8,2.48,1.8,1.52,0,2.12-.71,2.12-1.63,0-.98-.48-1.53-2.43-2-2.3-.56-3.09-1.34-3.09-2.71,0-1.45,1.07-2.63,3.24-2.63,2.32,0,3.28,1.34,3.41,2.62h-1.32c-.17-.87-.72-1.58-2.14-1.58-1.19,0-1.85,.53-1.85,1.46s.55,1.28,2.26,1.69c2.78,.68,3.27,1.76,3.27,3.01,0,1.57-1.16,2.8-3.55,2.8s-3.51-1.34-3.71-2.83h1.31Z"/><path class="cls-9" d="M172.42,813.37c-.43,1.65-1.67,2.89-3.88,2.89-2.92,0-4.38-2.21-4.38-4.97s1.47-5.04,4.43-5.04c2.3,0,3.55,1.31,3.83,2.94h-1.29c-.35-1.06-1.05-1.86-2.59-1.86-2.15,0-3.03,1.95-3.03,3.93s.83,3.93,3.08,3.93c1.5,0,2.16-.86,2.53-1.81h1.3Z"/><path class="cls-9" d="M181.84,811.58h-4.85v3.45h5.32l-.17,1.11h-6.42v-9.75h6.35v1.11h-5.08v2.98h4.85v1.11Z"/><path class="cls-9" d="M185.47,816.13v-9.75h1.71c1.4,2.28,4.44,7.13,4.99,8.19h.02c-.09-1.25-.08-2.79-.08-4.38v-3.81h1.22v9.75h-1.61c-1.29-2.12-4.46-7.33-5.07-8.42h-.02c.07,1.11,.07,2.76,.07,4.52v3.9h-1.23Z"/><path class="cls-9" d="M203.48,811.58h-4.85v3.45h5.32l-.17,1.11h-6.42v-9.75h6.35v1.11h-5.08v2.98h4.85v1.11Z"/><path class="cls-9" d="M207.11,806.38h1.28v4.78c.73-.75,3.2-3.2,4.74-4.78h1.61l-4.19,4.11,4.4,5.64h-1.57l-3.74-4.8-1.25,1.13v3.67h-1.28v-9.75Z"/><path class="cls-9" d="M218.48,806.38v5.87c0,2.3,1.26,2.93,2.51,2.93,1.46,0,2.49-.67,2.49-2.93v-5.87h1.3v5.8c0,3.16-1.75,4.07-3.82,4.07s-3.79-.98-3.79-3.98v-5.89h1.31Z"/><path class="cls-9" d="M228.71,816.13v-9.75h1.71c1.4,2.28,4.44,7.13,4.99,8.19h.02c-.09-1.25-.08-2.79-.08-4.38v-3.81h1.22v9.75h-1.61c-1.29-2.12-4.46-7.33-5.07-8.42h-.02c.07,1.11,.07,2.76,.07,4.52v3.9h-1.23Z"/><path class="cls-9" d="M241.11,813.42c.26,1.17,1.06,1.8,2.48,1.8,1.52,0,2.12-.71,2.12-1.63,0-.98-.48-1.53-2.43-2-2.3-.56-3.09-1.34-3.09-2.71,0-1.45,1.07-2.63,3.24-2.63,2.32,0,3.28,1.34,3.41,2.62h-1.32c-.17-.87-.72-1.58-2.14-1.58-1.19,0-1.85,.53-1.85,1.46s.55,1.28,2.26,1.69c2.78,.68,3.27,1.76,3.27,3.01,0,1.57-1.16,2.8-3.55,2.8s-3.51-1.34-3.71-2.83h1.31Z"/><path class="cls-9" d="M252.33,807.49h-3.15v-1.11h7.6v1.11h-3.15v8.64h-1.3v-8.64Z"/><path class="cls-9" d="M265.68,811.58h-4.85v3.45h5.32l-.17,1.11h-6.42v-9.75h6.35v1.11h-5.08v2.98h4.85v1.11Z"/><path class="cls-9" d="M269.31,816.13v-9.75h1.71c1.4,2.28,4.44,7.13,4.99,8.19h.02c-.09-1.25-.08-2.79-.08-4.38v-3.81h1.22v9.75h-1.61c-1.29-2.12-4.46-7.33-5.07-8.42h-.02c.07,1.11,.07,2.76,.07,4.52v3.9h-1.23Z"/><path class="cls-9" d="M288.19,806.38h1.28v4.78c.73-.75,3.2-3.2,4.74-4.78h1.61l-4.19,4.11,4.4,5.64h-1.57l-3.74-4.8-1.25,1.13v3.67h-1.28v-9.75Z"/><path class="cls-9" d="M299.56,806.38v5.87c0,2.3,1.26,2.93,2.51,2.93,1.46,0,2.49-.67,2.49-2.93v-5.87h1.3v5.8c0,3.16-1.75,4.07-3.82,4.07s-3.79-.98-3.79-3.98v-5.89h1.31Z"/><path class="cls-9" d="M309.79,816.13v-9.75h1.71c1.4,2.28,4.44,7.13,4.99,8.19h.02c-.09-1.25-.08-2.79-.08-4.38v-3.81h1.22v9.75h-1.61c-1.29-2.12-4.46-7.33-5.07-8.42h-.02c.07,1.11,.07,2.76,.07,4.52v3.9h-1.23Z"/><path class="cls-9" d="M321.69,816.13v-9.75h1.71c1.4,2.28,4.44,7.13,4.99,8.19h.02c-.09-1.25-.08-2.79-.08-4.38v-3.81h1.22v9.75h-1.61c-1.29-2.12-4.46-7.33-5.07-8.42h-.02c.07,1.11,.07,2.76,.07,4.52v3.9h-1.23Z"/><path class="cls-9" d="M339.7,811.58h-4.85v3.45h5.32l-.17,1.11h-6.42v-9.75h6.35v1.11h-5.08v2.98h4.85v1.11Z"/><path class="cls-9" d="M350.41,806.38h3.74c2.06,0,3.02,1.08,3.02,2.43,0,1.13-.65,1.87-1.4,2.12,.68,.22,1.72,.9,1.72,2.33,0,1.84-1.4,2.85-3.25,2.85h-3.83v-9.75Zm3.49,4.05c1.41,0,1.96-.56,1.96-1.51,0-.86-.62-1.48-1.76-1.48h-2.42v2.99h2.22Zm-2.22,4.63h2.41c1.22,0,2.07-.58,2.07-1.79,0-1.06-.68-1.77-2.32-1.77h-2.16v3.56Z"/><path class="cls-9" d="M362.17,806.38v9.75h-1.29v-9.75h1.29Z"/><path class="cls-9" d="M366.21,806.38h3.48c2.74,0,4.59,1.87,4.59,4.77s-1.81,4.97-4.64,4.97h-3.44v-9.75Zm1.29,8.65h2.04c2.29,0,3.39-1.64,3.39-3.85,0-1.92-1-3.7-3.38-3.7h-2.05v7.55Z"/><path class="cls-9" d="M378.99,811.84v4.29h-1.28v-9.75h3.81c2,0,3.07,1.09,3.07,2.61,0,1.27-.73,2.03-1.66,2.29,.8,.21,1.49,.81,1.49,2.5v.42c0,.67-.03,1.52,.13,1.93h-1.26c-.18-.42-.17-1.18-.17-2.09v-.21c0-1.39-.39-1.99-2.14-1.99h-1.99Zm0-1.09h2.12c1.49,0,2.14-.56,2.14-1.66,0-1.04-.67-1.62-2-1.62h-2.27v3.28Z"/><path class="cls-9" d="M389.62,813.21l-1.05,2.92h-1.29l3.47-9.75h1.59l3.62,9.75h-1.38l-1.08-2.92h-3.89Zm3.56-1.11c-.93-2.56-1.44-3.92-1.65-4.67h-.01c-.24,.83-.81,2.47-1.56,4.67h3.22Z"/><path class="cls-9" d="M406.66,816.13h-.99c-.07-.19-.1-.62-.12-1.32-.42,.69-1.26,1.45-3.03,1.45-2.81,0-4.3-2.13-4.3-4.91,0-2.92,1.6-5.11,4.54-5.11,2.26,0,3.69,1.23,3.97,2.97h-1.29c-.33-1.09-1.11-1.89-2.7-1.89-2.26,0-3.16,1.81-3.16,3.97,0,2.01,.91,3.88,3.11,3.88s2.73-1.45,2.73-3.1v-.1h-2.74v-1.11h4v5.26Z"/><path class="cls-9" d="M416.54,811.58h-4.85v3.45h5.32l-.17,1.11h-6.42v-9.75h6.35v1.11h-5.08v2.98h4.85v1.11Z"/><path class="cls-9" d="M435.57,811.98c0-1.81,.02-3.65,.06-4.67h-.05c-.42,1.58-1.99,5.76-3.11,8.83h-1.16c-.84-2.49-2.48-7.18-2.92-8.85h-.04c.07,1.13,.11,3.29,.11,4.96v3.89h-1.22v-9.75h1.93c1.11,3.02,2.46,6.93,2.79,8.17h.02c.23-.94,1.83-5.22,2.97-8.17h1.88v9.75h-1.26v-4.15Z"/><path class="cls-9" d="M446.99,811.58h-4.85v3.45h5.32l-.17,1.11h-6.42v-9.75h6.35v1.11h-5.08v2.98h4.85v1.11Z"/><path class="cls-9" d="M450.62,806.38h3.48c2.74,0,4.59,1.87,4.59,4.77s-1.81,4.97-4.64,4.97h-3.44v-9.75Zm1.29,8.65h2.04c2.29,0,3.38-1.64,3.38-3.85,0-1.92-.99-3.7-3.38-3.7h-2.05v7.55Z"/><path class="cls-9" d="M65.97,835.2c0,2.68-1.5,5.07-4.57,5.07-2.87,0-4.47-2.22-4.47-5.01s1.63-5.01,4.58-5.01c2.74,0,4.46,2.06,4.46,4.96Zm-7.69,.01c0,2.11,1.08,3.95,3.17,3.95,2.26,0,3.16-1.87,3.16-3.95s-1.02-3.87-3.16-3.87-3.18,1.79-3.18,3.87Z"/><path class="cls-9" d="M77.29,840.13h-.99c-.07-.19-.1-.62-.12-1.32-.42,.69-1.26,1.45-3.03,1.45-2.81,0-4.3-2.13-4.3-4.91,0-2.92,1.6-5.11,4.54-5.11,2.26,0,3.69,1.23,3.97,2.97h-1.29c-.33-1.09-1.11-1.89-2.7-1.89-2.26,0-3.16,1.81-3.16,3.97,0,2.01,.91,3.88,3.11,3.88s2.73-1.45,2.73-3.1v-.1h-2.74v-1.11h4v5.26Z"/><path class="cls-9" d="M88.04,830.38h3.74c2.06,0,3.02,1.08,3.02,2.43,0,1.13-.65,1.87-1.4,2.12,.68,.22,1.72,.9,1.72,2.33,0,1.84-1.4,2.85-3.25,2.85h-3.83v-9.75Zm3.49,4.05c1.41,0,1.96-.56,1.96-1.51,0-.86-.62-1.48-1.76-1.48h-2.42v2.99h2.22Zm-2.22,4.63h2.41c1.22,0,2.07-.58,2.07-1.79,0-1.06-.68-1.77-2.32-1.77h-2.16v3.56Z"/><path class="cls-9" d="M99.79,835.84v4.29h-1.28v-9.75h3.81c2,0,3.07,1.09,3.07,2.61,0,1.27-.73,2.03-1.66,2.29,.79,.21,1.49,.81,1.49,2.5v.42c0,.67-.03,1.52,.13,1.93h-1.26c-.18-.42-.17-1.18-.17-2.09v-.21c0-1.39-.39-1.99-2.14-1.99h-1.99Zm0-1.09h2.12c1.49,0,2.14-.56,2.14-1.66,0-1.04-.68-1.62-2-1.62h-2.26v3.28Z"/><path class="cls-9" d="M110.09,830.38v5.87c0,2.3,1.26,2.93,2.51,2.93,1.46,0,2.49-.67,2.49-2.93v-5.87h1.3v5.8c0,3.16-1.75,4.07-3.82,4.07s-3.79-.98-3.79-3.98v-5.89h1.31Z"/><path class="cls-9" d="M128.17,840.13h-.99c-.07-.19-.1-.62-.12-1.32-.42,.69-1.26,1.45-3.03,1.45-2.81,0-4.3-2.13-4.3-4.91,0-2.92,1.6-5.11,4.54-5.11,2.26,0,3.69,1.23,3.97,2.97h-1.29c-.33-1.09-1.11-1.89-2.7-1.89-2.26,0-3.16,1.81-3.16,3.97,0,2.01,.91,3.88,3.11,3.88s2.73-1.45,2.73-3.1v-.1h-2.74v-1.11h4v5.26Z"/><path class="cls-9" d="M138.04,835.58h-4.85v3.45h5.32l-.17,1.11h-6.42v-9.75h6.35v1.11h-5.08v2.98h4.85v1.11Z"/><path class="cls-9" d="M142.39,837.42c.26,1.17,1.06,1.8,2.48,1.8,1.52,0,2.12-.71,2.12-1.63,0-.98-.48-1.53-2.43-2-2.3-.56-3.09-1.34-3.09-2.71,0-1.45,1.07-2.63,3.24-2.63,2.32,0,3.28,1.34,3.41,2.62h-1.32c-.17-.87-.72-1.58-2.14-1.58-1.19,0-1.85,.53-1.85,1.46s.55,1.28,2.26,1.69c2.78,.68,3.27,1.76,3.27,3.01,0,1.57-1.16,2.8-3.55,2.8s-3.51-1.34-3.71-2.83h1.31Z"/><path class="cls-9" d="M160.7,831.49h-3.15v-1.11h7.6v1.11h-3.15v8.64h-1.3v-8.64Z"/><path class="cls-9" d="M169.23,830.38v9.75h-1.29v-9.75h1.29Z"/><path class="cls-9" d="M173.27,830.38h1.29v8.64h5.08l-.18,1.11h-6.2v-9.75Z"/><path class="cls-9" d="M190.88,830.38v9.75h-1.29v-9.75h1.29Z"/><path class="cls-9" d="M201.9,830.38h3.48c2.74,0,4.59,1.87,4.59,4.77s-1.81,4.97-4.64,4.97h-3.44v-9.75Zm1.29,8.65h2.04c2.29,0,3.38-1.64,3.38-3.85,0-1.92-.99-3.7-3.38-3.7h-2.05v7.55Z"/><path class="cls-9" d="M219.5,835.58h-4.85v3.45h5.32l-.17,1.11h-6.42v-9.75h6.35v1.11h-5.08v2.98h4.85v1.11Z"/><path class="cls-9" d="M223.13,830.38h3.74c2.06,0,3.02,1.08,3.02,2.43,0,1.13-.65,1.87-1.4,2.12,.68,.22,1.72,.9,1.72,2.33,0,1.84-1.4,2.85-3.25,2.85h-3.83v-9.75Zm3.49,4.05c1.41,0,1.96-.56,1.96-1.51,0-.86-.62-1.48-1.76-1.48h-2.42v2.99h2.22Zm-2.22,4.63h2.41c1.22,0,2.07-.58,2.07-1.79,0-1.06-.68-1.77-2.32-1.77h-2.16v3.56Z"/><path class="cls-9" d="M234.96,837.21l-1.05,2.92h-1.29l3.47-9.75h1.59l3.62,9.75h-1.38l-1.08-2.92h-3.89Zm3.56-1.11c-.93-2.56-1.44-3.92-1.65-4.67h-.01c-.24,.83-.81,2.47-1.56,4.67h3.22Z"/><path class="cls-9" d="M245.07,831.49h-3.15v-1.11h7.6v1.11h-3.15v8.64h-1.3v-8.64Z"/><path class="cls-9" d="M258.42,835.58h-4.85v3.45h5.32l-.17,1.11h-6.42v-9.75h6.35v1.11h-5.08v2.98h4.85v1.11Z"/><path class="cls-9" d="M262.05,840.13v-9.75h1.71c1.4,2.28,4.44,7.13,4.99,8.19h.02c-.09-1.25-.08-2.79-.08-4.38v-3.81h1.22v9.75h-1.61c-1.29-2.12-4.46-7.33-5.07-8.42h-.02c.07,1.11,.07,2.76,.07,4.52v3.9h-1.23Z"/><path class="cls-9" d="M289.43,835.2c0,2.68-1.5,5.07-4.57,5.07-2.87,0-4.47-2.22-4.47-5.01s1.63-5.01,4.58-5.01c2.74,0,4.46,2.06,4.46,4.96Zm-7.69,.01c0,2.11,1.08,3.95,3.17,3.95,2.26,0,3.16-1.87,3.16-3.95s-1.02-3.87-3.16-3.87-3.18,1.79-3.18,3.87Z"/><path class="cls-9" d="M301.17,835.98c0-1.81,.02-3.65,.06-4.67h-.05c-.42,1.58-1.99,5.76-3.11,8.83h-1.16c-.84-2.49-2.48-7.18-2.92-8.85h-.04c.07,1.13,.11,3.29,.11,4.96v3.89h-1.22v-9.75h1.93c1.11,3.02,2.46,6.93,2.79,8.17h.02c.23-.94,1.83-5.22,2.97-8.17h1.88v9.75h-1.26v-4.15Z"/><path class="cls-9" d="M315.43,831.49h-3.15v-1.11h7.6v1.11h-3.15v8.64h-1.3v-8.64Z"/><path class="cls-9" d="M322.91,837.21l-1.05,2.92h-1.29l3.47-9.75h1.59l3.62,9.75h-1.38l-1.08-2.92h-3.89Zm3.56-1.11c-.93-2.56-1.44-3.92-1.65-4.67h-.01c-.24,.83-.81,2.47-1.56,4.67h3.22Z"/><path class="cls-9" d="M332.19,830.38h3.74c2.06,0,3.02,1.08,3.02,2.43,0,1.13-.65,1.87-1.4,2.12,.68,.22,1.72,.9,1.72,2.33,0,1.84-1.4,2.85-3.25,2.85h-3.83v-9.75Zm3.49,4.05c1.41,0,1.96-.56,1.96-1.51,0-.86-.62-1.48-1.76-1.48h-2.42v2.99h2.22Zm-2.22,4.63h2.41c1.22,0,2.07-.58,2.07-1.79,0-1.06-.68-1.77-2.32-1.77h-2.16v3.56Z"/><path class="cls-9" d="M343.81,830.38v5.87c0,2.3,1.26,2.93,2.51,2.93,1.46,0,2.49-.67,2.49-2.93v-5.87h1.3v5.8c0,3.16-1.75,4.07-3.82,4.07s-3.79-.98-3.79-3.98v-5.89h1.31Z"/><path class="cls-9" d="M356.78,835.93v-.3c0-1.06,.32-2.06,1.9-3.46,1.15-1.03,1.34-1.81,1.34-2.63,0-.97-.61-2.07-2.13-2.07s-2.17,.92-2.38,2.29h-1.73c.07-1.22,.9-3.75,4.15-3.74,2.92,0,3.89,2.03,3.89,3.55,0,1.4-.45,2.31-1.92,3.64-1,.91-1.32,1.6-1.32,2.56v.17h-1.8Zm0,4.2v-2.76h1.8v2.76h-1.8Z"/><path class="cls-9" d="M65.97,859.2c0,2.68-1.5,5.07-4.57,5.07-2.87,0-4.47-2.22-4.47-5.01s1.63-5.01,4.58-5.01c2.74,0,4.46,2.06,4.46,4.96Zm-7.69,.01c0,2.11,1.08,3.95,3.17,3.95,2.26,0,3.16-1.87,3.16-3.95s-1.02-3.87-3.16-3.87-3.18,1.79-3.18,3.87Z"/><path class="cls-9" d="M77.29,864.13h-.99c-.07-.19-.1-.62-.12-1.32-.42,.69-1.26,1.45-3.03,1.45-2.81,0-4.3-2.13-4.3-4.91,0-2.92,1.6-5.11,4.54-5.11,2.26,0,3.69,1.23,3.97,2.97h-1.29c-.33-1.09-1.11-1.89-2.7-1.89-2.26,0-3.16,1.81-3.16,3.97,0,2.01,.91,3.88,3.11,3.88s2.73-1.45,2.73-3.1v-.1h-2.74v-1.11h4v5.26Z"/><path class="cls-9" d="M88.65,861.42c.26,1.17,1.06,1.8,2.48,1.8,1.52,0,2.12-.71,2.12-1.63,0-.98-.48-1.53-2.43-2-2.3-.56-3.09-1.34-3.09-2.71,0-1.45,1.07-2.63,3.24-2.63,2.32,0,3.28,1.34,3.41,2.62h-1.32c-.17-.87-.72-1.58-2.14-1.58-1.19,0-1.85,.53-1.85,1.46s.55,1.28,2.26,1.69c2.78,.68,3.27,1.76,3.27,3.01,0,1.57-1.16,2.8-3.55,2.8s-3.51-1.34-3.71-2.83h1.31Z"/><path class="cls-9" d="M97.88,854.38h1.28v4.78c.73-.75,3.2-3.2,4.74-4.78h1.61l-4.19,4.11,4.4,5.64h-1.57l-3.74-4.8-1.25,1.13v3.67h-1.28v-9.75Z"/><path class="cls-9" d="M109.5,861.21l-1.05,2.92h-1.29l3.47-9.75h1.59l3.62,9.75h-1.38l-1.08-2.92h-3.89Zm3.56-1.11c-.93-2.56-1.44-3.92-1.65-4.67h-.01c-.24,.83-.81,2.47-1.56,4.67h3.22Z"/><path class="cls-9" d="M118.78,854.38h1.29v8.64h5.08l-.18,1.11h-6.2v-9.75Z"/><path class="cls-9" d="M135.71,861.42c.26,1.17,1.06,1.8,2.48,1.8,1.52,0,2.12-.71,2.12-1.63,0-.98-.48-1.53-2.43-2-2.3-.56-3.09-1.34-3.09-2.71,0-1.45,1.07-2.63,3.24-2.63,2.32,0,3.28,1.34,3.41,2.62h-1.32c-.17-.87-.72-1.58-2.14-1.58-1.19,0-1.85,.53-1.85,1.46s.55,1.28,2.26,1.69c2.78,.68,3.27,1.76,3.27,3.01,0,1.57-1.16,2.8-3.55,2.8s-3.51-1.34-3.71-2.83h1.31Z"/><path class="cls-9" d="M152.74,861.37c-.43,1.65-1.67,2.89-3.88,2.89-2.92,0-4.38-2.21-4.38-4.97s1.47-5.04,4.43-5.04c2.3,0,3.55,1.31,3.83,2.94h-1.29c-.35-1.06-1.05-1.86-2.59-1.86-2.15,0-3.03,1.95-3.03,3.93s.83,3.93,3.08,3.93c1.5,0,2.16-.86,2.53-1.81h1.3Z"/><path class="cls-9" d="M162.15,859.58h-4.85v3.45h5.32l-.17,1.11h-6.42v-9.75h6.35v1.11h-5.08v2.98h4.85v1.11Z"/><path class="cls-9" d="M165.78,864.13v-9.75h1.71c1.4,2.28,4.44,7.13,4.99,8.19h.02c-.09-1.25-.08-2.79-.08-4.38v-3.81h1.22v9.75h-1.61c-1.29-2.12-4.46-7.33-5.07-8.42h-.02c.07,1.11,.07,2.76,.07,4.52v3.9h-1.23Z"/><path class="cls-9" d="M183.8,859.58h-4.85v3.45h5.32l-.17,1.11h-6.42v-9.75h6.35v1.11h-5.08v2.98h4.85v1.11Z"/><path class="cls-9" d="M187.43,854.38h1.28v4.78c.72-.75,3.2-3.2,4.74-4.78h1.61l-4.19,4.11,4.4,5.64h-1.57l-3.74-4.8-1.25,1.13v3.67h-1.28v-9.75Z"/><path class="cls-9" d="M198.8,854.38v5.87c0,2.3,1.26,2.93,2.51,2.93,1.46,0,2.49-.67,2.49-2.93v-5.87h1.3v5.8c0,3.16-1.75,4.07-3.82,4.07s-3.79-.98-3.79-3.98v-5.89h1.31Z"/><path class="cls-9" d="M209.03,864.13v-9.75h1.71c1.4,2.28,4.44,7.13,4.99,8.19h.02c-.09-1.25-.08-2.79-.08-4.38v-3.81h1.22v9.75h-1.61c-1.29-2.12-4.46-7.33-5.07-8.42h-.02c.07,1.11,.07,2.76,.07,4.52v3.9h-1.23Z"/><path class="cls-9" d="M221.43,861.42c.26,1.17,1.06,1.8,2.48,1.8,1.52,0,2.12-.71,2.12-1.63,0-.98-.48-1.53-2.43-2-2.3-.56-3.09-1.34-3.09-2.71,0-1.45,1.07-2.63,3.24-2.63,2.32,0,3.28,1.34,3.41,2.62h-1.32c-.17-.87-.72-1.58-2.14-1.58-1.19,0-1.85,.53-1.85,1.46s.55,1.28,2.26,1.69c2.78,.68,3.27,1.76,3.27,3.01,0,1.57-1.16,2.8-3.55,2.8s-3.51-1.34-3.71-2.83h1.31Z"/><path class="cls-9" d="M232.65,855.49h-3.15v-1.11h7.6v1.11h-3.15v8.64h-1.3v-8.64Z"/><path class="cls-9" d="M246,859.58h-4.85v3.45h5.32l-.17,1.11h-6.42v-9.75h6.35v1.11h-5.08v2.98h4.85v1.11Z"/><path class="cls-9" d="M249.63,864.13v-9.75h1.71c1.4,2.28,4.44,7.13,4.99,8.19h.02c-.09-1.25-.08-2.79-.08-4.38v-3.81h1.22v9.75h-1.61c-1.29-2.12-4.46-7.33-5.07-8.42h-.02c.07,1.11,.07,2.76,.07,4.52v3.9h-1.23Z"/><path class="cls-9" d="M274.62,859.58h-4.85v3.45h5.32l-.17,1.11h-6.42v-9.75h6.35v1.11h-5.08v2.98h4.85v1.11Z"/><path class="cls-9" d="M286.18,864.13h-.99c-.07-.19-.1-.62-.12-1.32-.42,.69-1.26,1.45-3.03,1.45-2.81,0-4.3-2.13-4.3-4.91,0-2.92,1.6-5.11,4.54-5.11,2.26,0,3.69,1.23,3.97,2.97h-1.29c-.33-1.09-1.11-1.89-2.7-1.89-2.26,0-3.16,1.81-3.16,3.97,0,2.01,.91,3.88,3.11,3.88s2.73-1.45,2.73-3.1v-.1h-2.74v-1.11h4v5.26Z"/><path class="cls-9" d="M296.05,859.58h-4.85v3.45h5.32l-.17,1.11h-6.42v-9.75h6.35v1.11h-5.08v2.98h4.85v1.11Z"/><path class="cls-9" d="M299.68,864.13v-9.75h1.71c1.4,2.28,4.44,7.13,4.99,8.19h.02c-.09-1.25-.08-2.79-.08-4.38v-3.81h1.22v9.75h-1.61c-1.29-2.12-4.46-7.33-5.07-8.42h-.02c.07,1.11,.07,2.76,.07,4.52v3.9h-1.23Z"/><path class="cls-9" d="M313.58,855.49h-3.15v-1.11h7.6v1.11h-3.15v8.64h-1.3v-8.64Z"/><path class="cls-9" d="M320.82,854.38h1.29v8.64h5.08l-.18,1.11h-6.2v-9.75Z"/><path class="cls-9" d="M331.28,854.38v9.75h-1.29v-9.75h1.29Z"/><path class="cls-9" d="M343.14,864.13h-.99c-.07-.19-.1-.62-.12-1.32-.42,.69-1.26,1.45-3.03,1.45-2.81,0-4.3-2.13-4.3-4.91,0-2.92,1.6-5.11,4.54-5.11,2.26,0,3.69,1.23,3.97,2.97h-1.29c-.33-1.09-1.11-1.89-2.7-1.89-2.26,0-3.16,1.81-3.16,3.97,0,2.01,.91,3.88,3.11,3.88s2.73-1.45,2.73-3.1v-.1h-2.74v-1.11h4v5.26Z"/><path class="cls-9" d="M353.89,854.38h3.48c2.74,0,4.59,1.87,4.59,4.77s-1.81,4.97-4.64,4.97h-3.44v-9.75Zm1.29,8.65h2.04c2.29,0,3.39-1.64,3.39-3.85,0-1.92-1-3.7-3.38-3.7h-2.05v7.55Z"/><path class="cls-9" d="M371.5,859.58h-4.85v3.45h5.32l-.17,1.11h-6.42v-9.75h6.35v1.11h-5.08v2.98h4.85v1.11Z"/><path class="cls-9" d="M377.52,855.49h-3.15v-1.11h7.6v1.11h-3.15v8.64h-1.3v-8.64Z"/><path class="cls-9" d="M387.56,859.93v-.3c0-1.06,.32-2.06,1.9-3.46,1.15-1.03,1.34-1.81,1.34-2.63,0-.97-.61-2.07-2.13-2.07s-2.17,.92-2.38,2.29h-1.73c.07-1.22,.9-3.75,4.15-3.74,2.92,0,3.89,2.03,3.89,3.55,0,1.4-.45,2.31-1.92,3.64-1,.91-1.32,1.6-1.32,2.56v.17h-1.8Zm0,4.2v-2.76h1.8v2.76h-1.8Z"/><path class="cls-9" d="M396.15,854.72c.55-1.77,.87-3.89,.91-5.28h1.77c-.09,1.72-.78,4.18-1.31,5.28h-1.36Zm3.46,0c.53-1.74,.87-3.96,.91-5.28h1.77c-.09,1.62-.73,4.09-1.3,5.28h-1.37Z"/></g></svg>