<?xml version="1.0" encoding="UTF-8"?><svg xmlns="http://www.w3.org/2000/svg" viewBox="0 0 702.5 516.57"><defs><style>.cls-1{fill:none;stroke:#fff;stroke-miterlimit:10;}</style></defs><g id="body_l"><path class="cls-1" d="M191.08,489.06c-1.58-2.98-5.38-8.42-10.3-12-2.67-1.95-5.26-3.83-7.49-3-3.09,1.15-4.67,7.22-3.75,15,1.67,14,.48,20.43-2.54,22-1.76,.91-3.86-.39-7-2-10.37-5.29-11.3-3.2-22-8-11.11-4.98-19.06-11.32-34.97-24-6.82-5.43-8.62-7.28-13.11-9-12.36-4.73-20.69,.84-23.42-3-1.23-1.73-1.26-5.3,19.67-36,6.86-10.06,8.52-12.11,12.22-18.38,5.13-8.68,6.52-12.5,11.97-22.32,0,0,4.54-8.18,12.34-20.31,30.78-47.82,46.16-71.73,73.06-89,20.33-13.05,67.4-35.32,98.35-30,3.23,.56,13.7,2.69,19.67-3,7.63-7.27,4.06-23.63,3.75-25-2.07-9.03-6.86-14.24-7.2-23.9-.08-2.37-.22-4.73-.29-7.1-.24-8.43,.09-9.53-.94-11-2.4-3.43-6.79-1.1-11.24-4-3.67-2.4-3.3-5.69-6.56-17-4.45-15.45-7.83-18.56-5.62-24,2.18-5.36,7.34-6.98,6.56-9-1.09-2.8-10.51,1.73-17.8-3-6.22-4.04-4.63-10.77-10.3-13-6.16-2.42-12.96,3.59-14.05,2-.8-1.17,3.04-4.13,9.37-13,3.11-4.37,5.62-8.47,6.56-10,1.76-2.88,2.71-4.44,3.95-6.81,1.47-2.79,2.06-4.25,3.79-7.17,.66-1.11,1.42-2.39,2.56-4.02,2.66-3.79,4.09-4.74,6.07-8.19,.21-.37,.83-1.47,1.43-2.81,2.06-4.67,3.69-11.97,1.87-13-1.75-.99-7.55,3.33-10.3,9-6.5,13.38,5.82,30.44,4.68,31-1.07,.53-14.6-13.29-11.24-27,2.25-9.21,11.67-16.51,18.73-22,2.44-1.89,4.73-3.42,4.73-3.42,3.65-2.44,5.31-3.11,8.35-5.02,2.55-1.6,2.99-2.14,7.53-5.56,6.53-4.92,9.8-7.38,11.24-8,4.69-2.02,5.54-.54,15.92-3,3.58-.85,5.37-1.27,7.2-1.99,6.87-2.69,8.99-5.98,16.22-8.01,1.61-.45,2.8-.65,4.02-.86,10.15-1.71,19.23,.18,23.14,.86,17.98,3.14,31.5-1.02,31.85,1,.32,1.91-12.09,3.75-12.18,8-.08,3.99,10.75,7.69,15.92,9,3.04,.77,5.37,1.02,8.62,1.37,11.57,1.22,13.23-.26,18.55,.63,11.87,2,19.52,12.09,22.48,16,2.39,3.15,5.3,7.09,6.56,13,1.98,9.36-1.39,18.08-2.81,18-1.65-.09-.41-12.04-5.62-14-1.63-.61-3.81-.22-4.68,1-1.45,2.04,1.04,5.97,2.81,9,5.3,9.09,9.08,18.6,10.3,24,2.18,9.63-1.09,18.1-1.87,20-6.07,14.73-18.77,12.74-26.23,29-3.1,6.76-4.51,14.98-4.68,16-.62,3.71-.6,5.45-1.87,17-1.04,9.39-1.47,12.02-3.75,14-3.42,2.98-6.11,.23-9.37,3-4.13,3.52-2.64,10.38-5.62,21-.23,.83-.61,2.09-1.22,3.63-1.35,3.38-2.83,5.5-3.86,7.12-1.57,2.46-3.1,5.72-6.16,12.25-2.31,4.94-3.47,7.41-3.79,8.43-.28,.88-.94,3.12-2.5,5.75,0,0-.55,.92-1.2,1.82-8.12,11.28-23.42,15-23.42,15-4.65,1.13-18.19,3.59-30.91-4-8.05-4.8-12.19-11.48-14.99-16-4.58-7.39-6.56-14.38-7.49-19"/></g><g id="body_r"><path class="cls-1" d="M513,516.06c-5.96-42.89-7.11-59.96-6.26-65,.05-.29,.74-4.61,1.71-10.55,.31-1.91,.67-4.27,1.1-7.45,2.44-17.87,2.67-27.98,3.75-28,1.69-.03,.25,24.74,9.37,42,.59,1.11,3.24,6.03,6.56,13,3.49,7.35,5.22,11.03,5.62,13,.65,3.24,.61,5.48,.16,12-1.31,18.88-1.84,19.78-1,21,2.66,3.86,14.17,3.69,52-13,6.74-3.72,12.27-6.47,15.96-8.24,7.43-3.57,11.5-5.3,16.24-9.76,5.3-4.99,5.63-8.59,5.62-10-.01-3.54-2.15-6.17-2.81-7-7.46-9.37-11.45-21.47-18.73-31-3.81-4.98-3.59-5.13-23.42-51-11.01-25.48-16.64-38.42-22.48-48-13.45-22.08-22.55-31.63-29.04-37-5.3-4.38-12.1-10.01-22.48-14-10.75-4.13-13.16-1.82-28.1-7-9.06-3.14-9.81-4.56-20.61-8-12.05-3.84-11.69-2.26-16.86-5-3.06-1.62-6.25-3.8-10.3-3-3.26,.64-5.65,2.94-5.62,3,.03,.06,2.41-1.86,3.75-1,.98,.63,.95,2.47,.94,3-.05,2.63-1.65,4.52-1.87,5-7.08,14.98-17.8,26-17.8,26-6.1,6.27-12.87,13.23-23.42,18-23,10.4-45.14,1.86-49.64,0-20.19-8.32-30.73-24.49-33.72-30-2.95-5.43-5.14-12.33-5.62-14-.09-.32-.9-3.19-.94-7-.03-3.63,.66-4.65,.94-5,1.58-2.03,4.7-1.79,4.68-2,0-.11-.84-.18-4.68,0-1.07,.13-6.68,.87-8.43,5-.87,2.07-.2,4.36,.94,9,.62,2.55,1.78,5.46,4.06,11.16,.67,1.69,1.33,3.36,1.56,3.84,13.98,29.18,41.21,39,41.21,39,4.32,1.56,21.62,7.29,42.15,1,16.82-5.15,26.66-15.57,37.47-27,12.48-13.2,16.98-24.12,18.73-29,.89-2.46,1.49-4.55,1.87-6"/><path class="cls-1" d="M149.65,505.42c-1.55,3.55-3.1,7.09-4.65,10.64"/></g><g id="detaljer_body"><path class="cls-1" d="M423.37,257.06c-.85,0-5.36-.04-8.97-3.88-4.02-4.28-3.69-9.83-3.63-10.62"/><path class="cls-1" d="M76.72,466.56c-1.87,3.64-4.48,9.27-6.72,16.5-1.95,6.32-2.19,9.24-4,15-1.39,4.44-3.77,10.72-8,18"/><path class="cls-1" d="M620,473.06c1.03,2.87,1.89,5.16,2.49,6.74,.63,1.66,.97,2.48,1.42,3.84,.8,2.36,1.28,4.23,1.59,5.43,2.35,9.09,6.25,14.88,6.5,25,.02,.89,0,1.6,0,2"/><path class="cls-1" d="M170.47,477.06c2.78-13.6,4.51-25.21,5.62-34,3.2-25.39,3.56-45.66,3.75-58,.11-7.46,.06-13.67,0-18"/><path class="cls-1" d="M197.64,364.06c.78,11.96,.22,26.13-.94,54-1.32,31.82-2.85,51.83-3.57,59.98-2,22.7-4.03,37.03-4.13,37.02-.26-.03,18.91-85.12,3.95-178-2.77-17.19-6.91-35.92-6.56-36,.43-.1,8.94,27.65,11.24,63Z"/><path class="cls-1" d="M508,474.06c4.75-2.56,8.32-2.29,10-2,8.49,1.48,15.66,11.95,16,26"/><path class="cls-1" d="M534.84,473.06c.5,.01,1.92-19.33,1.87-41-.1-42.81-5.92-77.07-6.56-77-.51,.06,2.37,21.57,3.75,60,1.23,34.47,.38,57.99,.94,58Z"/><path class="cls-1" d="M550,506.06c.33,1.67,.67,3.33,1,5s.67,3.33,1,5"/></g><g id="hair_line"><path class="cls-1" d="M292.24,127.06c5.41,17.07,8,20.26,9.37,20,1.54-.3,1.6-4.99,4.68-19,2.3-10.44,3.04-11.37,3.75-12,6.89-6.16,21.68,6.08,26.23,1,3.69-4.14-2.63-16.11-.94-17,1.94-1.02,8.07,15.85,18.73,17,4.54,.49,9.27-1.94,9.37-4,.16-3.5-13.25-2.99-19.67-13-4.19-6.54-4.27-15.78-1.87-17,4.64-2.36,20.17,24.55,22.48,23,1.28-.86-3.52-9.08-5.62-23-1.32-8.74-1.5-19.28,.94-20,2.56-.76,4.59,10.27,14.05,15,6.81,3.4,13.96,1.79,14.05,1,.1-.88-8.46-.52-14.99-7-1.56-1.55-5.84-5.8-5.62-12,.19-5.53,3.89-9.94,7.49-12,5.81-3.32,11.97-.91,16.86,1,3.69,1.44,10.7,4.18,14.99,12,4.31,7.86,3.16,15.95,2.81,18-1.5,8.72-6.8,13.76-5.62,15,1.53,1.61,10.53-6.71,12.18-5,1.37,1.42-4.89,7.18-4.68,16,.12,5.32,2.47,5.98,2.81,12,.44,7.86-3.16,13.84-2.81,14,.64,.3,8.6-21.97,13.11-21,2.24,.48,3.2,6.56,3.75,10,1.13,7.13-.08,11.65,.94,12,1.84,.63,5.75-14.33,10.3-14,2.89,.21,5.54,6.52,5.62,12,.1,6.72-3.68,11.27-2.81,12,.56,.47,2.78-.93,9.37-8"/></g><g id="glases"><path class="cls-1" d="M308.16,124.06c3.35,2.29,8.04,4.66,12.18,3,3.17-1.27,3.9-4.05,6.56-7,6.68-7.41,17.55-7.07,19.67-7,1.76,.06,18.38,.86,24.35,15,4.82,11.41-1.07,22.55-1.87,24-7.5,13.63-22.64,14-23.42,14-11.64,.07-22.45-7.94-26.23-19-2.11-6.17-1.53-11.82-.94-15"/><path class="cls-1" d="M446.79,144.06c-2.65-.58-6.05-.92-7.49,1-1.41,1.88,.16,4.44,0,8-.28,6.39-5.89,10.94-8.43,13-9.02,7.31-19.79,5.35-21.54,5-2.54-.51-11.67-2.72-17.8-12-1.46-2.21-6.6-10.28-4.68-21,.16-.9,2.38-12.3,12.18-18,4.8-2.79,9.13-2.89,14.05-3,6.89-.16,14.08-.32,19.67,5,6.01,5.72,6.51,14.29,6.56,17"/></g><g id="face"><path class="cls-1" d="M372.79,132.06c1.26-.73,3.54-1.81,6.56-2,4.05-.26,7.11,1.24,8.43,2"/><path class="cls-1" d="M366.24,160.06c-.37,5.89-2.12,9.63-3.75,12-3.02,4.41-6.66,5.65-6.56,9,.07,2.33,1.94,4.78,3.75,5,1.74,.21,2.21-1.76,4.68-2,2.37-.23,4.28,1.59,4.64,1.96,.01,.01,.02,.02,.04,.04,1.72,1.75,2.13,3.1,2.81,4,1.48,1.97,4.32,2,4.68,2,2.17,0,3.75-1.26,4.68-2,2.35-1.86,2.09-3.48,3.75-4,1.47-.47,1.96,.76,4.68,1,1.23,.11,3.45,.3,4.68-1,1.32-1.39,1.26-4.23,0-7"/><path class="cls-1" d="M342.82,203.06c-.37,.36,3.3,6.62,9.37,12,3.56,3.16,10.75,9.53,21.54,10,2.42,.11,10.16,.33,17.8-5,8.07-5.63,11.8-14.52,11.24-15-.4-.35-2.92,3.8-8.43,8-3.26,2.49-10.73,8.17-20.61,8-8.49-.15-14.77-4.56-19.67-8-7.1-4.99-10.89-10.34-11.24-10Z"/><path class="cls-1" d="M352.19,200.06c2.18-.26,7.36-.68,14.05,1,4.01,1.01,3.54,1.51,6.56,2,2.89,.47,4.09,.13,11.24,0,3.34-.06,5.01-.09,6.56,0,5.41,.33,10.35,1.57,10.3,2-.04,.39-4.1-.19-11.24,0-8.37,.23-8.85,1.2-14.05,1-6.55-.25-6.57-1.82-14.99-3-9.39-1.32-15.86-.27-15.92-1-.05-.58,4.1-1.59,7.49-2Z"/></g><g id="eyes"><path class="cls-1" d="M328.77,134.06c.14,.91,1.28,1.63,7.49,3,5.8,1.28,8.69,1.92,13.11,2,5.16,.09,9.46,.17,10.3-2,.8-2.06-1.95-5.07-2.81-6-4.09-4.46-9.65-4.88-11.24-5-6.27-.47-10.67,2.4-13.11,4-1.72,1.12-3.96,2.59-3.75,4Z"/><path class="cls-1" d="M394.34,138.06c-.13-1.66,2.84-3.14,6.56-5,4.61-2.3,8.05-4.03,12.18-3,1.97,.49,3.31,1.41,5.62,3,2.43,1.67,4.89,3.36,4.68,5-.04,.35-.32,1.57-4.68,3-7.06,2.32-13.11,1.35-14.99,1-3.09-.57-9.18-1.7-9.37-4Z"/><path class="cls-1" d="M359.68,142.06c.06,.07-1.68,2.51-4.68,4-4.22,2.1-8.43,1.07-8.43,1,0-.07,3.49,.68,7.49-1,3.54-1.49,5.56-4.08,5.62-4Z"/><path class="cls-1" d="M408.85,150.56s0,0,0,0c-.02,.05-3.08-1.25-3.7-1.52-5.03-2.19-8.72-6.25-8.95-5.98-.11,.14,.74,1.3,1.93,2.3,.81,.69,1.81,.98,4.69,2.39,3.44,1.67,6.01,2.76,6.02,2.81Z"/><path class="cls-1" d="M344.59,126.97c-1.99,.82-4.23,3.36-4.1,5.89,.19,3.7,5.5,7.58,8.21,4.71,1.81-1.92,2.46-6.86,.82-9.42-1.54-2.4-4.28-1.44-4.92-1.18Z"/><path class="cls-1" d="M406.02,130.97c-1.8,.82-3.84,3.36-3.72,5.89,.17,3.7,4.98,7.58,7.44,4.71,1.64-1.92,2.23-6.86,.74-9.42-1.39-2.4-3.88-1.44-4.46-1.18Z"/><path class="cls-1" d="M387.78,129.06c.8-2.38,3.37-9.57,7.49-15,2.21-2.9,4.07-4.26,4.86-4.79,1.69-1.14,3.12-1.69,4.51-2.21,1.9-.71,5.77-2.2,6.56-1,.41,.63-.41,1.43,0,3,.33,1.27,1.08,1.6,.94,2-.33,.9-4.03-.7-7.49,0-2.95,.6-5.1,2.89-6.56,5"/><line class="cls-1" x1="702.5" y1="516.07" y2="516.07"/></g></svg>