<?xml version="1.0" encoding="UTF-8"?><svg xmlns="http://www.w3.org/2000/svg" viewBox="0 0 750 488.99"><defs><style>.cls-1{fill:none;stroke:#fff;stroke-miterlimit:10;}</style></defs><g id="body_l"><path class="cls-1" d="M141,488.48c-14.78-2.6-24.65-7.71-31-12-5.99-4.04-7.88-6.7-14-9-13.22-4.98-22.16,.73-25-3-4.13-5.43,10.75-22.8,21-36,20.84-26.82,16.47-28.53,39-61,34.12-49.17,51.18-73.75,78-89,5.99-3.41,66.27-37.09,105-30,3.41,.62,14.65,3.03,21-3,6.48-6.15,4.89-18.26,4-25-2.07-15.78-9.05-18.09-8-31,.35-4.27,1.45-8.18-1-11-2.95-3.39-7.43-1.08-12-4-3.64-2.33-3.38-5.45-7-17-4.9-15.62-8.14-18.75-6-24,2.23-5.45,7.74-7,7-9-1.03-2.79-11.11,1.97-19-3-6.5-4.09-5.1-10.55-11-13-6.51-2.71-13.93,3.65-15,2-.82-1.26,3.66-4.84,10-13,2.86-3.68,4.73-6.53,7-10,6.75-10.31,6.11-11.32,11-18,4.47-6.11,5.93-6.48,8-11,2.2-4.81,3.95-11.84,2-13-1.95-1.16-8.16,3.24-11,9-6.52,13.21,6.24,30.36,5,31-1.15,.6-14.88-12.88-12-27,1.74-8.52,8.79-13.72,20-22,9.06-6.69,10.93-5.55,22-14,4.9-3.74,7.15-5.97,12-8,6.57-2.76,10.23-1.95,17-3,12.53-1.95,13.42-6.83,25-10,7.36-2.02,8.08-.34,29,0,20.09,.33,33.7-.98,34,1,.29,1.95-12.86,3.74-13,8-.15,4.72,15.8,8.71,17,9,14.45,3.53,17.29-1.14,29,2,13.59,3.64,21.54,13.02,24,16,2.45,2.97,5.66,6.95,7,13,2.05,9.27-1.45,18.08-3,18-1.78-.1-.59-11.92-6-14-1.75-.67-4.11-.29-5,1-1.4,2.03,1.12,5.89,3,9,4.62,7.63,9.47,17.53,11,24,2.27,9.55-1.17,18.07-2,20-6.41,14.86-20.01,12.52-28,29-3.01,6.2-4.56,13.73-5,16-.87,4.53-.68,6.65-2,17-1.26,9.87-1.92,12.23-4,14-3.4,2.9-6.33,.62-10,3-5.08,3.29-2.69,9.74-6,21-1.99,6.79-3.1,5.26-12,23-6.36,12.68-5.4,12.67-8,16-8.55,10.95-21.39,14.15-25,15-3.9,.92-18.71,4.16-33-4-8.79-5.02-13.44-12.1-16-16-4.86-7.39-6.99-14.44-8-19"/></g><g id="body_r"><path class="cls-1" d="M541,488.48c-2.07-16.34-1.23-29.14,0-38,.83-6.02,1.49-7.65,3-18,2.6-17.87,2.85-27.98,4-28,1.8-.03,.27,24.74,10,42,.63,1.11,3.46,6.03,7,13,3.62,7.13,5.52,10.71,6,13,1.6,7.57-.17,15.36,2,16,.1,.03,.1,.01,2,0h53c6.31-1.36,22.12-5.29,32-14,5.66-4.99,6.01-8.59,6-10-.01-3.54-2.29-6.17-3-7-7.96-9.37-12.23-21.47-20-31-4.07-4.98-3.83-5.13-25-51-11.76-25.48-17.77-38.42-24-48-14.36-22.08-24.08-31.63-31-37-5.66-4.38-12.92-10.01-24-14-11.47-4.13-14.05-1.82-30-7-9.67-3.14-10.47-4.56-22-8-12.87-3.84-12.48-2.26-18-5-3.27-1.62-6.68-3.8-11-3-3.48,.64-6.03,2.94-6,3,.03,.06,2.57-1.86,4-1,1.05,.63,1.01,2.47,1,3-.05,2.63-1.76,4.52-2,5-7.56,14.98-19,26-19,26-6.51,6.27-13.74,13.23-25,18-24.55,10.4-48.19,1.86-53,0-21.55-8.32-32.8-24.49-36-30-3.15-5.43-5.48-12.33-6-14-.1-.32-.96-3.19-1-7-.04-3.63,.71-4.65,1-5,1.69-2.03,5.02-1.79,5-2,0-.11-.9-.18-5,0-1.15,.13-7.14,.87-9,5-.93,2.07-.21,4.36,1,9,.67,2.55,1.9,5.46,4.33,11.16,.72,1.69,1.42,3.36,1.67,3.84,14.92,29.18,44,39,44,39,4.61,1.56,23.08,7.29,45,1,17.95-5.15,28.47-15.57,40-27,13.07-12.95,17.9-23.51,20-29,.94-2.46,1.59-4.55,2-6"/></g><g id="detaljer_body"><path class="cls-1" d="M452,256.48c-.91,0-5.73-.04-9.58-3.88-4.3-4.28-3.94-9.83-3.87-10.62"/><path class="cls-1" d="M75.5,465.98c-1.92,2.76-3.86,5.69-5.79,8.8-2.93,4.73-5.48,9.33-7.71,13.7"/><path class="cls-1" d="M663.5,470.98c1.43,2.33,2.92,5.08,4.29,8.24,1.46,3.37,2.49,6.51,3.21,9.26"/><path class="cls-1" d="M181,488.48c-.99-7.78,.7-13.85,4-15,2.38-.83,5.14,1.05,8,3,5.25,3.58,9.32,9.02,11,12"/><path class="cls-1" d="M182,476.48c2.97-13.6,4.82-25.21,6-34,3.42-25.39,3.8-45.66,4-58,.12-7.46,.07-13.67,0-18"/><path class="cls-1" d="M211,363.48c.83,11.96,.23,26.13-1,54-1.87,42.43-4.03,62-4,62,.06,0,12.7-65.8,0-143-3.15-19.13-7.35-35.92-7-36,.46-.1,9.55,27.65,12,63Z"/><path class="cls-1" d="M539.5,472.98c3.47,.71,7.19,1.61,11.08,2.75,8.42,2.48,15.39,5.45,20.92,8.25"/><path class="cls-1" d="M571,472.48c.54,.01,2.05-19.33,2-41-.11-42.81-6.32-77.07-7-77-.54,.06,2.53,21.57,4,60,1.32,34.47,.41,57.99,1,58Z"/></g><g id="hair_line"><path class="cls-1" d="M312,126.48c5.77,17.07,8.54,20.26,10,20,1.65-.3,1.71-4.99,5-19,2.45-10.44,3.25-11.37,4-12,7.35-6.16,23.15,6.08,28,1,3.94-4.14-2.81-16.11-1-17,2.07-1.02,8.61,15.85,20,17,4.85,.49,9.9-1.94,10-4,.17-3.5-14.14-2.99-21-13-4.48-6.54-4.56-15.78-2-17,4.96-2.36,21.54,24.55,24,23,1.36-.86-3.76-9.08-6-23-1.41-8.74-1.6-19.28,1-20,2.73-.76,4.91,10.27,15,15,7.27,3.4,14.9,1.79,15,1,.11-.88-9.04-.52-16-7-1.66-1.55-6.23-5.8-6-12,.21-5.53,4.15-9.94,8-12,6.2-3.32,12.78-.91,18,1,3.94,1.44,11.43,4.18,16,12,4.6,7.86,3.38,15.95,3,18-1.6,8.72-7.26,13.76-6,15,1.64,1.61,11.24-6.71,13-5,1.47,1.42-5.22,7.18-5,16,.13,5.32,2.64,5.98,3,12,.47,7.86-3.37,13.84-3,14,.68,.3,9.18-21.97,14-21,2.39,.48,3.42,6.56,4,10,1.21,7.13-.08,11.65,1,12,1.97,.63,6.14-14.33,11-14,3.08,.21,5.91,6.52,6,12,.11,6.72-3.93,11.27-3,12,.6,.47,2.96-.93,10-8"/></g><g id="glases"><path class="cls-1" d="M329,123.48c3.57,2.29,8.58,4.66,13,3,3.38-1.27,4.16-4.05,7-7,7.13-7.41,18.74-7.07,21-7,1.88,.06,19.62,.86,26,15,5.15,11.41-1.15,22.55-2,24-8,13.63-24.17,14-25,14-12.43,.07-23.97-7.94-28-19-2.25-6.17-1.63-11.82-1-15"/><path class="cls-1" d="M477,143.48c-2.83-.58-6.46-.92-8,1-1.5,1.88,.17,4.44,0,8-.3,6.39-6.29,10.94-9,13-9.63,7.31-21.13,5.35-23,5-2.71-.51-12.46-2.72-19-12-1.56-2.21-7.05-10.28-5-21,.17-.9,2.54-12.3,13-18,5.12-2.79,9.75-2.89,15-3,7.35-.16,15.03-.32,21,5,6.42,5.72,6.95,14.29,7,17"/></g><g id="face"><path class="cls-1" d="M398,131.48c1.35-.73,3.78-1.81,7-2,4.32-.26,7.59,1.24,9,2"/><path class="cls-1" d="M391,159.48c-.39,5.89-2.26,9.63-4,12-3.23,4.41-7.11,5.65-7,9,.08,2.33,2.07,4.78,4,5,1.86,.21,2.36-1.76,5-2,2.53-.23,4.57,1.59,4.96,1.96,.01,.01,.02,.02,.04,.04,1.83,1.75,2.28,3.1,3,4,1.58,1.97,4.61,2,5,2,2.32,0,4-1.26,5-2,2.51-1.86,2.23-3.48,4-4,1.57-.47,2.09,.76,5,1,1.32,.11,3.68,.3,5-1,1.41-1.39,1.35-4.23,0-7"/><path class="cls-1" d="M366,202.48c-.39,.36,3.52,6.62,10,12,3.8,3.16,11.47,9.53,23,10,2.59,.11,10.85,.33,19-5,8.62-5.63,12.59-14.52,12-15-.43-.35-3.12,3.8-9,8-3.48,2.49-11.46,8.17-22,8-9.07-.15-15.77-4.56-21-8-7.58-4.99-11.63-10.34-12-10Z"/><path class="cls-1" d="M376,199.48c2.33-.26,7.86-.68,15,1,4.29,1.01,3.78,1.51,7,2,3.09,.47,4.37,.13,12,0,3.56-.06,5.35-.09,7,0,5.78,.33,11.05,1.57,11,2-.04,.39-4.38-.19-12,0-8.94,.23-9.45,1.2-15,1-6.99-.25-7.01-1.82-16-3-10.02-1.32-16.93-.27-17-1-.05-.58,4.38-1.59,8-2Z"/></g><g id="eyes"><path class="cls-1" d="M351,133.48c.15,.91,1.37,1.63,8,3,6.19,1.28,9.28,1.92,14,2,5.51,.09,10.1,.17,11-2,.86-2.06-2.09-5.07-3-6-4.37-4.46-10.3-4.88-12-5-6.69-.47-11.39,2.4-14,4-1.83,1.12-4.23,2.59-4,4Z"/><path class="cls-1" d="M421,137.48c-.14-1.66,3.03-3.14,7-5,4.92-2.3,8.6-4.03,13-3,2.1,.49,3.53,1.41,6,3,2.59,1.67,5.22,3.36,5,5-.05,.35-.34,1.57-5,3-7.54,2.32-14,1.35-16,1-3.3-.57-9.8-1.7-10-4Z"/><path class="cls-1" d="M384,141.48c.06,.07-1.8,2.51-5,4-4.51,2.1-9,1.07-9,1,0-.07,3.73,.68,8-1,3.78-1.49,5.93-4.08,6-4Z"/><path class="cls-1" d="M436.5,149.98s0,0,0,0c-.02,.05-3.28-1.25-3.95-1.52-5.37-2.19-9.31-6.25-9.55-5.98-.12,.14,.79,1.3,2.06,2.3,.86,.69,1.93,.98,5.01,2.39,3.67,1.67,6.42,2.76,6.43,2.81Z"/><path class="cls-1" d="M367.89,126.39c-2.12,.82-4.52,3.36-4.38,5.89,.2,3.7,5.87,7.58,8.76,4.71,1.94-1.92,2.63-6.86,.88-9.42-1.64-2.4-4.57-1.44-5.26-1.18Z"/><path class="cls-1" d="M433.47,130.39c-1.92,.82-4.1,3.36-3.97,5.89,.19,3.7,5.32,7.58,7.94,4.71,1.75-1.92,2.38-6.86,.79-9.42-1.49-2.4-4.14-1.44-4.76-1.18Z"/><path class="cls-1" d="M414,128.48c.86-2.38,3.59-9.57,8-15,2.36-2.9,4.35-4.26,5.19-4.79,1.8-1.14,3.33-1.69,4.81-2.21,2.03-.71,6.16-2.2,7-1,.44,.63-.44,1.43,0,3,.35,1.27,1.16,1.6,1,2-.35,.9-4.3-.7-8,0-3.15,.6-5.45,2.89-7,5"/><line class="cls-1" x1="750" y1="488.49" x2="0" y2="488.49"/></g></svg>