<svg xmlns="http://www.w3.org/2000/svg" width="214" height="200" fill="none" viewBox="0 0 214 200">
  <path fill="#DFFC6E" fill-rule="evenodd" d="M131.738 28.814c27.007 5.321 55.137 20.148 66.18 42.286 10.555 21.16-6.416 40.775-14.773 60.773-7.479 17.896-12.158 37.295-30.5 47.564-20.978 11.745-46.569.297-72.145-8.437-25.364-8.662-41.233-12.581-52.139-34.007-9.695-19.046-13.465-39.647-5.855-57.665C29.664 62.38 48.71 53.813 67.08 45.318c20.24-9.36 40.52-21.261 64.659-16.504Z" clip-rule="evenodd"/>
  <path fill="#000" d="M36.42 69.09h3.462l6.02 14.7h.222l6.02-14.7h3.462V88h-2.714V74.317h-.176L47.14 87.972h-2.253L39.31 74.308h-.175V88H36.42V69.09Zm27.24 19.224c-.899 0-1.711-.166-2.438-.499a4.106 4.106 0 0 1-1.726-1.468c-.419-.64-.628-1.425-.628-2.354 0-.8.154-1.459.462-1.976a3.406 3.406 0 0 1 1.246-1.228 6.511 6.511 0 0 1 1.754-.683 17.438 17.438 0 0 1 1.976-.351l2.068-.24c.53-.068.914-.175 1.154-.323.24-.148.36-.388.36-.72v-.065c0-.806-.227-1.431-.683-1.874-.45-.444-1.12-.665-2.013-.665-.93 0-1.661.206-2.197.619-.53.406-.896.858-1.099 1.357l-2.594-.591c.307-.862.757-1.558 1.348-2.087a5.468 5.468 0 0 1 2.059-1.163 8.039 8.039 0 0 1 2.447-.37c.566 0 1.166.068 1.8.204.64.129 1.237.369 1.791.72.56.35 1.019.852 1.376 1.505.357.646.535 1.486.535 2.52V88h-2.696v-1.939h-.11a3.928 3.928 0 0 1-.804 1.053c-.357.344-.815.63-1.376.858-.56.228-1.23.342-2.012.342Zm.6-2.216c.763 0 1.416-.15 1.957-.452.548-.302.963-.696 1.247-1.182a3.072 3.072 0 0 0 .434-1.58v-1.827c-.099.098-.29.19-.573.277a8.92 8.92 0 0 1-.95.212c-.358.056-.706.108-1.044.157l-.85.11a6.846 6.846 0 0 0-1.468.343c-.437.16-.788.39-1.052.692-.259.296-.388.69-.388 1.182 0 .683.252 1.2.757 1.551.505.345 1.148.517 1.93.517Zm12.836-6.519V88h-2.76V73.818h2.65v2.308h.175a4.053 4.053 0 0 1 1.532-1.81c.702-.455 1.585-.683 2.65-.683.966 0 1.813.204 2.54.61.726.4 1.289.997 1.689 1.791.4.794.6 1.776.6 2.945V88h-2.76v-8.688c0-1.028-.268-1.831-.804-2.41-.535-.585-1.271-.877-2.207-.877-.64 0-1.21.138-1.708.415a2.988 2.988 0 0 0-1.172 1.22c-.284.528-.425 1.169-.425 1.92Zm18.087 8.698c-1.145 0-2.166-.292-3.065-.877-.892-.591-1.594-1.431-2.105-2.52-.505-1.096-.757-2.41-.757-3.943s.255-2.844.766-3.933c.517-1.09 1.225-1.924 2.124-2.503.898-.578 1.917-.868 3.056-.868.88 0 1.588.148 2.123.444.542.289.96.627 1.256 1.015.302.388.536.73.702 1.025h.166v-7.026h2.761V88h-2.696v-2.207h-.231a7.31 7.31 0 0 1-.72 1.034c-.308.388-.733.727-1.275 1.016-.541.29-1.243.434-2.105.434Zm.61-2.354c.794 0 1.465-.21 2.012-.628.554-.425.973-1.013 1.256-1.764.29-.75.434-1.625.434-2.622 0-.985-.142-1.847-.425-2.585-.283-.739-.698-1.314-1.246-1.727-.548-.412-1.225-.618-2.031-.618-.831 0-1.524.215-2.078.646-.554.43-.972 1.019-1.255 1.763-.277.745-.416 1.585-.416 2.521 0 .948.142 1.8.425 2.558.283.757.702 1.357 1.256 1.8.56.437 1.249.656 2.068.656ZM113.252 88V69.09h2.853v16.454h8.568V88h-11.421Zm14.454 0V73.818h2.761V88h-2.761Zm1.395-16.37c-.481 0-.893-.16-1.238-.48a1.563 1.563 0 0 1-.507-1.163c0-.456.169-.844.507-1.164a1.74 1.74 0 0 1 1.238-.49c.48 0 .889.164 1.228.49.344.32.517.708.517 1.164 0 .449-.173.837-.517 1.163-.339.32-.748.48-1.228.48Zm11.026 21.984c-1.126 0-2.096-.148-2.908-.444-.807-.295-1.465-.686-1.976-1.172a4.917 4.917 0 0 1-1.145-1.597l2.373-.98c.166.272.388.558.665.86.283.307.664.569 1.144.784.487.216 1.111.323 1.875.323 1.046 0 1.911-.255 2.594-.766.683-.505 1.025-1.31 1.025-2.419v-2.788h-.175a6.354 6.354 0 0 1-.721 1.006c-.307.37-.732.69-1.274.96-.541.271-1.246.407-2.114.407-1.12 0-2.13-.262-3.028-.785-.893-.53-1.601-1.308-2.124-2.336-.517-1.034-.776-2.305-.776-3.813s.256-2.801.767-3.878c.517-1.077 1.225-1.902 2.123-2.475.899-.578 1.918-.868 3.056-.868.881 0 1.592.148 2.133.444.542.289.964.627 1.265 1.015.308.388.545.73.711 1.025h.203v-2.299h2.705v14.496c0 1.219-.283 2.219-.849 3-.566.782-1.333 1.361-2.299 1.736-.96.376-2.044.564-3.25.564Zm-.028-8.116c.794 0 1.465-.185 2.013-.554.554-.376.973-.911 1.256-1.607.289-.701.434-1.541.434-2.52 0-.954-.142-1.794-.425-2.52-.283-.727-.699-1.293-1.246-1.7-.548-.412-1.225-.618-2.032-.618-.831 0-1.523.215-2.077.646-.554.425-.973 1.003-1.256 1.736-.277.732-.415 1.55-.415 2.456 0 .93.141 1.745.424 2.447.284.701.702 1.249 1.256 1.643.56.394 1.25.59 2.068.59Zm16.075 8.116c-1.127 0-2.096-.148-2.908-.444-.807-.295-1.465-.686-1.976-1.172a4.917 4.917 0 0 1-1.145-1.597l2.373-.98c.166.272.387.558.664.86.284.307.665.569 1.145.784.487.216 1.111.323 1.875.323 1.046 0 1.911-.255 2.594-.766.683-.505 1.025-1.31 1.025-2.419v-2.788h-.175a6.354 6.354 0 0 1-.721 1.006c-.307.37-.732.69-1.274.96-.541.271-1.246.407-2.114.407-1.12 0-2.13-.262-3.029-.785-.892-.53-1.6-1.308-2.123-2.336-.517-1.034-.776-2.305-.776-3.813s.256-2.801.767-3.878c.517-1.077 1.225-1.902 2.123-2.475.899-.578 1.918-.868 3.056-.868.881 0 1.591.148 2.133.444.542.289.963.627 1.265 1.015.308.388.545.73.711 1.025h.203v-2.299h2.705v14.496c0 1.219-.283 2.219-.849 3-.566.782-1.333 1.361-2.299 1.736-.96.376-2.044.564-3.25.564Zm-.028-8.116c.794 0 1.465-.185 2.013-.554.554-.376.973-.911 1.256-1.607.289-.701.434-1.541.434-2.52 0-.954-.142-1.794-.425-2.52-.283-.727-.699-1.293-1.247-1.7-.547-.412-1.224-.618-2.031-.618-.831 0-1.523.215-2.077.646-.554.425-.973 1.003-1.256 1.736-.277.732-.415 1.55-.415 2.456 0 .93.141 1.745.424 2.447.283.701.702 1.249 1.256 1.643.56.394 1.25.59 2.068.59Zm16.241 2.788c-1.397 0-2.601-.298-3.61-.895-1.003-.604-1.779-1.45-2.327-2.54-.541-1.095-.812-2.379-.812-3.85 0-1.452.271-2.733.812-3.84.548-1.108 1.311-1.973 2.29-2.595.985-.622 2.136-.933 3.453-.933.8 0 1.576.133 2.327.398.751.264 1.425.68 2.022 1.246.597.566 1.068 1.302 1.412 2.207.345.898.518 1.99.518 3.277v.98h-11.274v-2.07h8.568c0-.726-.147-1.369-.443-1.929a3.35 3.35 0 0 0-1.246-1.339c-.53-.326-1.151-.489-1.865-.489-.776 0-1.453.19-2.032.573a3.845 3.845 0 0 0-1.329 1.477 4.261 4.261 0 0 0-.462 1.966v1.616c0 .948.166 1.754.499 2.42.338.664.809 1.172 1.412 1.523.604.344 1.308.517 2.115.517.523 0 1-.074 1.431-.222a3.09 3.09 0 0 0 1.117-.683c.314-.302.554-.674.72-1.117l2.613.47a4.735 4.735 0 0 1-1.126 2.023c-.536.572-1.21 1.018-2.022 1.338-.807.314-1.727.471-2.761.471Zm9.148-.286V73.818h2.668v2.253h.148a3.427 3.427 0 0 1 1.366-1.8 3.91 3.91 0 0 1 2.234-.665 11.82 11.82 0 0 1 1.173.065v2.64a4.951 4.951 0 0 0-.591-.102 5.631 5.631 0 0 0-.849-.064c-.653 0-1.234.138-1.745.415a3.09 3.09 0 0 0-1.201 1.136c-.295.48-.443 1.028-.443 1.644V88h-2.76ZM58.286 105.058c-.098-.874-.505-1.551-1.219-2.031-.714-.486-1.612-.729-2.696-.729-.775 0-1.446.123-2.012.369-.567.24-1.007.572-1.32.997a2.355 2.355 0 0 0-.462 1.431c0 .45.104.837.314 1.164.215.326.495.6.84.821a6.3 6.3 0 0 0 1.126.545c.4.142.785.259 1.154.351l1.847.48a14.18 14.18 0 0 1 1.856.6 7.44 7.44 0 0 1 1.763.997 4.78 4.78 0 0 1 1.311 1.533c.339.609.508 1.339.508 2.188 0 1.071-.277 2.022-.83 2.853-.549.831-1.346 1.487-2.392 1.967-1.04.48-2.3.72-3.776.72-1.416 0-2.641-.225-3.675-.674-1.034-.449-1.844-1.086-2.428-1.911-.585-.831-.908-1.816-.97-2.955h2.862c.056.683.277 1.253.665 1.708.394.45.896.785 1.505 1.007.616.215 1.29.323 2.022.323.806 0 1.523-.126 2.151-.379.634-.258 1.133-.615 1.496-1.071.363-.461.545-1 .545-1.616 0-.56-.16-1.018-.48-1.375-.314-.357-.742-.653-1.284-.887a12.472 12.472 0 0 0-1.819-.618l-2.234-.61c-1.514-.412-2.715-1.018-3.6-1.818-.881-.801-1.321-1.859-1.321-3.177 0-1.089.295-2.04.886-2.853.591-.812 1.391-1.443 2.4-1.892 1.01-.456 2.149-.684 3.417-.684 1.28 0 2.41.225 3.389.674.984.45 1.76 1.068 2.326 1.856.566.782.862 1.681.887 2.696h-2.752Zm12.171 14.228c-1.33 0-2.49-.304-3.48-.914-.991-.609-1.76-1.462-2.309-2.557-.547-1.096-.821-2.376-.821-3.841 0-1.471.274-2.758.821-3.86.548-1.101 1.318-1.957 2.309-2.566.99-.61 2.15-.914 3.48-.914s2.49.304 3.481.914c.991.609 1.76 1.465 2.308 2.566.548 1.102.822 2.389.822 3.86 0 1.465-.274 2.745-.822 3.841-.547 1.095-1.317 1.948-2.308 2.557-.99.61-2.151.914-3.48.914Zm.01-2.317c.862 0 1.576-.228 2.142-.683.566-.456.985-1.062 1.255-1.819.277-.757.416-1.592.416-2.503 0-.904-.139-1.735-.416-2.492-.27-.764-.689-1.376-1.255-1.838-.566-.461-1.28-.692-2.142-.692-.868 0-1.588.231-2.16.692-.567.462-.989 1.074-1.266 1.838-.27.757-.406 1.588-.406 2.492 0 .911.135 1.746.406 2.503.277.757.699 1.363 1.265 1.819.573.455 1.293.683 2.16.683ZM80.15 119v-14.182h2.65v2.308h.175c.296-.781.779-1.391 1.45-1.828.67-.443 1.474-.664 2.41-.664.947 0 1.741.221 2.382.664.646.443 1.123 1.053 1.43 1.828h.148a3.988 3.988 0 0 1 1.616-1.809c.739-.456 1.619-.683 2.64-.683 1.287 0 2.337.403 3.15 1.209.818.806 1.227 2.022 1.227 3.647V119h-2.76v-9.251c0-.961-.262-1.656-.785-2.087-.523-.431-1.148-.646-1.875-.646-.898 0-1.597.277-2.095.831-.499.547-.748 1.252-.748 2.114V119h-2.752v-9.427c0-.769-.24-1.388-.72-1.856-.48-.467-1.105-.701-1.874-.701-.523 0-1.007.138-1.45.415-.437.271-.79.649-1.062 1.136-.264.486-.397 1.049-.397 1.689V119h-2.76Zm30.081-18.909h3.462l6.02 14.699h.222l6.019-14.699h3.463V119h-2.715v-13.683h-.175l-5.577 13.655h-2.253l-5.576-13.664h-.176V119h-2.714v-18.909Zm27.239 19.223c-.898 0-1.711-.166-2.437-.499a4.102 4.102 0 0 1-1.727-1.468c-.418-.64-.628-1.425-.628-2.354 0-.8.154-1.459.462-1.976a3.412 3.412 0 0 1 1.246-1.228 6.507 6.507 0 0 1 1.755-.683 17.398 17.398 0 0 1 1.976-.351l2.068-.24c.529-.068.914-.176 1.154-.323.24-.148.36-.388.36-.72v-.065c0-.806-.228-1.431-.683-1.874-.45-.444-1.121-.665-2.013-.665-.93 0-1.662.206-2.198.619-.529.406-.895.858-1.098 1.357l-2.595-.591c.308-.862.757-1.557 1.348-2.087a5.477 5.477 0 0 1 2.059-1.163 8.046 8.046 0 0 1 2.447-.369 8.59 8.59 0 0 1 1.8.203 5.259 5.259 0 0 1 1.792.72c.56.351 1.018.852 1.375 1.505.357.646.536 1.486.536 2.52V119h-2.696v-1.939h-.111a3.923 3.923 0 0 1-.803 1.053c-.357.344-.816.631-1.376.858-.56.228-1.231.342-2.013.342Zm.6-2.216c.764 0 1.416-.151 1.958-.452.548-.302.963-.696 1.246-1.182.29-.493.434-1.019.434-1.579v-1.828c-.098.098-.289.191-.572.277a8.78 8.78 0 0 1-.951.212c-.357.056-.705.108-1.044.157-.338.043-.621.08-.849.111a6.854 6.854 0 0 0-1.468.342c-.437.16-.788.39-1.053.692-.258.295-.387.689-.387 1.182 0 .683.252 1.2.757 1.551.504.345 1.148.517 1.929.517Zm12.837-6.518V119h-2.761v-14.182h2.65v2.308h.175a4.046 4.046 0 0 1 1.533-1.809c.702-.456 1.585-.683 2.65-.683.966 0 1.812.203 2.539.609.726.4 1.289.997 1.689 1.791.4.794.601 1.776.601 2.945V119h-2.761v-8.688c0-1.028-.268-1.831-.803-2.41-.536-.585-1.271-.877-2.207-.877-.64 0-1.21.138-1.708.415a2.994 2.994 0 0 0-1.173 1.219c-.283.529-.424 1.17-.424 1.921Zm18.087 8.697c-1.145 0-2.167-.292-3.065-.877-.893-.591-1.595-1.431-2.106-2.521-.504-1.095-.757-2.41-.757-3.942 0-1.533.256-2.844.767-3.933.517-1.09 1.225-1.924 2.123-2.503.899-.578 1.918-.867 3.056-.867.881 0 1.588.147 2.124.443.542.289.96.628 1.256 1.015.301.388.535.73.701 1.025h.166v-7.026h2.761V119h-2.696v-2.207h-.231a7.213 7.213 0 0 1-.72 1.034c-.308.388-.732.727-1.274 1.016-.542.289-1.243.434-2.105.434Zm.609-2.354c.794 0 1.465-.21 2.013-.628.554-.425.973-1.013 1.256-1.764.289-.751.434-1.625.434-2.622 0-.985-.142-1.847-.425-2.585-.283-.739-.699-1.314-1.247-1.727-.547-.412-1.224-.618-2.031-.618-.831 0-1.523.215-2.077.646-.554.431-.973 1.019-1.256 1.763-.277.745-.415 1.585-.415 2.521 0 .948.141 1.801.424 2.558.284.757.702 1.357 1.256 1.8.56.437 1.25.656 2.068.656ZM59.703 150v-18.909h2.853v8.217h9.427v-8.217h2.862V150h-2.862v-8.245h-9.427V150h-2.853Zm23.203.314c-.899 0-1.711-.166-2.438-.499a4.104 4.104 0 0 1-1.726-1.468c-.419-.64-.628-1.425-.628-2.354 0-.8.154-1.459.462-1.976a3.41 3.41 0 0 1 1.246-1.228 6.5 6.5 0 0 1 1.754-.683 17.41 17.41 0 0 1 1.976-.351l2.068-.24c.53-.068.914-.176 1.154-.323.24-.148.36-.388.36-.72v-.065c0-.806-.227-1.431-.683-1.874-.45-.444-1.12-.665-2.012-.665-.93 0-1.662.206-2.198.619-.53.406-.896.858-1.099 1.357l-2.594-.591c.308-.862.757-1.557 1.348-2.087a5.472 5.472 0 0 1 2.059-1.163 8.045 8.045 0 0 1 2.447-.369 8.59 8.59 0 0 1 1.8.203c.64.129 1.237.369 1.791.72.56.351 1.019.852 1.376 1.505.357.646.535 1.486.535 2.52V150h-2.696v-1.939h-.11a3.935 3.935 0 0 1-.804 1.053c-.357.344-.815.631-1.375.858-.56.228-1.231.342-2.013.342Zm.6-2.216c.763 0 1.416-.151 1.957-.452.548-.302.964-.696 1.247-1.182.29-.493.434-1.019.434-1.579v-1.828c-.099.098-.29.191-.573.277a8.78 8.78 0 0 1-.95.212c-.358.056-.706.108-1.044.157-.339.043-.622.08-.85.111a6.864 6.864 0 0 0-1.468.342c-.436.16-.787.39-1.052.692-.259.295-.388.689-.388 1.182 0 .683.252 1.2.757 1.551.505.345 1.148.517 1.93.517ZM93.58 150v-14.182h2.669v2.253h.147a3.428 3.428 0 0 1 1.367-1.8 3.905 3.905 0 0 1 2.234-.665 12.108 12.108 0 0 1 1.173.064v2.641a4.762 4.762 0 0 0-.591-.101 5.518 5.518 0 0 0-.85-.065c-.652 0-1.234.138-1.745.415a3.091 3.091 0 0 0-1.643 2.779V150h-2.76Zm17.081 0v-18.909h6.74c1.465 0 2.681.252 3.647.757.973.505 1.699 1.203 2.179 2.096.481.886.721 1.911.721 3.074 0 1.158-.244 2.176-.73 3.057-.48.874-1.206 1.554-2.179 2.04-.966.486-2.182.729-3.647.729h-5.106v-2.456h4.848c.923 0 1.674-.132 2.253-.397.584-.264 1.012-.649 1.283-1.154.271-.504.406-1.111.406-1.819 0-.714-.138-1.332-.415-1.855-.271-.524-.699-.924-1.284-1.201-.578-.283-1.338-.424-2.28-.424h-3.583V150h-2.853Zm9.335-8.531 4.672 8.531h-3.25l-4.58-8.531h3.158Zm13.136 8.817c-1.397 0-2.601-.298-3.61-.895-1.003-.604-1.779-1.45-2.327-2.539-.541-1.096-.812-2.379-.812-3.851 0-1.452.271-2.733.812-3.84.548-1.108 1.311-1.973 2.29-2.595.985-.622 2.136-.932 3.453-.932.8 0 1.576.132 2.327.397.751.264 1.425.68 2.022 1.246.597.566 1.068 1.302 1.413 2.207.344.898.517 1.991.517 3.277v.979h-11.274v-2.068h8.568c0-.726-.147-1.37-.443-1.93a3.358 3.358 0 0 0-1.246-1.339c-.53-.326-1.151-.489-1.865-.489-.776 0-1.453.191-2.032.573a3.836 3.836 0 0 0-1.329 1.477 4.261 4.261 0 0 0-.462 1.966v1.616c0 .948.166 1.754.499 2.419.338.665.809 1.173 1.412 1.524.604.344 1.308.517 2.115.517.523 0 1-.074 1.431-.222a3.1 3.1 0 0 0 1.117-.683c.314-.302.554-.674.72-1.117l2.613.471a4.74 4.74 0 0 1-1.126 2.022c-.536.572-1.21 1.018-2.022 1.338-.807.314-1.727.471-2.761.471Zm14.457-.009c-1.145 0-2.167-.292-3.066-.877-.892-.591-1.594-1.431-2.105-2.521-.505-1.095-.757-2.41-.757-3.942 0-1.533.255-2.844.766-3.933.517-1.09 1.225-1.924 2.124-2.503.899-.578 1.917-.867 3.056-.867.88 0 1.588.147 2.124.443.541.289.96.628 1.255 1.015.302.388.536.73.702 1.025h.166v-7.026h2.761V150h-2.696v-2.207h-.231a7.213 7.213 0 0 1-.72 1.034c-.308.388-.733.727-1.274 1.016-.542.289-1.244.434-2.105.434Zm.609-2.354c.794 0 1.465-.21 2.013-.628.554-.425.972-1.013 1.255-1.764.29-.751.434-1.625.434-2.622 0-.985-.141-1.847-.424-2.585-.283-.739-.699-1.314-1.247-1.727-.548-.412-1.225-.618-2.031-.618-.831 0-1.523.215-2.077.646-.554.431-.973 1.019-1.256 1.763-.277.745-.416 1.585-.416 2.521 0 .948.142 1.801.425 2.558.283.757.702 1.357 1.256 1.8.56.437 1.249.656 2.068.656Zm16.977-12.105v2.216h-7.746v-2.216h7.746Zm-5.669-3.398h2.761v13.416c0 .535.08.939.24 1.209.16.265.366.447.618.545.259.093.539.139.841.139.221 0 .415-.016.581-.046l.388-.074.499 2.28a4.63 4.63 0 0 1-.684.185 5.365 5.365 0 0 1-1.108.111 4.863 4.863 0 0 1-2.031-.388 3.482 3.482 0 0 1-1.523-1.256c-.388-.566-.582-1.277-.582-2.133V132.42Z"/>
</svg>
