<svg xmlns="http://www.w3.org/2000/svg" width="159" height="104" fill="none" viewBox="0 0 159 104">
  <path fill="#DFFC6E" fill-rule="evenodd" d="M76.38 3.5c25.945-2.58 41.62-6.612 58.12 7 15.773 13.01 25.683 21.047 24.045 37.749-1.467 14.946-17.454 19.441-30.977 31.394-15.465 13.671-25.527 18.785-51.188 18.514-25.448-.268-46.168 13.121-62.335 0C-.328 86.493.143 63.317 1.692 48.25c1.457-14.173 7.134-25.044 21.205-35.701C38.401.806 53.19 5.807 76.38 3.5Z" clip-rule="evenodd"/>
  <path fill="#000" d="m24.582 28.09 5.262 15.402h.213L35.32 28.09h3.083L31.6 47h-3.296l-6.805-18.91h3.084Zm19.405 0V47h-2.853V28.09h2.853ZM48.142 47V28.09h2.853v16.454h8.568V47H48.142Zm20.797 0h-6.121V28.09h6.315c1.853 0 3.444.38 4.773 1.137 1.33.75 2.349 1.83 3.056 3.24.715 1.404 1.072 3.087 1.072 5.05 0 1.97-.36 3.663-1.08 5.079-.715 1.416-1.749 2.505-3.103 3.268C72.497 46.621 70.86 47 68.939 47Zm-3.268-2.493h3.111c1.44 0 2.638-.27 3.592-.812.954-.548 1.668-1.34 2.142-2.373.474-1.04.71-2.309.71-3.804 0-1.484-.236-2.742-.71-3.776-.468-1.035-1.167-1.82-2.096-2.355-.93-.535-2.084-.803-3.462-.803H65.67v13.923Zm22.791-16.416h3.462l6.02 14.699h.222l6.02-14.7h3.462V47h-2.714V33.317h-.176l-5.576 13.655h-2.253l-5.577-13.665h-.175V47h-2.715V28.09ZM111.796 47V28.09h11.855v2.457h-9.002v5.761h8.384v2.447h-8.384v5.789h9.113V47h-11.966Zm21.788 0h-6.122V28.09h6.316c1.852 0 3.443.38 4.773 1.137 1.33.75 2.348 1.83 3.056 3.24.714 1.404 1.071 3.087 1.071 5.05 0 1.97-.36 3.663-1.08 5.079-.714 1.416-1.748 2.505-3.102 3.268-1.355.757-2.992 1.136-4.912 1.136Zm-3.269-2.493h3.112c1.44 0 2.637-.27 3.591-.812.954-.548 1.668-1.34 2.142-2.373.474-1.04.711-2.309.711-3.804 0-1.484-.237-2.742-.711-3.776-.467-1.035-1.166-1.82-2.096-2.355-.929-.535-2.083-.803-3.462-.803h-3.287v13.923ZM59.669 59.091h3.463l6.02 14.699h.221l6.02-14.7h3.462V78h-2.714V64.317h-.176L70.39 77.972h-2.253L62.56 64.308h-.175V78H59.67V59.09Zm26.187 0V78h-2.853V59.09h2.853Zm16.952 5.974a5.805 5.805 0 0 0-.72-1.505 4.62 4.62 0 0 0-1.062-1.145 4.452 4.452 0 0 0-1.413-.73 5.68 5.68 0 0 0-1.726-.249c-1.065 0-2.025.274-2.881.822-.856.548-1.533 1.35-2.031 2.41-.493 1.052-.739 2.342-.739 3.868 0 1.533.25 2.829.748 3.887.499 1.059 1.182 1.862 2.05 2.41.868.548 1.856.822 2.963.822 1.028 0 1.924-.21 2.687-.628a4.368 4.368 0 0 0 1.782-1.773c.425-.77.637-1.674.637-2.714l.739.138h-5.41v-2.354h7.432v2.151c0 1.588-.339 2.967-1.016 4.137a6.914 6.914 0 0 1-2.788 2.696c-1.182.633-2.536.95-4.063.95-1.71 0-3.213-.393-4.505-1.181-1.287-.788-2.29-1.905-3.01-3.352-.72-1.453-1.08-3.176-1.08-5.17 0-1.508.209-2.863.627-4.063.419-1.2 1.007-2.219 1.764-3.056a7.698 7.698 0 0 1 2.687-1.93c1.034-.449 2.163-.674 3.388-.674 1.022 0 1.973.151 2.853.453.887.301 1.674.73 2.364 1.283a7.266 7.266 0 0 1 2.65 4.497h-2.927Z"/>
</svg>
